<svg width="439" height="917" viewBox="0 0 439 917" fill="none" xmlns="http://www.w3.org/2000/svg">
<path d="M359.9 818C361.8 830 363.7 842.1 365.5 854.1C326 866.9 306.6 875 307.4 878.4C308.4 882.6 340 879.5 402.2 869.4C398.6 850.4 395.1 831.4 391.5 812.4C380.9 814.2 370.4 816.1 359.9 818Z" fill="#263238"/>
<path d="M274.9 416.2C274.2 429.8 273.2 449.2 272.3 472.7C271.4 497.6 270.9 510.6 271 526.6C271 533.5 271.3 561.6 274.9 597.8C277.9 628.3 282.6 673.9 299.3 730C305.9 752.2 316.1 782 332 816C339.3 817.1 347.9 817.7 357.7 817.3C376.1 816.4 391 811.9 401.3 807.7C398.3 797.9 394.1 784 389.7 767.3C383.8 744.7 366.8 676.6 360.2 585.1C356.9 539.1 355.7 481.7 361.5 415.7C332.7 415.8 303.8 416 274.9 416.2Z" fill="#BDBDE7"/>
<path opacity="0.09" d="M359 423.9C357.1 431.1 354.6 441.5 351.9 454.1C344.9 487.4 337.7 534.9 338.4 615.2C338.8 664.6 342.3 732.9 355.1 815.4C360.1 814.9 365.2 814.3 370.5 813.5C381.6 811.8 391.9 809.6 401.3 807.1C397.1 793.5 391.3 773.3 385.3 748.7C364 661 358 586.6 356.4 537.5C355.5 508.3 355.5 469.6 359 423.9Z" fill="#B3BACC"/>
<path d="M359.3 418.8C349.3 520 355.5 622.7 377.6 722C383.9 750.2 391.4 778 400.2 805.5C400.8 807.3 403.7 806.5 403.1 804.7C372.3 708 356.9 606.6 357.7 505.1C357.9 476.3 359.5 447.4 362.3 418.7C362.5 416.9 359.5 416.9 359.3 418.8Z" fill="#3E3E70"/>
<path d="M270.8 508.5C267.1 590.5 278.6 673 304.4 750.9C311.6 772.7 320 794.1 329.5 815C330.3 816.8 332.9 815.2 332.1 813.5C298.6 739 278.9 658.5 274.2 577C272.9 554.2 272.8 531.4 273.8 508.5C273.9 506.5 270.9 506.6 270.8 508.5Z" fill="#3E3E70"/>
<path d="M330.7 815.9C334.1 819.7 341.9 818.8 346.5 818.9C353.5 819 360.6 818.3 367.5 817.3C375 816.2 382.5 814.6 389.9 812.8C393.6 811.9 401.3 811.7 403.2 807.6C404 805.9 401.4 804.3 400.6 806.1C399.7 808.2 394.7 808.6 392.8 809C390 809.7 387.3 810.3 384.5 811C379.2 812.2 374 813.3 368.7 814.1C363.2 815 357.7 815.6 352.2 815.8C348 816 336 817.3 332.9 813.8C331.5 812.3 329.4 814.5 330.7 815.9Z" fill="#3E3E70"/>
<path d="M245.4 415.6C242.5 421.9 238.6 433.9 235.8 444.5C232.3 458 231.4 466.1 229.4 477.9C225.7 499.7 223.2 503.4 217.8 527.3C212.1 552.9 209.5 572.6 207.5 588.3C205.9 600.5 203 625.4 201.7 657.6C201.1 671.5 200.8 679.7 201.1 691C201.9 726.5 207.6 754 210.1 764.8C216.8 794.5 226.6 819.9 236.4 840.5C240.9 842.8 247.7 845.7 256.3 847.6C266.9 849.9 280.5 852.9 293.5 846.3C297.1 844.5 305.3 839.5 311.5 827.7C306.7 814.6 300.8 796 296.1 773.2C284.5 716.6 288.7 671.8 291.6 643.6C297 590.3 309.4 550.3 330.7 481.3C337.9 458.1 344.3 439.3 348.7 426.8C350.2 416.9 353.7 387.2 337.8 374.8C314.5 356.4 260.2 383.7 245.4 415.6Z" fill="#BDBDE7"/>
<path opacity="0.08" d="M334.599 468.8C328.099 479.1 319.099 494.4 310.199 513.7C299.199 537.5 282.999 579.3 274.299 662.6C269.499 708.1 266.299 771.8 273.699 848.7C276.799 849 289.999 850.1 301.299 841C307.099 836.3 310.099 830.9 311.599 827.5C306.699 814 300.399 794.2 295.599 769.7C281.399 698.3 290.299 640.9 296.899 600.9C302.299 567.5 312.799 521.4 334.599 468.8Z" fill="#B3BACC"/>
<path d="M261.1 847.4C264.5 859.6 267.9 871.9 271.3 884.1C217.7 900.4 191.4 910.6 192.3 914.6C193.3 919.2 229.8 915.8 301.8 904.4C299.9 884.8 298 865.3 296.2 845.7C284.4 846.2 272.7 846.8 261.1 847.4Z" fill="#263238"/>
<path d="M244.3 416.8C233.7 443.6 228.3 472 222.6 500.2C216.6 529.7 210.8 559.2 206.6 589C198.8 644.2 196.4 700.7 207.1 755.7C212.8 785.3 222.4 814.1 236.5 840.7C237.4 842.4 240 840.9 239.1 839.2C185.6 737.5 201.8 618.5 223.6 510.6C229.9 479.3 235.5 447.4 247.3 417.6C247.9 415.8 245 415 244.3 416.8Z" fill="#3E3E70"/>
<path d="M333.3 468.6C299.8 557.9 277.4 653.9 290.4 749.6C294 776 300.3 801.9 309.5 826.9C310.2 828.7 313.1 827.9 312.4 826.1C279.1 736.2 285.9 637.6 310.9 546.5C318.1 520.4 326.7 494.7 336.2 469.3C336.9 467.5 334 466.8 333.3 468.6Z" fill="#3E3E70"/>
<path d="M236.8 840.6C250.9 848.4 267.1 851.7 283.1 849.6C296.2 847.8 311.4 841.8 312.7 826.7C312.9 824.8 309.9 824.8 309.7 826.7C308.3 842.4 289.3 846.6 276.4 847.2C263.1 847.8 250 844.5 238.4 838C236.6 837.1 235.1 839.7 236.8 840.6Z" fill="#3E3E70"/>
<path d="M354 282.9C352.14 263.515 345.391 235.502 332.064 180.186C331.779 179.003 331.491 177.808 331.2 176.6C327 159 322.7 142.2 309.7 137.4C291.7 130.6 269.6 151.5 266 155M354 282.9L352.507 283.043C352.507 283.043 352.507 283.043 352.507 283.043M354 282.9C357 314.2 362.2 358.8 371.7 414.5M354 282.9L352.507 283.043M352.507 283.043C350.657 263.765 343.929 235.842 330.554 180.324C330.286 179.211 330.015 178.087 329.742 176.951L329.741 176.948C327.634 168.12 325.539 159.669 322.387 152.828C319.243 146.002 315.15 141.011 309.18 138.807L309.17 138.803C300.839 135.656 291.346 138.87 283.207 143.632C275.219 148.306 268.943 154.234 267.098 156.024M352.507 283.043C355.493 314.2 360.656 358.516 370.064 413.827M267.098 156.024C267.114 156.005 267.13 155.986 267.146 155.967L266 155M267.098 156.024C267.08 156.042 267.063 156.059 267.045 156.076L266 155M267.098 156.024C264.442 159.177 260.729 163.976 257.212 170.327L257.208 170.335L257.203 170.342C245.109 191.581 244.3 212.437 244.1 231.014M266 155C263.3 158.2 259.5 163.1 255.9 169.6C243.6 191.2 242.8 212.4 242.6 231M244.1 231.014C244.1 231.013 244.1 231.012 244.1 231.011L242.6 231M244.1 231.014C244.1 231.014 244.1 231.015 244.1 231.016L242.6 231M244.1 231.014C244.094 231.838 244.088 232.649 244.082 233.449C243.891 258.939 243.789 272.531 246.593 301.053L246.593 301.054C249.288 328.604 249.995 368.032 240.452 418.248M242.6 231C242.594 231.826 242.588 232.639 242.582 233.44C242.39 258.944 242.288 272.599 245.1 301.2C247.8 328.8 248.5 368.4 238.8 418.9M240.452 418.248C240.194 418.062 239.94 417.876 239.689 417.692L238.8 418.9M240.452 418.248C240.392 418.559 240.333 418.871 240.273 419.183L238.8 418.9M240.452 418.248C249.008 424.43 261.268 431.41 277.142 435.14M238.8 418.9C247.5 425.3 260.2 432.7 276.8 436.6M276.8 436.6L277.142 435.14M276.8 436.6L277.143 435.14C277.143 435.14 277.142 435.14 277.142 435.14M276.8 436.6C324.6 447.8 364.2 419.9 371.7 414.5M277.142 435.14C322.824 445.843 360.985 420.287 370.064 413.827M371.7 414.5L370.221 414.752C370.169 414.443 370.116 414.135 370.064 413.827M371.7 414.5L370.823 413.283C370.598 413.445 370.345 413.627 370.064 413.827" fill="white" stroke="#3E3E70" stroke-width="3"/>
<path d="M265.9 164.6C266.8 166.4 268.3 167 271.6 168.6C274.4 170 277.1 171.7 279.9 172.9C288.5 176.6 298.6 193 300.2 195.6C306.3 205.5 313.4 217.1 317.5 233.9C318.6 238.3 321.1 249.7 318.2 288.2C315.1 327.7 311.1 333.2 314.2 352.9C316.5 367.2 319.4 384.3 333.5 393.6C346.6 402.2 361.7 399.2 364.8 398.6C383.8 394.9 394.6 380.2 405.1 365.9C421.1 344.2 427.2 322.5 429.8 309.9C431 304 430.8 286.7 430.5 252.2C430.1 216.6 429.5 204.3 420.2 193.9C413.9 186.9 406.2 183.6 400.9 181.9C401.3 179.7 401.4 176.4 399.6 173.6C396.2 168.4 388.1 168.5 382.9 168.6C360.6 169.2 344 184.2 343.2 184.9C329.3 197.8 325.2 213.6 323.9 220.2C321.1 207.8 316.5 198.3 312.9 192.2C309.8 186.9 305.2 181.5 295.9 170.5C288.6 161.9 285.1 158.6 279.6 156.8C278.4 156.4 269.3 153.7 266.3 157.8C264.9 159.7 264.9 162.6 265.9 164.6Z" fill="#F0F0F0"/>
<path d="M376.699 183.3C374.899 185.7 372.599 189.2 370.799 193.8C369.799 196.5 367.399 202.8 367.999 210.8C369.099 226.7 380.499 236.4 382.599 238.1C383.999 239.2 385.199 240.1 385.999 240.6C384.799 244.7 383.399 250.8 382.899 258.3C382.099 268.9 381.299 280.8 387.499 284.3C391.499 286.5 397.499 285 400.799 281.8C401.599 281 403.899 278.5 404.499 267.2C405.199 253.8 402.399 248.2 406.399 244.3C408.099 242.5 410.999 241.4 413.499 240.3C416.299 239.1 418.799 238.5 420.599 238.1C419.499 246.3 418.699 253.6 418.099 259.5C417.399 266.8 417.099 270.5 419.599 272.8C421.899 274.9 425.699 275.3 428.599 274C432.399 272.3 433.599 267.6 435.699 258.2C437.399 250.8 438.799 244.6 437.899 236.2C437.399 231.9 436.499 228.4 435.699 226C435.499 224.3 434.999 221.8 434.199 218.9C432.499 213.1 430.899 211.4 429.899 207.7C428.399 202.4 430.099 199.8 430.499 193.8C430.899 189.1 430.499 182.4 427.099 174C425.799 174.1 423.099 174.3 420.299 176.2C416.899 178.4 415.499 181.6 414.999 182.7C412.399 182.1 407.699 181.5 402.299 183C392.999 185.5 388.099 192.4 386.799 194.5C389.399 188.8 387.199 183.2 383.699 181.8C380.699 180.5 377.099 183.1 376.699 183.3Z" fill="#263238"/>
<path d="M387.999 214.3C388.999 212.4 393.999 208.2 395.699 211.7C396.499 213.4 399.099 211.9 398.299 210.2C397.199 207.9 394.499 207.2 392.099 207.7C389.199 208.2 386.799 210.2 385.399 212.8C384.499 214.5 387.099 216 387.999 214.3Z" fill="#F0F0F0"/>
<path d="M417.299 206.6C417.899 205.3 418.499 203.8 419.499 202.8C420.499 201.8 423.499 200.7 423.599 203C423.699 204.9 426.699 204.9 426.599 203C426.399 200.1 423.899 198.2 420.999 198.6C417.699 199.2 415.999 202.2 414.699 205C413.899 206.8 416.499 208.4 417.299 206.6Z" fill="#F0F0F0"/>
<path d="M418.099 216.1C418.099 216.2 418.099 216.3 418.099 216.4C417.899 216.6 417.699 216.8 417.599 216.9C417.099 217.2 416.299 216.9 416.399 216.3C416.399 216.3 416.399 216 416.499 216.1L416.199 216.4C416.899 216.4 417.599 216.4 418.299 216.4C418.199 216.3 418.199 216.3 418.099 216.2C418.199 216.3 418.199 216.3 418.199 216.3C418.099 216.2 418.199 216.2 418.199 216.4C418.299 217 417.999 217.4 417.199 217.7C416.899 217.6 416.699 217.6 416.399 217.5C415.999 217.3 416.099 216.7 416.199 216.4C416.299 216.3 416.199 216.3 416.099 216.5C416.199 216.4 416.199 216.4 416.099 216.5C415.399 217 415.099 217.8 415.599 218.6C415.999 219.2 416.999 219.6 417.699 219.1C418.399 218.6 419.099 217.9 419.199 216.9C419.199 215.8 418.399 214.8 417.299 214.8C416.199 214.8 415.399 215.5 415.299 216.6C415.199 217.4 415.699 218.1 416.199 218.6C416.799 219.2 417.699 219.1 418.299 218.6C419.599 217.6 419.899 215.5 418.399 214.5C417.699 214.1 416.799 214 416.099 214.4C415.199 214.9 415.099 216.1 415.299 217C415.399 217.8 416.399 218.2 417.099 218C417.899 217.7 418.199 216.9 418.099 216.1Z" fill="#F0F0F0"/>
<path d="M402.099 219.2C399.199 220.9 395.299 220.1 393.399 217.3C392.299 215.7 389.699 217.2 390.799 218.8C393.699 222.9 399.199 224.3 403.699 221.8C405.299 220.8 403.799 218.2 402.099 219.2Z" fill="#F0F0F0"/>
<path d="M399.9 225.7C397.7 227.4 395.8 229.6 394.5 232.1C393.6 233.8 396.2 235.3 397.1 233.6C398.3 231.3 400 229.4 402.1 227.8C402.7 227.3 402.6 226.2 402.1 225.7C401.4 225.1 400.5 225.2 399.9 225.7Z" fill="#F0F0F0"/>
<path d="M424.199 214.7C426.199 212.4 427.699 209.8 428.699 206.9C429.299 205.1 426.4 204.3 425.8 206.1C425 208.5 423.7 210.7 422.1 212.6C420.9 214.1 422.999 216.2 424.199 214.7Z" fill="#F0F0F0"/>
<path d="M424.399 218.5C426.799 218 429.599 217.4 431.499 219.4C432.799 220.8 434.899 218.7 433.599 217.3C430.899 214.4 426.999 214.9 423.499 215.7C421.699 216 422.499 218.9 424.399 218.5Z" fill="#F0F0F0"/>
<path d="M264.699 162.3C269.299 155.1 280.199 159.4 285.699 163C292.299 167.2 297.299 173.5 301.799 179.8C310.899 192.5 318.999 206.3 321.999 221.8C322.399 223.7 325.299 222.9 324.899 221C321.399 202.5 310.599 184.7 298.399 170.5C291.299 162.3 271.199 146.8 262.099 160.9C261.099 162.4 263.699 164 264.699 162.3Z" fill="#3E3E70"/>
<path d="M270.9 169.1C294.9 182.6 308.4 207.9 315.2 233.7C315.7 235.6 318.6 234.8 318.1 232.9C311.1 206.4 297 180.3 272.4 166.5C270.7 165.5 269.2 168.1 270.9 169.1Z" fill="#3E3E70"/>
<path d="M324.899 220.5C327.399 202.8 338.699 188 354.199 179.5C362.199 175.1 371.099 172.4 380.199 171.1C384.499 170.5 389.499 169.9 393.699 171.5C398.299 173.2 402.699 180.5 396.899 183.8C395.199 184.7 396.699 187.3 398.399 186.4C404.799 182.8 403.199 173.6 397.599 170.1C388.899 164.6 374.499 168.5 365.599 171.5C343.599 178.6 325.399 196.4 322.099 219.9C321.699 221.6 324.599 222.4 324.899 220.5Z" fill="#3E3E70"/>
<path d="M331.599 225C336.499 219.3 342.699 214.5 348.699 210C354.499 205.6 360.699 202 367.899 200.4C369.799 200 368.999 197.1 367.099 197.5C359.699 199.2 353.199 202.9 347.199 207.4C340.999 212.1 334.599 217 329.499 222.9C328.199 224.3 330.299 226.5 331.599 225Z" fill="#3E3E70"/>
<path d="M368.299 200.7C370.399 195.9 373.099 191.3 376.399 187.2C376.999 186.5 377.699 185.3 378.499 184.8C379.199 183.5 380.099 183.4 381.399 184.6C382.999 184.6 383.699 185.2 383.699 186.6C384.799 188.7 384.899 192.3 385.299 194.7C385.699 196.6 388.599 195.8 388.199 193.9C387.399 190.1 386.399 176.5 379.199 180.2C376.399 181.6 374.299 185.1 372.499 187.5C369.799 191.2 367.599 195.1 365.699 199.2C364.899 200.9 367.499 202.5 368.299 200.7Z" fill="#3E3E70"/>
<path d="M387.6 195.6C392.7 189 403.1 179.9 412 184.8C413.7 185.7 415.2 183.1 413.5 182.2C403.2 176.7 391.6 185.7 385.4 193.5C384.3 195 386.4 197.1 387.6 195.6Z" fill="#3E3E70"/>
<path d="M414.9 184.3C416.3 182.1 422.8 174.2 425.6 176.3C427.1 177.4 427.4 181.3 427.8 183.1C428.4 185.9 428.599 188.7 428.699 191.6C428.799 193.5 431.799 193.5 431.699 191.6C431.599 187.6 431.1 183.7 430.1 179.8C429.5 177.6 429 173.4 426.4 172.7C424 172.1 420.7 174.4 418.9 175.7C416.2 177.6 414.1 180 412.4 182.8C411.3 184.4 413.9 185.9 414.9 184.3Z" fill="#3E3E70"/>
<path d="M335.5 220.1C342.4 226.8 349.7 233 357.5 238.6C365.2 244.1 372.7 248 382.4 247.5C384.3 247.4 384.3 244.4 382.4 244.5C372.5 245 365.2 240.6 357.5 235C350.4 229.8 343.8 224.1 337.5 218C336.2 216.7 334.1 218.8 335.5 220.1Z" fill="#3E3E70"/>
<path d="M315.299 230.4C326.199 278.8 297.799 331.7 321.299 378C325.699 386.7 332.399 394.6 341.599 398.5C350.599 402.3 360.999 402 370.299 399C390.899 392.4 404.199 373.3 414.399 355.3C420.899 344 426.299 331.9 429.499 319.2C431.099 312.9 432.099 306.3 432.399 299.8C432.699 292.3 431.699 284.8 431.999 277.3C432.099 275.4 429.099 275.4 428.999 277.3C428.599 289.5 430.199 301.1 427.799 313.2C425.699 324 421.799 334.5 416.899 344.3C407.799 362.7 395.499 383.4 376.599 393.1C366.799 398.1 354.699 400 344.199 396.1C333.899 392.3 327.099 383.2 322.699 373.5C313.299 352.4 314.399 328.4 316.899 306C319.699 280.6 324.099 254.9 318.399 229.5C317.699 227.8 314.799 228.5 315.299 230.4Z" fill="#3E3E70"/>
<path d="M359.8 330.5C354.2 340.3 350.5 350.9 348.9 362.1C348.6 364 351.5 364.8 351.8 362.9C353.4 351.9 356.9 341.6 362.4 332C363.4 330.4 360.8 328.9 359.8 330.5Z" fill="#3E3E70"/>
<path d="M361.699 331.6C376.499 330.3 392.099 327.5 406.899 329.1C408.799 329.3 408.799 326.3 406.899 326.1C392.099 324.4 376.499 327.3 361.699 328.6C359.799 328.8 359.799 331.8 361.699 331.6Z" fill="#3E3E70"/>
<path d="M350.399 364.8C357.699 369.1 366.199 368.7 374.399 368.5C382.999 368.2 391.599 367.2 399.099 362.7C400.799 361.7 399.199 359.1 397.599 360.1C390.499 364.4 382.499 365.2 374.399 365.5C366.799 365.8 358.799 366.3 351.899 362.3C350.299 361.3 348.799 363.9 350.399 364.8Z" fill="#3E3E70"/>
<path d="M405.5 328.4C403.6 339.4 400.7 350 396.8 360.4C396.1 362.2 399 363 399.7 361.2C403.7 350.8 406.6 340.1 408.4 329.2C408.7 327.3 405.8 326.5 405.5 328.4Z" fill="#3E3E70"/>
<path d="M359 335.7C363.9 346.5 377.8 349.2 388.5 349.3C390.4 349.3 390.4 346.3 388.5 346.3C378.9 346.1 366 343.9 361.6 334.1C360.8 332.4 358.2 334 359 335.7Z" fill="#3E3E70"/>
<path d="M380.599 345.4C380.299 347.9 380 350.4 379.7 352.8C379.5 354.7 382.5 354.7 382.7 352.8C383 350.3 383.299 347.8 383.599 345.4C383.799 343.5 380.799 343.5 380.599 345.4Z" fill="#3E3E70"/>
<path d="M386.299 345.4C385.999 347.9 385.699 350.4 385.499 352.9C385.299 354.8 388.299 354.8 388.499 352.9C388.799 350.4 389.099 347.9 389.299 345.4C389.499 343.5 386.499 343.5 386.299 345.4Z" fill="#3E3E70"/>
<path d="M388.9 349.6C396 348 401.9 343.6 405.6 337.4C406.6 335.7 404 334.2 403 335.9C399.6 341.5 394.4 345.2 388.1 346.7C386.2 347.2 387 350.1 388.9 349.6Z" fill="#3E3E70"/>
<path d="M366.999 195.3C363.999 213 367.299 234.1 385.399 242.2C387.099 243 388.699 240.4 386.899 239.6C369.999 232 367.099 212.5 369.899 196.1C370.199 194.2 367.299 193.4 366.999 195.3Z" fill="#3E3E70"/>
<path d="M428.5 190.5C428.7 196.2 428.6 202 429.4 207.6C430.2 213.7 435.7 220.5 432.8 226.6C432 228.3 434.6 229.9 435.4 228.1C438 222.6 435.7 218 433.8 212.6C431.3 205.7 431.899 197.7 431.599 190.4C431.399 188.5 428.4 188.5 428.5 190.5Z" fill="#3E3E70"/>
<path d="M393.599 240.1C397.999 237.8 402.999 240.2 403.999 245C404.099 245.5 404.799 245.3 404.699 244.8C403.499 239.5 397.999 236.9 393.199 239.4C392.799 239.7 393.199 240.4 393.599 240.1Z" fill="#F0F0F0"/>
<path d="M401.2 245.2C401.9 246 402.4 246.9 402.7 247.9C402.9 248.4 403.6 248.2 403.4 247.7C403 246.6 402.4 245.6 401.7 244.7C401.4 244.3 400.8 244.9 401.2 245.2Z" fill="#F0F0F0"/>
<path d="M421.3 238.2C422.2 234.1 424.8 230.7 428.6 228.8C429 228.6 428.7 227.9 428.2 228.2C424.2 230.1 421.5 233.7 420.6 238C420.5 238.5 421.2 238.7 421.3 238.2Z" fill="#F0F0F0"/>
<path d="M245.2 26.2002C238.3 29.7002 232.5 36.3002 229.9 39.2002C223.5 46.5002 220.2 53.3002 216.6 60.9002C213.6 67.1002 210.1 75.9002 207.3 86.9002C211.2 87.6002 215.1 88.2002 219 88.9002C218.8 92.7002 218.8 98.3002 220.3 104.9C221.7 110.9 224 120.5 232 127.2C243 136.6 257.6 134.3 260.3 133.9C260.5 138.6 261.5 145.3 265.3 152.2C266.3 153.9 267.3 155.5 268.3 156.9C273.8 155.3 282.3 152 290.6 145.2C311.8 128.1 314.7 102.6 315.6 95.2002C316.9 83.8002 319.4 62.3002 305.3 44.5002C290.6 26.1002 262.7 17.4002 245.2 26.2002Z" fill="#FAE3C3"/>
<path d="M224.7 47.0002C227.5 42.8002 232.9 36.6002 239 32.3002C248.8 25.4002 253.2 28.3002 258.2 22.2002C261.8 17.8002 264.1 10.6002 261.4 7.20017C257.1 1.80017 241.8 8.30017 239.8 9.20017C235.4 11.1002 220.9 17.2002 215.1 32.6002C210.3 45.5002 213.5 59.6002 215.7 59.9002C216.3 60.0002 216.7 59.0002 219.9 54.1002C221.4 51.6002 223.1 49.3002 224.7 47.0002Z" fill="#3E3E70"/>
<path d="M246.499 16.9001C245.699 19.5001 244.499 24.7001 248.499 34.9001C255.599 53.2001 272.199 69.6001 280.499 66.6001C282.299 65.9001 284.199 64.1001 287.799 63.9001C288.699 63.9001 292.299 63.7001 295.099 65.9001C299.499 69.4001 299.699 77.0001 296.799 81.9001C296.299 82.8001 293.599 86.9001 289.499 87.2001C285.899 87.5001 284.699 84.7001 281.799 84.5001C274.699 84.1001 268.599 99.7001 267.799 101.8C266.199 105.8 262.299 116.2 265.099 129.5C265.699 132.4 267.099 138.5 271.399 144.8C280.699 158.3 296.299 161.6 302.099 162.8C307.799 164 329.499 168.5 346.399 154.5C349.099 152.3 357.999 144.7 360.399 131.8C364.499 110 346.199 93.7001 345.099 92.8001C344.299 81.5001 341.599 63.5001 332.099 43.8001C326.099 31.3001 320.499 19.8001 307.799 11.1001C291.099 -0.199881 266.799 -3.39989 254.099 6.40011C252.799 7.60011 248.499 11.0001 246.499 16.9001Z" fill="#3E3E70"/>
<path d="M227.5 124.2C226 125.7 221.6 130.3 220.8 137.5C219.7 147.5 226.4 154.4 227.8 155.8C235.1 163.3 247.3 166.3 256.1 161.8C256.8 161.5 264.5 157.4 264.8 151.5C264.9 148.9 263.5 147.6 261.5 141.8C260.2 138 259.4 134.9 258.8 132.8C256.1 133.7 251.5 134.9 245.8 134.1C235.6 132.8 229.3 126.2 227.5 124.2Z" fill="#3E3E70"/>
<path opacity="0.14" d="M208.4 85.1001C208.5 83.5001 213.6 82.2001 217.9 82.5001C221.7 82.8001 226.2 84.5001 226.1 86.0001C226 87.4001 221.8 88.5001 218.7 88.6001C213.9 88.8001 208.4 86.7001 208.4 85.1001Z" fill="#B3BACC"/>
<path d="M220.8 47.9002C215.1 60.4002 210 73.1002 205.6 86.1002C205.3 86.9002 205.9 87.7002 206.6 87.9002C210.5 89.4002 214.4 90.1002 218.5 90.0002C220.4 90.0002 220.4 87.0002 218.5 87.0002C214.6 87.0002 211 86.3002 207.4 85.0002C207.7 85.6002 208.1 86.2002 208.4 86.8002C212.7 74.0002 217.6 61.5002 223.3 49.3002C224.2 47.7002 221.6 46.1002 220.8 47.9002Z" fill="#3E3E70"/>
<path d="M218.1 90.6C218.9 103.5 220.1 117.8 229.7 127.5C238.9 136.9 252.2 136.1 264.3 134.7C266.2 134.5 266.2 131.5 264.3 131.7C253.1 133 240.4 134.1 231.8 125.4C222.8 116.3 221.9 102.7 221.1 90.6C221 88.7 218 88.7 218.1 90.6Z" fill="#3E3E70"/>
<path d="M258.4 135C259.7 142 262.1 148.7 265.5 154.9C266.4 156.6 269 155.1 268.1 153.4C264.8 147.3 262.6 141 261.3 134.2C261 132.3 258.1 133.1 258.4 135Z" fill="#3E3E70"/>
<path d="M220.1 105.9C225 110.2 232.3 108.2 234.2 101.9C234.8 100 231.9 99.3001 231.3 101.1C230.1 105.1 225.4 106.6 222.3 103.7C220.8 102.5 218.7 104.6 220.1 105.9Z" fill="#3E3E70"/>
<path d="M229.3 101.8C230.9 102.2 232.1 103.1 233.1 104.3C233.6 104.9 234.7 104.8 235.2 104.3C235.8 103.7 235.7 102.8 235.2 102.2C233.9 100.6 232.1 99.4 230.1 98.9C228.3 98.4 227.5 101.3 229.3 101.8Z" fill="#3E3E70"/>
<path d="M233.8 64.4001C234.6 60.2001 239.8 61.0001 242.6 62.5001C245 63.8001 246.7 65.9001 247.7 68.4001C248.4 70.2001 251.3 69.4001 250.6 67.6001C249 63.3001 245.7 59.9001 241.1 58.7001C236.9 57.6001 231.9 58.9001 231 63.6001C230.6 65.5001 233.5 66.3001 233.8 64.4001Z" fill="#3E3E70"/>
<path d="M233.7 46.7002C238.2 39.2002 247 45.0002 248.8 51.3002C249.3 53.2002 252.2 52.4002 251.7 50.5002C250.4 45.9002 247.2 41.6002 242.3 40.4002C237.9 39.4002 233.4 41.3002 231.1 45.1002C230.1 46.9002 232.7 48.4002 233.7 46.7002Z" fill="#3E3E70"/>
<path d="M236.7 81.4001C238.6 81.4001 238.6 78.4001 236.7 78.4001C234.8 78.4001 234.7 81.4001 236.7 81.4001Z" fill="#3E3E70"/>
<path d="M242.4 76.9001C242.5 76.9001 242.7 76.9001 242.8 76.9001C243.6 76.9001 244.3 76.2001 244.3 75.4001C244.3 74.6001 243.6 73.9001 242.8 73.9001C242.7 73.9001 242.5 73.9001 242.4 73.9001C241.6 73.9001 240.9 74.6001 240.9 75.4001C240.9 76.3001 241.6 76.9001 242.4 76.9001Z" fill="#3E3E70"/>
<path d="M242.5 82.0002C242.5 82.1002 242.5 82.2002 242.5 82.3002C242.5 84.2002 245.5 84.2002 245.5 82.3002C245.5 82.2002 245.5 82.1002 245.5 82.0002C245.5 80.1002 242.5 80.1002 242.5 82.0002C242.5 82.1002 242.5 82.2002 242.5 82.3002C242.5 84.2002 245.5 84.2002 245.5 82.3002C245.5 82.2002 245.5 82.1002 245.5 82.0002C245.5 80.1002 242.5 80.1002 242.5 82.0002Z" fill="#3E3E70"/>
<path d="M286.099 66.7002C288.799 62.8002 293.399 65.3002 294.999 68.5002C296.299 71.0002 296.299 74.0002 296.199 76.7002C295.799 83.5002 290.099 88.3002 283.499 84.1002C281.899 83.0002 280.399 85.6002 281.999 86.7002C285.899 89.3002 290.899 89.6002 294.799 86.6002C298.799 83.5002 299.499 78.4002 299.199 73.6002C298.899 69.0002 297.099 63.9002 292.299 62.2002C288.899 61.0002 285.499 62.3002 283.499 65.2002C282.499 66.7002 285.099 68.2002 286.099 66.7002Z" fill="#3E3E70"/>
<path d="M17.0994 9.59991C14.9994 9.59991 12.8995 9.69991 10.8995 9.69991C7.49948 16.2999 5.59945 22.2999 4.49945 26.6999C1.29945 39.5999 2.09946 50.2999 2.69946 55.4999C3.09946 58.9999 3.69946 61.8999 4.19946 63.8999C5.99946 63.8999 7.79943 63.8999 9.59943 63.8999C10.2994 66.2999 10.9995 68.6999 11.6995 71.0999C28.5995 70.9999 42.4995 70.9999 52.1995 71.0999C110.999 71.5999 151.999 73.8999 161.499 74.3999C173.399 75.0999 183.099 75.7999 189.099 76.1999C189.299 72.4999 190.299 71.1999 191.199 70.7999C192.799 70.0999 194.199 71.7999 196.299 71.3999C198.499 70.9999 199.899 68.6999 200.799 66.5999C202.599 67.4999 205.899 68.6999 209.799 68.0999C210.699 67.9999 211.499 67.6999 212.199 67.4999C213.899 64.0999 215.599 60.6999 217.299 57.2999C214.899 56.4999 211.499 55.7999 207.399 55.7999C205.099 55.7999 203.099 56.0999 201.399 56.3999C201.199 55.8999 199.599 51.3999 195.399 50.3999C194.099 50.0999 192.999 50.1999 192.099 50.3999C191.499 49.2999 190.899 48.1999 190.299 47.0999C187.899 46.6999 184.199 46.0999 179.799 45.2999C144.099 38.7999 119.199 30.8999 100.199 25.1999C81.9995 19.6999 55.4995 12.1999 21.4995 3.8999C20.0995 5.7999 18.5994 7.69991 17.0994 9.59991Z" fill="#263238"/>
<path d="M19.1995 4.00002C6.69947 23.3 3.19944 47.3 9.59944 69.4C10.0994 71.3 12.9995 70.5 12.4995 68.6C6.29946 47.2 9.69945 24.2 21.7994 5.50002C22.8995 3.80002 20.2995 2.30002 19.1995 4.00002Z" fill="#E0E0E0"/>
<path d="M21.7998 6.90008C78.0998 21.1001 134.3 35.3001 190.6 49.4001C192.5 49.9001 193.3 47.0001 191.4 46.5001C135.1 32.3001 78.8998 18.1001 22.5998 4.00008C20.7998 3.50008 19.9998 6.40008 21.7998 6.90008Z" fill="#263238"/>
<path d="M11.6994 72.7C70.3994 72.2 129.099 73.6 187.699 76.8C189.599 76.9 189.599 73.9 187.699 73.8C129.099 70.6 70.3994 69.2 11.6994 69.7C9.79941 69.7 9.79941 72.7 11.6994 72.7Z" fill="#263238"/>
<path d="M189.699 48.3001C193.699 57.2001 192.799 67.3001 187.299 75.4001C186.199 77.0001 188.799 78.5001 189.899 76.9001C195.999 67.9001 196.799 56.7001 192.299 46.8001C191.499 45.1001 188.899 46.6001 189.699 48.3001Z" fill="#B3BACC"/>
<path d="M192.7 52.1999C193.8 52.9999 194.6 52.6999 195.9 52.9999C198.4 53.6999 199.4 55.9999 199.9 58.3999C200.7 62.7999 199.6 72.0999 193.1 69.4999C191.3 68.7999 190.5 71.6999 192.3 72.3999C198.9 74.9999 203.2 68.0999 203.2 62.2999C203.2 59.0999 202.8 55.4999 201 52.7999C200.4 51.8999 199.6 50.9999 198.6 50.4999C197.3 49.8999 195.5 50.2999 194.4 49.4999C192.6 48.4999 191.1 51.0999 192.7 52.1999Z" fill="#263238"/>
<path d="M201.5 57.7001C206.6 57.4001 211.7 57.5001 216.7 58.2001C218.6 58.4001 218.6 55.4001 216.7 55.2001C211.6 54.6001 206.6 54.4001 201.5 54.7001C199.6 54.9001 199.6 57.9001 201.5 57.7001Z" fill="#263238"/>
<path d="M201.1 68.7C205.2 69.4 209.3 69.7 213.4 69.3C215.3 69.1 215.3 66.1 213.4 66.3C209.5 66.6 205.7 66.5 201.9 65.8C200 65.5 199.2 68.3 201.1 68.7Z" fill="#263238"/>
<path d="M17.4996 8.80011C7.79959 3.20011 5.09958 20.7001 3.79958 26.2001C0.799579 38.9001 -0.600433 52.0001 3.09957 64.7001C3.29957 65.3001 3.89959 65.8001 4.49959 65.8001C5.79959 65.8001 7.19959 65.8001 8.49959 65.8001C10.3996 65.8001 10.3996 62.8001 8.49959 62.8001C7.19959 62.8001 5.79959 62.8001 4.49959 62.8001C4.99959 63.2001 5.49962 63.5001 5.89962 63.9001C3.29962 54.7001 3.29958 45.4001 4.79958 36.0001C5.49958 31.8001 6.39959 27.6001 7.49959 23.5001C8.19959 20.8001 10.3996 8.1001 15.8996 11.4001C17.6996 12.4001 19.1996 9.80011 17.4996 8.80011Z" fill="#263238"/>
<path d="M125.6 30.3C123.8 28.1 120.8 28.4 120.4 28.4C117.1 28.6 113.9 31.6 110.4 38.9C103.6 52.8 103.3 66.7 103.3 68.9C103.2 78.5 104.1 94.1 110.9 112.7C111.5 120.5 112.8 131.4 115.7 144.1C120.8 166.9 126.2 190.9 144.8 212.2C151.8 220.3 165.6 236 189.6 241.7C214.7 247.7 235.1 238.8 240.1 236.5C244.5 234.4 256.8 228.2 267.2 215.1C273.5 207.2 280.8 198.6 279.6 188C279.1 183.4 277.1 179.5 274.1 173.3C271.1 167.1 269.5 164 266.3 162.8C261.9 161.1 257.2 164.1 252 167.1C243.2 172.1 242.4 176.9 232.9 181.9C230.4 183.2 227.9 184.1 222.9 185.7C215 188.3 207.2 190.9 200 191.4C184.3 192.5 171.7 183.5 168.1 180.9C154.8 171.4 149.6 158.7 146.2 150.4C138.6 131.8 139.2 114.7 140.5 104.7C145.2 103.9 148.1 102 149.5 100.9C154.8 96.8 156.1 91.1 158.1 82.3C159.4 76.8 160 73.9 158.6 72.8C155.7 70.6 146.8 77.8 144.8 79.5C145.2 72.7 146.2 67.2 147.2 63.3C148.5 58.1 149.2 55.4 151 53.3C154.5 49.2 158.6 49.6 160 45.7C160.8 43.6 160.7 40.7 159 39C157 37 152.7 37.1 149 40C147.8 37.4 145.4 35.8 142.8 35.7C140.2 35.6 138.5 37.2 138 37.6C138.3 34.9 137.1 32.4 135.1 31.4C132.4 30 128.1 31.6 126.5 35.7C126.6 35.2 127.3 32.4 125.6 30.3Z" fill="#FAE3C3"/>
<path opacity="0.12" d="M120.4 28.4001C118 32.6001 115 38.8001 113 46.9001C108.6 64.5001 112.2 79.2002 113.8 86.3002C131 159.6 123.5 161.4 135.5 178.6C139.9 184.8 170.1 226.4 215.1 220.9C252.8 216.3 272.8 182 275.4 177.4C276.9 181.4 278.7 188.2 277.5 196.3C275.7 208.2 268.3 215.7 265.6 218.5C263 221.1 259.8 223.4 253.3 227.9C247.5 232 241.8 235.6 239.3 236.9C227.4 243.6 209 245.2 196.2 243.5C161.4 238.9 140.5 205.9 131.8 192.2C111.9 160.9 109.9 129.2 110.1 113.4C108.2 107 106.3 100.5 104.4 94.1002C103.1 84.2002 103 76.0002 103.2 70.3002C103.7 56.0002 104.1 45.3001 111.4 36.2001C114.6 32.2001 118.1 29.8001 120.4 28.4001Z" fill="#B3BACC"/>
<path d="M255.8 226.4C271.6 218.9 282.2 203.2 279.6 185.4C278.1 174.6 269.4 156 255.5 162.6C249.3 165.6 244.2 171.1 238.5 175C230.6 180.4 221.5 184.6 212.4 187.5C200.8 191.2 187.9 192 176.7 186.4C168.5 182.3 162.1 175.6 157.2 168C146.4 151.3 140.8 131.6 142.1 111.7C142.2 109.8 139.2 109.8 139.1 111.7C138 128.5 141.7 144.5 149.1 159.5C155.6 172.9 165.1 185.5 179.5 190.9C197 197.4 216.1 190.8 231.9 182.5C239 178.7 245.1 173.8 251.5 168.9C257.3 164.4 263.1 162.2 269 168.2C276.3 175.6 278.5 188.5 276.3 198.3C273.6 210 264.9 218.8 254.3 223.8C252.6 224.6 254.1 227.2 255.8 226.4Z" fill="#3E3E70"/>
<path d="M141.9 113C140.6 107.5 144.5 106.1 148.1 103.5C150.2 102 151.8 99.9 153.3 97.8C157.1 92.3 160.1 85.9 160.9 79.2C161.3 75.9 162 70.7 157.5 70.5C152.2 70.3 150 77 145 77.5C143.1 77.7 143.1 80.7 145 80.5C148.8 80.1 150.7 77.7 153.6 75.5C155.3 74.2 157.2 72.7 158.1 75.6C158.6 77.2 157.8 80.2 157.4 81.8C156.7 85.2 155.2 88.5 153.6 91.6C152.1 94.4 150.4 97.3 148.1 99.6C146 101.8 143.1 102.3 140.8 104.1C137.7 106.5 138.2 110.6 139 113.9C139.5 115.7 142.4 114.9 141.9 113Z" fill="#3E3E70"/>
<path d="M107 97.2001C105 84.3001 104.8 71.1001 106.8 58.2001C107.6 53.0001 108.6 47.7001 110.4 42.7001C111.5 39.6001 113 36.0001 115.2 33.5001C118.2 30.2001 124.1 28.5001 125.7 34.1001C126.2 36.0001 129.1 35.2001 128.6 33.3001C127.2 28.5001 122.6 25.9001 117.8 27.8001C111.7 30.3001 108.8 37.8001 106.9 43.5001C101.3 60.8001 101.3 80.2001 104 98.0001C104.4 99.9001 107.3 99.1001 107 97.2001Z" fill="#3E3E70"/>
<path d="M121.5 45.6001C123.9 39.7001 130.7 27.8001 138.1 35.9001C139.4 37.3001 141.5 35.2001 140.2 33.8001C136.8 30.1001 131.9 29.5001 127.6 32.0001C122.8 34.7001 120.6 40.0001 118.6 44.9001C117.9 46.6001 120.8 47.4001 121.5 45.6001Z" fill="#3E3E70"/>
<path d="M134.1 48.1002C134.2 44.3002 135.7 40.1002 139.4 38.3002C142.5 36.8002 146.2 37.5002 148.3 40.2002C149.5 41.7002 151.6 39.6002 150.4 38.1002C147.5 34.5002 142.3 33.6002 138.2 35.5002C133.4 37.8002 131.2 43.0002 131.1 48.1002C131 50.0002 134 50.0002 134.1 48.1002Z" fill="#3E3E70"/>
<path d="M142.8 49.1001C144.6 42.4001 152.1 36.3001 158.6 41.7001C160.1 42.9001 162.2 40.8001 160.7 39.6001C152.4 32.8001 142.4 39.2001 139.9 48.3001C139.4 50.2001 142.3 51.0001 142.8 49.1001Z" fill="#3E3E70"/>
<path d="M158 41.2C161.2 45.7 154.1 48.5 151.6 50.6C149.5 52.3 148.3 54.5 147.4 57C145 63.9 143.9 71.4 143.3 78.6C143.1 80.5 146.1 80.5 146.3 78.6C146.8 73.3 147.6 68 148.9 62.8C149.3 61.1 149.7 59.4 150.3 57.7C151.6 54.2 153.5 52.9 156.4 50.8C160 48.2 163.8 44 160.6 39.5C159.5 38.1 156.9 39.6 158 41.2Z" fill="#3E3E70"/>
<path d="M103.299 94.2001C104.899 101 106.9 107.7 109.4 114.3C110.1 116.1 112.999 115.3 112.299 113.5C109.799 106.9 107.8 100.2 106.2 93.4001C105.8 91.5001 102.899 92.3001 103.299 94.2001Z" fill="#3E3E70"/>
<path d="M108.9 116.2C112.7 150.6 121.2 185.9 144.3 212.7C162.7 234 191.9 250.2 220.7 244.9C234.3 242.4 246.7 235.6 256.6 226.1C258 224.8 255.9 222.6 254.5 224C234.7 243 206.5 248 181.4 236.7C154.4 224.4 135.5 201.3 124.8 174C117.6 155.5 114 135.9 111.8 116.3C111.7 114.3 108.7 114.3 108.9 116.2Z" fill="#3E3E70"/>
</svg>
