<svg width="1385" height="1090" viewBox="0 0 1385 1090" fill="none" xmlns="http://www.w3.org/2000/svg">
<path d="M2.69976 901.3C72.1998 870.3 151.1 874.3 224 889.7C301.1 906 375.3 934.4 453.1 947.6C496.2 954.9 540.2 957.5 583.6 950.7C585.5 950.4 584.7 947.5 582.8 947.8C502.2 960.3 421.6 940.3 344.5 918.5C270.7 897.6 196 874.4 118.4 875C78.1998 875.3 38.0998 882.3 1.19976 898.7C-0.600242 899.5 0.899758 902.1 2.69976 901.3Z" fill="#B3BACC"/>
<path d="M391.9 927.1C486.1 929 577.3 902.9 669.4 887.4C696.3 882.9 723.4 879.3 750.7 877.5C752.6 877.4 752.6 874.4 750.7 874.5C656.4 880.7 565.5 908.9 471.9 919.9C445.4 923 418.7 924.7 392 924.2C389.9 924.1 389.9 927.1 391.9 927.1Z" fill="#B3BACC"/>
<path d="M832.2 893.5C865.7 886.3 900.4 885.1 934.3 890.3C965.5 895.1 995.4 905.4 1024.9 916.4C1054 927.2 1082.9 938.7 1113.1 946.4C1144.3 954.3 1176 956.3 1208.2 956.3C1246.2 956.3 1284.5 954.8 1321.8 963.2C1323.7 963.6 1324.5 960.7 1322.6 960.3C1256.7 945.5 1188.4 960.5 1122.5 945.5C1061 931.5 1004.8 900 942.6 888.7C905.8 882 868 882.8 831.5 890.6C829.5 891 830.3 893.9 832.2 893.5Z" fill="#B3BACC"/>
<path d="M286 509C277.4 506.4 260.5 499.3 266.8 487.3C271.3 478.7 284.7 478 293 478.3C321 479.1 349 481.5 377 479.2C403.3 477 428.4 469.5 454 463.5C480 457.3 507.5 452.8 533.7 460.4C545.2 463.7 555.9 469.2 567.2 473C572.6 474.8 578.2 476.2 583.9 476.8C590.7 477.5 597.5 476.5 604.2 476.2C611.1 475.9 618.2 476.1 624.1 480.2C629.5 483.9 634 490.9 630.5 497.4C625.5 506.8 610.9 504.2 602.5 502.4C577.6 497.2 552.5 495.6 527.2 499C513.8 500.8 500.7 504.1 487.9 508.2C474.1 512.6 460.7 516.5 446 514.5C432.3 512.6 419.2 508.2 405.3 507.7C391.4 507.1 377.6 508.9 363.9 510.7C337.3 514.3 308.9 518.9 284 506C282.3 505.1 280.8 507.7 282.5 508.6C305.8 520.7 332.1 517.9 357.3 514.6C370.5 512.8 383.8 510.9 397.2 510.6C411.9 510.3 425.6 513.7 439.9 516.5C454.5 519.3 467.7 517.8 481.9 513.4C496 509 509.9 504.7 524.5 502.5C539.6 500.2 554.9 499.6 570.1 500.7C583.6 501.6 596.5 505.2 609.8 506.7C617.7 507.6 627.8 507.3 632.7 499.9C638.3 491.4 632.3 481.5 624.6 476.8C612.9 469.7 598.4 474.7 585.7 473.9C571.7 473 558.8 466.5 545.9 461.5C519.1 451.1 491.7 452.4 464 458.3C434.7 464.5 406.2 474 376.2 476.4C358.9 477.8 341.4 477.5 324.1 476.8C315.1 476.4 306 476 297 475.6C291.4 475.4 285.9 475.3 280.4 476.4C271.9 478.1 262.2 483.1 262.8 493.2C263.5 504.3 276.3 509.4 285.3 512.1C287 512.5 287.8 509.6 286 509Z" fill="#B3BACC"/>
<path d="M1024 140.1C1015.4 138.9 1001.3 135.8 998.8 126C995.2 112.4 1014.6 108.1 1024 106.4C1051.5 101.7 1079.7 106 1107.4 106C1162.3 105.9 1216.4 95.5002 1271 91.6002C1298.3 89.6002 1325.8 89.3002 1353 92.8002C1359.2 93.6002 1365.7 94.2002 1371.7 96.0002C1374.2 96.7002 1377 97.9002 1378.9 99.7002C1383.5 104.2 1379 108.3 1374.8 110.5C1364 116.2 1351.7 118.5 1339.6 119C1315.4 120.1 1291.3 115.1 1267.1 116C1255.8 116.4 1244.7 118.3 1234 122.2C1221.5 126.8 1209.9 133.3 1197.3 137.6C1182.7 142.6 1167.3 145.1 1151.8 145.1C1136.1 145.1 1120.6 142.7 1105.1 140.9C1073.7 137.3 1042.2 137.4 1010.9 141.6C1009 141.9 1009 144.9 1010.9 144.6C1041.5 140.5 1072.5 140.2 1103.2 143.7C1118.4 145.4 1133.6 147.8 1149 148.1C1163.2 148.4 1177.5 146.6 1191.2 142.7C1205.2 138.7 1218 131.8 1231.5 126.4C1244.6 121.2 1258.1 118.9 1272.1 118.9C1297.9 118.7 1323.8 124.5 1349.6 121.1C1355.9 120.3 1362 118.9 1368 116.7C1372.6 115 1378.8 112.9 1382.1 109C1388.3 101.5 1379.3 94.9002 1372.6 93.0002C1359.4 89.1002 1344.5 88.4002 1330.8 87.6002C1315.9 86.7002 1301 86.8002 1286.1 87.5002C1225.8 90.4002 1166.2 103 1105.7 102.8C1088.5 102.8 1071.3 101.2 1054.1 101.1C1039.5 101 1022.8 101.3 1009.1 107C1000.5 110.6 992.1 119 996.9 128.9C1001.4 138.2 1014.1 141.4 1023.3 142.7C1025.1 143.3 1025.9 140.4 1024 140.1Z" fill="#B3BACC"/>
<path d="M56.8997 276.6C140.3 240.4 231.7 274.2 308.6 310.5C347.8 329 386.4 348.8 427.3 363.4C467.4 377.7 509.1 387.6 551.4 393.3C636.3 404.8 723.2 399.7 806.7 381C894.2 361.4 977.1 325.8 1063.9 303.5C1154.2 280.3 1248.6 275.3 1340.7 290.2C1351.9 292 1363 294.1 1374.1 296.5C1376 296.9 1376.8 294 1374.9 293.6C1285.5 274.6 1192.6 273.7 1103 291.5C1013.4 309.3 929.1 345.7 841.2 369.4C755.9 392.4 666.8 401.7 578.7 393.4C534.9 389.3 491.5 380.8 449.5 367.6C406.1 354 365.4 334.2 324.5 314.6C250.6 279.1 167.2 243.1 83.5997 264.2C73.8997 266.6 64.5997 269.9 55.3997 273.9C53.6997 274.8 55.1997 277.4 56.8997 276.6Z" fill="#B3BACC"/>
<path d="M399.1 240.8C496.8 295.3 613.1 299.4 721.5 284.2C844.2 267 962.4 226.5 1085.3 210.7C1153.7 201.9 1223.5 200.8 1291.2 215.8C1293.1 216.2 1293.9 213.3 1292 212.9C1172.3 186.5 1049.5 209.8 932.3 237.1C816.8 264 700 295.4 580.3 287.7C517.8 283.7 455.6 268.8 400.6 238.2C399 237.2 397.5 239.8 399.1 240.8Z" fill="#B3BACC"/>
<path d="M107.4 54.1001C191.4 34.1001 281 42.0001 360.2 76.5001C399.1 93.4001 435.6 115.4 473.8 133.7C512.3 152.1 552.5 164.8 594.9 170.5C643.4 177 692.5 175.9 741.1 172.7C743 172.6 743 169.6 741.1 169.7C697.2 172.6 652.9 173.8 609.1 169.2C564.7 164.5 522.3 152.9 481.8 134.2C443.3 116.3 406.9 94.3001 368.2 76.9001C330.2 59.5001 289.9 48.0001 248.4 43.1001C201.1 37.4001 152.9 40.2001 106.6 51.2001C104.7 51.6001 105.5 54.5001 107.4 54.1001Z" fill="#B3BACC"/>
<path d="M959.4 660.2C950.6 658.4 936.2 653.9 935.5 643C935.1 636.3 940.7 631.4 946.6 629.6C953.7 627.3 961.2 629.4 968.1 631.4C980.7 635.1 993.4 638.1 1006.6 638.6C1018.9 639.1 1031.1 637.3 1043 634.1C1055.8 630.7 1068.3 626.1 1081 622.5C1094.4 618.7 1108.1 616.7 1122.1 616.5C1148.8 616.1 1175.2 620.9 1201.8 622C1215.1 622.5 1228.2 621.8 1241.3 619.8C1255.5 617.6 1270 614.3 1284.5 616C1294.9 617.2 1311.6 624.2 1308.2 637.6C1305.2 649.3 1288.6 655.9 1278.4 659.2C1227.2 675.8 1174.4 648.2 1122.5 655.5C1092.6 659.7 1064.4 672.3 1034.2 674.7C1020.4 675.8 1006.2 674.9 993.1 670C981.1 665.4 970.3 655.4 956.6 657.8C954.7 658.1 955.5 661 957.4 660.7C965.6 659.3 972.8 663.2 979.7 667C985.3 670 990.9 672.8 997 674.6C1009.5 678.4 1022.9 678.9 1035.9 677.7C1064.5 675 1091.4 663.7 1119.7 659.1C1150.9 654.1 1181.6 661.3 1212.4 665.4C1237.5 668.7 1264.4 669.5 1288 659C1297 655 1309 648.6 1311.3 638C1313.4 628.5 1306.1 620.9 1298.2 617C1286.5 611.3 1272.4 612.4 1260 614.1C1244.9 616.1 1230.2 619.3 1214.9 619.5C1185.1 620 1155.7 613.9 1126 613.8C1111.8 613.8 1097.7 615.4 1083.9 619C1070.2 622.6 1056.9 627.6 1043.3 631.3C1026.5 635.8 1009.6 637.2 992.4 634.5C983.8 633.1 975.7 630.7 967.4 628.3C961.2 626.5 954.5 625 948 626.4C938.3 628.5 929.5 637.7 933.8 648C937.7 657.4 949.6 661.5 958.8 663.4C960.4 663.5 961.2 660.6 959.4 660.2Z" fill="#B3BACC"/>
<path d="M510.7 1055.1C548.1 1046.1 584.7 1033.8 620 1018.5C638.3 1010.5 656.2 1001.4 675.7 996.6C694.4 991.9 713.8 990.5 733.1 991C755.4 991.5 777.5 994.5 799.5 998C801.4 998.3 802.2 995.4 800.3 995.1C762.8 989.2 724.2 984.4 686.5 991.2C667.1 994.7 649.3 1002.1 631.5 1010.2C612.8 1018.7 593.9 1026.4 574.5 1033.2C553.3 1040.6 531.8 1047 509.9 1052.2C508 1052.6 508.8 1055.5 510.7 1055.1Z" fill="#3E3E70"/>
<path d="M747 992.1C763.8 991.7 780.4 989.3 796.6 984.6C813.1 979.9 829.4 973.3 846.9 975C855.8 975.8 864.5 978.3 873.1 980.5C882.1 982.8 891 985.1 900 987.4C917.3 991.8 934.5 996.2 951.8 1000.6C953.7 1001.1 954.5 998.2 952.6 997.7C934.7 993.1 916.8 988.6 898.9 984C882.5 979.8 865.7 974.2 848.9 972.2C832.4 970.3 816.8 975.4 801.2 980.2C783.5 985.6 765.5 988.7 747.1 989.2C745.1 989.1 745.1 992.1 747 992.1Z" fill="#3E3E70"/>
<path d="M922.1 1007.6C961.4 998.9 1002.7 991.4 1042.6 1000.6C1062.4 1005.2 1081 1014 1099.5 1022.1C1118.9 1030.7 1138.4 1039.2 1157.8 1047.8C1159.6 1048.6 1161.1 1046 1159.3 1045.2C1128.9 1031.8 1098.8 1017.3 1067.8 1005.4C1037.8 993.9 1006.6 991.6 974.8 995.2C956.8 997.3 938.9 1000.8 921.2 1004.8C919.4 1005.1 920.2 1008 922.1 1007.6Z" fill="#3E3E70"/>
<path d="M566.799 1089.8C577.099 1088 587.499 1086.2 597.799 1084.4C608.099 1082.6 618.5 1080.3 628.9 1079.2C638.5 1078.2 648.299 1079.9 657.799 1080.8C668.299 1081.9 678.9 1082.9 689.4 1084C691.3 1084.2 691.3 1081.2 689.4 1081C678.9 1079.9 668.299 1078.9 657.799 1077.8C647.599 1076.8 637.299 1075.1 626.999 1076.4C606.599 1078.9 586.299 1083.4 565.999 1086.9C564.099 1087.3 564.899 1090.2 566.799 1089.8Z" fill="#3E3E70"/>
<path d="M290.6 638.8C297.449 638.8 303 633.248 303 626.4C303 619.552 297.449 614 290.6 614C283.752 614 278.2 619.552 278.2 626.4C278.2 633.248 283.752 638.8 290.6 638.8Z" fill="#3E3E70"/>
<path d="M324.1 666C327.69 666 330.6 663.09 330.6 659.5C330.6 655.91 327.69 653 324.1 653C320.51 653 317.6 655.91 317.6 659.5C317.6 663.09 320.51 666 324.1 666Z" fill="#3E3E70"/>
<path d="M1021.5 31.1C1029.95 31.1 1036.8 24.25 1036.8 15.8C1036.8 7.35004 1029.95 0.5 1021.5 0.5C1013.05 0.5 1006.2 7.35004 1006.2 15.8C1006.2 24.25 1013.05 31.1 1021.5 31.1Z" fill="#3E3E70"/>
<path d="M1057.1 48.4C1061.9 48.4 1065.8 44.5049 1065.8 39.7C1065.8 34.8951 1061.9 31 1057.1 31C1052.29 31 1048.4 34.8951 1048.4 39.7C1048.4 44.5049 1052.29 48.4 1057.1 48.4Z" fill="#3E3E70"/>
<path d="M1051.3 44.8001C1059.31 44.8001 1065.8 38.3082 1065.8 30.3001C1065.8 22.2919 1059.31 15.8 1051.3 15.8C1043.29 15.8 1036.8 22.2919 1036.8 30.3001C1036.8 38.3082 1043.29 44.8001 1051.3 44.8001Z" fill="#3E3E70"/>
<path d="M1016.6 791C1027.42 791 1036.2 782.225 1036.2 771.4C1036.2 760.575 1027.42 751.8 1016.6 751.8C1005.78 751.8 997 760.575 997 771.4C997 782.225 1005.78 791 1016.6 791Z" fill="#3E3E70"/>
<path d="M305 40.8001C311.904 40.8001 317.5 35.2036 317.5 28.3001C317.5 21.3965 311.904 15.8 305 15.8C298.096 15.8 292.5 21.3965 292.5 28.3001C292.5 35.2036 298.096 40.8001 305 40.8001Z" fill="#3E3E70"/>
<path d="M502.8 895.6C511.25 895.6 518.1 888.75 518.1 880.3C518.1 871.85 511.25 865 502.8 865C494.35 865 487.5 871.85 487.5 880.3C487.5 888.75 494.35 895.6 502.8 895.6Z" fill="#3E3E70"/>
<path d="M613.2 607.8C611.1 606.9 613.5 603.2 614.6 602.7C615.9 602.1 618.5 602.9 619.9 603.3C622.1 604 624 605.2 626.2 605.8C628.6 606.5 631.5 606.7 633.8 605.6C641.8 601.5 632.3 587.7 644 587.7C650.4 587.7 655.8 597.2 661.1 590.1C663 587.6 663.8 584.4 664.8 581.4C665.6 578.8 666.3 576.1 668.1 574C670.2 571.6 676.6 569.2 677.3 574.4C677.5 576.3 680.6 576.3 680.3 574.4C679.8 570.8 677.2 568.4 673.5 568.2C669.1 567.9 665.9 571.2 664.1 574.8C662.8 577.3 662.2 580.1 661.3 582.8C660.7 584.7 659.9 588 658.2 589.2C656.4 590.4 655 589.1 653.5 588.2C649.6 585.6 644.9 583.6 640.2 585.3C635.9 586.9 634.2 590.6 634.4 595C634.4 596.3 634.8 597.9 634.7 599.2C634 603.8 630.9 604 627.7 603.3C624.5 602.6 621.8 600.6 618.5 600C615 599.3 611.5 600.2 609.9 603.7C608.6 606.7 609.4 609.7 612.4 610.9C614.2 611.4 615 608.5 613.2 607.8Z" fill="#9595BC"/>
<path d="M664.8 612.6C663.3 610.3 663.3 607.4 664.9 605.1C667.2 601.8 670.4 602.3 673.9 602.8C676.5 603.2 679.7 603.7 681.6 601.4C682.9 599.9 682.7 598.1 683.2 596.4C683.9 593.9 685.5 591.7 687.6 590.2C692 587 698.2 586.5 702.6 589.9C703.7 590.7 705 590.2 705.2 588.8C706.4 579.1 716 571.9 725.6 573.6C727.5 573.9 728.3 571 726.4 570.7C714.7 568.7 703.6 577.1 702.2 588.8C703.1 588.4 703.9 588.1 704.8 587.7C700.7 584.5 695.5 583.7 690.6 585.4C685 587.3 682.4 591 680.3 596.2C679.3 598.8 678.1 600.4 675.2 600C673.6 599.8 672.1 599.4 670.5 599.3C668.2 599.2 666.2 599.8 664.4 601.3C660.6 604.5 659.6 610 662.3 614.2C663.3 615.8 665.9 614.3 664.8 612.6Z" fill="#9595BC"/>
<path d="M715.4 65.3001C713.7 63.7001 714.2 62.7001 716.8 62.2001C717.9 60.7001 719.1 60.4001 720.4 61.4001C722.2 61.8001 723.4 63.4001 724.7 64.6001C726.3 66.0001 727.7 67.6001 729.5 68.7001C732 70.1001 735.1 70.7001 737.7 69.4001C740.9 67.8001 741 64.6001 742.1 61.6001C745.1 53.6001 755.3 52.8001 760.1 59.6001C760.7 60.4001 762.2 60.7001 762.7 59.6001C764.6 55.1001 767 50.0001 771.3 47.3001C775.6 44.6001 782.8 44.9001 784.7 50.5001C785.3 52.3001 788.2 51.5001 787.6 49.7001C785.7 44.3001 780.2 41.9001 774.7 42.8001C767.1 44.1001 762.9 51.7001 760.1 58.1001C761 58.1001 761.8 58.1001 762.7 58.1001C759.2 53.1001 753.2 50.4001 747.2 52.6001C744.7 53.5001 742.4 55.3001 740.9 57.6001C740.1 58.8001 739.6 60.1001 739.1 61.5001C738.8 62.4001 738.8 63.5001 738.3 64.3001C737 66.5001 733.4 67.4001 731.1 66.1001C726.2 63.4001 721.4 54.8001 714.6 58.3001C710.8 60.2001 710.3 65.6001 713.9 67.9001C715.6 68.9001 717.1 66.3001 715.4 65.3001Z" fill="#9595BC"/>
<path d="M779.6 64.5C778.9 54.5 791.7 57.8 796.8 60.3C799.4 61.6 802.6 64 805.4 61.8C806.3 61.1 806.7 60.1 807.1 59.1C808.6 55.8 809.6 53.4 813.6 52.2C819.8 50.4 825.8 54.3 830.8 57.5C832.4 58.5 833.9 55.9 832.3 54.9C827 51.6 821 47.9 814.5 49C812.4 49.3 810.3 50.1 808.6 51.4C806 53.3 805.5 56.6 802.9 58.2C800.4 59.7 799.4 58.2 796.9 57C795.6 56.4 794.3 55.8 792.9 55.3C790.3 54.4 787.5 54 784.8 54.6C780.1 55.7 776.3 59.5 776.6 64.5C776.7 66.4 779.7 66.4 779.6 64.5Z" fill="#9595BC"/>
<path d="M1069 478.7C1062.4 464.2 1087.4 457.8 1089.1 473C1089.7 478.1 1086.9 483.5 1081.7 484.9C1075.9 486.4 1069.7 482.5 1068.1 476.9C1067.6 475 1064.7 475.8 1065.2 477.7C1067.2 484.9 1075.1 489.7 1082.5 487.8C1089.8 485.9 1093.4 477.8 1091.7 470.8C1089.9 463.4 1082.2 459.8 1075.1 461.7C1066.8 463.9 1062.9 472.6 1066.4 480.4C1067.2 482 1069.8 480.4 1069 478.7Z" fill="#9595BC"/>
<path d="M1087.6 490.2C1082.2 489.7 1080.2 482.5 1083.9 478.9C1087 475.8 1092.3 476 1095.6 478.6C1099 481.3 1102.3 489.2 1098.5 493C1093.5 498 1087.4 489.9 1085 486.3C1083.9 484.7 1081.3 486.2 1082.4 487.8C1085.9 493.2 1093.9 501.7 1100.6 495.1C1105.9 489.9 1102.1 479.4 1096.9 475.7C1091.6 471.9 1082.9 473.2 1079.9 479.4C1076.9 485.4 1081.3 492.6 1087.7 493.2C1089.5 493.4 1089.5 490.4 1087.6 490.2Z" fill="#9595BC"/>
<path d="M179.2 364.5C183.2 364.3 185.3 361.6 188.1 359.1C194.7 353.2 202.3 358.8 206.5 364.6C210.5 370.1 216.3 374 221.4 367.4C223.8 364.3 225 359.7 228.3 357.5C235 353 240.7 361.9 244.9 365.8C249.7 370.2 259.6 372.2 261.8 364C262.3 362.1 259.4 361.3 258.9 363.2C257.8 367.5 252.6 367.4 249.5 365.6C247.1 364.2 245.4 362 243.5 360.1C240.7 357.1 237.6 354.2 233.4 353.4C226.5 352.2 223.4 358.4 220.3 363.4C219.5 364.8 218.5 366.7 217 367.5C213.4 369.4 210.8 365.6 208.9 363.1C206.5 359.7 203.8 356.8 199.9 355C196.7 353.5 192.9 353 189.6 354.4C185.8 356 183.4 361.4 179.1 361.6C177.3 361.6 177.3 364.6 179.2 364.5Z" fill="#9595BC"/>
<path d="M249.1 343.9C253.3 348.9 260.8 355.6 267.4 350.1C269 348.7 269.9 346.7 271.6 345.3C274.1 343.4 277.4 343 280.3 343.9C286.6 345.6 290.3 351.6 293.6 356.7C294.2 357.6 295.7 357.8 296.2 356.7C300.5 347.3 312 345 321 348.6C322.8 349.3 323.6 346.4 321.8 345.7C311.7 341.6 298.4 344.6 293.6 355.1C294.5 355.1 295.3 355.1 296.2 355.1C291.7 348.1 286 340.1 276.6 340.4C273.3 340.5 270.3 341.9 268.1 344.3C265.5 347.3 263.3 349.7 259 348.4C255.7 347.4 253.3 344.3 251.1 341.7C250 340.3 247.9 342.4 249.1 343.9Z" fill="#9595BC"/>
<path d="M429.2 448.5C427.9 445.9 426.4 443.2 425.2 440.5C423.9 437.7 424.5 436.6 426.2 434.2C428.4 431.1 431.8 428.3 435.7 430.4C438.5 431.9 440.3 435.3 441.1 438.2C442.5 443.1 441.3 450.1 435.6 451.7C430.9 453 424.8 450.1 425 444.7C425 442.8 422 442.8 422 444.7C421.8 451.4 428.5 455.6 434.7 454.9C442.3 454 445.5 446 444.4 439.2C443.3 432.6 437.2 424.2 429.6 427.3C425.9 428.8 423.1 432.7 421.4 436.2C420.4 438.3 420.6 438.4 421.6 440.5C423.2 443.7 424.8 446.9 426.4 450C427.5 451.7 430.1 450.2 429.2 448.5Z" fill="#9595BC"/>
<path d="M440.3 468.1C436.5 463.6 430 454.8 435.6 449.2C439.6 445.2 446.8 446.7 450.1 450.7C453.5 454.8 454.2 462.8 448.9 465.8C444.4 468.4 437.9 465.9 437.1 460.7C436.8 458.8 433.9 459.6 434.2 461.5C435.4 468.3 443.7 471.5 449.7 468.8C457 465.4 457.3 455.3 453 449.4C448.9 443.7 439.9 441.7 434.3 446.4C426.2 453.1 433.2 464.1 438.3 470.1C439.4 471.7 441.5 469.6 440.3 468.1Z" fill="#9595BC"/>
<path d="M1031.6 265.7C1031.7 256.9 1043.8 259.5 1049 260.1C1053.5 260.6 1057.6 260 1061.6 257.8C1066 255.5 1069.6 251.9 1073.9 249.4C1076.7 247.7 1080.1 246.2 1083.4 246.2C1086.9 246.3 1089.1 248.4 1092.2 249.7C1099.4 252.6 1104 245.9 1108.5 241.5C1117.4 232.8 1130.1 236.4 1140.5 240C1142.3 240.6 1143.1 237.7 1141.3 237.1C1132 233.9 1120.2 230.4 1111 235.7C1106.6 238.2 1104 242.8 1100 245.7C1094.3 249.8 1089.5 243.3 1083.5 243.2C1070.6 243 1063.8 257.9 1050.8 257.2C1045.2 256.9 1039.8 254.8 1034.4 257.3C1030.9 258.9 1028.7 261.7 1028.6 265.6C1028.5 267.6 1031.5 267.6 1031.6 265.7Z" fill="#9595BC"/>
<path d="M1106.4 262.3C1112.8 253.2 1124.8 248.8 1135.6 251.9C1140.3 253.3 1144.7 257.1 1149.9 256.8C1154.2 256.5 1156.5 253 1159.4 250.3C1164.1 246 1170.2 242.5 1176.8 242.7C1180.8 242.8 1183.9 244.3 1187 246.9C1188 247.8 1188.8 248.6 1190.2 249C1192.2 249.5 1194 248.6 1195.8 247.8C1198.9 246.4 1202.1 245.2 1205.4 244.3C1212.2 242.6 1219.1 242.3 1226 243.2C1227.9 243.4 1227.9 240.4 1226 240.2C1219.4 239.3 1212.8 239.5 1206.3 241C1203.4 241.7 1200.5 242.6 1197.7 243.7C1195.5 244.6 1194.4 245.2 1191.9 245.2C1189.2 245.2 1189.4 244.8 1187.6 243.4C1179.1 236.9 1167.7 239.9 1160 246C1157.9 247.6 1156.2 249.8 1154.2 251.4C1149.4 255.2 1145.6 252.8 1140.7 250.6C1136.5 248.7 1132.1 247.8 1127.5 248C1118 248.4 1109.4 253.1 1104 260.8C1102.7 262.4 1105.3 263.9 1106.4 262.3Z" fill="#9595BC"/>
<path d="M888.9 933C890.8 945 892.7 957.1 894.5 969.1C855 981.9 835.6 990 836.4 993.4C837.4 997.6 869 994.5 931.2 984.4C927.6 965.4 924.1 946.4 920.5 927.4C909.9 929.2 899.4 931.1 888.9 933Z" fill="#263238"/>
<path d="M803.9 531.2C803.2 544.8 802.2 564.2 801.3 587.7C800.4 612.6 799.9 625.6 800 641.6C800 648.5 800.3 676.6 803.9 712.8C806.9 743.3 811.6 788.9 828.3 845C834.9 867.2 845.1 897 861 931C868.3 932.1 876.9 932.7 886.7 932.3C905.1 931.4 920 926.9 930.3 922.7C927.3 912.9 923.1 899 918.7 882.3C912.8 859.7 895.8 791.6 889.2 700.1C885.9 654.1 884.7 596.7 890.5 530.7C861.7 530.8 832.8 531 803.9 531.2Z" fill="#BDBDE7"/>
<path opacity="0.09" d="M888 538.9C886.1 546.1 883.6 556.5 880.9 569.1C873.9 602.4 866.7 649.9 867.4 730.2C867.8 779.6 871.3 847.9 884.1 930.4C889.1 929.9 894.2 929.3 899.5 928.5C910.6 926.8 920.9 924.6 930.3 922.1C926.1 908.5 920.3 888.3 914.3 863.7C893 776 887 701.6 885.4 652.5C884.5 623.3 884.5 584.6 888 538.9Z" fill="#B3BACC"/>
<path d="M888.3 533.8C878.3 635 884.5 737.7 906.6 837C912.9 865.2 920.4 893 929.2 920.5C929.8 922.3 932.7 921.5 932.1 919.7C901.3 823 885.9 721.6 886.7 620.1C886.9 591.3 888.5 562.4 891.3 533.7C891.5 531.9 888.5 531.9 888.3 533.8Z" fill="#3E3E70"/>
<path d="M799.8 623.5C796.1 705.5 807.6 788 833.4 865.9C840.6 887.7 849 909.1 858.5 930C859.3 931.8 861.9 930.2 861.1 928.5C827.6 854 807.9 773.5 803.2 692C801.9 669.2 801.8 646.4 802.8 623.5C802.9 621.5 799.9 621.6 799.8 623.5Z" fill="#3E3E70"/>
<path d="M859.7 930.9C863.1 934.7 870.9 933.8 875.5 933.9C882.5 934 889.6 933.3 896.5 932.3C904 931.2 911.5 929.6 918.9 927.8C922.6 926.9 930.3 926.7 932.2 922.6C933 920.9 930.4 919.3 929.6 921.1C928.7 923.2 923.7 923.6 921.8 924C919 924.7 916.3 925.3 913.5 926C908.2 927.2 903 928.3 897.7 929.1C892.2 930 886.7 930.6 881.2 930.8C877 931 865 932.3 861.9 928.8C860.5 927.3 858.4 929.5 859.7 930.9Z" fill="#3E3E70"/>
<path d="M774.4 530.6C771.5 536.9 767.6 548.9 764.8 559.5C761.3 573 760.4 581.1 758.4 592.9C754.7 614.7 752.2 618.4 746.8 642.3C741.1 667.9 738.5 687.6 736.5 703.3C734.9 715.5 732 740.4 730.7 772.6C730.1 786.5 729.8 794.7 730.1 806C730.9 841.5 736.6 869 739.1 879.8C745.8 909.5 755.6 934.9 765.4 955.5C769.9 957.8 776.7 960.7 785.3 962.6C795.9 964.9 809.5 967.9 822.5 961.3C826.1 959.5 834.3 954.5 840.5 942.7C835.7 929.6 829.8 911 825.1 888.2C813.5 831.6 817.7 786.8 820.6 758.6C826 705.3 838.4 665.3 859.7 596.3C866.9 573.1 873.3 554.3 877.7 541.8C879.2 531.9 882.7 502.2 866.8 489.8C843.5 471.4 789.2 498.7 774.4 530.6Z" fill="#BDBDE7"/>
<path opacity="0.08" d="M863.599 583.8C857.099 594.1 848.099 609.4 839.199 628.7C828.199 652.5 811.999 694.3 803.299 777.6C798.499 823.1 795.299 886.8 802.699 963.7C805.799 964 818.999 965.1 830.299 956C836.099 951.3 839.099 945.9 840.599 942.5C835.699 929 829.399 909.2 824.599 884.7C810.399 813.3 819.299 755.9 825.899 715.9C831.299 682.5 841.799 636.4 863.599 583.8Z" fill="#B3BACC"/>
<path d="M790.1 962.4C793.5 974.6 796.9 986.9 800.3 999.1C746.7 1015.4 720.4 1025.6 721.3 1029.6C722.3 1034.2 758.8 1030.8 830.8 1019.4C828.9 999.8 827 980.3 825.2 960.7C813.4 961.2 801.7 961.8 790.1 962.4Z" fill="#263238"/>
<path d="M773.3 531.8C762.7 558.6 757.3 587 751.6 615.2C745.6 644.7 739.8 674.2 735.6 704C727.8 759.2 725.4 815.7 736.1 870.7C741.8 900.3 751.4 929.1 765.5 955.7C766.4 957.4 769 955.9 768.1 954.2C714.6 852.5 730.8 733.5 752.6 625.6C758.9 594.3 764.5 562.4 776.3 532.6C776.9 530.8 774 530 773.3 531.8Z" fill="#3E3E70"/>
<path d="M862.3 583.6C828.8 672.9 806.4 768.9 819.4 864.6C823 891 829.3 916.9 838.5 941.9C839.2 943.7 842.1 942.9 841.4 941.1C808.1 851.2 814.9 752.6 839.9 661.5C847.1 635.4 855.7 609.7 865.2 584.3C865.9 582.5 863 581.8 862.3 583.6Z" fill="#3E3E70"/>
<path d="M765.8 955.6C779.9 963.4 796.1 966.7 812.1 964.6C825.2 962.8 840.4 956.8 841.7 941.7C841.9 939.8 838.9 939.8 838.7 941.7C837.3 957.4 818.3 961.6 805.4 962.2C792.1 962.8 779 959.5 767.4 953C765.6 952.1 764.1 954.7 765.8 955.6Z" fill="#3E3E70"/>
<path d="M795 270C792.3 273.2 788.5 278.1 784.9 284.6C772.6 306.2 771.8 327.4 771.6 346C771.4 373.1 771.2 386.7 774.1 416.2C776.8 443.8 777.5 483.4 767.8 533.9C776.5 540.3 789.2 547.7 805.8 551.6C853.6 562.8 893.2 534.9 900.7 529.5C891.2 473.8 886 429.2 883 397.9C881.1 378.1 874.1 349.3 860.2 291.6C856 274 851.7 257.2 838.7 252.4C820.7 245.6 798.6 266.5 795 270Z" fill="white"/>
<path opacity="0.1" d="M838.2 253.8C839.8 260.3 842.1 270.1 844.4 282.2C847.4 297.8 851.4 321.4 854.2 356.5C857.1 392.7 860.4 460.6 861.4 548.4C868.2 546.4 876.4 543.4 885.1 538.6C890.9 535.4 895.9 532 900.1 528.8C899.4 521.1 898.1 509.4 896 495.3C893.3 477.6 890.6 465.3 889.3 459.2C886.1 443.4 882.5 419.8 882.1 387C878 369.6 874.9 355.6 872.8 346.3C867 319.9 865.3 310.2 860.9 294.2C856.5 278.1 851.9 265.3 849 257.6C845.4 256.2 841.8 255 838.2 253.8Z" fill="#B3BACC"/>
<path d="M794.9 279.6C795.8 281.4 797.3 282 800.6 283.6C803.4 285 806.1 286.7 808.9 287.9C817.5 291.6 827.6 308 829.2 310.6C835.3 320.5 842.4 332.1 846.5 348.9C847.6 353.3 850.1 364.7 847.2 403.2C844.1 442.7 840.1 448.2 843.2 467.9C845.5 482.2 848.4 499.3 862.5 508.6C875.6 517.2 890.7 514.2 893.8 513.6C912.8 509.9 923.6 495.2 934.1 480.9C950.1 459.2 956.2 437.5 958.8 424.9C960 419 959.8 401.7 959.5 367.2C959.1 331.6 958.5 319.3 949.2 308.9C942.9 301.9 935.2 298.6 929.9 296.9C930.3 294.7 930.4 291.4 928.6 288.6C925.2 283.4 917.1 283.5 911.9 283.6C889.6 284.2 873 299.2 872.2 299.9C858.3 312.8 854.2 328.6 852.9 335.2C850.1 322.8 845.5 313.3 841.9 307.2C838.8 301.9 834.2 296.5 824.9 285.5C817.6 276.9 814.1 273.6 808.6 271.8C807.4 271.4 798.3 268.7 795.3 272.8C793.9 274.7 793.9 277.6 794.9 279.6Z" fill="#F0F0F0"/>
<path opacity="0.11" d="M794.2 275.9C794.8 274.8 801.5 277.3 802.2 277.6C812.1 281.4 820.9 289.3 832.2 307.6C838 317 845.3 330.3 851.5 347.6C855.9 343.1 859.6 339.4 862.5 336.6C862.5 336.6 873.2 326.3 890.5 316.3C892.2 315.3 894.3 314.1 895.8 315C898.9 316.7 895.6 325 896.5 332.7C897.2 338.5 900.6 346.5 913.5 355.4C913.8 357.1 913.9 359.5 912.5 361.1C909.7 364.2 902.5 361.7 898.8 360.4C892.8 358.3 881.2 352.8 867.5 336.7C866.2 341.9 864.5 349.3 863.2 358.4C862 366.3 858.7 392.6 864.2 426.4C866.4 439.8 870.5 457.7 878.9 478.1C882.6 479.7 887.3 481.2 892.9 482.1C904.6 483.9 914.3 481.6 919.9 479.8C916.6 481.4 912.1 484.1 908.2 488.8C903.5 494.5 903.4 498.8 899.5 504.1C896.9 507.7 892.2 512.2 883.5 515.4C880.8 515.1 876.7 514.4 872.2 512.4C858.5 506.3 852.3 493.4 849.5 487.4C845.8 479.3 840.1 462.9 845.5 407.4C848.6 375.7 852 365.8 846.8 347.7C842.8 333.8 835.9 322.3 833.5 318.4C829.2 311.4 821.5 298.9 807.5 287.4C800.9 281.8 793.6 277.2 794.2 275.9Z" fill="#B3BACC"/>
<path d="M905.699 298.3C903.899 300.7 901.599 304.2 899.799 308.8C898.799 311.5 896.399 317.8 896.999 325.8C898.099 341.7 909.499 351.4 911.599 353.1C912.999 354.2 914.199 355.1 914.999 355.6C913.799 359.7 912.399 365.8 911.899 373.3C911.099 383.9 910.299 395.8 916.499 399.3C920.499 401.5 926.499 400 929.799 396.8C930.599 396 932.899 393.5 933.499 382.2C934.199 368.8 931.399 363.2 935.399 359.3C937.099 357.5 939.999 356.4 942.499 355.3C945.299 354.1 947.799 353.5 949.599 353.1C948.499 361.3 947.699 368.6 947.099 374.5C946.399 381.8 946.099 385.5 948.599 387.8C950.899 389.9 954.699 390.3 957.599 389C961.399 387.3 962.599 382.6 964.699 373.2C966.399 365.8 967.799 359.6 966.899 351.2C966.399 346.9 965.499 343.4 964.699 341C964.499 339.3 963.999 336.8 963.199 333.9C961.499 328.1 959.899 326.4 958.899 322.7C957.399 317.4 959.099 314.8 959.499 308.8C959.899 304.1 959.499 297.4 956.099 289C954.799 289.1 952.099 289.3 949.299 291.2C945.899 293.4 944.499 296.6 943.999 297.7C941.399 297.1 936.699 296.5 931.299 298C921.999 300.5 917.099 307.4 915.799 309.5C918.399 303.8 916.199 298.2 912.699 296.8C909.699 295.5 906.099 298.1 905.699 298.3Z" fill="#263238"/>
<path d="M916.999 329.3C917.999 327.4 922.999 323.2 924.699 326.7C925.499 328.4 928.099 326.9 927.299 325.2C926.199 322.9 923.499 322.2 921.099 322.7C918.199 323.2 915.799 325.2 914.399 327.8C913.499 329.5 916.099 331 916.999 329.3Z" fill="#F0F0F0"/>
<path d="M946.299 321.6C946.899 320.3 947.499 318.8 948.499 317.8C949.499 316.8 952.499 315.7 952.599 318C952.699 319.9 955.699 319.9 955.599 318C955.399 315.1 952.899 313.2 949.999 313.6C946.699 314.2 944.999 317.2 943.699 320C942.899 321.8 945.499 323.4 946.299 321.6Z" fill="#F0F0F0"/>
<path d="M947.099 331.1C947.099 331.2 947.099 331.3 947.099 331.4C946.899 331.6 946.699 331.8 946.599 331.9C946.099 332.2 945.299 331.9 945.399 331.3C945.399 331.3 945.399 331 945.499 331.1L945.199 331.4C945.899 331.4 946.599 331.4 947.299 331.4C947.199 331.3 947.199 331.3 947.099 331.2C947.199 331.3 947.199 331.3 947.199 331.3C947.099 331.2 947.199 331.2 947.199 331.4C947.299 332 946.999 332.4 946.199 332.7C945.899 332.6 945.699 332.6 945.399 332.5C944.999 332.3 945.099 331.7 945.199 331.4C945.299 331.3 945.199 331.3 945.099 331.5C945.199 331.4 945.199 331.4 945.099 331.5C944.399 332 944.099 332.8 944.599 333.6C944.999 334.2 945.999 334.6 946.699 334.1C947.399 333.6 948.099 332.9 948.199 331.9C948.199 330.8 947.399 329.8 946.299 329.8C945.199 329.8 944.399 330.5 944.299 331.6C944.199 332.4 944.699 333.1 945.199 333.6C945.799 334.2 946.699 334.1 947.299 333.6C948.599 332.6 948.899 330.5 947.399 329.5C946.699 329.1 945.799 329 945.099 329.4C944.199 329.9 944.099 331.1 944.299 332C944.399 332.8 945.399 333.2 946.099 333C946.899 332.7 947.199 331.9 947.099 331.1Z" fill="#F0F0F0"/>
<path d="M931.099 334.2C928.199 335.9 924.299 335.1 922.399 332.3C921.299 330.7 918.699 332.2 919.799 333.8C922.699 337.9 928.199 339.3 932.699 336.8C934.299 335.8 932.799 333.2 931.099 334.2Z" fill="#F0F0F0"/>
<path d="M928.9 340.7C926.7 342.4 924.8 344.6 923.5 347.1C922.6 348.8 925.2 350.3 926.1 348.6C927.3 346.3 929 344.4 931.1 342.8C931.7 342.3 931.6 341.2 931.1 340.7C930.4 340.1 929.5 340.2 928.9 340.7Z" fill="#F0F0F0"/>
<path d="M953.199 329.7C955.199 327.4 956.699 324.8 957.699 321.9C958.299 320.1 955.4 319.3 954.8 321.1C954 323.5 952.7 325.7 951.1 327.6C949.9 329.1 951.999 331.2 953.199 329.7Z" fill="#F0F0F0"/>
<path d="M953.399 333.5C955.799 333 958.599 332.4 960.499 334.4C961.799 335.8 963.899 333.7 962.599 332.3C959.899 329.4 955.999 329.9 952.499 330.7C950.699 331 951.499 333.9 953.399 333.5Z" fill="#F0F0F0"/>
<path d="M793.699 277.3C798.299 270.1 809.199 274.4 814.699 278C821.299 282.2 826.299 288.5 830.799 294.8C839.899 307.5 847.999 321.3 850.999 336.8C851.399 338.7 854.299 337.9 853.899 336C850.399 317.5 839.599 299.7 827.399 285.5C820.299 277.3 800.199 261.8 791.099 275.9C790.099 277.4 792.699 279 793.699 277.3Z" fill="#3E3E70"/>
<path d="M799.9 284.1C823.9 297.6 837.4 322.9 844.2 348.7C844.7 350.6 847.6 349.8 847.1 347.9C840.1 321.4 826 295.3 801.4 281.5C799.7 280.5 798.2 283.1 799.9 284.1Z" fill="#3E3E70"/>
<path d="M853.899 335.5C856.399 317.8 867.699 303 883.199 294.5C891.199 290.1 900.099 287.4 909.199 286.1C913.499 285.5 918.499 284.9 922.699 286.5C927.299 288.2 931.699 295.5 925.899 298.8C924.199 299.7 925.699 302.3 927.399 301.4C933.799 297.8 932.199 288.6 926.599 285.1C917.899 279.6 903.499 283.5 894.599 286.5C872.599 293.6 854.399 311.4 851.099 334.9C850.699 336.6 853.599 337.4 853.899 335.5Z" fill="#3E3E70"/>
<path d="M860.599 340C865.499 334.3 871.699 329.5 877.699 325C883.499 320.6 889.699 317 896.899 315.4C898.799 315 897.999 312.1 896.099 312.5C888.699 314.2 882.199 317.9 876.199 322.4C869.999 327.1 863.599 332 858.499 337.9C857.199 339.3 859.299 341.5 860.599 340Z" fill="#3E3E70"/>
<path d="M897.299 315.7C899.399 310.9 902.099 306.3 905.399 302.2C905.999 301.5 906.699 300.3 907.499 299.8C908.199 298.5 909.099 298.4 910.399 299.6C911.999 299.6 912.699 300.2 912.699 301.6C913.799 303.7 913.899 307.3 914.299 309.7C914.699 311.6 917.599 310.8 917.199 308.9C916.399 305.1 915.399 291.5 908.199 295.2C905.399 296.6 903.299 300.1 901.499 302.5C898.799 306.2 896.599 310.1 894.699 314.2C893.899 315.9 896.499 317.5 897.299 315.7Z" fill="#3E3E70"/>
<path d="M916.6 310.6C921.7 304 932.1 294.9 941 299.8C942.7 300.7 944.2 298.1 942.5 297.2C932.2 291.7 920.6 300.7 914.4 308.5C913.3 310 915.4 312.1 916.6 310.6Z" fill="#3E3E70"/>
<path d="M943.9 299.3C945.3 297.1 951.8 289.2 954.6 291.3C956.1 292.4 956.4 296.3 956.8 298.1C957.4 300.9 957.599 303.7 957.699 306.6C957.799 308.5 960.799 308.5 960.699 306.6C960.599 302.6 960.1 298.7 959.1 294.8C958.5 292.6 958 288.4 955.4 287.7C953 287.1 949.7 289.4 947.9 290.7C945.2 292.6 943.1 295 941.4 297.8C940.3 299.4 942.9 300.9 943.9 299.3Z" fill="#3E3E70"/>
<path d="M864.5 335.1C871.4 341.8 878.7 348 886.5 353.6C894.2 359.1 901.7 363 911.4 362.5C913.3 362.4 913.3 359.4 911.4 359.5C901.5 360 894.2 355.6 886.5 350C879.4 344.8 872.8 339.1 866.5 333C865.2 331.7 863.1 333.8 864.5 335.1Z" fill="#3E3E70"/>
<path d="M844.299 345.4C855.199 393.8 826.799 446.7 850.299 493C854.699 501.7 861.399 509.6 870.599 513.5C879.599 517.3 889.999 517 899.299 514C919.899 507.4 933.199 488.3 943.399 470.3C949.899 459 955.299 446.9 958.499 434.2C960.099 427.9 961.099 421.3 961.399 414.8C961.699 407.3 960.699 399.8 960.999 392.3C961.099 390.4 958.099 390.4 957.999 392.3C957.599 404.5 959.199 416.1 956.799 428.2C954.699 439 950.799 449.5 945.899 459.3C936.799 477.7 924.499 498.4 905.599 508.1C895.799 513.1 883.699 515 873.199 511.1C862.899 507.3 856.099 498.2 851.699 488.5C842.299 467.4 843.399 443.4 845.899 421C848.699 395.6 853.099 369.9 847.399 344.5C846.699 342.8 843.799 343.5 844.299 345.4Z" fill="#3E3E70"/>
<path d="M888.8 445.5C883.2 455.3 879.5 465.9 877.9 477.1C877.6 479 880.5 479.8 880.8 477.9C882.4 466.9 885.9 456.6 891.4 447C892.4 445.4 889.8 443.9 888.8 445.5Z" fill="#3E3E70"/>
<path d="M890.699 446.6C905.499 445.3 921.099 442.5 935.899 444.1C937.799 444.3 937.799 441.3 935.899 441.1C921.099 439.4 905.499 442.3 890.699 443.6C888.799 443.8 888.799 446.8 890.699 446.6Z" fill="#3E3E70"/>
<path d="M879.399 479.8C886.699 484.1 895.199 483.7 903.399 483.5C911.999 483.2 920.599 482.2 928.099 477.7C929.799 476.7 928.199 474.1 926.599 475.1C919.499 479.4 911.499 480.2 903.399 480.5C895.799 480.8 887.799 481.3 880.899 477.3C879.299 476.3 877.799 478.9 879.399 479.8Z" fill="#3E3E70"/>
<path d="M934.5 443.4C932.6 454.4 929.7 465 925.8 475.4C925.1 477.2 928 478 928.7 476.2C932.7 465.8 935.6 455.1 937.4 444.2C937.7 442.3 934.8 441.5 934.5 443.4Z" fill="#3E3E70"/>
<path d="M888 450.7C892.9 461.5 906.8 464.2 917.5 464.3C919.4 464.3 919.4 461.3 917.5 461.3C907.9 461.1 895 458.9 890.6 449.1C889.8 447.4 887.2 449 888 450.7Z" fill="#3E3E70"/>
<path d="M909.599 460.4C909.299 462.9 909 465.4 908.7 467.8C908.5 469.7 911.5 469.7 911.7 467.8C912 465.3 912.299 462.8 912.599 460.4C912.799 458.5 909.799 458.5 909.599 460.4Z" fill="#3E3E70"/>
<path d="M915.299 460.4C914.999 462.9 914.699 465.4 914.499 467.9C914.299 469.8 917.299 469.8 917.499 467.9C917.799 465.4 918.099 462.9 918.299 460.4C918.499 458.5 915.499 458.5 915.299 460.4Z" fill="#3E3E70"/>
<path d="M917.9 464.6C925 463 930.9 458.6 934.6 452.4C935.6 450.7 933 449.2 932 450.9C928.6 456.5 923.4 460.2 917.1 461.7C915.2 462.2 916 465.1 917.9 464.6Z" fill="#3E3E70"/>
<path d="M895.999 310.3C892.999 328 896.299 349.1 914.399 357.2C916.099 358 917.699 355.4 915.899 354.6C898.999 347 896.099 327.5 898.899 311.1C899.199 309.2 896.299 308.4 895.999 310.3Z" fill="#3E3E70"/>
<path d="M957.5 305.5C957.7 311.2 957.6 317 958.4 322.6C959.2 328.7 964.7 335.5 961.8 341.6C961 343.3 963.6 344.9 964.4 343.1C967 337.6 964.7 333 962.8 327.6C960.3 320.7 960.899 312.7 960.599 305.4C960.399 303.5 957.4 303.5 957.5 305.5Z" fill="#3E3E70"/>
<path d="M922.599 355.1C926.999 352.8 931.999 355.2 932.999 360C933.099 360.5 933.799 360.3 933.699 359.8C932.499 354.5 926.999 351.9 922.199 354.4C921.799 354.7 922.199 355.4 922.599 355.1Z" fill="#F0F0F0"/>
<path d="M930.2 360.2C930.9 361 931.4 361.9 931.7 362.9C931.9 363.4 932.6 363.2 932.4 362.7C932 361.6 931.4 360.6 930.7 359.7C930.4 359.3 929.8 359.9 930.2 360.2Z" fill="#F0F0F0"/>
<path d="M950.3 353.2C951.2 349.1 953.8 345.7 957.6 343.8C958 343.6 957.7 342.9 957.2 343.2C953.2 345.1 950.5 348.7 949.6 353C949.5 353.5 950.2 353.7 950.3 353.2Z" fill="#F0F0F0"/>
<path d="M774.2 141.2C767.3 144.7 761.5 151.3 758.9 154.2C752.5 161.5 749.2 168.3 745.6 175.9C742.6 182.1 739.1 190.9 736.3 201.9C740.2 202.6 744.1 203.2 748 203.9C747.8 207.7 747.8 213.3 749.3 219.9C750.7 225.9 753 235.5 761 242.2C772 251.6 786.6 249.3 789.3 248.9C789.5 253.6 790.5 260.3 794.3 267.2C795.3 268.9 796.3 270.5 797.3 271.9C802.8 270.3 811.3 267 819.6 260.2C840.8 243.1 843.7 217.6 844.6 210.2C845.9 198.8 848.4 177.3 834.3 159.5C819.6 141.1 791.7 132.4 774.2 141.2Z" fill="#FAE3C3"/>
<path d="M753.7 162C756.5 157.8 761.9 151.6 768 147.3C777.8 140.4 782.2 143.3 787.2 137.2C790.8 132.8 793.1 125.6 790.4 122.2C786.1 116.8 770.8 123.3 768.8 124.2C764.4 126.1 749.9 132.2 744.1 147.6C739.3 160.5 742.5 174.6 744.7 174.9C745.3 175 745.7 174 748.9 169.1C750.4 166.6 752.1 164.3 753.7 162Z" fill="#3E3E70"/>
<path d="M775.499 131.9C774.699 134.5 773.499 139.7 777.499 149.9C784.599 168.2 801.199 184.6 809.499 181.6C811.299 180.9 813.199 179.1 816.799 178.9C817.699 178.9 821.299 178.7 824.099 180.9C828.499 184.4 828.699 192 825.799 196.9C825.299 197.8 822.599 201.9 818.499 202.2C814.899 202.5 813.699 199.7 810.799 199.5C803.699 199.1 797.599 214.7 796.799 216.8C795.199 220.8 791.299 231.2 794.099 244.5C794.699 247.4 796.099 253.5 800.399 259.8C809.699 273.3 825.299 276.6 831.099 277.8C836.799 279 858.499 283.5 875.399 269.5C878.099 267.3 886.999 259.7 889.399 246.8C893.499 225 875.199 208.7 874.099 207.8C873.299 196.5 870.599 178.5 861.099 158.8C855.099 146.3 849.499 134.8 836.799 126.1C820.099 114.8 795.799 111.6 783.099 121.4C781.799 122.6 777.499 126 775.499 131.9Z" fill="#3E3E70"/>
<path d="M756.5 239.2C755 240.7 750.6 245.3 749.8 252.5C748.7 262.5 755.4 269.4 756.8 270.8C764.1 278.3 776.3 281.3 785.1 276.8C785.8 276.5 793.5 272.4 793.8 266.5C793.9 263.9 792.5 262.6 790.5 256.8C789.2 253 788.4 249.9 787.8 247.8C785.1 248.7 780.5 249.9 774.8 249.1C764.6 247.8 758.3 241.2 756.5 239.2Z" fill="#3E3E70"/>
<path opacity="0.14" d="M737.4 200.1C737.5 198.5 742.6 197.2 746.9 197.5C750.7 197.8 755.2 199.5 755.1 201C755 202.4 750.8 203.5 747.7 203.6C742.9 203.8 737.4 201.7 737.4 200.1Z" fill="#B3BACC"/>
<path d="M749.8 162.9C744.1 175.4 739 188.1 734.6 201.1C734.3 201.9 734.9 202.7 735.6 202.9C739.5 204.4 743.4 205.1 747.5 205C749.4 205 749.4 202 747.5 202C743.6 202 740 201.3 736.4 200C736.7 200.6 737.1 201.2 737.4 201.8C741.7 189 746.6 176.5 752.3 164.3C753.2 162.7 750.6 161.1 749.8 162.9Z" fill="#3E3E70"/>
<path d="M747.1 205.6C747.9 218.5 749.1 232.8 758.7 242.5C767.9 251.9 781.2 251.1 793.3 249.7C795.2 249.5 795.2 246.5 793.3 246.7C782.1 248 769.4 249.1 760.8 240.4C751.8 231.3 750.9 217.7 750.1 205.6C750 203.7 747 203.7 747.1 205.6Z" fill="#3E3E70"/>
<path d="M787.4 250C788.7 257 791.1 263.7 794.5 269.9C795.4 271.6 798 270.1 797.1 268.4C793.8 262.3 791.6 256 790.3 249.2C790 247.3 787.1 248.1 787.4 250Z" fill="#3E3E70"/>
<path d="M749.1 220.9C754 225.2 761.3 223.2 763.2 216.9C763.8 215 760.9 214.3 760.3 216.1C759.1 220.1 754.4 221.6 751.3 218.7C749.8 217.5 747.7 219.6 749.1 220.9Z" fill="#3E3E70"/>
<path d="M758.3 216.8C759.9 217.2 761.1 218.1 762.1 219.3C762.6 219.9 763.7 219.8 764.2 219.3C764.8 218.7 764.7 217.8 764.2 217.2C762.9 215.6 761.1 214.4 759.1 213.9C757.3 213.4 756.5 216.3 758.3 216.8Z" fill="#3E3E70"/>
<path d="M762.8 179.4C763.6 175.2 768.8 176 771.6 177.5C774 178.8 775.7 180.9 776.7 183.4C777.4 185.2 780.3 184.4 779.6 182.6C778 178.3 774.7 174.9 770.1 173.7C765.9 172.6 760.9 173.9 760 178.6C759.6 180.5 762.5 181.3 762.8 179.4Z" fill="#3E3E70"/>
<path d="M762.7 161.7C767.2 154.2 776 160 777.8 166.3C778.3 168.2 781.2 167.4 780.7 165.5C779.4 160.9 776.2 156.6 771.3 155.4C766.9 154.4 762.4 156.3 760.1 160.1C759.1 161.9 761.7 163.4 762.7 161.7Z" fill="#3E3E70"/>
<path d="M765.7 196.4C767.6 196.4 767.6 193.4 765.7 193.4C763.8 193.4 763.7 196.4 765.7 196.4Z" fill="#3E3E70"/>
<path d="M771.4 191.9C771.5 191.9 771.7 191.9 771.8 191.9C772.6 191.9 773.3 191.2 773.3 190.4C773.3 189.6 772.6 188.9 771.8 188.9C771.7 188.9 771.5 188.9 771.4 188.9C770.6 188.9 769.9 189.6 769.9 190.4C769.9 191.3 770.6 191.9 771.4 191.9Z" fill="#3E3E70"/>
<path d="M771.5 197C771.5 197.1 771.5 197.2 771.5 197.3C771.5 199.2 774.5 199.2 774.5 197.3C774.5 197.2 774.5 197.1 774.5 197C774.5 195.1 771.5 195.1 771.5 197C771.5 197.1 771.5 197.2 771.5 197.3C771.5 199.2 774.5 199.2 774.5 197.3C774.5 197.2 774.5 197.1 774.5 197C774.5 195.1 771.5 195.1 771.5 197Z" fill="#3E3E70"/>
<path d="M815.099 181.7C817.799 177.8 822.399 180.3 823.999 183.5C825.299 186 825.299 189 825.199 191.7C824.799 198.5 819.099 203.3 812.499 199.1C810.899 198 809.399 200.6 810.999 201.7C814.899 204.3 819.899 204.6 823.799 201.6C827.799 198.5 828.499 193.4 828.199 188.6C827.899 184 826.099 178.9 821.299 177.2C817.899 176 814.499 177.3 812.499 180.2C811.499 181.7 814.099 183.2 815.099 181.7Z" fill="#3E3E70"/>
<path d="M546.099 124.6C543.999 124.6 541.899 124.7 539.899 124.7C536.499 131.3 534.599 137.3 533.499 141.7C530.299 154.6 531.099 165.3 531.699 170.5C532.099 174 532.699 176.9 533.199 178.9C534.999 178.9 536.799 178.9 538.599 178.9C539.299 181.3 539.999 183.7 540.699 186.1C557.599 186 571.499 186 581.199 186.1C639.999 186.6 680.999 188.9 690.499 189.4C702.399 190.1 712.099 190.8 718.099 191.2C718.299 187.5 719.299 186.2 720.199 185.8C721.799 185.1 723.199 186.8 725.299 186.4C727.499 186 728.899 183.7 729.799 181.6C731.599 182.5 734.899 183.7 738.799 183.1C739.699 183 740.499 182.7 741.199 182.5C742.899 179.1 744.599 175.7 746.299 172.3C743.899 171.5 740.499 170.8 736.399 170.8C734.099 170.8 732.099 171.1 730.399 171.4C730.199 170.9 728.599 166.4 724.399 165.4C723.099 165.1 721.999 165.2 721.099 165.4C720.499 164.3 719.899 163.2 719.299 162.1C716.899 161.7 713.199 161.1 708.799 160.3C673.099 153.8 648.199 145.9 629.199 140.2C610.999 134.7 584.499 127.2 550.499 118.9C549.099 120.8 547.599 122.7 546.099 124.6Z" fill="#263238"/>
<path d="M548.199 119C535.699 138.3 532.199 162.3 538.599 184.4C539.099 186.3 541.999 185.5 541.499 183.6C535.299 162.2 538.699 139.2 550.799 120.5C551.899 118.8 549.299 117.3 548.199 119Z" fill="#263238"/>
<path d="M550.8 121.9C607.1 136.1 663.3 150.3 719.6 164.4C721.5 164.9 722.3 162 720.4 161.5C664.1 147.3 607.9 133.1 551.6 119C549.8 118.5 549 121.4 550.8 121.9Z" fill="#263238"/>
<path d="M540.699 187.7C599.399 187.2 658.099 188.6 716.699 191.8C718.599 191.9 718.599 188.9 716.699 188.8C658.099 185.6 599.399 184.2 540.699 184.7C538.799 184.7 538.799 187.7 540.699 187.7Z" fill="#263238"/>
<path d="M718.699 163.3C722.699 172.2 721.799 182.3 716.299 190.4C715.199 192 717.799 193.5 718.899 191.9C724.999 182.9 725.799 171.7 721.299 161.8C720.499 160.1 717.899 161.6 718.699 163.3Z" fill="#263238"/>
<path d="M721.7 167.2C722.8 168 723.6 167.7 724.9 168C727.4 168.7 728.4 171 728.9 173.4C729.7 177.8 728.6 187.1 722.1 184.5C720.3 183.8 719.5 186.7 721.3 187.4C727.9 190 732.2 183.1 732.2 177.3C732.2 174.1 731.8 170.5 730 167.8C729.4 166.9 728.6 166 727.6 165.5C726.3 164.9 724.5 165.3 723.4 164.5C721.6 163.5 720.1 166.1 721.7 167.2Z" fill="#263238"/>
<path d="M730.5 172.7C735.6 172.4 740.7 172.5 745.7 173.2C747.6 173.4 747.6 170.4 745.7 170.2C740.6 169.6 735.6 169.4 730.5 169.7C728.6 169.9 728.6 172.9 730.5 172.7Z" fill="#263238"/>
<path d="M730.1 183.7C734.2 184.4 738.3 184.7 742.4 184.3C744.3 184.1 744.3 181.1 742.4 181.3C738.5 181.6 734.7 181.5 730.9 180.8C729 180.5 728.2 183.3 730.1 183.7Z" fill="#263238"/>
<path d="M546.5 123.8C536.8 118.2 534.1 135.7 532.8 141.2C529.8 153.9 528.4 167 532.1 179.7C532.3 180.3 532.9 180.8 533.5 180.8C534.8 180.8 536.2 180.8 537.5 180.8C539.4 180.8 539.4 177.8 537.5 177.8C536.2 177.8 534.8 177.8 533.5 177.8C534 178.2 534.5 178.5 534.9 178.9C532.3 169.7 532.3 160.4 533.8 151C534.5 146.8 535.4 142.6 536.5 138.5C537.2 135.8 539.4 123.1 544.9 126.4C546.7 127.4 548.2 124.8 546.5 123.8Z" fill="#263238"/>
<path d="M654.6 145.3C652.8 143.1 649.8 143.4 649.4 143.4C646.1 143.6 642.9 146.6 639.4 153.9C632.6 167.8 632.3 181.7 632.3 183.9C632.2 193.5 633.1 209.1 639.9 227.7C640.5 235.5 641.8 246.4 644.7 259.1C649.8 281.9 655.2 305.9 673.8 327.2C680.8 335.3 694.6 351 718.6 356.7C743.7 362.7 764.1 353.8 769.1 351.5C773.5 349.4 785.8 343.2 796.2 330.1C802.5 322.2 809.8 313.6 808.6 303C808.1 298.4 806.1 294.5 803.1 288.3C800.1 282.1 798.5 279 795.3 277.8C790.9 276.1 786.2 279.1 781 282.1C772.2 287.1 771.4 291.9 761.9 296.9C759.4 298.2 756.9 299.1 751.9 300.7C744 303.3 736.2 305.9 729 306.4C713.3 307.5 700.7 298.5 697.1 295.9C683.8 286.4 678.6 273.7 675.2 265.4C667.6 246.8 668.2 229.7 669.5 219.7C674.2 218.9 677.1 217 678.5 215.9C683.8 211.8 685.1 206.1 687.1 197.3C688.4 191.8 689 188.9 687.6 187.8C684.7 185.6 675.8 192.8 673.8 194.5C674.2 187.7 675.2 182.2 676.2 178.3C677.5 173.1 678.2 170.4 680 168.3C683.5 164.2 687.6 164.6 689 160.7C689.8 158.6 689.7 155.7 688 154C686 152 681.7 152.1 678 155C676.8 152.4 674.4 150.8 671.8 150.7C669.2 150.6 667.5 152.2 667 152.6C667.3 149.9 666.1 147.4 664.1 146.4C661.4 145 657.1 146.6 655.5 150.7C655.6 150.2 656.3 147.4 654.6 145.3Z" fill="#FAE3C3"/>
<path opacity="0.12" d="M649.4 143.4C647 147.6 644 153.8 642 161.9C637.6 179.5 641.2 194.2 642.8 201.3C660 274.6 652.5 276.4 664.5 293.6C668.9 299.8 699.1 341.4 744.1 335.9C781.8 331.3 801.8 297 804.4 292.4C805.9 296.4 807.7 303.2 806.5 311.3C804.7 323.2 797.3 330.7 794.6 333.5C792 336.1 788.8 338.4 782.3 342.9C776.5 347 770.8 350.6 768.3 351.9C756.4 358.6 738 360.2 725.2 358.5C690.4 353.9 669.5 320.9 660.8 307.2C640.9 275.9 638.9 244.2 639.1 228.4C637.2 222 635.3 215.5 633.4 209.1C632.1 199.2 632 191 632.2 185.3C632.7 171 633.1 160.3 640.4 151.2C643.6 147.2 647.1 144.8 649.4 143.4Z" fill="#B3BACC"/>
<path d="M784.8 341.4C800.6 333.9 811.2 318.2 808.6 300.4C807.1 289.6 798.4 271 784.5 277.6C778.3 280.6 773.2 286.1 767.5 290C759.6 295.4 750.5 299.6 741.4 302.5C729.8 306.2 716.9 307 705.7 301.4C697.5 297.3 691.1 290.6 686.2 283C675.4 266.3 669.8 246.6 671.1 226.7C671.2 224.8 668.2 224.8 668.1 226.7C667 243.5 670.7 259.5 678.1 274.5C684.6 287.9 694.1 300.5 708.5 305.9C726 312.4 745.1 305.8 760.9 297.5C768 293.7 774.1 288.8 780.5 283.9C786.3 279.4 792.1 277.2 798 283.2C805.3 290.6 807.5 303.5 805.3 313.3C802.6 325 793.9 333.8 783.3 338.8C781.6 339.6 783.1 342.2 784.8 341.4Z" fill="#3E3E70"/>
<path d="M670.9 228C669.6 222.5 673.5 221.1 677.1 218.5C679.2 217 680.8 214.9 682.3 212.8C686.1 207.3 689.1 200.9 689.9 194.2C690.3 190.9 691 185.7 686.5 185.5C681.2 185.3 679 192 674 192.5C672.1 192.7 672.1 195.7 674 195.5C677.8 195.1 679.7 192.7 682.6 190.5C684.3 189.2 686.2 187.7 687.1 190.6C687.6 192.2 686.8 195.2 686.4 196.8C685.7 200.2 684.2 203.5 682.6 206.6C681.1 209.4 679.4 212.3 677.1 214.6C675 216.8 672.1 217.3 669.8 219.1C666.7 221.5 667.2 225.6 668 228.9C668.5 230.7 671.4 229.9 670.9 228Z" fill="#3E3E70"/>
<path d="M636 212.2C634 199.3 633.8 186.1 635.8 173.2C636.6 168 637.6 162.7 639.4 157.7C640.5 154.6 642 151 644.2 148.5C647.2 145.2 653.1 143.5 654.7 149.1C655.2 151 658.1 150.2 657.6 148.3C656.2 143.5 651.6 140.9 646.8 142.8C640.7 145.3 637.8 152.8 635.9 158.5C630.3 175.8 630.3 195.2 633 213C633.4 214.9 636.3 214.1 636 212.2Z" fill="#3E3E70"/>
<path d="M650.5 160.6C652.9 154.7 659.7 142.8 667.1 150.9C668.4 152.3 670.5 150.2 669.2 148.8C665.8 145.1 660.9 144.5 656.6 147C651.8 149.7 649.6 155 647.6 159.9C646.9 161.6 649.8 162.4 650.5 160.6Z" fill="#3E3E70"/>
<path d="M663.1 163.1C663.2 159.3 664.7 155.1 668.4 153.3C671.5 151.8 675.2 152.5 677.3 155.2C678.5 156.7 680.6 154.6 679.4 153.1C676.5 149.5 671.3 148.6 667.2 150.5C662.4 152.8 660.2 158 660.1 163.1C660 165 663 165 663.1 163.1Z" fill="#3E3E70"/>
<path d="M671.8 164.1C673.6 157.4 681.1 151.3 687.6 156.7C689.1 157.9 691.2 155.8 689.7 154.6C681.4 147.8 671.4 154.2 668.9 163.3C668.4 165.2 671.3 166 671.8 164.1Z" fill="#3E3E70"/>
<path d="M687 156.2C690.2 160.7 683.1 163.5 680.6 165.6C678.5 167.3 677.3 169.5 676.4 172C674 178.9 672.9 186.4 672.3 193.6C672.1 195.5 675.1 195.5 675.3 193.6C675.8 188.3 676.6 183 677.9 177.8C678.3 176.1 678.7 174.4 679.3 172.7C680.6 169.2 682.5 167.9 685.4 165.8C689 163.2 692.8 159 689.6 154.5C688.5 153.1 685.9 154.6 687 156.2Z" fill="#3E3E70"/>
<path d="M632.299 209.2C633.899 216 635.9 222.7 638.4 229.3C639.1 231.1 641.999 230.3 641.299 228.5C638.799 221.9 636.8 215.2 635.2 208.4C634.8 206.5 631.899 207.3 632.299 209.2Z" fill="#3E3E70"/>
<path d="M637.9 231.2C641.7 265.6 650.2 300.9 673.3 327.7C691.7 349 720.9 365.2 749.7 359.9C763.3 357.4 775.7 350.6 785.6 341.1C787 339.8 784.9 337.6 783.5 339C763.7 358 735.5 363 710.4 351.7C683.4 339.4 664.5 316.3 653.8 289C646.6 270.5 643 250.9 640.8 231.3C640.7 229.3 637.7 229.3 637.9 231.2Z" fill="#3E3E70"/>
</svg>
