<svg width="49" height="48" viewBox="0 0 49 48" fill="none" xmlns="http://www.w3.org/2000/svg">
<path d="M48.5 23.9302C48.5 36.8594 37.766 47.3605 24.5 47.3605C11.234 47.3605 0.5 36.8594 0.5 23.9302C0.5 11.0011 11.234 0.5 24.5 0.5C37.766 0.5 48.5 11.0011 48.5 23.9302Z" stroke="#B3BACC"/>
<path d="M30.3187 36C28.8281 36 27.4261 35.4195 26.3712 34.3652L24.832 32.8256L23.2929 34.3651C21.1166 36.5416 17.5747 36.5416 15.3976 34.3652C14.3432 33.3109 13.7626 31.9089 13.7626 30.4175C13.7626 29.2764 14.1039 28.1797 14.7497 27.2458C14.8954 27.0351 15.1842 26.9824 15.395 27.1281C15.6057 27.2738 15.6584 27.5628 15.5127 27.7735C14.9746 28.5516 14.6902 29.4659 14.6902 30.4175C14.6902 31.6611 15.1743 32.8301 16.0535 33.7092C17.8689 35.524 20.8221 35.524 22.6369 33.7092L24.5039 31.8416C24.5909 31.7546 24.7089 31.7058 24.8319 31.7058C24.955 31.7058 25.0729 31.7547 25.1599 31.8416L27.027 33.7093C27.9066 34.5883 29.0756 35.0725 30.3187 35.0725C31.5618 35.0725 32.7308 34.5883 33.6105 33.7091C35.4253 31.8939 35.4253 28.9406 33.6104 27.1258L28.2418 21.7571C27.331 20.8463 26.12 20.3448 24.832 20.3448C23.544 20.3448 22.3333 20.8463 21.4227 21.7571L16.7097 26.4702C16.5285 26.6513 16.2349 26.6514 16.0537 26.4702C15.8725 26.2891 15.8725 25.9955 16.0537 25.8143L20.7668 21.1012C21.8525 20.0152 23.2962 19.4171 24.832 19.4171C26.3678 19.4171 27.8117 20.0152 28.8978 21.1012L34.2664 26.4699C36.4428 28.6463 36.4428 32.1881 34.2664 34.3652C33.2114 35.4195 31.8095 36 30.3187 36V36Z" fill="#B3BACC"/>
<path d="M12.7776 25.3793C10.6946 25.3793 9 23.6846 9 21.6017C9 19.5187 10.6946 17.8241 12.7776 17.8241C14.8607 17.8241 16.5552 19.5187 16.5552 21.6017C16.5552 23.6846 14.8607 25.3793 12.7776 25.3793ZM12.7776 18.7517C11.2061 18.7517 9.92765 20.0302 9.92765 21.6017C9.92765 23.1732 11.2061 24.4516 12.7776 24.4516C14.3491 24.4516 15.6276 23.1731 15.6276 21.6017C15.6276 20.0302 14.3491 18.7517 12.7776 18.7517Z" fill="#B3BACC"/>
<path d="M19.8607 19.5552C17.7777 19.5552 16.0831 17.8605 16.0831 15.7776C16.0831 13.6946 17.7777 12 19.8607 12C21.9437 12 23.6384 13.6946 23.6384 15.7776C23.6384 17.8605 21.9437 19.5552 19.8607 19.5552ZM19.8607 12.9276C18.2893 12.9276 17.0108 14.2061 17.0108 15.7775C17.0108 17.349 18.2893 18.6274 19.8607 18.6274C21.4322 18.6274 22.7107 17.349 22.7107 15.7775C22.7107 14.2061 21.4322 12.9276 19.8607 12.9276Z" fill="#B3BACC"/>
<path d="M36.8864 25.3789C34.8032 25.3789 33.1084 23.6844 33.1084 21.6016C33.1084 19.5187 34.8032 17.8242 36.8864 17.8242C37.4818 17.8242 38.0749 17.9661 38.6013 18.2347C38.8294 18.3512 38.92 18.6305 38.8036 18.8587C38.6871 19.0869 38.4078 19.1774 38.1796 19.061C37.7775 18.8558 37.3423 18.7518 36.8864 18.7518C35.3147 18.7518 34.036 20.0302 34.036 21.6016C34.036 23.1729 35.3147 24.4513 36.8864 24.4513C38.4577 24.4513 39.7361 23.1729 39.7361 21.6016C39.7361 21.074 39.5909 20.559 39.3162 20.1122C39.182 19.894 39.2502 19.6083 39.4684 19.4742C39.6866 19.3401 39.9723 19.4082 40.1064 19.6264C40.471 20.2194 40.6637 20.9024 40.6637 21.6016C40.6638 23.6844 38.9693 25.3789 36.8864 25.3789V25.3789Z" fill="#B3BACC"/>
<path d="M29.8029 19.5552C27.7199 19.5552 26.0253 17.8605 26.0253 15.7776C26.0253 13.6946 27.7199 12 29.8029 12C31.8859 12 33.5805 13.6946 33.5805 15.7776C33.5805 17.8605 31.8859 19.5552 29.8029 19.5552V19.5552ZM29.8029 12.9276C28.2314 12.9276 26.9529 14.2061 26.9529 15.7775C26.9529 17.349 28.2314 18.6274 29.8029 18.6274C31.3744 18.6274 32.6528 17.349 32.6528 15.7775C32.6528 14.2061 31.3744 12.9276 29.8029 12.9276V12.9276Z" fill="#B3BACC"/>
</svg>
