<svg width="34" height="33" viewBox="0 0 34 33" fill="none" xmlns="http://www.w3.org/2000/svg">
<path d="M33.2857 16.5C33.2857 25.3255 25.9575 32.5 16.8929 32.5C7.82818 32.5 0.5 25.3255 0.5 16.5C0.5 7.67447 7.82818 0.5 16.8929 0.5C25.9575 0.5 33.2857 7.67447 33.2857 16.5Z" stroke="#B3BACC"/>
<path d="M21.1008 25C20.0449 25 19.0518 24.5888 18.3046 23.842L17.2144 22.7515L16.1242 23.8419C14.5826 25.3836 12.0738 25.3836 10.5317 23.842C9.78479 23.0952 9.37354 22.1021 9.37354 21.0457C9.37354 20.2375 9.61529 19.4606 10.0727 18.7991C10.1759 18.6499 10.3805 18.6125 10.5298 18.7157C10.6791 18.8189 10.7164 19.0237 10.6132 19.1729C10.232 19.7241 10.0306 20.3717 10.0306 21.0457C10.0306 21.9266 10.3735 22.7547 10.9963 23.3774C12.2822 24.6628 14.374 24.6628 15.6595 23.3774L16.982 22.0545C17.0436 21.9928 17.1272 21.9583 17.2143 21.9583C17.3015 21.9583 17.385 21.9929 17.4466 22.0545L18.7691 23.3774C19.3922 24 20.2202 24.343 21.1008 24.343C21.9813 24.343 22.8093 24 23.4325 23.3773C24.7179 22.0915 24.7179 19.9996 23.4324 18.7141L19.6296 14.9113C18.9845 14.2661 18.1267 13.9109 17.2144 13.9109C16.302 13.9109 15.4444 14.2661 14.7994 14.9113L11.4611 18.2497C11.3327 18.378 11.1247 18.3781 10.9964 18.2497C10.868 18.1214 10.868 17.9135 10.9964 17.7851L14.3348 14.4467C15.1039 13.6774 16.1265 13.2538 17.2144 13.2538C18.3022 13.2538 19.325 13.6774 20.0943 14.4467L23.8971 18.2495C25.4387 19.7911 25.4387 22.2999 23.8971 23.842C23.1498 24.5888 22.1567 25 21.1008 25Z" fill="#B3BACC"/>
<path d="M8.6758 17.477C7.20034 17.477 6 16.2766 6 14.8012C6 13.3257 7.20034 12.1254 8.6758 12.1254C10.1513 12.1254 11.3516 13.3257 11.3516 14.8012C11.3516 16.2766 10.1513 17.477 8.6758 17.477ZM8.6758 12.7824C7.56265 12.7824 6.65709 13.688 6.65709 14.8012C6.65709 15.9143 7.56265 16.8198 8.6758 16.8198C9.78894 16.8198 10.6945 15.9142 10.6945 14.8012C10.6945 13.688 9.78894 12.7824 8.6758 12.7824Z" fill="#B3BACC"/>
<path d="M13.6929 13.3516C12.2174 13.3516 11.0171 12.1512 11.0171 10.6758C11.0171 9.20034 12.2174 8 13.6929 8C15.1683 8 16.3688 9.20034 16.3688 10.6758C16.3688 12.1512 15.1683 13.3516 13.6929 13.3516ZM13.6929 8.65705C12.5798 8.65705 11.6742 9.56265 11.6742 10.6757C11.6742 11.7889 12.5798 12.6944 13.6929 12.6944C14.806 12.6944 15.7116 11.7889 15.7116 10.6757C15.7116 9.56265 14.806 8.65705 13.6929 8.65705Z" fill="#B3BACC"/>
<path d="M25.7527 17.4767C24.2771 17.4767 23.0767 16.2765 23.0767 14.8011C23.0767 13.3258 24.2771 12.1255 25.7527 12.1255C26.1745 12.1255 26.5946 12.226 26.9675 12.4163C27.129 12.4988 27.1932 12.6966 27.1108 12.8583C27.0282 13.0199 26.8304 13.084 26.6688 13.0016C26.3839 12.8562 26.0757 12.7825 25.7527 12.7825C24.6395 12.7825 23.7337 13.6881 23.7337 14.8011C23.7337 15.9141 24.6395 16.8197 25.7527 16.8197C26.8657 16.8197 27.7713 15.9141 27.7713 14.8011C27.7713 14.4274 27.6684 14.0626 27.4739 13.7462C27.3788 13.5916 27.4271 13.3892 27.5817 13.2942C27.7362 13.1992 27.9386 13.2475 28.0336 13.402C28.2918 13.8221 28.4283 14.3059 28.4283 14.8011C28.4284 16.2765 27.2281 17.4767 25.7527 17.4767Z" fill="#B3BACC"/>
<path d="M20.7354 13.3516C19.2599 13.3516 18.0596 12.1512 18.0596 10.6758C18.0596 9.20034 19.2599 8 20.7354 8C22.2108 8 23.4112 9.20034 23.4112 10.6758C23.4112 12.1512 22.2108 13.3516 20.7354 13.3516ZM20.7354 8.65705C19.6222 8.65705 18.7166 9.56265 18.7166 10.6757C18.7166 11.7889 19.6222 12.6944 20.7354 12.6944C21.8485 12.6944 22.754 11.7889 22.754 10.6757C22.754 9.56265 21.8485 8.65705 20.7354 8.65705Z" fill="#B3BACC"/>
</svg>
