<svg width="49" height="49" viewBox="0 0 49 49" fill="none" xmlns="http://www.w3.org/2000/svg">
<path d="M24.5 0C10.9911 0 0 10.9901 0 24.5C0 38.0099 10.9911 49 24.5 49C38.0089 49 49 38.0099 49 24.5C49 10.9901 38.0089 0 24.5 0ZM24.5 47.1154C12.0304 47.1154 1.88462 36.9696 1.88462 24.5C1.88462 12.0304 12.0304 1.88462 24.5 1.88462C36.9696 1.88462 47.1154 12.0304 47.1154 24.5C47.1154 36.9696 36.9696 47.1154 24.5 47.1154Z" fill="#B3BACC"/>
<path d="M36.2788 23.5577H25.4423V13.1923C25.4423 12.6712 25.0201 12.25 24.5 12.25C23.9798 12.25 23.5577 12.6712 23.5577 13.1923V23.5577H12.7211C12.201 23.5577 11.7788 23.9789 11.7788 24.5C11.7788 25.0211 12.201 25.4423 12.7211 25.4423H23.5577V36.75C23.5577 37.2711 23.9798 37.6923 24.5 37.6923C25.0201 37.6923 25.4423 37.2711 25.4423 36.75V25.4423H36.2788C36.799 25.4423 37.2211 25.0211 37.2211 24.5C37.2211 23.9789 36.799 23.5577 36.2788 23.5577Z" fill="#B3BACC"/>
</svg>
