<svg width="92" height="121" viewBox="0 0 92 121" fill="none" xmlns="http://www.w3.org/2000/svg">
<path d="M56.7366 40.2706C66.4841 37.6037 77.4274 39.7495 85.4461 45.9002C87.1835 47.2331 88.9471 49.3111 88.1956 51.3679C87.3816 53.5959 84.3931 53.878 82.0237 53.7617C77.7343 53.551 73.3927 53.2887 69.3024 51.9802C65.2118 50.6716 61.3368 48.1899 59.2068 44.4607" fill="white"/>
<path d="M36.4463 39.8471C23.3474 47.7435 23.3722 71.0668 32.0653 85.4871C32.2124 85.7311 32.3675 85.964 32.5189 86.202L32.4905 86.1926C32.4905 86.1926 40.5771 99.6916 51.6586 109.092C60.8039 116.85 69.2174 120.403 73.3841 120.886C76.6931 121.269 80.6528 120.107 76.1831 114.086C72.6265 109.295 64.9818 98.5292 70.6196 95.8002C76.2574 93.0712 80.68 105.556 82.2717 109.689C85.9041 119.121 89.4711 111.886 89.4711 111.886C95.5647 88.4587 82.2219 66.4331 78.0795 60.3492C77.3495 58.8479 75.9484 56.7194 74.8129 55.4266C64.7883 44.0149 49.5451 31.9508 36.4463 39.8471Z" fill="white"/>
<path d="M42.0156 61.5887L58.4658 51.8976L68.4007 58.85L47.0494 73.2703L42.0156 61.5887Z" fill="#B3BACC"/>
<path d="M56.8134 15.0764C48.8578 1.87924 29.4525 -4.11139 15.1625 4.50274C0.872541 13.1172 -2.89044 33.0745 5.06547 46.2717C13.021 59.4688 30.0257 61.4768 44.3153 52.8627C58.605 44.2482 64.7689 28.2736 56.8134 15.0764Z" fill="white"/>
<path d="M53.9189 18.6351C48.1372 9.04448 33.3157 4.41944 22.4283 10.9825C11.541 17.5459 8.7104 32.8121 14.4918 42.4028C20.2735 51.9934 32.805 52.82 43.6923 46.2565C54.58 39.6935 59.7007 28.2258 53.9189 18.6351Z" fill="#B3BACC"/>
<path d="M28.1315 19.7467C26.5958 17.1992 22.6587 15.9708 19.7668 17.7139C16.8748 19.4574 16.1229 23.5125 17.6586 26.0599C19.1943 28.6073 22.5231 28.827 25.415 27.0835C28.3073 25.3403 29.6672 22.2941 28.1315 19.7467Z" fill="white"/>
<path d="M21.3459 32.1761C20.6231 30.9774 18.7705 30.3992 17.4096 31.2197C16.0487 32.0401 15.6948 33.9483 16.4176 35.1474C17.1404 36.3464 18.7066 36.4494 20.0676 35.629C21.4285 34.8086 22.0684 33.3752 21.3459 32.1761Z" fill="white"/>
<path d="M38.7594 76.945C38.0516 75.5941 36.026 76.0708 34.6536 76.7361C34.2947 76.9102 33.9348 77.0868 33.5759 77.2658C33.5694 76.098 33.5062 74.8871 33.3785 73.6464C32.4974 65.0962 28.9541 58.4563 25.4642 58.8159C21.9743 59.1756 19.8594 66.3983 20.7405 74.9485C21.5544 82.8466 24.6402 89.1014 27.8569 89.728L27.8813 89.7955C32.1378 90.8503 38.0832 83.751 38.8882 78.6286C38.9768 78.0626 39.0253 77.4525 38.7594 76.945Z" fill="white"/>
<path d="M69.5594 110.431C71.6187 112.51 72.325 115.149 71.1364 116.326C69.9481 117.503 67.3153 116.772 65.2559 114.693C63.1966 112.614 62.4903 109.975 63.679 108.798C64.8673 107.621 67.5001 108.352 69.5594 110.431Z" fill="#B3BACC"/>
<path d="M27.5695 83.302C29.1239 82.1069 30.9377 81.8586 31.6207 82.7472C32.3036 83.6358 31.5973 85.3247 30.043 86.5195C28.4886 87.7146 26.6748 87.963 25.9918 87.0743C25.3088 86.1861 26.0151 84.4971 27.5695 83.302Z" fill="#B3BACC"/>
<path d="M83.5623 46.9797C85.2495 47.9264 86.1456 49.5339 85.5642 50.5704C84.9824 51.6069 83.1435 51.6793 81.4563 50.7326C79.7692 49.7858 78.873 48.1784 79.4544 47.1419C80.0362 46.1058 81.8751 46.0329 83.5623 46.9797Z" fill="#B3BACC"/>
<path d="M87.172 106.457C88.8141 106.139 89.6933 103.552 89.1359 100.679C88.5785 97.8063 86.7954 95.7359 85.1533 96.0545C83.5112 96.3732 82.6319 98.9602 83.1894 101.833C83.7468 104.705 85.5299 106.776 87.172 106.457Z" fill="#B3BACC"/>
<path d="M17.9598 52.1398C18.4694 51.6682 18.7608 51.0344 19.1315 50.4706C19.3483 51.0111 19.4111 51.6589 19.5533 52.1782C19.737 52.8501 19.9563 53.5165 20.2 54.169C20.7448 55.6275 21.4679 57.0556 22.3677 58.3275C22.6806 58.77 23.4555 58.8052 23.7709 58.3386C24.4205 57.3768 24.7195 56.3116 25.2029 55.2704C25.6139 54.3865 26.1859 53.5722 26.8068 52.8045C26.8782 53.1329 26.9288 53.4677 26.9949 53.7936C27.1219 54.4206 27.8584 54.8233 28.4089 54.3818C28.6752 54.1683 30.7654 52.592 31.5087 51.9173C31.5553 51.9521 31.5977 51.9826 31.6224 52.0016C31.8999 52.2181 32.2002 52.4115 32.548 52.4872C33.8357 52.7675 35.1256 51.7321 36.0214 50.7627C36.2798 50.8941 36.5299 50.9942 36.905 50.9325C37.5553 50.8256 37.7351 50.3497 38.1869 49.9875C39.208 49.1693 40.8047 50.7294 41.923 49.7722C42.3946 49.3688 42.3892 48.6729 42.7911 48.2038C43.6213 47.2356 44.0835 47.9835 45.0375 47.7086C45.8202 47.4832 46.0973 46.7895 46.2846 46.057C47.7428 45.3345 51.2262 43.8674 50.868 42.1598C50.9861 42.1131 51.1042 42.0668 51.2219 42.0201C51.5434 41.8859 51.8873 41.8109 52.2074 41.6695C52.6262 41.4843 53.0573 41.241 53.3415 40.8703C53.9207 40.1144 53.9261 39.2531 54.9378 38.8156C55.6797 38.4947 56.5076 38.3598 57.2714 38.0924C57.8926 37.8746 58.0006 36.9555 57.4788 36.5761C56.9943 36.2244 56.4549 35.9265 55.9535 35.5838C57.7408 34.8527 59.5144 34.295 61.4736 34.0384C62.5614 33.8959 64.2536 33.5783 63.9022 32.1076C63.6187 30.9214 62.4121 29.8081 61.6229 28.9306C60.4896 27.6698 59.1509 26.7238 57.7268 25.8768C58.8289 25.5933 59.9781 25.4533 61.0501 25.037C61.5838 24.8296 61.7557 24.1287 61.4166 23.6826C60.7472 22.8018 59.8087 22.2036 58.9345 21.5446C58.352 21.1054 57.762 20.6772 57.1299 20.3111C57.0865 20.286 57.0417 20.263 56.9972 20.2394C57.281 20.1647 57.5653 20.0893 57.8463 19.9982C58.4575 19.7997 58.5899 18.8372 58.0537 18.4822C55.6571 16.8952 52.674 16.0532 50.0623 14.8545C47.9402 13.8805 45.672 13.0134 43.3123 13.143C43.2861 12.188 43.2731 11.2319 43.2721 10.2736C43.2703 8.59618 43.2254 6.91836 43.0862 5.24593C42.9677 3.82256 42.6419 2.39919 42.6013 0.974391C42.5912 0.617652 42.4122 0.39694 42.1717 0.296091C41.8272 -0.0599298 41.2483 -0.161144 40.9048 0.367863C40.6794 0.714911 40.4544 1.06771 40.2287 1.42373C39.8263 1.06412 39.0798 1.03756 38.7759 1.67567C38.6459 1.94771 38.5031 2.21724 38.3524 2.48461C38.0462 2.3773 37.6981 2.44298 37.458 2.8008C36.3121 4.50805 35.0778 6.47226 34.2675 8.45226C33.9929 8.12316 33.5084 7.95197 33.053 8.25847C32.0998 8.90053 31.022 9.32832 30.0648 9.95531C29.7153 9.69547 29.1909 9.64522 28.8224 10.063C28.5015 10.4269 28.2492 10.8303 28.0202 11.2477C27.605 11.0338 27.0376 11.0977 26.795 11.6475C26.6281 12.0265 26.5046 12.418 26.3955 12.8139C24.8878 13.5152 23.3754 14.192 21.9747 15.1079C21.3531 15.5142 21.5918 16.2478 22.0949 16.5435C21.2616 17.1019 20.4264 17.6582 19.5852 18.2048C19.2091 18.4492 19.1495 18.8138 19.2697 19.13C17.4925 19.205 15.721 19.6396 13.9954 20.0161C12.1052 20.4278 10.0168 20.4149 8.23057 21.1983C7.78088 21.3957 7.65168 21.8117 7.73243 22.1849C7.02649 22.3719 6.31588 22.5384 5.59164 22.6533C5.07519 22.7351 4.84766 23.1496 4.85842 23.5566C4.84012 23.5609 4.82181 23.5659 4.80351 23.5699C4.3653 23.6693 3.93822 24.0673 4.04266 24.5658C4.42775 26.4058 6.91307 28.0697 8.35223 29.0322C9.77954 29.9865 11.2306 30.9239 12.6091 31.9486C13.0139 32.2493 13.4367 32.5346 13.8591 32.8217C13.1632 34.5972 12.9525 36.5309 13.0157 38.4355C13.086 40.5577 13.343 43.0656 14.1986 45.0223C14.4067 45.4985 15.1231 45.7928 15.553 45.3887C15.5749 45.3679 15.5968 45.3442 15.6184 45.3198C15.614 45.3815 15.609 45.4443 15.6076 45.5021C15.5925 46.1686 15.5896 46.8361 15.6481 47.5001C15.7763 48.9564 16.1298 50.3931 16.6057 51.7723C16.7797 52.278 17.5528 52.5167 17.9598 52.1398Z" fill="#FFBE55"/>
<path d="M5.19865 25.1727C5.13908 24.8041 5.43695 24.3871 5.81989 24.3598C7.75252 24.2216 9.71781 24.9613 11.5697 25.4325C12.4816 25.6644 13.362 25.9702 14.2585 26.2523C15.1098 26.52 15.9037 26.7895 16.5357 27.4413C16.8623 27.7779 16.7291 28.1651 16.4352 28.3819C16.4661 28.5251 16.4567 28.6762 16.3954 28.8119C16.0648 29.5397 15.3334 31.1615 14.4139 31.2968C13.9585 31.364 13.5594 31.0722 13.1933 30.8493C12.5656 30.4667 11.9656 30.0497 11.3196 29.6962C10.0559 29.0049 8.73194 28.4232 7.55406 27.5845C6.76234 27.0203 5.36769 26.2178 5.19865 25.1727Z" fill="white"/>
<path d="M38.698 11.5868C39.4711 8.97482 39.3498 6.13526 40.3252 3.57529C40.5481 2.9903 41.1625 2.32671 41.6915 2.6027C41.9991 2.68919 42.2511 2.96301 42.1897 3.31473C42.2963 3.71561 42.2424 4.16279 42.2313 4.56655C42.2116 5.3073 42.2245 6.03944 42.1441 6.77625C42.176 7.13047 42.2116 7.48433 42.2557 7.83784C42.3422 8.53014 42.4104 9.21707 42.4305 9.91512C42.4517 10.6498 42.6038 11.4436 42.5066 12.174C42.3451 13.3881 41.1938 13.4854 40.1849 13.4147C39.7406 13.3834 39.2152 13.4096 38.8832 13.0597C38.4931 12.6484 38.5502 12.0871 38.698 11.5868Z" fill="white"/>
<path d="M34.07 29.9405C37.0987 27.8205 40.6902 26.1115 44.1384 26.5038C47.587 26.896 50.5156 29.6498 50.1915 33.0277C49.9833 35.1983 48.5592 37.2382 46.9733 38.9799C44.901 41.256 42.4172 43.269 39.5808 44.4871C36.7445 45.7052 33.5314 46.0695 30.868 45.1216C28.4423 44.2582 22.2697 38.2011 34.07 29.9405Z" fill="white"/>
<path d="M40.0621 37.8713C38.7008 36.435 37.5426 34.8185 36.621 33.0675L36.1796 33.2997C37.1227 35.0909 38.3071 36.7447 39.6999 38.214L40.0621 37.8713Z" fill="black"/>
<path d="M38.1963 33.6415C38.5053 33.2873 39.0566 33.7668 38.7472 34.1217C38.4378 34.4763 37.8866 33.9965 38.1963 33.6415Z" fill="white"/>
<path d="M39.5037 35.4346C39.8127 35.0804 40.3639 35.5602 40.0542 35.9148C39.7452 36.2694 39.1943 35.7895 39.5037 35.4346Z" fill="white"/>
<path d="M41.2529 33.5643C41.5619 33.2097 42.1132 33.6896 41.8034 34.0445C41.4948 34.3991 40.9435 33.9192 41.2529 33.5643Z" fill="white"/>
<path d="M36.0831 35.0274C36.3922 34.6732 36.9434 35.1527 36.6337 35.5076C36.3247 35.8618 35.7734 35.3824 36.0831 35.0274Z" fill="white"/>
<path d="M37.3554 36.8969C37.6644 36.5424 38.2157 37.0222 37.906 37.3771C37.5973 37.7314 37.0461 37.2515 37.3554 36.8969Z" fill="white"/>
<path d="M35.3858 37.4673C35.6948 37.1131 36.246 37.5926 35.9363 37.9476C35.6273 38.3021 35.076 37.8227 35.3858 37.4673Z" fill="white"/>
<path d="M33.8357 32.7066C33.7812 32.1733 34.2172 31.8973 34.5905 31.6245C34.8855 31.4089 35.1496 31.154 35.4443 30.9369C36.1143 30.4438 37.3679 29.9133 37.79 31.0105C37.8872 31.2635 37.8686 31.5485 37.7857 31.8234C37.823 32.2368 37.7096 32.6675 37.5527 33.0476C37.3543 33.5288 37.0474 34.1045 36.4768 34.1813C35.9736 34.2488 35.3768 34.0051 34.921 33.8109C34.4544 33.6121 33.8928 33.2675 33.8357 32.7066Z" fill="#FF5EB3"/>
<path d="M51.9925 21.7729C51.1143 21.727 50.2773 21.7044 49.5104 21.6854C48.738 21.6728 48.0418 21.6617 47.4543 21.6524C46.2692 21.6229 45.4843 21.5357 45.4061 21.2185C45.3304 20.917 45.9972 20.4354 47.2099 20.0366C47.5128 19.9383 47.8484 19.8417 48.2137 19.7653C48.578 19.6781 48.9724 19.6189 49.3891 19.5597C50.2231 19.4574 51.1505 19.4147 52.121 19.4656C53.091 19.5227 54.008 19.668 54.8256 19.8622C55.2333 19.9674 55.6184 20.07 55.9708 20.1971C56.3254 20.3137 56.648 20.4468 56.938 20.5782C58.099 21.109 58.7081 21.6617 58.5997 21.9527C58.4866 22.2592 57.6967 22.2589 56.5159 22.1566C55.9313 22.101 55.2379 22.0349 54.4688 21.9617C53.7044 21.8946 52.87 21.8246 51.9925 21.7729Z" fill="#FF9843"/>
<path d="M49.0746 23.2818C49.9083 23.0287 51.1056 22.8977 52.4127 23.0287C53.7194 23.1615 54.8664 23.5297 55.6326 23.9446C56.4025 24.3595 56.7962 24.8027 56.6975 25.1017C56.5966 25.4082 56.0364 25.5202 55.2271 25.5273C54.4153 25.5331 53.3501 25.4473 52.1801 25.3278C51.0101 25.2108 49.9492 25.0816 49.155 24.9136C48.3636 24.7446 47.8371 24.5228 47.7995 24.2023C47.7629 23.8897 48.2377 23.5344 49.0746 23.2818Z" fill="#FF9843"/>
<path d="M53.0568 28.9415C52.1158 28.6422 51.5054 28.3569 51.5097 28.0321C51.5133 27.7195 52.1506 27.4248 53.2144 27.315C53.7452 27.2583 54.379 27.259 55.0778 27.324C55.7751 27.395 56.537 27.5339 57.3155 27.7575C58.0928 27.9858 58.8106 28.2765 59.4376 28.5902C60.0624 28.9096 60.5979 29.2484 61.016 29.5807C61.8554 30.2432 62.2362 30.8336 62.0715 31.0995C61.901 31.3762 61.2328 31.2901 60.2777 31.0385C59.8004 30.9104 59.2452 30.7496 58.6387 30.5637C58.0332 30.3832 57.3686 30.1847 56.6713 29.9769C55.9707 29.7792 55.3035 29.5907 54.6952 29.4188C54.0833 29.2509 53.5284 29.0894 53.0568 28.9415Z" fill="#FF9843"/>
<path d="M55.4048 31.0256C56.8547 31.4168 57.8955 32.2329 57.7293 32.8491C57.5631 33.4654 56.2532 33.6477 54.8029 33.2569C53.353 32.866 52.3122 32.0495 52.4784 31.433C52.6445 30.8171 53.9548 30.6348 55.4048 31.0256Z" fill="#FF9843"/>
<path d="M23.3815 52.4104C23.4838 51.7088 23.6604 50.945 23.9274 50.1702C24.1995 49.3968 24.5354 48.6887 24.8907 48.0753C25.2528 47.4645 25.6304 46.9466 25.9946 46.549C26.7218 45.7494 27.3455 45.4138 27.5964 45.5986C27.8591 45.791 27.7166 46.4524 27.3961 47.3891C27.2332 47.8575 27.0351 48.4016 26.8108 48.9963C26.5925 49.5938 26.3517 50.2434 26.1098 50.93C25.873 51.618 25.6584 52.2765 25.4581 52.8805C25.2647 53.486 25.082 54.0358 24.919 54.5038C24.5885 55.4369 24.2895 56.0442 23.964 56.0316C23.6521 56.0208 23.3718 55.3702 23.2986 54.2921C23.2602 53.7541 23.2857 53.1138 23.3815 52.4104Z" fill="#FF9843"/>
<path d="M23.7813 47.2425C23.2667 48.0963 22.766 48.8543 22.3203 49.3934C21.8749 49.9295 21.4729 50.2439 21.1668 50.142C20.8675 50.0426 20.725 49.5305 20.809 48.7718C20.8908 48.0163 21.2156 47.0211 21.8035 46.0467C22.3931 45.073 23.1235 44.3233 23.7544 43.8998C24.3871 43.4731 24.9068 43.3615 25.134 43.5804C25.3662 43.804 25.275 44.3061 25.0069 44.9496C24.7367 45.5948 24.2981 46.3902 23.7813 47.2425Z" fill="#FF9843"/>
<path d="M17.644 46.707C17.7003 46.4335 17.775 46.1363 17.8848 45.828C17.9831 45.514 18.1238 45.1942 18.2756 44.8572C18.5954 44.1929 19.0196 43.4942 19.5522 42.8266C20.0898 42.1638 20.6816 41.5992 21.262 41.1445C21.5588 40.9242 21.8412 40.7178 22.1265 40.5545C22.4043 40.3815 22.6785 40.2448 22.9337 40.131C23.959 39.6788 24.6883 39.654 24.8283 39.9289C24.9787 40.2204 24.5455 40.749 23.8665 41.4725C23.6963 41.6545 23.5083 41.8454 23.3145 42.0579C23.1131 42.2603 22.9132 42.4911 22.694 42.72C22.2683 43.1923 21.8107 43.7109 21.3528 44.2748C20.9002 44.8432 20.4918 45.401 20.1218 45.9178C19.9448 46.1808 19.7629 46.4256 19.6078 46.6657C19.4417 46.9004 19.296 47.1251 19.1542 47.33C18.5933 48.1486 18.1698 48.6852 17.8525 48.6005C17.5539 48.5233 17.4218 47.8055 17.644 46.707Z" fill="#FF9843"/>
<path d="M20.5911 39.8504C20.1091 40.3532 19.6598 40.8406 19.2446 41.2867C18.8354 41.7371 18.4571 42.1444 18.1288 42.489C17.4688 43.1737 16.9624 43.5897 16.6691 43.4483C16.3878 43.3141 16.3806 42.625 16.7337 41.638C16.9082 41.1446 17.1824 40.5868 17.5463 40.0026C17.9159 39.4226 18.3785 38.8189 18.9291 38.2454C19.4832 37.6751 20.0704 37.1917 20.6371 36.8023C21.2084 36.4183 21.7564 36.1247 22.2431 35.9331C23.2175 35.5455 23.9062 35.5286 24.0501 35.805C24.2016 36.0932 23.8036 36.6135 23.1425 37.2972C22.8094 37.6375 22.4157 38.0297 21.98 38.4543C21.5479 38.885 21.0767 39.3515 20.5911 39.8504Z" fill="#FF9843"/>
<path d="M39.6867 22.0755C39.9713 22.5338 40.1867 23.4425 40.023 23.9564C39.8385 24.5364 39.1703 24.8659 38.5641 24.8067C37.9583 24.7474 37.4221 24.3767 37.0061 23.9324C36.6142 23.5143 36.297 23.0072 36.1972 22.4426C36.0974 21.8781 36.2015 21.2073 36.6548 20.8563C37.9246 19.8719 39.12 21.1625 39.6867 22.0755Z" fill="black"/>
<path d="M39.2668 23.0323C39.0856 23.1934 38.7881 23.1873 38.5957 23.0395C38.2271 22.7563 38.324 22.0267 38.8559 22.0522C39.3099 22.0741 39.6394 22.7014 39.2668 23.0323Z" fill="white"/>
<path d="M26.2423 31.2272C26.5269 31.6855 26.7422 32.5942 26.5785 33.1081C26.3941 33.6881 25.7258 34.0176 25.1196 33.9583C24.5138 33.8991 23.9776 33.5284 23.5617 33.0841C23.1698 32.666 22.8525 32.1589 22.7527 31.5943C22.653 31.0298 22.7571 30.359 23.2103 30.0077C24.4801 29.0239 25.6752 30.3145 26.2423 31.2272Z" fill="black"/>
<path d="M25.8224 32.1844C25.6411 32.3455 25.3436 32.3394 25.1512 32.1916C24.7827 31.9084 24.8796 31.1788 25.4114 31.2043C25.8651 31.2262 26.1949 31.8531 25.8224 32.1844Z" fill="white"/>
<path d="M53.6911 31.9757C52.4238 31.7198 51.0141 31.5178 49.5236 31.4395C48.0324 31.376 46.6101 31.4438 45.3242 31.5784C44.6836 31.6653 44.0721 31.7338 43.509 31.8526C43.2265 31.9079 42.9512 31.9488 42.691 32.0098C42.4312 32.0719 42.1818 32.1315 41.9435 32.1885C41.4636 32.2905 41.043 32.4315 40.6676 32.5356C40.4806 32.5909 40.3048 32.6368 40.1458 32.687C39.9879 32.7409 39.8436 32.7897 39.7133 32.8338C39.1922 33.0079 38.8979 33.0929 38.8879 33.0685C38.8775 33.0441 39.1527 32.9121 39.6609 32.6935C39.7887 32.6393 39.9304 32.5794 40.0851 32.5137C40.242 32.4523 40.4157 32.396 40.6009 32.3307C40.9734 32.2058 41.3929 32.045 41.8735 31.9251C42.1125 31.8598 42.363 31.7912 42.6239 31.7202C42.8856 31.6509 43.1626 31.6021 43.4472 31.5393C44.0154 31.4054 44.6334 31.3236 45.2819 31.226C46.5836 31.0695 48.0281 30.9902 49.5419 31.0548C51.055 31.1341 52.4856 31.3502 53.7668 31.629C54.4031 31.7877 55.0107 31.9276 55.5634 32.1146C55.8408 32.204 56.1122 32.279 56.3659 32.3726C56.6186 32.4685 56.8615 32.56 57.0934 32.6479C57.5603 32.813 57.963 33.0125 58.3219 33.1723C58.5002 33.2548 58.6678 33.3277 58.8182 33.4034C58.9661 33.4834 59.1014 33.5566 59.2234 33.6227C59.7086 33.8882 59.9699 34.0458 59.9577 34.0695C59.9451 34.0928 59.6602 33.9805 59.1581 33.7576C59.0325 33.7013 58.8936 33.6385 58.7414 33.5703C58.5878 33.505 58.417 33.4425 58.2364 33.37C57.8725 33.2304 57.467 33.0506 56.999 32.9034C56.7671 32.8241 56.5245 32.7412 56.2719 32.6547C56.0188 32.5693 55.7482 32.5026 55.4726 32.4207C54.9228 32.2488 54.3206 32.1229 53.6911 31.9757Z" fill="white"/>
<path d="M40.6618 34.2275C40.8467 34.2346 41.0466 34.2508 41.2619 34.2641C41.6922 34.296 42.1843 34.3179 42.7233 34.39C42.9936 34.422 43.2764 34.4554 43.571 34.4902C43.8657 34.5264 44.1693 34.5838 44.4855 34.6326C45.1189 34.7245 45.7868 34.8724 46.4913 35.0188C47.8935 35.3429 49.4188 35.7743 50.9807 36.3424C52.5383 36.922 53.9796 37.5824 55.2573 38.2442C55.8889 38.5891 56.4929 38.9092 57.0352 39.2502C57.3076 39.4174 57.5761 39.571 57.8241 39.7339C58.071 39.8987 58.3082 40.0566 58.5347 40.2073C58.9919 40.502 59.3809 40.8042 59.7294 41.0586C59.9024 41.1878 60.065 41.3055 60.2103 41.4197C60.3528 41.537 60.4831 41.6443 60.6008 41.7412C61.0681 42.1295 61.3179 42.3535 61.3014 42.3743C61.2845 42.3951 61.0035 42.2107 60.51 41.8604C60.3869 41.7721 60.2505 41.6745 60.1012 41.5675C59.9484 41.4649 59.7825 41.3536 59.6045 41.2341C59.2463 40.9976 58.8491 40.7134 58.3857 40.4356C58.1568 40.2927 57.917 40.1427 57.6672 39.9866C57.4171 39.8316 57.1472 39.6855 56.8737 39.5258C56.3293 39.1996 55.7249 38.8931 55.0947 38.5597C53.8203 37.9212 52.3897 37.2777 50.8479 36.7038C49.3018 36.1414 47.7955 35.7047 46.4113 35.3644C45.7154 35.2097 45.0565 35.0515 44.4306 34.947C44.1183 34.8914 43.8183 34.8275 43.5272 34.7838C43.2362 34.7407 42.9562 34.6994 42.6892 34.6599C42.1563 34.5709 41.6696 34.5304 41.2436 34.4783C41.0308 34.4539 40.832 34.431 40.6493 34.4101C40.4662 34.3947 40.299 34.3811 40.1479 34.3685C39.5453 34.3154 39.2116 34.2734 39.2123 34.2468C39.213 34.2203 39.5486 34.2117 40.1562 34.2189C40.3083 34.2214 40.477 34.2242 40.6618 34.2275Z" fill="white"/>
<path d="M42.4994 33.2351C40.2652 33.3776 38.9112 33.7343 38.8964 33.6625C38.8907 33.6395 39.2223 33.5294 39.8367 33.3826C40.4508 33.2347 41.3523 33.0696 42.4789 32.9634C43.6047 32.8557 44.9585 32.8285 46.4518 32.9605C47.9441 33.0912 49.5738 33.3973 51.2251 33.9188C52.8731 34.4506 54.3783 35.1447 55.6707 35.9027C56.9645 36.6596 58.0519 37.4664 58.9075 38.2064C59.7642 38.9458 60.4034 39.6025 60.8183 40.0788C61.2339 40.5543 61.4402 40.836 61.4226 40.8515C61.3692 40.9014 60.4723 39.8261 58.7335 38.416C57.0076 37.0056 54.3593 35.322 51.1081 34.2859C47.8569 33.2473 44.723 33.0858 42.4994 33.2351Z" fill="white"/>
<path d="M37.6977 53.9812C37.5868 53.661 37.4515 53.2989 37.3342 52.8887C37.2728 52.6841 37.2086 52.4699 37.1415 52.247C37.0758 52.0234 37.0202 51.7873 36.9563 51.5443C36.8235 51.0598 36.7162 50.5336 36.5977 49.9813C36.3817 48.8723 36.1979 47.642 36.0906 46.3414C35.9916 45.0404 35.979 43.7962 36.0174 42.6671C36.0476 42.1029 36.0705 41.5664 36.1251 41.0672C36.1498 40.8174 36.1678 40.5755 36.1972 40.3443C36.2281 40.1136 36.2579 39.8918 36.2862 39.68C36.3375 39.2562 36.414 38.8772 36.4728 38.5438C36.5299 38.2097 36.5934 37.9247 36.6512 37.6932C36.7625 37.2292 36.836 36.9761 36.8619 36.9815C36.9247 36.9941 36.7298 38.0284 36.5565 39.7131C36.5364 39.9237 36.5148 40.1444 36.4926 40.3741C36.471 40.6038 36.461 40.8443 36.4431 41.0923C36.4029 41.5883 36.3917 42.1194 36.3716 42.6782C36.3533 43.7962 36.3763 45.0254 36.4739 46.3113C36.5801 47.5968 36.7513 48.8142 36.9459 49.9153C37.0539 50.4637 37.1483 50.9866 37.2664 51.47C37.3231 51.7119 37.3708 51.9477 37.4286 52.1713C37.4867 52.3949 37.5423 52.6091 37.5958 52.814C38.0326 54.4502 38.3883 55.4408 38.328 55.4634C38.3032 55.4727 38.1905 55.2344 38.0075 54.7937C37.9145 54.5733 37.8068 54.302 37.6977 53.9812Z" fill="white"/>
<path d="M32.4963 52.9516C32.258 51.1054 31.9698 48.521 32.1766 45.6589C32.2878 44.2301 32.5268 42.8785 32.8671 41.6823C33.2069 40.4858 33.6362 39.4447 34.0805 38.616C34.523 37.7862 34.9565 37.1582 35.2878 36.7515C35.6176 36.3438 35.8254 36.1411 35.843 36.1558C35.9029 36.2006 35.1306 37.0742 34.3238 38.7391C33.9183 39.5678 33.5242 40.5978 33.2095 41.7764C32.8944 42.955 32.67 44.2829 32.5606 45.6883C32.3571 48.5056 32.5983 51.072 32.7669 52.9214C32.8549 53.8448 32.9259 54.5935 32.9755 55.1168C33.02 55.6361 33.0325 55.925 33.0063 55.9286C32.9801 55.9322 32.917 55.6497 32.8269 55.1361C32.7368 54.6218 32.6191 53.8768 32.4963 52.9516Z" fill="white"/>
<path d="M24.1621 50.9192C24.2382 50.6877 24.338 50.4071 24.4682 50.087C24.5967 49.7661 24.736 49.3968 24.9176 49.0013C25.0924 48.6022 25.2872 48.1669 25.5184 47.7093C25.7377 47.2456 26.0007 46.7654 26.2728 46.2576C26.8348 45.2513 27.4969 44.1685 28.2578 43.0767C29.0251 41.9893 29.8175 40.9977 30.5719 40.1266C30.957 39.6974 31.3188 39.2865 31.6798 38.9225C32.0312 38.5497 32.3743 38.218 32.6897 37.9177C32.9998 37.6119 33.2995 37.3556 33.5575 37.1252C33.8142 36.8937 34.0442 36.7042 34.2358 36.5539C34.6163 36.2502 34.8345 36.0923 34.8517 36.1124C34.893 36.1605 34.0891 36.8729 32.8814 38.1111C32.5803 38.4215 32.2512 38.7614 31.9127 39.1408C31.5646 39.5111 31.2151 39.9264 30.8407 40.3578C30.1079 41.2334 29.3323 42.2211 28.5729 43.2978C27.8196 44.3788 27.1549 45.4443 26.5814 46.432C26.3033 46.9305 26.0323 47.401 25.8026 47.8543C25.5614 48.3015 25.354 48.7271 25.1645 49.1158C24.4119 50.673 24.016 51.6715 23.9568 51.6492C23.9321 51.6395 24.0064 51.3808 24.1621 50.9192Z" fill="white"/>
<path d="M40.6558 40.5014C41.5447 40.5014 42.2654 39.7807 42.2654 38.8917C42.2654 38.0028 41.5447 37.2821 40.6558 37.2821C39.7668 37.2821 39.0461 38.0028 39.0461 38.8917C39.0461 39.7807 39.7668 40.5014 40.6558 40.5014Z" fill="black"/>
</svg>
