<svg width="81" height="71" viewBox="0 0 81 71" fill="none" xmlns="http://www.w3.org/2000/svg">
<path d="M33.3428 4.12392L33.292 4.14267L33.3052 4.07214L33.3428 4.12392Z" fill="#3E3E70"/>
<path d="M33.7213 1.78137C33.6877 1.81452 33.6564 1.84686 33.6256 1.8792L33.634 1.82018L33.7213 1.78137Z" fill="#3E3E70"/>
<path d="M35.1707 1.13013C35.1572 1.13654 35.0018 1.20227 34.7488 1.3133L35.0282 1.18744C35.0758 1.1662 35.1225 1.14496 35.1707 1.13013Z" fill="#3E3E70"/>
<path d="M34.7487 1.31332L34.7459 1.31412C34.7431 1.31572 34.7431 1.31572 34.7394 1.31652L34.6807 1.34298C34.1992 1.55501 33.4095 1.90653 32.5131 2.30414C32.5075 2.30655 32.5066 2.31056 32.5024 2.31497L32.4996 2.31657C32.3405 2.38952 32.1781 2.46046 32.0116 2.53181C31.982 2.54744 31.9482 2.56227 31.9159 2.57349C31.4704 2.76989 31.0134 2.9711 30.5716 3.1631C29.8861 3.46852 29.2153 3.76352 28.6463 4.02045C28.6426 4.01964 28.6426 4.01964 28.6408 4.02365C28.6408 4.02365 28.6408 4.02365 28.638 4.02446C28.5497 4.06053 28.4655 4.0974 28.3859 4.13548C28.3813 4.13468 28.3813 4.13468 28.3794 4.13789C28.0098 4.30142 27.6902 4.44251 27.4506 4.55113C27.445 4.54953 27.4441 4.55354 27.4441 4.55354L26.9561 4.76877C26.9478 4.77198 26.9427 4.77438 26.9427 4.77438C25.8991 5.23452 25.1455 6.03696 24.8439 6.9845C24.7935 7.13881 24.7537 7.29353 24.7338 7.45185C24.7232 7.51117 24.7149 7.57089 24.7103 7.62781C24.6968 7.72481 24.6904 7.82261 24.6922 7.92281V7.94085L24.6848 10.6881L25.6659 10.2552C25.8103 10.5009 25.9833 10.7241 26.1766 10.9269C26.259 11.0123 26.3455 11.0937 26.4366 11.1702C26.6198 11.327 26.8187 11.466 27.0273 11.5883C27.9677 12.137 29.1469 12.3358 30.276 12.1082L30.2788 12.1066C30.3917 12.0817 30.5064 12.0548 30.6202 12.0204L31.0296 11.8825L31.1697 11.8208C32.544 11.2147 33.4077 9.99344 33.4142 8.65711L33.4197 5.88666L33.4188 5.29104L33.4216 4.71787V4.41726V4.21925L33.4225 4.09339L33.4234 4.07135L33.4225 3.93748C33.453 3.36431 33.5932 2.822 33.8767 2.34222C33.985 2.15423 34.1173 1.97667 34.2732 1.80993C34.3018 1.77546 34.3356 1.74259 34.3708 1.71213C34.349 1.71213 34.3301 1.71454 34.3055 1.71614C34.3055 1.71614 34.3055 1.71614 34.3028 1.71694L34.151 1.80632L34.2764 1.72015L34.7029 1.42515C34.7048 1.42114 34.7047 1.42114 34.7075 1.42034C34.7103 1.41873 34.714 1.41392 34.7172 1.41232C34.7228 1.40991 34.7237 1.40591 34.7288 1.4039C34.7353 1.4015 34.7362 1.39749 34.7413 1.39549C34.7478 1.39308 34.7487 1.38907 34.7547 1.38707C34.7603 1.38467 34.7654 1.38226 34.77 1.37785C34.8921 1.29007 35.0267 1.20871 35.1683 1.13135C35.1572 1.13616 35.0017 1.20189 34.7487 1.31332ZM29.9712 7.58773C29.9702 7.58532 29.9656 7.58372 29.9629 7.57931L29.9702 7.57851L29.9712 7.58773ZM33.292 4.14149L33.3045 4.07175L33.3415 4.12265L33.292 4.14149ZM33.6256 1.87847L33.6339 1.81995L33.7208 1.78148C33.6871 1.81434 33.6565 1.84641 33.6256 1.87847Z" fill="#3E3E70"/>
<path d="M33.4258 4.09216L33.425 4.21762L33.4226 4.41723V4.21922L33.4234 4.09296L33.4258 4.09216Z" fill="#3E3E70"/>
<path d="M34.7042 1.42432C34.6191 1.48925 34.5335 1.56059 34.4623 1.62553C34.4595 1.62713 34.4595 1.62713 34.4595 1.62713C34.4308 1.65519 34.3998 1.68124 34.3721 1.7117C34.3503 1.7117 34.3314 1.71411 34.3068 1.71571C34.3068 1.71571 34.3068 1.71571 34.3041 1.71651L34.1523 1.80589L34.2777 1.71972L34.7042 1.42432Z" fill="#3E3E70"/>
<path d="M33.3428 4.12392L33.292 4.14267L33.3052 4.07214L33.3428 4.12392Z" fill="#B3BACC"/>
<path d="M33.4258 4.09216L33.425 4.21762L33.4226 4.41723V4.21922L33.4234 4.09296L33.4258 4.09216Z" fill="#B3BACC"/>
<path d="M34.7042 1.42432C34.6191 1.48925 34.5335 1.56059 34.4623 1.62553C34.4595 1.62713 34.4595 1.62713 34.4595 1.62713C34.4308 1.65519 34.3998 1.68124 34.3721 1.7117C34.3503 1.7117 34.3314 1.71411 34.3068 1.71571C34.3068 1.71571 34.3068 1.71571 34.3041 1.71651L34.1523 1.80589L34.2777 1.71972L34.7042 1.42432Z" fill="#B3BACC"/>
<path d="M33.3428 4.12392L33.292 4.14267L33.3052 4.07214L33.3428 4.12392Z" fill="#3E3E70"/>
<path d="M33.4258 4.09216L33.425 4.21762L33.4226 4.41723V4.21922L33.4234 4.09296L33.4258 4.09216Z" fill="#3E3E70"/>
<path d="M34.4598 1.6272C34.4311 1.65525 34.4001 1.68131 34.3724 1.71177C34.3506 1.71177 34.3316 1.71418 34.3071 1.71578L34.4598 1.6272Z" fill="#3E3E70"/>
<path d="M40.549 2.74504L33.4206 5.88666L33.4197 5.29104L33.4225 4.71787V4.41726L33.4252 4.21765L33.4262 4.09259L33.4234 4.0934L33.4243 4.07135L33.4234 3.93748C33.4539 3.36431 33.5941 2.822 33.8776 2.34222C33.9859 2.15424 34.1182 1.97667 34.2741 1.80993C34.3027 1.77546 34.3365 1.7426 34.3717 1.71213C34.3999 1.68167 34.4304 1.65562 34.4591 1.62756C34.4591 1.62756 34.4591 1.62756 34.4619 1.62596C34.5331 1.56103 34.6191 1.48968 34.7038 1.42475C34.7056 1.42074 34.7057 1.42074 34.7084 1.41994C34.7112 1.41833 34.7149 1.41352 34.7181 1.41192C34.7237 1.40952 34.7246 1.40551 34.7297 1.4035C34.7362 1.4011 34.7371 1.39709 34.7422 1.39509C34.7487 1.39268 34.7496 1.38867 34.7556 1.38667C34.7612 1.38427 34.7662 1.38186 34.7709 1.37745C34.893 1.28967 35.0276 1.20831 35.1692 1.13095C37.1638 0.32851 39.5442 1.03475 40.549 2.74504Z" fill="#3E3E70"/>
<path d="M34.2779 1.71927L34.1526 1.80545L34.3043 1.71606C34.2969 1.71727 34.2881 1.71807 34.2779 1.71927ZM33.4235 4.09292L33.4226 4.21878L33.4254 4.21717L33.4263 4.09212L33.4235 4.09292Z" fill="#B3BACC"/>
<path d="M30.6216 12.0205L30.1877 12.1652C30.2183 12.1456 30.2465 12.1275 30.277 12.1079L30.2798 12.1063C30.3931 12.0814 30.5079 12.055 30.6216 12.0205Z" fill="#B3BACC"/>
<path d="M29.9717 7.57837L29.9728 7.58974C29.9717 7.58677 29.9662 7.58479 29.9629 7.57936L29.9717 7.57837Z" fill="#B3BACC"/>
<path d="M33.3428 4.12379L33.292 4.14255L33.3052 4.07202L33.3428 4.12379Z" fill="#B3BACC"/>
<path d="M32.5135 2.3042C32.5079 2.3066 32.507 2.31061 32.5028 2.31502L32.5001 2.31662C32.3409 2.38957 32.1786 2.46052 32.012 2.53186C31.9824 2.54749 31.9487 2.56233 31.9163 2.57355C31.4708 2.76995 31.0138 2.97116 30.572 3.16315C31.023 2.96435 31.4791 2.75993 31.9246 2.56353L32.0204 2.52184C32.1883 2.44769 32.3497 2.37314 32.5135 2.3042Z" fill="#B3BACC"/>
<path d="M33.7211 1.78149C33.6875 1.81464 33.6563 1.84698 33.6255 1.87932L33.6339 1.8203L33.7211 1.78149Z" fill="#B3BACC"/>
<path d="M34.7042 1.42432C34.6191 1.48925 34.5335 1.56059 34.4623 1.62553C34.4595 1.62713 34.4595 1.62713 34.4595 1.62713C34.4308 1.65519 34.3998 1.68124 34.3721 1.7117C34.3503 1.7117 34.3314 1.71411 34.3068 1.71571C34.3068 1.71571 34.3068 1.71571 34.3041 1.71651L34.1523 1.80589L34.2777 1.71972L34.7042 1.42432Z" fill="#B3BACC"/>
<path d="M30.6216 12.0205L30.1877 12.1652C30.2183 12.1456 30.2465 12.1275 30.277 12.1079L30.2798 12.1063C30.3931 12.0814 30.5079 12.055 30.6216 12.0205Z" fill="#B3BACC"/>
<path d="M29.9717 7.57837L29.9728 7.58974C29.9717 7.58677 29.9662 7.58479 29.9629 7.57936L29.9717 7.57837Z" fill="#B3BACC"/>
<path d="M30.5721 3.16309C29.8865 3.46851 29.2158 3.76351 28.6468 4.02044C28.6431 4.01963 28.6431 4.01963 28.6413 4.02364C28.6413 4.02364 28.6413 4.02364 28.6385 4.02445C28.5501 4.06052 28.4659 4.09739 28.3864 4.13547C28.3818 4.13467 28.3818 4.13467 28.3799 4.13788C28.0103 4.30141 27.6907 4.4425 27.451 4.55112C27.4455 4.54952 27.4446 4.55353 27.4446 4.55353L26.9565 4.76876C27.0426 4.71545 27.1346 4.66936 27.2267 4.62768C27.2267 4.62768 27.3812 4.55954 27.6513 4.44049L27.6703 4.43248C27.8988 4.33468 28.199 4.20241 28.5548 4.04489C28.5575 4.04408 28.5622 4.03927 28.5691 4.03927C28.6204 4.01883 28.6658 3.99919 28.7143 3.97434L28.7227 3.97114C29.2611 3.73786 29.9013 3.45809 30.5721 3.16309Z" fill="#B3BACC"/>
<path d="M33.7211 1.78149C33.6875 1.81464 33.6563 1.84698 33.6255 1.87932L33.6339 1.8203L33.7211 1.78149Z" fill="#B3BACC"/>
<path d="M29.9717 7.57837L29.9728 7.58974C29.9717 7.58677 29.9662 7.58479 29.9629 7.57936L29.9717 7.57837Z" fill="#B3BACC"/>
<path d="M29.9717 7.57837L29.9728 7.58974C29.9717 7.58677 29.9662 7.58479 29.9629 7.57936L29.9717 7.57837Z" fill="#B3BACC"/>
<path d="M29.9717 7.57837L29.9728 7.58974C29.9717 7.58677 29.9662 7.58479 29.9629 7.57936L29.9717 7.57837Z" fill="#B3BACC"/>
<path d="M29.9717 7.57837L29.9728 7.58974C29.9717 7.58677 29.9662 7.58479 29.9629 7.57936L29.9717 7.57837Z" fill="#3E3E70"/>
<path d="M28.7579 3.95068C28.7524 3.95309 28.7454 3.9591 28.7399 3.96151C28.7334 3.96391 28.7283 3.96632 28.7237 3.97153L28.7154 3.97473C28.6918 3.98876 28.6691 4.00439 28.6469 4.02003C28.6432 4.01923 28.6432 4.01922 28.6414 4.02323C28.6414 4.02323 28.6414 4.02323 28.6386 4.02404C28.5502 4.06011 28.466 4.09698 28.3865 4.13506C28.4406 4.10219 28.4984 4.07333 28.5553 4.04488C28.5581 4.04407 28.5627 4.03926 28.5697 4.03926C28.596 4.02443 28.6238 4.01201 28.6548 3.99838C28.6821 3.98355 28.7098 3.97113 28.738 3.9583C28.738 3.9591 28.7459 3.95549 28.7579 3.95068Z" fill="white"/>
<path d="M32.0275 2.51343C32.0266 2.51669 32.0238 2.51832 32.0219 2.52199C32.019 2.52281 32.0143 2.52769 32.0134 2.53218C31.9833 2.54808 31.9489 2.56316 31.916 2.57458C31.9179 2.5705 31.9235 2.56805 31.9245 2.56439C31.9264 2.56112 31.932 2.55786 31.9339 2.55501L32.0275 2.51343Z" fill="white"/>
<path d="M31.031 11.8824L23.3055 15.2869C21.2873 16.1771 18.8162 15.4793 17.7878 13.7273L25.667 10.2546C25.8113 10.5003 25.9843 10.7236 26.1777 10.9264C26.26 11.0118 26.3465 11.0932 26.4376 11.1697C26.6208 11.3264 26.8197 11.4655 27.0283 11.5878C27.9688 12.1365 29.1479 12.3353 30.277 12.1076C30.2465 12.1273 30.2183 12.1453 30.1878 12.1649L30.6217 12.0202C30.7581 11.981 30.8964 11.9357 31.031 11.8824Z" fill="#3E3E70"/>
<path d="M30.6215 12.0203L30.1876 12.165C30.2182 12.1453 30.2464 12.1273 30.2769 12.1076L30.2797 12.106C30.393 12.0812 30.5077 12.0547 30.6215 12.0203Z" fill="#3E3E70"/>
<path d="M24.7105 7.62793C24.6975 7.72493 24.6913 7.82273 24.693 7.92293V7.94097L24.6904 7.94257C24.6886 7.83595 24.6948 7.73254 24.7105 7.62793Z" fill="#3E3E70"/>
<path d="M33.4257 4.09229L33.4249 4.21774L33.4225 4.41735V4.21935L33.4233 4.09309L33.4257 4.09229Z" fill="#3E3E70"/>
<path d="M18.5411 40.4946L18.5893 40.477L18.5737 40.4668C18.5624 40.477 18.5529 40.4872 18.5411 40.4946Z" fill="#B3BACC"/>
<path d="M0.77356 36.8755L7.77378 41.6789L9.02876 42.5415C9.45063 42.7896 9.92246 42.9571 10.4146 43.0369C10.5567 43.0626 10.7001 43.0778 10.8476 43.0878C10.8828 43.0878 10.9147 43.0902 10.9499 43.0902C11.071 43.0982 11.1927 43.0958 11.3139 43.0902C11.3255 43.0902 11.3426 43.0902 11.3662 43.0878C11.3777 43.0878 11.3949 43.0846 11.4097 43.0846C11.436 43.0822 11.4647 43.0798 11.4966 43.0774C11.5452 43.0726 11.5979 43.0674 11.6465 43.0625C11.7478 43.0477 11.8491 43.0297 11.9472 43.01C11.9759 43.0044 12.005 43 12.0286 42.9896C12.1928 42.9567 12.3556 42.909 12.5111 42.8517C12.5518 42.8393 12.5897 42.8269 12.6276 42.8116L12.7026 42.782C13.6712 42.3555 14.3396 41.6016 14.6024 40.7466V40.7434C14.7037 40.4131 14.7467 40.0716 14.7208 39.7233C14.7065 39.4808 14.6574 39.2347 14.5709 38.9946C14.5274 38.864 14.4696 38.7341 14.4039 38.6063L14.9118 38.4058L15.3346 38.2431L13.9344 37.2827L13.3678 36.8944L8.75722 33.7295L8.74797 33.7343L0.848961 36.8447L0.77356 36.8755ZM10.6052 40.2709H10.6108V40.2741H10.608L10.6052 40.2709Z" fill="#3E3E70"/>
<path d="M10.6052 40.2708L10.6078 40.2749H10.6109V40.2708H10.6052Z" fill="#B3BACC"/>
<path d="M11.3658 43.0881C11.4172 43.0881 11.4898 43.0849 11.5828 43.0757C11.8113 43.0508 12.1518 42.9871 12.5107 42.8524C12.3553 42.9097 12.1925 42.9574 12.0283 42.9903C12.0047 43.0003 11.976 43.0051 11.9468 43.0107C11.8483 43.0304 11.747 43.0484 11.6462 43.0632C11.5976 43.0681 11.5449 43.0733 11.4963 43.0781C11.4648 43.0805 11.4357 43.0829 11.4093 43.0853C11.395 43.0853 11.3774 43.0881 11.3658 43.0881Z" fill="#B3BACC"/>
<path d="M10.6052 40.2708L10.6078 40.2749H10.6109V40.2708H10.6052Z" fill="#B3BACC"/>
<path d="M10.6052 40.2708L10.6078 40.2749H10.6109V40.2708H10.6052Z" fill="#B3BACC"/>
<path d="M10.6052 40.2708L10.6078 40.2749H10.6109V40.2708H10.6052Z" fill="#B3BACC"/>
<path d="M10.6052 40.2708L10.6078 40.2749H10.6109V40.2708H10.6052Z" fill="#3E3E70"/>
<path d="M18.5411 40.4946L18.5893 40.477L18.5737 40.4668C18.5624 40.477 18.5529 40.4872 18.5411 40.4946Z" fill="#3E3E70"/>
<path d="M12.702 42.7831L14.1106 42.2312L15.2879 41.7702L15.4641 41.6997L15.6547 41.6243L16.1408 41.4363L16.5373 41.2812L16.5979 41.2564L16.8319 41.1654L16.9513 41.1177L17.1275 41.0479L17.406 40.9397L18.1693 40.6415L18.5389 40.496L18.5416 40.4936C18.5532 40.4864 18.5624 40.4764 18.5731 40.4664L18.5884 40.4764L18.7933 40.3966L18.8853 40.3613C18.8881 40.3589 18.8881 40.3589 18.8918 40.3557L19.3336 40.1858L19.3687 40.1701L19.8026 40.0002C21.6594 39.2731 22.4842 37.3809 21.6455 35.772L15.3336 38.2434L14.9108 38.4061L14.4029 38.6066C14.4691 38.734 14.5269 38.8643 14.5699 38.995C14.6569 39.2354 14.7055 39.4811 14.7198 39.7236C14.7462 40.0719 14.7027 40.4134 14.6014 40.7437V40.7469C14.3391 41.6023 13.6702 42.3562 12.702 42.7831Z" fill="#3E3E70"/>
<path d="M18.8855 40.3618L19.3337 40.1863L18.892 40.3562C18.8883 40.3594 18.8883 40.3594 18.8855 40.3618Z" fill="#B3BACC"/>
<path d="M18.5411 40.4946L18.5893 40.477L18.5737 40.4668C18.5624 40.477 18.5529 40.4872 18.5411 40.4946Z" fill="#B3BACC"/>
<path d="M18.5411 40.4946L18.5893 40.477L18.5737 40.4668C18.5624 40.477 18.5529 40.4872 18.5411 40.4946Z" fill="#3E3E70"/>
<path d="M18.5411 40.4946L18.5893 40.477L18.5737 40.4668C18.5624 40.477 18.5529 40.4872 18.5411 40.4946Z" fill="#B3BACC"/>
<path d="M68.4129 22.0005C68.2848 22.0218 68.1067 22.0398 67.886 22.0539C65.7221 22.1933 59.5499 22.1392 57.5358 24.5293C57.478 24.5942 57.4294 24.6616 57.3785 24.7297C54.9227 25.442 50.8835 25.046 48.4665 24.7009C47.2628 24.5293 46.4626 24.373 46.4626 24.373C46.3451 23.8984 43.3772 17.9599 39.7001 16.2993C39.5257 16.0965 39.4365 15.8901 39.4156 15.6933C39.2727 14.2684 42.7504 13.1036 45.0397 14.0407C47.6482 15.1093 48.7149 14.9918 50.0221 14.7537C51.3275 14.5181 53.1075 12.1412 55.4783 12.9713C57.8527 13.805 60.105 16.7727 60.105 16.7727C60.105 16.7727 65.327 17.0124 67.2236 18.794C69.1248 20.5748 69.8367 21.7617 68.4129 22.0005Z" fill="white"/>
<path d="M44.1737 27.5414C44.1737 27.5414 42.8789 24.7341 46.5463 22.4114C50.2136 20.0894 56.1466 20.96 57.8711 24.0567C59.5975 27.1538 58.8425 28.4116 58.8425 28.4116L44.1737 27.5414Z" fill="#3E3E70"/>
<path d="M75.5829 51.6932C74.9992 50.9376 75.8105 46.0284 75.6796 44.9378C75.3813 42.4227 74.6823 39.9705 73.5023 37.7231C70.5209 32.0371 65.0366 27.7255 58.8977 25.8825C58.4055 25.7338 57.905 25.6015 57.4017 25.4881C56.5668 25.2957 55.7165 25.149 54.8672 25.0528C53.9902 24.9518 53.1071 24.9065 52.2254 24.9117C48.8246 24.8648 45.4116 25.6248 42.2666 27.3619C37.7846 29.8382 33.559 33.9566 32.0815 39.0373C30.9773 42.8279 30.2427 47.4241 30.8066 51.3108C30.8066 51.3108 22.34 58.184 24.664 62.1141C25.9824 64.3414 32.1611 66.6209 39.7178 67.968C44.0697 68.7448 48.8782 69.2105 53.4777 69.1789C55.124 69.1797 56.7462 69.1196 58.3139 68.9865C71.763 67.8389 78.7044 66.0248 80.2332 62.6014C80.4201 62.181 80.5043 61.7144 80.4997 61.2078C80.4761 58.4454 77.8274 54.5999 75.5829 51.6932Z" fill="white"/>
<path d="M31.5893 50.3076H20.2515V50.5525H31.5893V50.3076Z" fill="#B3BACC"/>
<path opacity="0.7" d="M28.1712 48.384H22.3936V50.3076H28.1712V48.384Z" fill="#B3BACC"/>
<path opacity="0.9" d="M31.5893 48.384H28.1713V50.3076H31.5893V48.384Z" fill="#B3BACC"/>
<path opacity="0.3" d="M22.3946 48.3842H19.0039V50.3077H22.3946V48.3842Z" fill="#B3BACC"/>
<path d="M19.0029 48.384H18.9747V50.3076H19.0029V48.384Z" fill="white"/>
<path opacity="0.9" d="M32.843 50.5525H29.4199V52.476H32.843V50.5525Z" fill="#B3BACC"/>
<path opacity="0.7" d="M29.4198 50.5525H23.6469V52.476H29.4198V50.5525Z" fill="#B3BACC"/>
<path opacity="0.3" d="M23.6478 50.5525H20.2524V52.476H23.6478V50.5525Z" fill="#B3BACC"/>
<path d="M20.2514 50.5525H20.2241V52.476H20.2514V50.5525Z" fill="white"/>
<path d="M52.4349 55.4558C50.6632 55.5504 49.1515 55.4041 47.8984 55.0157C46.6443 54.6289 45.554 54.0104 44.6242 53.1619L46.7165 50.4071C47.2494 51.0961 47.9793 51.6219 48.9063 51.9859C49.8324 52.3506 50.8649 52.537 52.0042 52.547L51.4403 48.7353C50.0554 48.6515 48.8726 48.5104 47.8924 48.3132C46.9121 48.1168 46.0619 47.7392 45.3417 47.1821C44.6224 46.6245 44.1843 45.8201 44.0289 44.7672C43.8309 43.4292 44.2574 42.2356 45.3084 41.1842C46.3589 40.1337 47.9229 39.407 50.0017 39.0062L49.6682 36.7492L52.4742 36.4377L52.8077 38.6948C54.4429 38.615 55.8136 38.7653 56.9196 39.1433C58.0238 39.522 59.0674 40.1157 60.0503 40.9233L57.9461 43.604C57.292 42.8953 56.5889 42.3827 55.8362 42.0672C55.0836 41.7518 54.2191 41.6055 53.2416 41.6287L53.8245 45.5656C55.1706 45.6542 56.3307 45.8061 57.3035 46.0205C58.2763 46.2349 59.1233 46.6297 59.8459 47.2033C60.568 47.7773 61.0088 48.599 61.1665 49.6692C61.3645 51.0063 60.9172 52.1602 59.8251 53.131C58.7338 54.1018 57.205 54.7728 55.24 55.1435L55.5744 57.4005L52.7675 57.712L52.4349 55.4558ZM50.4472 42.0159C49.7478 42.1951 49.2274 42.4568 48.8869 42.8011C48.5455 43.1446 48.41 43.5511 48.4784 44.0184C48.5409 44.4365 48.7819 44.7447 49.2038 44.9447C49.6247 45.1443 50.2048 45.2882 50.944 45.376L50.4472 42.0159ZM56.7364 50.3397C56.6721 49.9052 56.439 49.5866 56.037 49.3846C55.635 49.1834 55.0637 49.0395 54.3259 48.9509L54.8038 52.1855C56.2243 51.8404 56.8673 51.2259 56.7364 50.3397Z" fill="#B3BACC"/>
<path d="M48.5034 57.9772H26.1016V58.4634H48.5034V57.9772Z" fill="#3E3E70"/>
<path d="M26.1009 57.9772H14.6377V58.4634H26.1009V57.9772Z" fill="#3E3E70"/>
<path d="M48.5034 55.4697H26.1016V56.4702H48.5034V55.4697Z" fill="#3E3E70"/>
<path d="M26.1011 55.4697H14.637V56.4702H26.1011V55.4697Z" fill="#3E3E70"/>
<path d="M48.5034 56.4702H26.1016V56.6855H48.5034V56.4702Z" fill="#3E3E70"/>
<path d="M26.1011 56.4702H14.637V56.6855H26.1011V56.4702Z" fill="#3E3E70"/>
<path d="M26.1011 56.6853H14.637V57.7611H26.1011V56.6853Z" fill="#3E3E70"/>
<path d="M48.5034 56.6853H26.1016V57.7611H48.5034V56.6853Z" fill="#3E3E70"/>
<path d="M26.1016 57.7612H14.6375V57.9773H26.1016V57.7612Z" fill="#3E3E70"/>
<path d="M48.5034 57.7612H26.1016V57.9773H48.5034V57.7612Z" fill="#3E3E70"/>
<path d="M41.0776 55.4697H35.541V58.4634H41.0776V55.4697Z" fill="white"/>
<path d="M36.5393 55.4697H35.541V58.4634H36.5393V55.4697Z" fill="white"/>
<path d="M41.0769 55.4697H40.0796V58.4634H41.0769V55.4697Z" fill="white"/>
<path d="M17.4143 52.4771V53.4767V53.6927V54.7685V54.9838V55.47H28.8784V54.9838V54.7685V53.6927V53.4775V52.9773V52.4771H17.4143Z" fill="#3E3E70"/>
<path d="M51.2804 53.6927V53.4775V52.4771H28.8785V53.4775V53.6927V54.4162V54.7685V54.9838V55.47H51.2804V54.9838V54.7685V53.6927Z" fill="#3E3E70"/>
<path d="M47.8137 45.6069C47.8137 49.6973 43.9729 53.0245 39.2523 53.0245V52.5259C43.6561 52.5259 47.2383 49.4227 47.2383 45.6069H47.8137Z" fill="#3E3E70"/>
<path d="M39.2443 52.4771H33.7068V55.47H39.2443V52.4771Z" fill="white"/>
<path d="M34.705 52.4771H33.7068V55.47H34.705V52.4771Z" fill="white"/>
<path d="M39.2439 52.4771H38.2448V55.47H39.2439V52.4771Z" fill="white"/>
<path d="M53.9332 69.2916H31.5314V69.7221H53.9332V69.2916Z" fill="#3E3E70"/>
<path d="M53.9332 69.9377H31.5314V70.4239H53.9332V69.9377Z" fill="#3E3E70"/>
<path d="M31.5313 69.9377H20.0681V70.4239H31.5313V69.9377Z" fill="#3E3E70"/>
<path d="M31.5313 69.2916H20.0681V69.7221H31.5313V69.2916Z" fill="#3E3E70"/>
<path d="M53.9332 67.4303H31.5314V69.0756H53.9332V67.4303Z" fill="#3E3E70"/>
<path d="M20.0681 67.4302V67.7857V68.0017V68.4306V68.6466V69.0755H31.5313V67.4302H20.0681Z" fill="#3E3E70"/>
<path d="M31.5313 69.0754H20.0681V69.2915H31.5313V69.0754Z" fill="#3E3E70"/>
<path d="M53.9332 69.0754H31.5314V69.2915H53.9332V69.0754Z" fill="#3E3E70"/>
<path d="M31.5313 69.7224H20.0681V69.9376H31.5313V69.7224Z" fill="#3E3E70"/>
<path d="M53.9332 69.7224H31.5314V69.9376H53.9332V69.7224Z" fill="#3E3E70"/>
<path d="M46.5082 67.4303H40.9707V70.424H46.5082V67.4303Z" fill="white"/>
<path d="M41.969 67.4303H40.9707V70.424H41.969V67.4303Z" fill="white"/>
<path d="M46.5085 67.4303H45.5103V70.424H46.5085V67.4303Z" fill="white"/>
<path d="M29.391 64.4371H17.9269V67.43H29.391V64.4371Z" fill="#3E3E70"/>
<path d="M51.7937 64.4371H29.3918V67.43H51.7937V64.4371Z" fill="#3E3E70"/>
<path d="M44.3688 64.4371H38.8313V67.43H44.3688V64.4371Z" fill="white"/>
<path d="M39.8295 64.4371H38.8313V67.43H39.8295V64.4371Z" fill="white"/>
<path d="M44.3688 64.4371H43.3706V67.43H44.3688V64.4371Z" fill="white"/>
<path d="M51.7938 63.321H29.392V63.7515H51.7938V63.321Z" fill="#3E3E70"/>
<path d="M51.7938 63.9668H29.392V64.453H51.7938V63.9668Z" fill="#3E3E70"/>
<path d="M29.3911 63.9668H17.927V64.453H29.3911V63.9668Z" fill="#3E3E70"/>
<path d="M29.3911 63.321H17.927V63.7515H29.3911V63.321Z" fill="#3E3E70"/>
<path d="M51.7938 61.4592H29.392V63.1046H51.7938V61.4592Z" fill="#3E3E70"/>
<path d="M17.927 61.4595V61.815V62.0302V62.4607V62.6763V63.1052H29.3911V61.4595H17.927Z" fill="#3E3E70"/>
<path d="M29.3911 63.1049H17.927V63.3209H29.3911V63.1049Z" fill="#3E3E70"/>
<path d="M51.7938 63.1049H29.392V63.3209H51.7938V63.1049Z" fill="#3E3E70"/>
<path d="M29.3911 63.7515H17.927V63.9667H29.3911V63.7515Z" fill="#3E3E70"/>
<path d="M51.7938 63.7515H29.392V63.9667H51.7938V63.7515Z" fill="#3E3E70"/>
<path d="M44.3688 61.4592H38.8313V64.4529H44.3688V61.4592Z" fill="white"/>
<path d="M39.8295 61.4592H38.8313V64.4529H39.8295V61.4592Z" fill="white"/>
<path d="M44.3688 61.4592H43.3706V64.4529H44.3688V61.4592Z" fill="white"/>
<path d="M29.3846 58.4667H17.9214V61.4596H29.3846V58.4667Z" fill="#3E3E70"/>
<path d="M51.7862 58.4668H29.3844V61.4597H51.7862V58.4668Z" fill="#3E3E70"/>
<path d="M44.3604 58.4666H38.8237V61.4595H44.3604V58.4666Z" fill="white"/>
<path d="M39.822 58.4666H38.8237V61.4595H39.822V58.4666Z" fill="white"/>
<path d="M44.3603 58.4666H43.3621V61.4595H44.3603V58.4666Z" fill="white"/>
</svg>
