<svg width="81" height="80" viewBox="0 0 81 80" fill="none" xmlns="http://www.w3.org/2000/svg">
<path d="M59.7937 0H18.762C17.0365 0 15.6308 1.38428 15.6022 3.10792L15.5469 6.45519H63.0106L62.9552 3.10792C62.9266 1.38249 61.5191 0 59.7937 0V0Z" fill="#B3BACC"/>
<path d="M64.7324 35.8751L63.0087 6.4552H23.3487C22.8593 9.14338 22.0234 14.0464 21.25 20.0425C31.2543 26.3423 45.9455 33.278 64.7324 35.8751V35.8751Z" fill="white"/>
<path d="M64.7325 35.8751C45.9456 33.278 31.2544 26.3423 21.2501 20.0443C20.3267 27.2104 19.4943 35.9358 19.4568 44.304C28.4358 54.0707 37.9168 61.9048 45.3579 67.4151H56.9019C61.4209 67.4151 66.1739 63.7124 66.0989 59.1934L64.7325 35.8751Z" fill="white"/>
<path d="M19.4549 44.3041C19.4156 53.167 20.2658 61.6299 22.8415 67.4152H45.3561C37.9149 61.9031 28.4339 54.069 19.4549 44.3041V44.3041Z" fill="white"/>
<path d="M15.0002 15.7861C16.8203 17.1275 18.9066 18.5672 21.25 20.0425C22.0234 14.0464 22.8594 9.14159 23.3488 6.4552H15.5468L15.0002 15.7861Z" fill="white"/>
<path d="M13.7178 37.6898C15.5897 39.9833 17.5116 42.1874 19.4567 44.3022C19.4942 35.9323 20.3266 27.2069 21.25 20.0426C18.9066 18.5672 16.8203 17.1275 15.0002 15.7861L13.7178 37.6898Z" fill="white"/>
<path d="M19.4549 44.304C17.5097 42.1892 15.5878 39.9851 13.7159 37.6917L12.4567 59.1953C12.3817 63.7143 17.1346 67.417 21.6536 67.417H22.8414C20.2658 61.628 19.4156 53.1652 19.4549 44.304V44.304Z" fill="white"/>
<path d="M49.605 14.4301C50.9495 14.4113 52.0193 12.951 51.9943 11.1684C51.9694 9.38585 50.8592 7.95606 49.5146 7.97489C48.1701 7.99371 47.1003 9.45402 47.1253 11.2366C47.1502 13.0191 48.2604 14.4489 49.605 14.4301Z" fill="white"/>
<path d="M57.2513 13.4821C57.8662 11.8082 57.3413 10.0753 56.0788 9.61143C54.8162 9.14756 53.2942 10.1284 52.6792 11.8022C52.0642 13.476 52.5892 15.209 53.8517 15.6729C55.1142 16.1367 56.6363 15.1559 57.2513 13.4821Z" fill="white"/>
<path d="M59.5461 19.4058C60.3107 18.0843 60.1223 16.5454 59.1254 15.9686C58.1284 15.3918 56.7004 15.9956 55.9359 17.3172C55.1713 18.6388 55.3597 20.1777 56.3566 20.7545C57.3536 21.3312 58.7816 20.7274 59.5461 19.4058Z" fill="white"/>
<path d="M44.8138 17.5164C45.9466 17.3103 46.6434 15.9259 46.3703 14.4243C46.0971 12.9226 44.9573 11.8724 43.8245 12.0784C42.6917 12.2845 41.9949 13.6689 42.268 15.1705C42.5412 16.6722 43.681 17.7225 44.8138 17.5164Z" fill="white"/>
<path d="M54.7334 23.1112C53.292 24.1775 52.7705 21.2536 49.9447 20.5248C47.119 19.7961 45.2668 22.0913 44.5023 20.4695C43.5074 18.3618 48.3426 15.0592 51.1683 15.7879C53.9922 16.5185 56.5893 21.7394 54.7334 23.1112V23.1112Z" fill="white"/>
<path d="M39.2779 60.6581C49.8755 60.6581 58.4666 52.067 58.4666 41.4693C58.4666 30.8717 49.8755 22.2806 39.2779 22.2806C28.6802 22.2806 20.0891 30.8717 20.0891 41.4693C20.0891 52.067 28.6802 60.6581 39.2779 60.6581Z" fill="white"/>
<path d="M20.4123 6.45523H18.2332V3.23299C18.2332 2.63105 18.7208 2.14343 19.3227 2.14343C19.9246 2.14343 20.4123 2.63105 20.4123 3.23299V6.45523Z" fill="white"/>
<path d="M26.8136 6.45523H24.6345V3.23299C24.6345 2.63105 25.1221 2.14343 25.7241 2.14343C26.326 2.14343 26.8136 2.63105 26.8136 3.23299V6.45523Z" fill="white"/>
<path d="M33.578 6.45523H31.3989V3.23299C31.3989 2.63105 31.8865 2.14343 32.4885 2.14343C33.0904 2.14343 33.578 2.63105 33.578 3.23299V6.45523Z" fill="white"/>
<path d="M39.9797 6.45523H37.8005V3.23299C37.8005 2.63105 38.2882 2.14343 38.8901 2.14343C39.492 2.14343 39.9797 2.63105 39.9797 3.23299V6.45523Z" fill="white"/>
<path d="M47.1994 6.45523H45.0203V3.23299C45.0203 2.63105 45.5079 2.14343 46.1098 2.14343C46.7118 2.14343 47.1994 2.63105 47.1994 3.23299V6.45523Z" fill="white"/>
<path d="M53.601 6.45523H51.4219V3.23299C51.4219 2.63105 51.9095 2.14343 52.5114 2.14343C53.1134 2.14343 53.601 2.63105 53.601 3.23299V6.45523Z" fill="white"/>
<path d="M60.0651 6.45523H57.886V3.23299C57.886 2.63105 58.3736 2.14343 58.9755 2.14343C59.5775 2.14343 60.0651 2.63105 60.0651 3.23299V6.45523Z" fill="white"/>
<path d="M54.6012 37.2772C55.4085 33.1655 55.5014 29.2359 54.5887 25.5618C54.5887 24.7062 53.5813 24.2472 52.9365 24.8098L47.4297 29.6146C45.0113 28.3857 42.1909 27.6766 39.1759 27.6766C36.9021 27.6766 34.7372 28.0767 32.7742 28.8019C26.9942 30.9346 22.9468 35.8679 22.9468 41.6123C22.9468 45.1292 24.4668 48.3389 26.971 50.7896C28.4821 46.2206 33.3726 42.8733 39.1776 42.8733C44.9827 42.8733 49.8732 46.2223 51.3843 50.7896C51.988 50.2001 52.5328 49.566 53.0133 48.8927C54.5315 46.7743 55.4085 44.2826 55.4085 41.6123C55.4067 40.0976 55.1227 38.6419 54.6012 37.2772V37.2772Z" fill="#BDBDE7"/>
<path d="M45.8563 42.1034C47.1841 42.1034 48.2605 41.027 48.2605 39.6992C48.2605 38.3714 47.1841 37.295 45.8563 37.295C44.5285 37.295 43.4521 38.3714 43.4521 39.6992C43.4521 41.027 44.5285 42.1034 45.8563 42.1034Z" fill="#3E3E70"/>
<path d="M25.6511 25.0116L31.4633 30.0825L23.9989 37.5469C23.1791 33.4102 23.0808 29.4574 23.9989 25.7636C23.9989 24.9062 25.0063 24.449 25.6511 25.0116Z" fill="#BDBDE7"/>
<path d="M25.7461 27.8659L27.9966 29.8307C28.2556 30.0575 28.2699 30.4576 28.027 30.7006L25.5746 33.153C25.3156 33.412 24.8744 33.2619 24.8208 32.8993C24.5815 31.265 24.6011 29.6985 24.9691 28.2196C24.9691 27.8177 25.4424 27.6016 25.7461 27.8659V27.8659Z" fill="white"/>
<path d="M52.6097 27.6087L50.5217 29.7449C50.2805 29.9914 50.2984 30.3915 50.5609 30.6148L53.3617 33.0011C53.5706 33.1779 53.8939 33.0457 53.9154 32.7725C54.0529 31.0435 53.9171 29.4073 53.4117 27.898C53.3795 27.4979 52.8919 27.3211 52.6097 27.6087V27.6087Z" fill="white"/>
<path d="M53.0133 48.8926C52.5328 49.566 51.988 50.2019 51.3843 50.7896C49.8732 46.2205 44.9827 42.8733 39.1776 42.8733C33.3726 42.8733 28.4821 46.2223 26.971 50.7896C24.4686 48.3389 22.9468 45.1292 22.9468 41.6122C22.9468 35.8679 26.9942 30.9346 32.7742 28.8019C36.7806 34.4337 44.738 44.5433 53.0133 48.8926Z" fill="#BDBDE7"/>
<path d="M39.1778 56.3303C44.0451 56.3303 48.4087 54.1851 51.3845 50.7914C49.8752 45.4704 44.9829 41.5695 39.1778 41.5695C33.3728 41.5695 28.4805 45.4686 26.9712 50.7914C29.9452 54.1851 34.3105 56.3303 39.1778 56.3303V56.3303Z" fill="white"/>
<path d="M33.1655 47.0566C33.0905 47.0566 33.0155 47.0441 32.9422 47.0209C32.8761 46.9995 26.1816 44.8632 15.779 47.0423C15.3932 47.1227 15.0145 46.8762 14.9341 46.4886C14.8538 46.1028 15.1002 45.7241 15.4878 45.6438C26.2977 43.3807 33.1066 45.5705 33.3923 45.6652C33.7674 45.7902 33.9693 46.1939 33.846 46.569C33.7442 46.8673 33.4656 47.0566 33.1655 47.0566V47.0566Z" fill="#BDBDE7"/>
<path d="M16.0095 53.8046C15.7433 53.8046 15.4879 53.6564 15.3647 53.3992C15.1932 53.0437 15.3432 52.6168 15.6987 52.4454C25.6512 47.6567 32.7869 48.1514 33.0852 48.1746C33.4782 48.205 33.7729 48.5497 33.7425 48.9427C33.7121 49.3357 33.371 49.6304 32.9762 49.6C32.9066 49.5946 25.8977 49.1267 16.3185 53.7332C16.2185 53.7814 16.1131 53.8046 16.0095 53.8046V53.8046Z" fill="#BDBDE7"/>
<path d="M45.3904 47.0566C45.0903 47.0566 44.8117 46.8672 44.7116 46.5672C44.5866 46.1921 44.7902 45.7884 45.1653 45.6634C45.4493 45.5687 52.2582 43.3789 63.0698 45.6419C63.4556 45.7223 63.7039 46.101 63.6235 46.4868C63.5432 46.8726 63.1645 47.1209 62.7787 47.0405C52.3421 44.856 45.6833 46.9976 45.6172 47.0191C45.5404 47.0459 45.4636 47.0566 45.3904 47.0566V47.0566Z" fill="#BDBDE7"/>
<path d="M62.5462 53.8046C62.4426 53.8046 62.3372 53.7814 62.2372 53.7332C52.6598 49.1249 45.6491 49.5946 45.5795 49.6C45.1865 49.6303 44.8436 49.3356 44.8132 48.9427C44.7828 48.5497 45.0758 48.2068 45.4687 48.1764C45.7688 48.155 52.9027 47.6602 62.8552 52.4471C63.2107 52.6186 63.3607 53.0455 63.1892 53.4009C63.0678 53.6546 62.8124 53.8046 62.5462 53.8046V53.8046Z" fill="#BDBDE7"/>
<path d="M43.3446 43.3091C41.5871 43.3091 40.0456 44.2325 39.1757 45.6204C38.3077 44.2325 36.7662 43.3091 35.0068 43.3091C32.2919 43.3091 30.0913 45.5096 30.0913 48.2246C30.0913 50.9396 32.2919 53.1401 35.0068 53.1401C36.7644 53.1401 38.3059 52.2167 39.1757 50.8288C40.0438 52.2167 41.5853 53.1401 43.3446 53.1401C46.0596 53.1401 48.2602 50.9396 48.2602 48.2246C48.2602 45.5096 46.0596 43.3091 43.3446 43.3091Z" fill="#F0F2F7"/>
<path d="M41.8622 47.5781C41.4675 47.5781 41.1478 47.8978 41.1478 48.2925C41.1478 49.1267 40.6262 49.8412 39.8921 50.1269V45.9348H38.4632V50.1269C37.7291 49.8394 37.2075 49.1267 37.2075 48.2925C37.2075 47.8978 36.8878 47.5781 36.493 47.5781C36.0983 47.5781 35.7786 47.8978 35.7786 48.2925C35.7786 50.168 37.3039 51.6916 39.1776 51.6916C41.0513 51.6916 42.5767 50.1662 42.5767 48.2925C42.5767 47.8996 42.257 47.5781 41.8622 47.5781Z" fill="#3E3E70"/>
<path d="M32.4974 42.1034C33.8252 42.1034 34.9016 41.027 34.9016 39.6992C34.9016 38.3714 33.8252 37.295 32.4974 37.295C31.1696 37.295 30.0933 38.3714 30.0933 39.6992C30.0933 41.027 31.1696 42.1034 32.4974 42.1034Z" fill="#3E3E70"/>
<path d="M41.1049 44.8506C41.1049 45.8008 40.2422 46.9886 39.1759 46.9886C38.1113 46.9886 37.2468 45.8008 37.2468 44.8506C37.2468 43.9004 38.1095 43.7825 39.1759 43.7825C40.2422 43.7825 41.1049 43.9021 41.1049 44.8506Z" fill="#3E3E70"/>
<path d="M14.618 32.9244C12.6907 31.449 10.5759 30.6309 8.78974 30.5291C8.48074 30.5131 8.19674 30.3577 8.01098 30.1112L5.59608 26.93C5.17455 26.3763 4.34398 26.3745 3.92066 26.9264L0.217947 31.7652C-0.205373 32.3189 0.0125382 33.1209 0.659129 33.3816L4.36006 34.882C4.64763 34.9981 4.8709 35.2321 4.96736 35.525C5.53357 37.2219 6.87498 39.0491 8.80225 40.5245C12.3442 43.2359 16.5167 43.7307 18.1224 41.6337C19.7282 39.535 18.16 35.6358 14.618 32.9244V32.9244ZM13.8875 39.0366C13.2641 38.5597 13.1462 37.6684 13.6231 37.0451C14.1 36.4217 14.9913 36.3038 15.6147 36.7807C16.238 37.2576 16.3559 38.1489 15.879 38.7723C15.4021 39.3956 14.509 39.5135 13.8875 39.0366Z" fill="#3E3E70"/>
<path d="M69.9374 26.8246C72.1236 25.769 73.8062 24.2507 74.7029 22.7039C74.8565 22.436 75.1244 22.252 75.428 22.1966L79.3558 21.475C80.0399 21.3482 80.4168 20.6087 80.1149 19.98L77.466 14.4929C77.1624 13.866 76.3497 13.6999 75.8246 14.1571L72.8167 16.7828C72.5845 16.9864 72.2737 17.0811 71.9682 17.0346C70.1981 16.7739 67.9619 17.1472 65.7774 18.2028C61.7603 20.1408 59.4365 23.6434 60.585 26.0226C61.7335 28.4036 65.9221 28.7626 69.9374 26.8246V26.8246ZM64.8129 23.4148C65.5184 23.0737 66.3686 23.3702 66.7098 24.0757C67.0509 24.7812 66.7544 25.6314 66.0489 25.9726C65.3434 26.3138 64.4931 26.0172 64.152 25.3117C63.809 24.6044 64.1055 23.756 64.8129 23.4148Z" fill="#3E3E70"/>
<path d="M48.6518 69.6194C46.2494 69.9641 44.1864 70.9018 42.8628 72.1057C42.6342 72.3147 42.3252 72.4076 42.018 72.3701L38.0563 71.8699C37.365 71.7824 36.7827 72.3754 36.881 73.0649L37.7455 79.095C37.8437 79.7844 38.5707 80.1899 39.2083 79.9112L42.87 78.318C43.154 78.1947 43.4773 78.1983 43.7541 78.3341C45.3617 79.1182 47.6069 79.4379 50.0093 79.0932C54.4247 78.4591 57.6987 75.8245 57.3236 73.2096C56.9485 70.5946 53.0654 68.9871 48.6518 69.6194V69.6194ZM52.5063 74.4188C51.7294 74.5295 51.0095 73.9919 50.8988 73.2149C50.788 72.4379 51.3257 71.7181 52.1027 71.6074C52.8796 71.4966 53.5995 72.0343 53.7102 72.8112C53.8227 73.5882 53.2833 74.3081 52.5063 74.4188Z" fill="#3E3E70"/>
<path d="M12.6603 71.7003C13.4891 69.4194 13.6338 67.1563 13.1962 65.4219C13.1194 65.1219 13.1819 64.8057 13.3623 64.5521L15.6718 61.2941C16.0737 60.7261 15.8272 59.9331 15.1717 59.6955L9.44523 57.6146C8.78971 57.3771 8.09132 57.8254 8.03416 58.5202L7.71265 62.5016C7.68764 62.8106 7.53225 63.0928 7.28219 63.275C5.83361 64.3235 4.4922 66.1507 3.66342 68.4334C2.13982 72.6255 2.92037 76.7551 5.40314 77.6572C7.88769 78.5574 11.1367 75.8906 12.6603 71.7003ZM6.61059 72.8363C6.87851 72.0986 7.693 71.7182 8.43069 71.9861C9.16837 72.254 9.54883 73.0685 9.2809 73.8062C9.01298 74.5439 8.19849 74.9243 7.4608 74.6564C6.72312 74.3885 6.34266 73.574 6.61059 72.8363Z" fill="#3E3E70"/>
<path d="M74.9743 57.6431C72.8523 56.466 70.6411 55.9659 68.8585 56.1248C68.5495 56.1534 68.2476 56.0409 68.0261 55.8247L65.1718 53.0312C64.6735 52.5436 63.8518 52.665 63.5143 53.2741L60.5582 58.6022C60.2206 59.2113 60.5528 59.9722 61.2298 60.1365L65.1093 61.0796C65.4094 61.1529 65.6648 61.3511 65.8041 61.6262C66.6115 63.223 68.2065 64.8342 70.3285 66.0112C74.2277 68.1761 78.4287 68.0546 79.7112 65.7451C80.9954 63.4356 78.8753 59.8079 74.9743 57.6431V57.6431ZM75.1458 63.7964C74.4599 63.4159 74.2134 62.5514 74.5938 61.8655C74.9743 61.1797 75.8388 60.9332 76.5247 61.3136C77.2106 61.6941 77.457 62.5586 77.0766 63.2445C76.6961 63.9304 75.8316 64.1768 75.1458 63.7964Z" fill="#3E3E70"/>
</svg>
