<svg width="93" height="90" viewBox="0 0 93 90" fill="none" xmlns="http://www.w3.org/2000/svg">
<path d="M56.4885 70.986C56.9633 70.2847 57.9203 70.0994 58.6224 70.5757L69.149 77.707L76.357 73.6592C77.0965 73.2429 78.0326 73.507 78.449 74.2464C78.8645 74.9859 78.6012 75.9228 77.8617 76.3384L65.8077 83.1076C65.5699 83.2411 65.3111 83.3041 65.057 83.3041C64.5199 83.3041 63.9978 83.022 63.7159 82.5203C63.3003 81.7809 63.5637 80.844 64.3032 80.4284L66.1532 79.3894L56.8986 73.1199C56.1967 72.6436 56.0131 71.6888 56.4885 70.986Z" fill="#3E3E70"/>
<path d="M37.174 86.0207L38.911 86.0209L40.6977 73.5146C40.817 72.6745 41.5931 72.0963 42.4356 72.2117C43.2749 72.3317 43.8584 73.1095 43.7385 73.9496L42.014 86.0211L49.4629 86.0216C50.3112 86.0216 50.999 86.7095 50.999 87.5577C50.999 88.406 50.3112 89.0939 49.4629 89.0939L37.1742 89.0931C36.3259 89.0931 35.6381 88.4053 35.6381 87.557C35.6381 86.7084 36.3258 86.0207 37.174 86.0207Z" fill="#3E3E70"/>
<path d="M12.5457 48.3141C25.869 46.5992 44.2361 38.3206 44.8468 21.6462C45.2651 10.2235 54.0049 0.50195 65.425 0.0196947C74.8129 -0.376645 82.9397 5.24821 86.2626 13.3514C87.4939 16.3542 87.8536 19.6439 87.4118 22.8593L86.9946 25.8967C86.5618 29.0482 85.3477 32.0516 83.4085 34.573C83.3918 34.5948 83.3749 34.6166 83.358 34.6383C82.7342 35.443 82.4107 36.4435 82.428 37.4616C82.7615 57.1098 68.713 76.8276 42.8974 76.8276C23.0979 76.8276 6.26492 65.1151 0.118202 48.8771C-0.432892 47.4213 1.04385 46.0325 2.46664 46.664C4.98054 47.7799 8.5643 48.8265 12.5457 48.3141Z" fill="#E1E5EE"/>
<path d="M32.1449 74.9077C57.9167 74.9077 81.6702 52.2726 75.5976 11.6485C74.9028 7.00073 72.0827 2.83899 68.7481 0.137451C76.7761 1.02604 83.4735 6.3283 86.3502 13.5685C87.545 16.5761 87.8222 19.8718 87.3819 23.0781L87.0366 25.5911C86.5878 28.8595 85.39 32.0115 83.3715 34.621C83.3546 34.6428 83.3377 34.6646 83.3208 34.6862C82.6856 35.5008 82.4146 36.5284 82.4297 37.5614C82.7139 57.1765 68.6693 76.8275 42.8974 76.8275C38.0326 76.8275 33.3628 76.0876 28.9707 74.7802C30.0219 74.8478 31.0754 74.9077 32.1449 74.9077Z" fill="#E1E5EE"/>
<path d="M38.8671 31.7343C44.2689 27.466 51.8836 27.8122 57.1403 32.258C77.1458 49.1773 40.2439 83.0879 11.2911 45.4963C10.4496 44.4036 11.037 42.8068 12.3832 42.5074C18.129 41.2299 31.1751 37.8124 38.8671 31.7343Z" fill="#E1E5EE"/>
<path d="M88.2988 21.0213L92.565 24.6465C93.2619 25.2388 93.0946 26.357 92.2549 26.7195L87.1247 28.9334C86.4675 29.2169 85.7162 28.8861 85.471 28.2137C84.8812 26.5958 84.2994 23.6293 86.5696 21.1345C87.0189 20.6402 87.7898 20.5886 88.2988 21.0213Z" fill="#3E3E70"/>
<path d="M12.3822 42.5066C13.7723 42.1973 15.5894 41.7628 17.6537 41.1963C29.9096 59.6123 53.8318 63.6183 61.9573 48.5789C57.0297 62.5872 32.1067 72.5263 11.2885 45.4928C10.4477 44.4012 11.0369 42.806 12.3822 42.5066Z" fill="#BDBDE7"/>
<path d="M74.0373 24.5773C76.5824 24.5773 78.6455 22.514 78.6455 19.9691V18.4329C78.6455 15.8878 76.5823 13.8247 74.0373 13.8247C71.4921 13.8247 69.4291 15.888 69.4291 18.4329V19.9691C69.4291 22.514 71.4923 24.5773 74.0373 24.5773Z" fill="#263238"/>
<path d="M74.0371 13.8245V19.2008C74.0371 20.4734 73.0056 21.5049 71.733 21.5049C70.4604 21.5049 69.4289 20.4734 69.4289 19.2008V18.4329C69.4289 15.8877 71.4921 13.8245 74.0371 13.8245Z" fill="#263238"/>
<path d="M74.0366 18.4338C73.1882 18.4338 72.5005 17.7461 72.5005 16.8977C72.5005 16.0493 73.1882 15.3616 74.0366 15.3616C74.885 15.3616 75.5728 16.0493 75.5728 16.8977C75.5728 17.7461 74.885 18.4338 74.0366 18.4338Z" fill="white"/>
</svg>
