<svg width="20" height="21" viewBox="0 0 20 21" fill="none" xmlns="http://www.w3.org/2000/svg">
<path d="M0.207718 19.7923C0.274058 19.8587 0.352839 19.9114 0.439555 19.9473C0.526272 19.9833 0.619223 20.0018 0.713096 20.0018C0.806968 20.0018 0.899919 19.9833 0.986636 19.9473C1.07335 19.9114 1.15213 19.8587 1.21847 19.7923L9.99741 11.0133L18.7799 19.7923C18.9139 19.9263 19.0957 20.0016 19.2853 20.0016C19.4748 20.0016 19.6566 19.9263 19.7907 19.7923C19.9247 19.6582 20 19.4765 20 19.2869C20 19.0973 19.9247 18.9156 19.7907 18.7815L11.0082 10.0026L19.7871 1.22009C19.9211 1.08606 19.9964 0.904266 19.9964 0.714712C19.9964 0.525159 19.9211 0.343369 19.7871 0.209334C19.6531 0.0752998 19.4713 0 19.2817 0C19.0922 0 18.9104 0.0752998 18.7763 0.209334L9.99741 8.99184L1.2149 0.212906C1.07825 0.0958823 0.902477 0.0347326 0.722701 0.0416766C0.542925 0.0486206 0.372389 0.123147 0.245174 0.250362C0.117958 0.377578 0.0434322 0.548113 0.0364882 0.727889C0.0295443 0.907665 0.090694 1.08344 0.207718 1.22009L8.98665 10.0026L0.207718 18.7851C0.0746758 18.9189 0 19.1 0 19.2887C0 19.4774 0.0746758 19.6584 0.207718 19.7923V19.7923Z" fill="#B3BACC"/>
</svg>
