<svg width="256" height="234" viewBox="0 0 256 234" fill="none" xmlns="http://www.w3.org/2000/svg">
<path d="M65.8898 99.3258C97.3898 78.0258 113.19 67.3258 117.29 66.0258C127.29 62.8258 159.69 52.5258 187.99 69.8258C208.29 82.2258 226.99 109.126 219.19 127.126C213.59 139.926 196.49 143.926 180.99 147.626C158.09 153.026 138.49 150.026 127.49 147.426C123.19 151.626 116.29 157.226 106.59 160.926C90.4898 167.126 71.8898 166.026 70.9898 162.326C70.5898 160.426 74.5898 156.726 93.9898 149.126C91.6898 146.626 88.2898 143.626 83.4898 141.526C69.2898 135.026 55.0898 141.326 52.3898 142.626C66.2898 150.726 69.2898 154.926 68.5898 157.226C66.7898 163.026 38.4898 164.926 30.8898 151.626C30.0898 150.326 27.8898 145.826 29.6898 137.326C33.2898 121.726 46.2898 112.626 65.8898 99.3258Z" fill="#263238"/>
<path d="M203.09 121.526C206.29 114.926 220.69 116.526 226.29 117.126C233.49 117.926 239.89 118.626 245.69 123.726C250.09 127.526 256.49 135.826 254.19 142.526C252.09 148.926 244.19 148.426 228.89 155.926C226.29 157.226 201.29 169.526 202.99 177.626C203.69 180.926 208.19 180.826 222.49 186.926C234.89 192.126 242.19 195.326 248.29 202.326C251.29 205.826 257.29 212.726 255.69 219.726C252.69 232.626 225.89 234.826 225.19 232.826C224.59 231.126 243.39 226.426 243.59 217.626C243.79 210.926 233.29 205.526 226.69 202.026C207.29 191.926 194.19 195.526 189.09 185.826C186.19 180.326 187.79 174.426 188.09 173.326C189.59 167.926 193.79 163.326 214.29 153.026C232.99 143.626 241.29 141.426 241.19 137.226C241.09 133.326 233.89 130.126 229.49 129.026C217.09 125.726 207.99 133.526 203.79 129.126C201.99 127.126 202.09 123.726 203.09 121.526Z" fill="#263238"/>
<path d="M32.2898 73.1259C38.5898 77.8259 44.8898 82.5258 51.1898 87.2258C60.1898 86.3258 69.0898 85.5259 78.0898 84.6259C83.6898 79.2259 89.2898 73.7258 94.8898 68.3258C95.2898 71.7258 96.0898 79.4259 96.3898 83.1259C99.8898 116.426 100.19 119.326 98.0898 123.126C91.1898 135.426 67.8898 140.426 54.4898 131.826C47.9898 127.626 45.4898 121.326 40.7898 109.226C35.0898 94.6258 33.0898 81.8259 32.2898 73.1259Z" fill="#263238"/>
<path d="M57.6899 107.726C56.1899 110.826 52.8898 112.726 49.4898 112.126C48.5898 111.926 48.1898 113.426 49.0898 113.526C53.1898 114.226 57.2898 112.226 58.9898 108.426C59.3898 107.626 58.1899 106.826 57.6899 107.726Z" fill="white"/>
<path d="M71.5897 106.726C74.8897 109.926 79.2897 111.326 83.7897 110.626C84.7897 110.526 84.2897 109.026 83.3897 109.226C79.3897 109.826 75.4897 108.526 72.5897 105.726C71.8897 105.026 70.8897 106.026 71.5897 106.726Z" fill="white"/>
<path d="M66.2897 116.226C65.9897 116.226 65.7897 116.126 65.4897 116.126C65.5897 116.026 65.5897 115.826 65.6897 115.726C65.8897 115.926 66.1897 116.126 66.3897 116.326C66.3897 116.126 66.2897 116.026 66.2897 115.826C65.9897 114.926 64.5897 115.326 64.8897 116.226C65.3897 118.426 66.1897 121.826 63.4897 122.926C62.5897 123.326 62.9897 124.726 63.8897 124.326C67.4897 122.826 67.0897 118.926 66.3897 115.726C65.8897 115.826 65.3897 116.026 64.9897 116.126C64.9897 116.326 65.0897 116.426 65.0897 116.626C65.1897 116.926 65.4897 117.226 65.7897 117.226C68.3897 117.026 66.2897 113.426 65.0897 115.526C64.5897 116.226 65.7897 117.026 66.2897 116.226Z" fill="white"/>
<path d="M65.2898 116.926C65.7898 118.626 65.8898 120.526 66.9898 122.026C67.8898 123.226 69.2898 123.826 70.7898 123.526C71.6898 123.326 71.2898 121.926 70.3898 122.126C67.5898 122.726 67.1898 118.326 66.6898 116.526C66.4898 115.626 65.0898 116.026 65.2898 116.926Z" fill="white"/>
<path d="M60.4899 118.326C57.5899 117.026 54.5899 116.426 51.3899 116.626C50.3899 116.726 50.3899 118.226 51.3899 118.126C54.2899 117.926 57.0899 118.426 59.6899 119.626C60.5899 120.026 61.3899 118.726 60.4899 118.326Z" fill="white"/>
<path d="M57.8898 120.326C55.3898 120.526 53.1898 121.526 51.4898 123.226C50.7898 123.926 51.8898 124.926 52.5898 124.326C54.0898 122.926 55.8898 122.026 57.9898 121.826C58.7898 121.726 58.7898 120.226 57.8898 120.326Z" fill="white"/>
<path d="M72.1897 117.626C75.0897 116.526 77.9897 116.126 81.0897 116.426C82.0897 116.526 82.0897 115.026 81.0897 114.926C77.8897 114.626 74.7897 115.126 71.7897 116.226C70.8897 116.526 71.1897 118.026 72.1897 117.626Z" fill="white"/>
<path d="M74.1898 120.326C76.3898 120.026 78.4898 120.226 80.5898 121.026C81.4898 121.326 81.8898 119.926 80.9898 119.626C78.7898 118.826 76.4898 118.626 74.1898 118.926C73.1898 118.926 73.1898 120.526 74.1898 120.326Z" fill="white"/>
<path d="M50.5897 103.326C52.0897 102.426 53.8898 102.426 55.3898 103.326C56.1898 103.826 56.9898 102.526 56.1898 102.026C54.1898 100.926 51.8898 100.926 49.8898 102.026C48.9898 102.526 49.7897 103.826 50.5897 103.326Z" fill="white"/>
<path d="M71.5898 101.326C73.0898 100.526 74.7898 100.326 76.5898 100.526C77.4898 100.626 77.9898 99.2259 76.9898 99.1259C74.8898 98.8259 72.7898 99.1259 70.8898 100.126C69.8898 100.426 70.6898 101.726 71.5898 101.326Z" fill="white"/>
<path d="M69.1899 75.9258C65.8899 72.6258 71.5899 70.7258 72.1899 67.8258C72.7899 64.4258 68.7898 61.2258 73.2898 58.6258C74.5898 57.9258 73.3899 55.9258 72.1899 56.7258C70.5899 57.6258 69.2899 59.0258 68.8899 60.9258C68.2899 64.1258 71.0899 66.0258 68.6899 68.9258C67.5899 70.3258 66.2899 70.7258 65.8899 72.6258C65.4899 74.5258 66.2898 76.1258 67.5898 77.5258C68.6898 78.5258 70.2899 76.9258 69.1899 75.9258Z" fill="#263238"/>
<path d="M45.6093 0.359807C47.5267 -0.00581652 49.4868 -0.0933766 51.4293 0.0998128C53.2856 0.262624 55.0976 0.757122 56.7793 1.55981C58.3928 2.33002 59.8192 3.44248 60.9593 4.81981C62.1614 6.2939 62.9608 8.05453 63.2793 9.92981C63.5791 11.4014 63.5791 12.9183 63.2793 14.3898C63.0104 15.6707 62.5521 16.9042 61.9193 18.0498C61.305 19.1646 60.5922 20.2222 59.7893 21.2098C58.9893 22.2098 58.2293 23.1298 57.5193 24.0198C56.8402 24.8574 56.2378 25.7544 55.7193 26.6998C55.2427 27.5392 55.0106 28.4953 55.0493 29.4598C55.0551 29.9082 54.9412 30.3501 54.7193 30.7398C54.6146 30.924 54.4708 31.0831 54.298 31.2057C54.1253 31.3284 53.9277 31.4117 53.7193 31.4498L49.0093 32.3398C48.7856 32.3843 48.5552 32.3834 48.3318 32.337C48.1085 32.2906 47.8968 32.1997 47.7093 32.0698C47.5142 31.9581 47.3493 31.8004 47.2291 31.6104C47.1088 31.4204 47.0368 31.204 47.0193 30.9798C46.7897 29.5003 46.8645 27.9894 47.2393 26.5398C47.5948 25.2482 48.1158 24.0079 48.7893 22.8498C49.4404 21.7469 50.1865 20.7029 51.0193 19.7298C51.8493 18.7298 52.5993 17.8298 53.2893 16.9498C53.9236 16.1595 54.4733 15.3048 54.9293 14.3998C55.3215 13.6145 55.4445 12.7219 55.2793 11.8598C55.1464 11.0999 54.8302 10.384 54.3579 9.77404C53.8857 9.16411 53.2717 8.67865 52.5693 8.35981C50.8269 7.56798 48.8698 7.38143 47.0093 7.82981C43.5026 8.49648 41.2526 10.7431 40.2593 14.5698C40.1719 14.9732 40.0163 15.3587 39.7993 15.7098C39.5219 16.0303 39.1313 16.231 38.7093 16.2698L33.7093 17.2198C33.3639 17.2813 33.008 17.2137 32.7093 17.0298C32.5522 16.9261 32.4186 16.7906 32.317 16.6322C32.2154 16.4737 32.148 16.2958 32.1193 16.1098C31.9033 14.5324 32.0749 12.926 32.6193 11.4298C33.1854 9.70162 34.052 8.08687 35.1793 6.65981C36.4432 5.09724 37.9489 3.74686 39.6393 2.65981C41.4611 1.51283 43.4888 0.731622 45.6093 0.359807V0.359807ZM54.7393 35.1098C55.1839 35.0329 55.641 35.1318 56.0142 35.3855C56.3873 35.6393 56.6473 36.028 56.7393 36.4698L57.7393 41.9298C57.7849 42.1486 57.7845 42.3746 57.738 42.5932C57.6915 42.8119 57.6 43.0185 57.4693 43.1998C57.3464 43.3858 57.1876 43.5454 57.0021 43.669C56.8166 43.7927 56.6082 43.878 56.3893 43.9198L51.0593 44.9198C50.8388 44.9656 50.6113 44.9653 50.391 44.9188C50.1707 44.8724 49.9624 44.7808 49.7793 44.6498C49.5932 44.527 49.4337 44.3681 49.3101 44.1826C49.1864 43.9971 49.1011 43.7888 49.0593 43.5698L48.0593 38.1098C48.0175 37.8902 48.0207 37.6644 48.0689 37.4461C48.117 37.2277 48.209 37.0215 48.3393 36.8398C48.459 36.651 48.617 36.4894 48.803 36.3654C48.989 36.2414 49.1989 36.1577 49.4193 36.1198L54.7393 35.1098Z" fill="#263238"/>
<path d="M96.4293 22.8898C97.6086 23.5438 98.6865 24.3657 99.6293 25.3298C100.546 26.2333 101.288 27.2977 101.819 28.4698C102.329 29.5909 102.591 30.8084 102.589 32.0398C102.588 33.3524 102.243 34.6418 101.589 35.7798C101.099 36.6919 100.437 37.5001 99.6393 38.1598C98.9246 38.7148 98.1329 39.1628 97.2893 39.4898C96.4693 39.8102 95.6227 40.0579 94.7593 40.2298L92.3193 40.7098C91.5873 40.8505 90.8707 41.0615 90.1793 41.3398C89.557 41.5707 89.0128 41.9729 88.6093 42.4998C88.4126 42.742 88.1531 42.9253 87.8593 43.0298C87.7212 43.0815 87.5734 43.1021 87.4264 43.09C87.2795 43.0779 87.137 43.0334 87.0093 42.9598L84.1193 41.3398C83.8382 41.1861 83.6297 40.9271 83.5393 40.6198C83.4901 40.4738 83.4754 40.3184 83.4962 40.1658C83.517 40.0131 83.5728 39.8673 83.6593 39.7398C84.1917 38.8557 84.8996 38.09 85.7393 37.4898C86.5003 36.9583 87.3272 36.528 88.1993 36.2098C89.0356 35.9123 89.8952 35.6848 90.7693 35.5298C91.6393 35.3798 92.4493 35.2298 93.2093 35.0698C93.8951 34.9265 94.5651 34.7155 95.2093 34.4398C95.7652 34.1946 96.2279 33.7775 96.5293 33.2498C96.7919 32.7858 96.9382 32.265 96.9556 31.7321C96.973 31.1992 96.861 30.67 96.6293 30.1898C96.0581 28.9989 95.1038 28.0341 93.9193 27.4498C92.8989 26.8602 91.7215 26.5995 90.5476 26.7033C89.3737 26.807 88.2603 27.2703 87.3593 28.0298C87.1363 28.211 86.8821 28.3499 86.6093 28.4398C86.3229 28.4873 86.0293 28.4229 85.7893 28.2598L82.7093 26.5398C82.4913 26.4172 82.3272 26.2174 82.2493 25.9798C82.2103 25.8556 82.1982 25.7244 82.2137 25.5952C82.2293 25.4659 82.272 25.3413 82.3393 25.2298C82.923 24.3002 83.7223 23.525 84.6693 22.9698C85.7473 22.3192 86.9324 21.8655 88.1693 21.6298C89.5232 21.3644 90.9113 21.3205 92.2793 21.4998C93.7391 21.692 95.1482 22.164 96.4293 22.8898V22.8898ZM85.8893 45.3398C86.025 45.4151 86.1445 45.5166 86.2406 45.6385C86.3368 45.7604 86.4077 45.9002 86.4493 46.0498C86.4935 46.1972 86.5075 46.3521 86.4903 46.5051C86.4731 46.658 86.4251 46.8059 86.3493 46.9398L84.4793 50.2898C84.3276 50.5624 84.0741 50.7639 83.7742 50.8501C83.4744 50.9363 83.1526 50.9002 82.8793 50.7498L79.6093 48.9198C79.4716 48.8484 79.3511 48.7479 79.2562 48.6253C79.1612 48.5027 79.094 48.3609 79.0593 48.2098C79.0117 48.0633 78.9951 47.9086 79.0106 47.7553C79.0261 47.6021 79.0733 47.4538 79.1493 47.3198L81.0193 43.9698C81.0951 43.8356 81.197 43.7178 81.3189 43.6233C81.4408 43.5289 81.5803 43.4597 81.7293 43.4198C81.8763 43.3731 82.0316 43.3579 82.1849 43.3751C82.3382 43.3924 82.4862 43.4417 82.6193 43.5198L85.8893 45.3398Z" fill="#263238"/>
<g opacity="0.2">
<path opacity="0.2" d="M96.4293 22.8898C97.6086 23.5438 98.6865 24.3657 99.6293 25.3298C100.546 26.2333 101.288 27.2977 101.819 28.4698C102.329 29.5909 102.591 30.8084 102.589 32.0398C102.588 33.3524 102.243 34.6418 101.589 35.7798C101.099 36.6919 100.437 37.5001 99.6393 38.1598C98.9246 38.7148 98.1329 39.1628 97.2893 39.4898C96.4693 39.8102 95.6227 40.0579 94.7593 40.2298L92.3193 40.7098C91.5873 40.8505 90.8707 41.0615 90.1793 41.3398C89.557 41.5707 89.0128 41.9729 88.6093 42.4998C88.4126 42.742 88.1531 42.9253 87.8593 43.0298C87.7212 43.0815 87.5734 43.1021 87.4264 43.09C87.2795 43.0779 87.137 43.0334 87.0093 42.9598L84.1193 41.3398C83.8382 41.1861 83.6297 40.9271 83.5393 40.6198C83.4901 40.4738 83.4754 40.3184 83.4962 40.1658C83.517 40.0131 83.5728 39.8673 83.6593 39.7398C84.1917 38.8557 84.8996 38.09 85.7393 37.4898C86.5003 36.9583 87.3272 36.528 88.1993 36.2098C89.0356 35.9123 89.8952 35.6848 90.7693 35.5298C91.6393 35.3798 92.4493 35.2298 93.2093 35.0698C93.8951 34.9265 94.5651 34.7155 95.2093 34.4398C95.7652 34.1946 96.2279 33.7775 96.5293 33.2498C96.7919 32.7858 96.9382 32.265 96.9556 31.7321C96.973 31.1992 96.861 30.67 96.6293 30.1898C96.0581 28.9989 95.1038 28.0341 93.9193 27.4498C92.8989 26.8602 91.7215 26.5995 90.5476 26.7033C89.3737 26.807 88.2603 27.2703 87.3593 28.0298C87.1363 28.211 86.8821 28.3499 86.6093 28.4398C86.3229 28.4873 86.0293 28.4229 85.7893 28.2598L82.7093 26.5398C82.4913 26.4172 82.3272 26.2174 82.2493 25.9798C82.2103 25.8556 82.1982 25.7244 82.2137 25.5952C82.2293 25.4659 82.272 25.3413 82.3393 25.2298C82.923 24.3002 83.7223 23.525 84.6693 22.9698C85.7473 22.3192 86.9324 21.8655 88.1693 21.6298C89.5232 21.3644 90.9113 21.3205 92.2793 21.4998C93.7391 21.692 95.1482 22.164 96.4293 22.8898V22.8898ZM85.8893 45.3398C86.025 45.4151 86.1445 45.5166 86.2406 45.6385C86.3368 45.7604 86.4077 45.9002 86.4493 46.0498C86.4935 46.1972 86.5075 46.3521 86.4903 46.5051C86.4731 46.658 86.4251 46.8059 86.3493 46.9398L84.4793 50.2898C84.3276 50.5624 84.0741 50.7639 83.7742 50.8501C83.4744 50.9363 83.1526 50.9002 82.8793 50.7498L79.6093 48.9198C79.4716 48.8484 79.3511 48.7479 79.2562 48.6253C79.1612 48.5027 79.094 48.3609 79.0593 48.2098C79.0117 48.0633 78.9951 47.9086 79.0106 47.7553C79.0261 47.6021 79.0733 47.4538 79.1493 47.3198L81.0193 43.9698C81.0951 43.8356 81.197 43.7178 81.3189 43.6233C81.4408 43.5289 81.5803 43.4597 81.7293 43.4198C81.8763 43.3731 82.0316 43.3579 82.1849 43.3751C82.3382 43.3924 82.4862 43.4417 82.6193 43.5198L85.8893 45.3398Z" fill="black"/>
</g>
<path d="M25.9893 59.6098C26.1225 59.484 26.2797 59.3863 26.4515 59.3227C26.6234 59.2591 26.8063 59.2309 26.9893 59.2398C27.177 59.2424 27.3622 59.2827 27.534 59.3582C27.7058 59.4338 27.8606 59.5432 27.9893 59.6798L31.0693 63.0198C31.196 63.156 31.2945 63.316 31.3591 63.4905C31.4238 63.665 31.4532 63.8506 31.4458 64.0365C31.4383 64.2224 31.3942 64.405 31.3158 64.5738C31.2375 64.7425 31.1265 64.8941 30.9893 65.0198L27.7293 68.0198C27.5931 68.1465 27.4331 68.245 27.2586 68.3096C27.0841 68.3743 26.8986 68.4037 26.7127 68.3963C26.5267 68.3888 26.3441 68.3446 26.1754 68.2663C26.0066 68.188 25.855 68.077 25.7293 67.9398L22.6493 64.5998C22.5213 64.4642 22.4218 64.3044 22.3564 64.1298C22.291 63.9552 22.2612 63.7693 22.2686 63.583C22.2761 63.3967 22.3207 63.2138 22.3998 63.0449C22.4789 62.8761 22.5909 62.7248 22.7293 62.5998L25.9893 59.6098ZM4.58931 39.4598C5.75866 38.367 7.07879 37.4476 8.50931 36.7298C9.86773 36.0433 11.3372 35.6031 12.8493 35.4298C14.3009 35.2696 15.77 35.4195 17.1593 35.8698C18.6354 36.3736 19.9552 37.2523 20.9893 38.4198C21.8546 39.299 22.5347 40.343 22.9893 41.4898C23.3561 42.4958 23.5717 43.5506 23.6293 44.6198C23.6864 45.6607 23.6529 46.7047 23.5293 47.7398C23.3993 48.7398 23.2793 49.7398 23.1693 50.6698C23.0608 51.5454 23.0307 52.4289 23.0793 53.3098C23.1126 54.1015 23.3691 54.8677 23.8193 55.5198C24.0131 55.8187 24.1236 56.1639 24.1393 56.5198C24.148 56.6951 24.1165 56.87 24.0472 57.0312C23.9778 57.1924 23.8725 57.3356 23.7393 57.4498L20.8593 60.1198C20.5861 60.3675 20.2279 60.5 19.8593 60.4898C19.6765 60.4965 19.4947 60.4592 19.3293 60.3808C19.164 60.3025 19.0199 60.1855 18.9093 60.0398C18.1092 59.1096 17.5039 58.0282 17.1293 56.8598C16.8161 55.8104 16.6413 54.7245 16.6093 53.6298C16.5781 52.5733 16.6383 51.516 16.7893 50.4698C16.9393 49.4698 17.0593 48.4698 17.1593 47.5698C17.2489 46.7422 17.2489 45.9074 17.1593 45.0798C17.0941 44.3669 16.7953 43.6955 16.3093 43.1698C15.8865 42.7013 15.356 42.3427 14.7637 42.1249C14.1714 41.9071 13.5349 41.8367 12.9093 41.9198C11.3663 42.1194 9.9322 42.8224 8.82931 43.9198C6.68265 45.9198 6.09265 48.4565 7.05931 51.5298C7.1779 51.8499 7.23884 52.1885 7.23931 52.5298C7.21455 52.6981 7.15674 52.8599 7.06922 53.0058C6.98169 53.1516 6.86617 53.2788 6.72931 53.3798L3.65931 56.2198C3.44477 56.427 3.15757 56.5419 2.85931 56.5398C2.70657 56.5372 2.55614 56.502 2.41815 56.4365C2.28016 56.3709 2.1578 56.2766 2.05931 56.1598C1.20921 55.1762 0.614972 53.9981 0.329313 52.7298C-0.0100021 51.2785 -0.0878905 49.7784 0.0993093 48.2998C0.304658 46.679 0.770669 45.1019 1.47931 43.6298C2.23407 42.0503 3.29058 40.6337 4.58931 39.4598V39.4598Z" fill="#263238"/>
<g opacity="0.6">
<path opacity="0.6" d="M25.9893 59.6098C26.1225 59.484 26.2797 59.3863 26.4515 59.3227C26.6234 59.2591 26.8063 59.2309 26.9893 59.2398C27.177 59.2424 27.3622 59.2827 27.534 59.3582C27.7058 59.4338 27.8606 59.5432 27.9893 59.6798L31.0693 63.0198C31.196 63.156 31.2945 63.316 31.3591 63.4905C31.4238 63.665 31.4532 63.8506 31.4458 64.0365C31.4383 64.2224 31.3942 64.405 31.3158 64.5738C31.2375 64.7425 31.1265 64.8941 30.9893 65.0198L27.7293 68.0198C27.5931 68.1465 27.4331 68.245 27.2586 68.3096C27.0841 68.3743 26.8986 68.4037 26.7127 68.3963C26.5267 68.3888 26.3441 68.3446 26.1754 68.2663C26.0066 68.188 25.855 68.077 25.7293 67.9398L22.6493 64.5998C22.5213 64.4642 22.4218 64.3044 22.3564 64.1298C22.291 63.9552 22.2612 63.7693 22.2686 63.583C22.2761 63.3967 22.3207 63.2138 22.3998 63.0449C22.4789 62.8761 22.5909 62.7248 22.7293 62.5998L25.9893 59.6098ZM4.58931 39.4598C5.75866 38.367 7.07879 37.4476 8.50931 36.7298C9.86773 36.0433 11.3372 35.6031 12.8493 35.4298C14.3009 35.2696 15.77 35.4195 17.1593 35.8698C18.6354 36.3736 19.9552 37.2523 20.9893 38.4198C21.8546 39.299 22.5347 40.343 22.9893 41.4898C23.3561 42.4958 23.5717 43.5506 23.6293 44.6198C23.6864 45.6607 23.6529 46.7047 23.5293 47.7398C23.3993 48.7398 23.2793 49.7398 23.1693 50.6698C23.0608 51.5454 23.0307 52.4289 23.0793 53.3098C23.1126 54.1015 23.3691 54.8677 23.8193 55.5198C24.0131 55.8187 24.1236 56.1639 24.1393 56.5198C24.148 56.6951 24.1165 56.87 24.0472 57.0312C23.9778 57.1924 23.8725 57.3356 23.7393 57.4498L20.8593 60.1198C20.5861 60.3675 20.2279 60.5 19.8593 60.4898C19.6765 60.4965 19.4947 60.4592 19.3293 60.3808C19.164 60.3025 19.0199 60.1855 18.9093 60.0398C18.1092 59.1096 17.5039 58.0282 17.1293 56.8598C16.8161 55.8104 16.6413 54.7245 16.6093 53.6298C16.5781 52.5733 16.6383 51.516 16.7893 50.4698C16.9393 49.4698 17.0593 48.4698 17.1593 47.5698C17.2489 46.7422 17.2489 45.9074 17.1593 45.0798C17.0941 44.3669 16.7953 43.6955 16.3093 43.1698C15.8865 42.7013 15.356 42.3427 14.7637 42.1249C14.1714 41.9071 13.5349 41.8367 12.9093 41.9198C11.3663 42.1194 9.9322 42.8224 8.82931 43.9198C6.68265 45.9198 6.09265 48.4565 7.05931 51.5298C7.1779 51.8499 7.23884 52.1885 7.23931 52.5298C7.21455 52.6981 7.15674 52.8599 7.06922 53.0058C6.98169 53.1516 6.86617 53.2788 6.72931 53.3798L3.65931 56.2198C3.44477 56.427 3.15757 56.5419 2.85931 56.5398C2.70657 56.5372 2.55614 56.502 2.41815 56.4365C2.28016 56.3709 2.1578 56.2766 2.05931 56.1598C1.20921 55.1762 0.614972 53.9981 0.329313 52.7298C-0.0100021 51.2785 -0.0878905 49.7784 0.0993093 48.2998C0.304658 46.679 0.770669 45.1019 1.47931 43.6298C2.23407 42.0503 3.29058 40.6337 4.58931 39.4598V39.4598Z" fill="white"/>
</g>
</svg>
