<svg width="35" height="35" viewBox="0 0 35 35" fill="none" xmlns="http://www.w3.org/2000/svg">
<circle cx="17.5" cy="17.5" r="17.5" fill="#F0F2F7"/>
<path d="M11.3025 24.723C-0.835115 14.3274 10.6719 4.27065 17.9614 11.3945C25.2509 4.27065 36.7579 14.3274 24.6203 24.723H11.3025Z" fill="#3E3E70"/>
<path d="M9.13306 15.6489C9.13306 13.2731 9.80102 11.0564 10.9552 9.1814C5.87205 10.3907 2.83895 17.4743 11.3024 24.7231H13.1086C10.6682 22.4899 9.13306 19.2521 9.13306 15.6489Z" fill="#3E3E70"/>
<path d="M24.6203 15.0029V24.7231C22.9871 26.1229 20.9255 27.5279 18.3677 28.8983C18.114 29.0341 17.8088 29.0341 17.5552 28.8983C14.9973 27.5279 12.9357 26.1229 11.3025 24.7231V15.0029C11.3025 14.5432 11.4888 14.1268 11.7901 13.826C12.0909 13.5247 12.5073 13.3384 12.967 13.3384C13.8863 13.3384 14.6319 14.0835 14.6319 15.0029C14.6319 14.5432 14.8182 14.1268 15.1196 13.826C15.4209 13.5247 15.8368 13.3384 16.2964 13.3384C17.2163 13.3384 17.9614 14.0835 17.9614 15.0029C17.9614 14.5432 18.1477 14.1268 18.449 13.826C18.7503 13.5247 19.1667 13.3384 19.6264 13.3384C20.5457 13.3384 21.2909 14.0835 21.2909 15.0029C21.2909 14.5432 21.4771 14.1268 21.7785 13.826C22.0798 13.5247 22.4962 13.3384 22.9558 13.3384C23.8752 13.3384 24.6203 14.0835 24.6203 15.0029Z" fill="#FAFAFA"/>
<path d="M20.793 21.2131C19.4482 21.2131 19.5153 19.894 17.9615 19.894C16.4078 19.894 16.4748 21.2131 15.13 21.2131C14.0828 21.2131 12.909 22.7888 13.8648 24.376C14.8205 25.9633 16.3631 24.8679 17.9615 24.8679C19.56 24.8679 21.1025 25.9633 22.0583 24.376C23.0141 22.7888 21.8403 21.2131 20.793 21.2131Z" fill="#BDBDE7"/>
<path d="M16.3514 18.6207C16.8221 18.6207 17.2036 18.1368 17.2036 17.5398C17.2036 16.9429 16.8221 16.459 16.3514 16.459C15.8808 16.459 15.4993 16.9429 15.4993 17.5398C15.4993 18.1368 15.8808 18.6207 16.3514 18.6207Z" fill="#BDBDE7"/>
<path d="M13.9602 20.0306C14.4172 19.9172 14.6711 19.3554 14.5272 18.7757C14.3834 18.1961 13.8963 17.8182 13.4393 17.9316C12.9823 18.045 12.7284 18.6068 12.8723 19.1865C13.0162 19.7661 13.5033 20.144 13.9602 20.0306Z" fill="#BDBDE7"/>
<path d="M19.5717 18.6207C20.0423 18.6207 20.4238 18.1368 20.4238 17.5398C20.4238 16.9429 20.0423 16.459 19.5717 16.459C19.101 16.459 18.7195 16.9429 18.7195 17.5398C18.7195 18.1368 19.101 18.6207 19.5717 18.6207Z" fill="#BDBDE7"/>
<path d="M23.0704 19.1852C23.2143 18.6056 22.9605 18.0437 22.5035 17.9303C22.0465 17.8169 21.5594 18.1948 21.4155 18.7745C21.2717 19.3541 21.5255 19.9159 21.9825 20.0293C22.4395 20.1428 22.9266 19.7648 23.0704 19.1852Z" fill="#BDBDE7"/>
<path d="M11.3025 22.6492V24.7228C12.9357 26.1226 14.9973 27.5276 17.5552 28.898C17.8088 29.0338 18.114 29.0338 18.3677 28.898C19.0361 28.5399 19.6703 28.1794 20.2722 27.8173C16.5626 27.5538 13.3185 25.5724 11.3025 22.6492Z" fill="#FAFAFA"/>
</svg>
