<svg width="35" height="35" viewBox="0 0 35 35" fill="none" xmlns="http://www.w3.org/2000/svg">
<circle cx="17.5" cy="17.5" r="17.5" fill="#F0F2F7"/>
<path d="M22.9215 31C25.0226 28.3341 21.9805 18.5 21.9805 18.5C21.7446 18.5 13.2951 18.5 13.0633 18.5C13.0633 18.5 10.0212 28.3341 12.1224 31H22.9215Z" fill="white"/>
<path d="M21.9806 18.5C21.9158 18.5 21.2321 18.5 20.2695 18.5C20.2695 18.5 23.3116 28.3341 21.2105 31H22.9215C25.0227 28.3341 21.9806 18.5 21.9806 18.5Z" fill="white"/>
<path d="M12.3894 20.9952C13.7833 22.0452 15.562 22.675 17.5 22.675C19.4552 22.675 21.2484 22.0343 22.6477 20.9675C22.2925 19.5087 21.9805 18.5 21.9805 18.5C21.7446 18.5 13.2951 18.5 13.0633 18.5C13.0633 18.5 12.7473 19.5215 12.3894 20.9952Z" fill="#3E3E70"/>
<path d="M21.9804 18.5C21.9157 18.5 21.232 18.5 20.2694 18.5C20.2694 18.5 20.5814 19.5087 20.9366 20.9675C19.7441 21.8767 18.2654 22.476 16.6443 22.6334C16.9255 22.6607 17.2109 22.675 17.5 22.675C19.4551 22.675 21.2484 22.0343 22.6477 20.9675C22.2924 19.5087 21.9804 18.5 21.9804 18.5Z" fill="#3E3E70"/>
<path d="M20.1165 8.16218L24.0048 6.04758C24.2628 5.9073 24.577 6.09402 24.577 6.38772V14.0122L20.1165 10.9419V8.16218H20.1165Z" fill="white"/>
<path d="M15.5135 8.37184L11.3324 6.31877C11.0744 6.17848 11.2552 6.41368 11.2552 6.70739V13.5953C11.2552 13.9071 11.6051 14.091 11.8619 13.9142L15.548 11.3769C15.653 11.3047 15.7156 11.1854 15.7156 11.058V8.71198C15.7157 8.57013 15.6381 8.43961 15.5135 8.37184Z" fill="white"/>
<path d="M17.5 20.7879C21.4085 20.7879 24.5771 17.8581 24.5771 14.2439C24.5771 10.6298 21.4085 7.69995 17.5 7.69995C13.5914 7.69995 10.4229 10.6298 10.4229 14.2439C10.4229 17.8581 13.5914 20.7879 17.5 20.7879Z" fill="white"/>
<path d="M15.841 19.1067C14.9128 19.1067 14.1604 18.3542 14.1604 17.4261C14.1604 16.692 14.7555 16.0969 15.4896 16.0969H17.5216V17.4261C17.5216 18.3543 16.7692 19.1067 15.841 19.1067Z" fill="#B3BACC"/>
<path d="M19.1806 19.1067C20.1088 19.1067 20.8612 18.3542 20.8612 17.4261C20.8612 16.692 20.2662 16.0969 19.5321 16.0969H17.5V17.4261C17.5 18.3543 18.2524 19.1067 19.1806 19.1067Z" fill="#B3BACC"/>
<path d="M24.0049 6.04785L22.866 6.66723V12.8347L24.5771 14.0124V6.38798C24.577 6.09428 24.2628 5.90752 24.0049 6.04785Z" fill="#B3BACC"/>
<path d="M11.7913 6.66709L13 7.5L12.9302 11L11.2191 11.2043V7.00723C11.2187 6.32657 11.2191 6.32649 11.7913 6.66709Z" fill="#B3BACC"/>
<path d="M17.5 7.69995C17.2104 7.69995 16.925 7.71641 16.6445 7.74766C20.1496 8.13823 22.8661 10.8976 22.8661 14.2439C22.8661 17.5903 20.1496 20.3496 16.6445 20.7402C16.925 20.7715 17.2104 20.7879 17.5 20.7879C21.4086 20.7879 24.5772 17.8581 24.5772 14.2439C24.5771 10.6298 21.4086 7.69995 17.5 7.69995Z" fill="white"/>
<path d="M17.4999 24.3752C18.4904 24.3752 19.2934 23.5722 19.2934 22.5816C19.2934 21.5911 18.4904 20.7881 17.4999 20.7881C16.5093 20.7881 15.7063 21.5911 15.7063 22.5816C15.7063 23.5722 16.5093 24.3752 17.4999 24.3752Z" fill="#BDBDE7"/>
<path d="M19.5321 16.0969H18.1062C18.8403 16.0969 19.4354 16.692 19.4354 17.4261V17.4261C19.4354 18.0994 19.0394 18.6798 18.4677 18.9481C18.6842 19.0497 18.9257 19.1067 19.1807 19.1067H19.1807C20.1089 19.1067 20.8613 18.3543 20.8613 17.4261V17.4261C20.8612 16.692 20.2662 16.0969 19.5321 16.0969Z" fill="#B3BACC"/>
<path d="M17.5 16.8596C17.9012 16.8596 18.2464 16.4883 18.4001 15.9555C18.4897 15.6447 18.2586 15.334 17.9351 15.334H17.0647C16.7412 15.334 16.5101 15.6447 16.5998 15.9555C16.7536 16.4883 17.0988 16.8596 17.5 16.8596Z" fill="#3E3E70"/>
<path d="M17.4998 20.7881C17.2464 20.7881 17.0054 20.8409 16.7869 20.9357C17.4227 21.2115 17.8675 21.8445 17.8675 22.5816C17.8675 23.3188 17.4227 23.9518 16.7869 24.2275C17.0054 24.3224 17.2464 24.3752 17.4998 24.3752C18.4904 24.3752 19.2933 23.5722 19.2933 22.5816C19.2933 21.5911 18.4904 20.7881 17.4998 20.7881Z" fill="#3E3E70"/>
<path d="M14.6446 14.803C14.4362 14.803 14.2673 14.6341 14.2673 14.4258V13.2186C14.2673 13.0102 14.4362 12.8413 14.6446 12.8413C14.853 12.8413 15.0218 13.0102 15.0218 13.2186V14.4258C15.0219 14.6341 14.853 14.803 14.6446 14.803Z" fill="#3E3E70"/>
<path d="M20.4004 14.803C20.192 14.803 20.0232 14.6341 20.0232 14.4258V13.2186C20.0232 13.0102 20.1921 12.8413 20.4004 12.8413C20.6088 12.8413 20.7777 13.0102 20.7777 13.2186V14.4258C20.7777 14.6341 20.6088 14.803 20.4004 14.803Z" fill="#3E3E70"/>
</svg>
