<svg width="35" height="35" viewBox="0 0 35 35" fill="none" xmlns="http://www.w3.org/2000/svg">
<circle cx="17.5" cy="17.5" r="17.5" fill="#F0F2F7"/>
<path d="M22.4239 16.5133C21.704 16.4627 21.0173 16.4325 20.3633 16.4193L19.5075 12.3048C19.4644 12.098 19.2617 11.9649 19.0549 12.0082C18.848 12.0512 18.7152 12.2538 18.7583 12.4607L19.58 16.4114C18.9545 16.4116 18.3618 16.4275 17.8016 16.4558L16.9535 13.0057C16.903 12.8004 16.6959 12.6751 16.4905 12.7254C16.2853 12.7758 16.1599 12.9831 16.2103 13.1883L17.0254 16.5044C16.2981 16.5586 15.6319 16.6331 15.0274 16.7202L14.402 14.2283C14.3506 14.0233 14.1427 13.8989 13.9377 13.9503C13.7327 14.0017 13.6083 14.2096 13.6597 14.4146L14.2686 16.8407C13.6299 16.9521 13.0731 17.075 12.5984 17.1963C12.5826 17.2003 12.5674 17.2044 12.5518 17.2085L12.0504 15.538C11.9897 15.3356 11.7763 15.2208 11.5739 15.2815C11.3716 15.3422 11.2567 15.5556 11.3174 15.758L11.8146 17.4145C10.2381 17.8907 9.48029 18.3605 9.44426 18.3832C9.26545 18.4958 9.21164 18.732 9.32424 18.9108C9.39694 19.0264 9.52126 19.0897 9.64841 19.0897C9.71804 19.0897 9.78854 19.0707 9.85187 19.0308C9.86735 19.0211 10.5234 18.6204 11.8907 18.194L11.8116 20.4303C11.8041 20.6416 11.9693 20.8188 12.1805 20.8262C12.1851 20.8264 12.1897 20.8265 12.1943 20.8265C12.3993 20.8265 12.5691 20.6639 12.5764 20.4573L12.6642 17.9722C13.1566 17.8429 13.7162 17.7171 14.3451 17.605L14.2605 20.7396C14.2548 20.9508 14.4214 21.1267 14.6326 21.1324C14.6361 21.1325 14.6396 21.1326 14.6431 21.1326C14.8497 21.1326 15.0198 20.968 15.0254 20.7603L15.114 17.4805C15.7176 17.3924 16.3762 17.3183 17.0907 17.2652L16.8123 21.0278C16.7966 21.2385 16.9549 21.4221 17.1656 21.4377C17.1752 21.4384 17.1848 21.4388 17.1943 21.4388C17.3928 21.4388 17.5606 21.2855 17.5755 21.0843L17.8616 17.2179C18.4231 17.1899 19.0155 17.175 19.6403 17.176L19.3631 21.1314C19.3483 21.3422 19.5072 21.525 19.718 21.5398C19.7272 21.5405 19.7361 21.5408 19.7452 21.5408C19.9443 21.5408 20.1123 21.3866 20.1265 21.1849L20.4069 17.1851C21.0315 17.1989 21.6856 17.2285 22.3701 17.2766C22.5806 17.2916 22.7638 17.1325 22.7786 16.9217C22.7936 16.7111 22.6347 16.5282 22.4239 16.5133Z" fill="#3E3E70"/>
<path d="M5 15.4929H6.43394C8.20903 15.4929 9.64805 16.9319 9.64805 18.707H8.21411C6.43901 18.707 5 17.268 5 15.4929Z" fill="#BDBDE7"/>
<path d="M6.43384 23.3551V21.9211C6.43384 20.146 7.87285 18.707 9.64795 18.707V20.141C9.6479 21.9161 8.20894 23.3551 6.43384 23.3551Z" fill="#BDBDE7"/>
<path d="M30 18.8464C28.1796 19.9347 26.0403 20.7357 23.7041 21.1582C22.8791 19.9423 22.397 18.475 22.397 16.8949C22.397 15.0959 23.022 13.4424 24.0668 12.1409C26.9168 13.374 29.1148 15.8296 30 18.8464Z" fill="#BDBDE7"/>
<path d="M26.4795 17.5343C26.3815 17.5343 26.2836 17.4969 26.2089 17.4222L24.9101 16.1234C24.7607 15.974 24.7607 15.7316 24.9102 15.5823C25.0596 15.4329 25.3019 15.4329 25.4513 15.5823L26.75 16.8811C26.8995 17.0305 26.8995 17.2728 26.75 17.4222C26.6754 17.4969 26.5774 17.5343 26.4795 17.5343Z" fill="#3E3E70"/>
<path d="M25.181 17.5336C25.0831 17.5336 24.9852 17.4962 24.9105 17.4215C24.761 17.2721 24.761 17.0298 24.9104 16.8804L26.2092 15.5816C26.3587 15.4322 26.601 15.4321 26.7503 15.5816C26.8998 15.731 26.8998 15.9733 26.7503 16.1227L25.4516 17.4215C25.3769 17.4962 25.2789 17.5336 25.181 17.5336Z" fill="#3E3E70"/>
</svg>
