<svg width="35" height="35" viewBox="0 0 35 35" fill="none" xmlns="http://www.w3.org/2000/svg">
<circle cx="17.5" cy="17.5" r="17.5" fill="#F0F2F7"/>
<path d="M27.4133 11.5053C27.3163 11.5053 27.2179 11.4812 27.1273 11.4303L25.7796 10.6748C25.643 10.5982 25.5427 10.47 25.5012 10.3189C25.4596 10.1679 25.4804 10.0064 25.5587 9.87074L26.3143 8.56214C26.4761 8.28191 26.8344 8.18578 27.1146 8.34769C27.3949 8.50949 27.4909 8.86781 27.3291 9.14808L26.8703 9.94281L27.7003 10.4082C27.9827 10.5664 28.0832 10.9235 27.9249 11.2058C27.8175 11.3975 27.6184 11.5053 27.4133 11.5053Z" fill="#BDBDE7"/>
<path d="M8.5866 11.5053C8.38149 11.5053 8.18243 11.3974 8.07496 11.2057C7.91668 10.9235 8.01723 10.5664 8.29953 10.4081L9.12957 9.94277L8.67078 9.14808C8.50895 8.86781 8.605 8.50945 8.88524 8.34769C9.16547 8.18582 9.52383 8.28183 9.68563 8.56214L10.4411 9.87074C10.5195 10.0064 10.5402 10.1678 10.4987 10.3189C10.4572 10.47 10.3569 10.5982 10.2202 10.6748L8.87258 11.4303C8.78196 11.4811 8.6836 11.5053 8.5866 11.5053Z" fill="#BDBDE7"/>
<path d="M17.9999 14.8223C15.664 14.8224 13.3289 14.4265 11.1057 13.6345C10.3362 13.3603 9.72052 12.7651 9.41669 12.0014C9.10872 11.2275 9.14884 10.3583 9.52665 9.61677L9.54775 9.57537C10.2023 8.29084 11.7127 7.68384 13.0609 8.16357C16.2458 9.29666 19.754 9.29673 22.939 8.16357C24.2872 7.68373 25.7975 8.29088 26.4521 9.57548L26.4731 9.61677C26.851 10.3584 26.8911 11.2276 26.5831 12.0015C26.2793 12.7652 25.6636 13.3604 24.8941 13.6345C22.6715 14.4263 20.3352 14.8222 17.9999 14.8223Z" fill="white"/>
<path d="M24.8941 13.6345C25.6637 13.3603 26.2794 12.7652 26.5832 12.0014C26.8912 11.2275 26.8511 10.3584 26.4732 9.61672L26.4522 9.57543C25.7976 8.29086 24.2872 7.68371 22.939 8.16359C21.3466 8.73016 19.6733 9.01344 18 9.0134V14.8223C20.3354 14.8223 22.6716 14.4263 24.8941 13.6345Z" fill="white"/>
<path d="M18 12.3863C18.3236 12.3863 18.5859 12.124 18.5859 11.8004V9.00146C18.1955 9.01689 17.8045 9.01689 17.4141 9.00146V11.8004C17.4141 12.124 17.6764 12.3863 18 12.3863Z" fill="#BDBDE7"/>
<path d="M18.5859 11.8004V9.00146C18.3907 9.0092 18.1954 9.01303 18 9.01303V12.3863C18.3236 12.3863 18.5859 12.124 18.5859 11.8004Z" fill="#BDBDE7"/>
<path d="M20.7344 11.9957C21.058 11.9957 21.3203 11.7334 21.3203 11.4098V8.6355C20.9323 8.72495 20.5414 8.79886 20.1484 8.85647V11.4098C20.1484 11.7334 20.4108 11.9957 20.7344 11.9957Z" fill="#BDBDE7"/>
<path d="M15.2656 11.9955C15.5892 11.9955 15.8516 11.7332 15.8516 11.4096V8.85623C15.4586 8.79861 15.0677 8.72471 14.6797 8.63525V11.4096C14.6797 11.7332 14.942 11.9955 15.2656 11.9955Z" fill="#BDBDE7"/>
<path d="M20.7061 13.4694C20.3909 13.4843 20.1484 13.7557 20.1484 14.0712V18.1563H18.5859V14.2569C18.5859 13.9414 18.3435 13.6699 18.0283 13.6551C17.6918 13.6392 17.4141 13.9073 17.4141 14.2404V18.1563H15.8516V14.0713C15.8516 13.7557 15.6091 13.4843 15.2939 13.4695C14.9575 13.4536 14.6797 13.7217 14.6797 14.0547V19.8329C14.6797 20.8037 15.4667 21.5907 16.4375 21.5907H16.6328V27.4141C16.6328 27.7377 16.8952 28 17.2188 28H18.7812C19.1048 28 19.3672 27.7377 19.3672 27.4141V21.5907H19.5625C20.5333 21.5907 21.3203 20.8037 21.3203 19.8329V14.0547C21.3203 13.7217 21.0425 13.4536 20.7061 13.4694Z" fill="#3E3E70"/>
<path d="M20.7061 13.4694C20.3909 13.4843 20.1484 13.7557 20.1484 14.0712V18.1563H18.5859V14.2569C18.5859 13.9414 18.3435 13.6699 18.0283 13.6551C18.0188 13.6547 18.0095 13.6552 18 13.6552V28H18.7812C19.1048 28 19.3672 27.7377 19.3672 27.4141V21.5907H19.5625C20.5333 21.5907 21.3203 20.8037 21.3203 19.8329V14.0547C21.3203 13.7217 21.0425 13.4536 20.7061 13.4694Z" fill="#3E3E70"/>
</svg>
