<svg width="35" height="35" viewBox="0 0 35 35" fill="none" xmlns="http://www.w3.org/2000/svg">
<circle cx="17.5" cy="17.5" r="17.5" fill="#F0F2F7"/>
<path d="M26.2422 26.5781H16.7891V25.4062H26.2422C26.5655 25.4062 26.8281 25.1436 26.8281 24.8203C26.8281 24.497 26.5655 24.2344 26.2422 24.2344H24.9922V23.0625H26.2422C27.2115 23.0625 28 23.851 28 24.8203C28 25.7896 27.2115 26.5781 26.2422 26.5781Z" fill="#3E3E70"/>
<path d="M25.5781 17.7891C25.5781 16.8948 25.4437 16.0217 25.1877 15.1908L24.3881 15.2402L24.7157 14.0058C24.3729 13.2889 23.9323 12.6182 23.3979 12.0088L22.3611 12.1438L22.5693 11.1802C21.9599 10.6458 21.2892 10.2052 20.5723 9.86246L19.4959 10.253L19.3873 9.39039C18.5564 9.13441 17.6833 9 16.7891 9C15.8948 9 15.0217 9.13441 14.1908 9.39039L14.8452 10.7684L13.0058 9.86246C12.2889 10.2052 11.6182 10.6458 11.0088 11.1802L11.7462 12.7462L10.1802 12.0088C9.64578 12.6182 9.2052 13.2889 8.86246 14.0058L9.83895 15.6682L8.39039 15.1908C8.13441 16.0217 8 16.8948 8 17.7891C8 18.6833 8.13441 19.5564 8.39039 20.3873L9.25047 20.4895L8.86246 21.5723C9.2052 22.2892 9.64582 22.9599 10.1802 23.5693L11.2354 23.4526L11.0088 24.3979C11.6182 24.9323 12.2889 25.3729 13.0058 25.7157L14.1139 25.3377L14.1908 26.1877C15.0217 26.4437 15.8948 26.5781 16.7891 26.5781C17.6833 26.5781 18.5564 26.4437 19.3873 26.1877L18.6509 24.8423L20.5723 25.7157C21.2892 25.3729 21.9599 24.9323 22.5693 24.3979C22.716 24.2692 21.6927 22.9712 21.8319 22.8319C21.9712 22.6927 23.2692 23.7161 23.3979 23.5693C23.9323 22.9599 24.3729 22.2892 24.7157 21.5723L23.8147 19.7204L25.1877 20.3873C25.4437 19.5564 25.5781 18.6833 25.5781 17.7891Z" fill="#3E3E70"/>
<path d="M23.3979 23.5693C23.9323 22.9599 24.3729 22.2892 24.7157 21.5723L23.8147 19.7204L25.1877 20.3873C25.4437 19.5564 25.5781 18.6833 25.5781 17.7891C25.5781 16.8948 25.4437 16.0217 25.1877 15.1908L24.3881 15.2402L24.7157 14.0058C24.3729 13.2889 23.9323 12.6182 23.3979 12.0088L22.3611 12.1438L22.5693 11.1802C21.9599 10.6458 21.2892 10.2052 20.5723 9.86246L19.4959 10.253L19.3873 9.39039C18.5564 9.13441 17.6833 9 16.7891 9C15.8948 9 15.0217 9.13441 14.1908 9.39039L14.8452 10.7684L13.0058 9.86246C12.2889 10.2052 11.6182 10.6458 11.0088 11.1802L11.7462 12.7462L21.8319 22.8319C21.9712 22.6927 23.2692 23.716 23.3979 23.5693Z" fill="white"/>
<path d="M8.39038 15.1909L10.9886 17.7891L8.39038 20.3874C8.51585 20.7948 8.67878 21.1883 8.86245 21.5724L11.8172 18.6177L13.4746 20.2751L10.1802 23.5694C10.3089 23.7161 10.4351 23.8646 10.5743 24.0039C10.7136 24.1431 10.8621 24.2693 11.0088 24.398L14.3031 21.1036L15.9605 22.761L13.0058 25.7157C13.3899 25.8994 13.7834 26.0623 14.1908 26.1878L16.7891 23.5896L19.3873 26.1878C19.7947 26.0623 20.1882 25.8994 20.5723 25.7157L8.86245 14.0059C8.67878 14.39 8.51585 14.7835 8.39038 15.1909Z" fill="white"/>
<path d="M22.5896 17.7891L25.1878 15.1908C25.0623 14.7834 24.8994 14.3899 24.7157 14.0058L21.761 16.9605L20.1036 15.3031L23.398 12.0088C23.2693 11.8621 23.1431 11.7136 23.0039 11.5743C22.8646 11.4351 22.7161 11.3089 22.5694 11.1802L19.2751 14.4746L17.6177 12.8172L20.5724 9.86245C20.1883 9.67878 19.7948 9.51585 19.3874 9.39038L16.7891 11.9886L14.1909 9.39038C13.7835 9.51585 13.39 9.67878 13.0059 9.86245L24.7157 21.5723C24.8994 21.1882 25.0623 20.7947 25.1878 20.3873L22.5896 17.7891Z" fill="#3E3E70"/>
<path d="M11.0087 11.1802C10.8621 11.3088 10.7135 11.435 10.5743 11.5743C10.435 11.7135 10.3088 11.862 10.1802 12.0087L22.5693 24.3978C22.716 24.2692 22.8645 24.143 23.0037 24.0037C23.143 23.8645 23.2692 23.716 23.3978 23.5693L11.0087 11.1802Z" fill="white"/>
<path d="M11.0089 11.1802C10.8622 11.3088 10.7137 11.435 10.5745 11.5743L23.0039 24.0037C23.1431 23.8644 23.2693 23.716 23.398 23.5692L11.0089 11.1802Z" fill="#3E3E70"/>
</svg>
