<svg width="34" height="34" viewBox="0 0 34 34" fill="none" xmlns="http://www.w3.org/2000/svg">
<path d="M33.2857 17.2205C33.2857 26.046 25.9575 33.2205 16.8929 33.2205C7.82818 33.2205 0.5 26.046 0.5 17.2205C0.5 8.39493 7.82818 1.22046 16.8929 1.22046C25.9575 1.22046 33.2857 8.39493 33.2857 17.2205Z" stroke="#B3BACC"/>
<path d="M25.6868 10.9561L23.0441 8.31342C22.627 7.89553 21.8977 7.89553 21.4791 8.31342L10.5822 19.2095C10.5379 19.2539 10.5053 19.3093 10.4883 19.3693L9.01425 24.5289C8.97728 24.6583 9.01352 24.7973 9.10818 24.892C9.17918 24.9616 9.2731 25 9.37001 25C9.40403 25 9.43806 24.9955 9.47208 24.9859L14.6309 23.5119C14.6916 23.4949 14.7463 23.4631 14.7907 23.418L25.6868 12.5211C26.118 12.0899 26.118 11.3873 25.6868 10.9561ZM25.1646 11.9982L14.3358 22.8263L9.9092 24.091L11.174 19.6644L22.0027 8.83632C22.141 8.69728 22.3829 8.69801 22.522 8.83632L25.1646 11.479C25.3074 11.6217 25.3074 11.8555 25.1646 11.9982Z" fill="#B3BACC"/>
<path d="M24.786 12.8976L21.1027 9.21425C20.9584 9.07002 20.724 9.07002 20.5798 9.21425C20.4355 9.35847 20.4355 9.59293 20.5798 9.73716L24.2631 13.4205C24.3356 13.4922 24.4302 13.5284 24.5249 13.5284C24.6196 13.5284 24.7143 13.4922 24.786 13.4205C24.9302 13.2762 24.9302 13.0418 24.786 12.8976Z" fill="#B3BACC"/>
<path d="M14.8011 22.8825L11.1177 19.1992C10.9735 19.055 10.7391 19.055 10.5948 19.1992C10.4506 19.3435 10.4506 19.5779 10.5948 19.7221L14.2781 23.4055C14.3506 23.4772 14.4453 23.5135 14.54 23.5135C14.6347 23.5135 14.7293 23.478 14.8011 23.4055C14.9453 23.2612 14.9453 23.0268 14.8011 22.8825Z" fill="#B3BACC"/>
</svg>
