<svg width="15" height="15" viewBox="0 0 15 15" fill="none" xmlns="http://www.w3.org/2000/svg">
<path d="M4.31555 6.23705C4.17262 6.11465 3.95751 6.13128 3.83511 6.27421C3.72586 6.40176 3.72586 6.5899 3.83511 6.71748L7.24248 10.1249C7.37405 10.2594 7.58977 10.2619 7.72432 10.1303C7.72614 10.1285 7.72795 10.1267 7.72974 10.1249L13.4133 4.16193L13.9005 3.65081L14.8784 2.6286C15.0225 2.50755 15.0412 2.29261 14.9201 2.14852C14.7991 2.00445 14.5841 1.9858 14.44 2.10685C14.4206 2.12316 14.4031 2.14158 14.3878 2.16178L13.5121 3.07155L13.0384 3.56903L7.47759 9.39909L4.31555 6.23705Z" fill="white"/>
<path d="M14.3708 4.62879H14.3776C14.2387 4.50176 14.0232 4.51137 13.8962 4.65022C13.8174 4.73637 13.7882 4.85687 13.8188 4.96954C15.2111 8.46625 13.5051 12.4296 10.0084 13.8219C6.51177 15.2141 2.54842 13.5082 1.15611 10.0115C-0.236206 6.51483 1.46975 2.55151 4.96645 1.15919C7.53647 0.135869 10.4701 0.767633 12.3911 2.75812C12.5368 2.87721 12.7515 2.85563 12.8705 2.70992C12.9777 2.5788 12.9723 2.38887 12.8579 2.26404C12.8438 2.25385 12.829 2.24472 12.8136 2.23678C9.91829 -0.709305 5.18288 -0.750475 2.2368 2.14483C-0.70929 5.04014 -0.75049 9.77555 2.14482 12.7216C5.04013 15.6677 9.77553 15.7089 12.7216 12.8136C14.8518 10.7201 15.5323 7.56 14.4525 4.77532C14.4379 4.72041 14.4098 4.67005 14.3708 4.62879Z" fill="white"/>
</svg>
