<svg width="20" height="20" viewBox="0 0 20 20" fill="none" xmlns="http://www.w3.org/2000/svg">
<path d="M14.6415 6.91535C14.8033 6.91535 14.9344 6.78422 14.9344 6.62239V6.16638C14.9344 6.00454 14.8033 5.87341 14.6415 5.87341C14.4797 5.87341 14.3485 6.00454 14.3485 6.16638V6.62239C14.3485 6.78422 14.4796 6.91535 14.6415 6.91535Z" fill="white"/>
<path d="M18.8496 19.009H16.5153L15.5166 15.924C15.3842 15.5149 15.1631 15.143 14.8712 14.833C15.2342 14.2912 15.4593 13.6787 15.5285 13.0413C15.5295 13.0404 15.5306 13.0396 15.5315 13.0388C16.0326 12.6057 16.088 11.8457 15.655 11.3445C15.5854 11.2641 15.5074 11.1953 15.4235 11.138C15.8657 10.9551 16.2654 10.7403 16.6164 10.495C17.8452 9.63633 18.4947 8.39447 18.4947 6.90359C18.4947 6.18106 18.3478 5.47802 18.0663 4.8178C18.8499 3.64406 19.0652 2.20314 18.6547 0.836396C18.5241 0.401597 18.1484 0.0863661 17.6976 0.0332417C16.3357 -0.127147 14.9953 0.297887 13.9894 1.20194C13.0786 0.877216 12.09 0.70632 11.0702 0.70632C10.0599 0.70632 9.06821 0.878427 8.15342 1.20413C7.14714 0.29859 5.80532 -0.127381 4.44272 0.0332808C3.99187 0.0863661 3.61617 0.401636 3.48558 0.836475C3.07469 2.20431 3.2907 3.64652 4.076 4.82073C3.98019 5.0449 3.89964 5.274 3.83527 5.50716C3.60289 5.38923 3.34179 5.33779 3.07586 5.36095C2.7004 5.3938 2.3602 5.57091 2.11798 5.85966L0.329525 7.99108C-0.170625 8.58713 -0.0925792 9.47887 0.503429 9.97902L2.95918 12.0397L3.56121 12.5513C3.51089 12.7582 3.5166 12.9755 3.58042 13.1844C3.67421 13.4912 3.88187 13.7432 4.16518 13.8939C4.16796 13.8953 4.17085 13.8966 4.17366 13.898C3.9764 13.9273 3.78573 13.9758 3.60515 14.0444C2.98684 14.2794 2.53137 14.736 2.32255 15.33C2.16525 15.7777 2.40145 16.2699 2.84922 16.4273C2.94141 16.4597 3.03738 16.4761 3.13445 16.4761C3.49906 16.4761 3.82538 16.2449 3.94636 15.9008C3.95882 15.8654 3.97866 15.8223 4.01823 15.779C4.0255 15.7724 4.03237 15.7655 4.03882 15.7583C4.07897 15.7208 4.13538 15.6841 4.21655 15.6533C4.58826 15.5121 5.17056 15.6016 5.66556 15.8763C6.35078 16.2564 7.03081 16.3179 7.68995 16.0605L8.1033 16.4118C8.03361 16.8548 7.861 17.3778 7.71276 17.7972C7.60585 18.0997 7.62307 18.4257 7.76135 18.7153C7.89967 19.0047 8.1424 19.2231 8.44502 19.3301C8.57447 19.3758 8.70915 19.399 8.84525 19.399C9.35325 19.399 9.80832 19.0771 9.97773 18.5979C10.035 18.4359 10.0868 18.2832 10.1339 18.1377L11.0215 18.8922C11.4381 19.2417 11.943 19.4662 12.4816 19.5413L15.7191 19.9928C15.7538 19.9976 15.7883 20 15.8227 20C16.0393 20 16.2447 19.9053 16.3867 19.7361C16.4236 19.6922 16.4544 19.6447 16.4796 19.5951H18.8498C19.0116 19.5951 19.1427 19.464 19.1427 19.3022C19.1426 19.1402 19.0114 19.009 18.8496 19.009ZM15.1484 12.5953C14.4701 13.1815 13.1236 13.7152 12.3232 13.7152H12.3184C11.9791 13.7143 11.7039 13.4376 11.7048 13.0983C11.7058 12.7608 11.9805 12.486 12.3177 12.4847C12.3208 12.4848 12.324 12.4847 12.3273 12.4847C12.7521 12.4829 13.821 12.116 14.3438 11.6642C14.6005 11.4424 14.9898 11.4708 15.2117 11.7274C15.4334 11.9842 15.4051 12.3735 15.1484 12.5953ZM12.3176 14.3011H12.3232C12.5896 14.3011 12.8974 14.2554 13.2198 14.1744L14.2471 15.0476C14.3646 15.1462 14.4711 15.2558 14.5658 15.3743L13.4018 16.7615L5.17447 9.85801L6.40957 8.38607L11.2703 12.5175C11.1745 12.6893 11.1194 12.8867 11.1189 13.0967C11.1171 13.759 11.6545 14.2993 12.3176 14.3011ZM14.4311 14.435L13.8803 13.9669C14.2133 13.8422 14.5428 13.6887 14.8416 13.5174C14.7517 13.8389 14.6137 14.1477 14.4311 14.435ZM17.7573 4.20233C17.3956 3.57926 16.9062 3.00516 16.2997 2.50302C16.2612 2.4711 16.2222 2.43974 16.1829 2.4086C16.8644 1.86388 17.6091 1.59514 18.2019 1.46338C18.3188 2.11923 18.3466 3.14824 17.7573 4.20233ZM17.629 0.615149C17.8086 0.636321 17.9634 0.743233 18.0483 0.897489C17.356 1.05464 16.4819 1.38041 15.6934 2.05283C15.3499 1.824 14.9855 1.62256 14.6041 1.44994C15.7895 0.522689 17.0908 0.551712 17.629 0.615149ZM11.0701 1.29229C14.841 1.29229 17.9087 3.80945 17.9087 6.90344C17.9087 8.21295 17.361 9.25974 16.2808 10.0145C15.281 10.7132 13.8324 11.1457 12.0918 11.2652C11.9303 11.2763 11.8085 11.4161 11.8195 11.5776C11.8301 11.7322 11.9588 11.8504 12.1115 11.8504C12.1183 11.8504 12.1251 11.8502 12.1319 11.8497C12.3772 11.8329 12.6172 11.8098 12.8517 11.781C12.6251 11.8549 12.4289 11.8988 12.3241 11.8988C12.3226 11.8987 12.3213 11.8987 12.32 11.8988C12.0815 11.8988 11.8591 11.9691 11.6719 12.0897L7.9019 8.8854C8.10854 8.78966 8.29806 8.71447 8.4199 8.68213C8.5763 8.6406 8.66943 8.48018 8.6279 8.32381C8.58638 8.16744 8.42599 8.07444 8.26959 8.1158C8.02912 8.17963 7.68967 8.33154 7.41417 8.47088L6.64058 7.81335C6.64219 7.81296 6.64383 7.81284 6.64543 7.81245C6.93742 7.73936 7.71006 7.6828 8.04416 7.72706C8.20447 7.74796 8.35177 7.63538 8.37298 7.47499C8.39416 7.3146 8.28131 7.16738 8.12092 7.14617C7.70768 7.09164 6.85921 7.15496 6.50332 7.24398C6.37582 7.27589 6.28891 7.38679 6.2818 7.51144L5.06474 6.49024C5.0647 6.4902 5.06466 6.49016 5.06463 6.49012C5.06459 6.49008 5.06455 6.49008 5.06451 6.49004L4.34432 5.88575C4.62194 4.64627 5.40915 3.51133 6.57656 2.67509C6.5809 2.67196 6.58535 2.66899 6.58973 2.66587C6.59019 2.66556 6.59066 2.6652 6.59117 2.66485C7.83385 1.77978 9.42364 1.29229 11.0701 1.29229ZM4.51127 0.615149C5.04978 0.551673 6.35246 0.522728 7.53839 1.45178C7.15581 1.62424 6.7905 1.82521 6.44727 2.05318C5.65864 1.38053 4.78432 1.05471 4.09198 0.897529C4.17686 0.743233 4.3317 0.636321 4.51127 0.615149ZM3.93839 1.46334C4.53116 1.59514 5.27591 1.86392 5.95751 2.40868C5.30396 2.92676 4.77252 3.53652 4.38475 4.20538C3.79366 3.15028 3.82128 2.11986 3.93839 1.46334ZM0.879988 9.53008C0.531437 9.23763 0.485813 8.71611 0.77827 8.3676L2.56673 6.23618C2.7084 6.06735 2.90735 5.96376 3.12691 5.94458C3.34617 5.9252 3.56039 5.99274 3.72921 6.13446L4.4637 6.75074L1.61451 10.1463L0.879988 9.53008ZM2.06325 10.523L4.91244 7.12742L5.96192 8.00803L4.53748 9.70559C4.53741 9.70567 4.53733 9.70571 4.53729 9.70578C4.53721 9.70586 4.53717 9.70594 4.53713 9.70602L3.1127 11.4036L2.06325 10.523ZM3.81964 12.002L3.56035 11.7816L4.79783 10.3068L5.23654 10.675C4.92373 10.7094 4.64186 10.8614 4.44135 11.1047C4.17757 11.4249 3.95831 11.7681 3.81964 12.002ZM4.14069 13.013C4.09268 12.8558 4.1087 12.6893 4.18589 12.5442C4.238 12.4462 4.5169 11.9344 4.89357 11.4773C4.9981 11.3505 5.14572 11.2719 5.30931 11.2562C5.32947 11.2542 5.34954 11.2533 5.3695 11.2533C5.51181 11.2533 5.64849 11.3021 5.75966 11.3938C6.02145 11.6096 6.05891 11.9981 5.84321 12.2599C5.5931 12.5635 5.36665 12.9448 5.27236 13.1221C5.22521 13.2107 5.15841 13.2846 5.07896 13.3395C5.07728 13.3405 5.0756 13.3416 5.07392 13.3427C4.97381 13.4105 4.85412 13.4486 4.7283 13.4486C4.62729 13.4486 4.53034 13.4243 4.44018 13.3763C4.29506 13.2992 4.1887 13.1701 4.14069 13.013ZM3.39347 15.7062C3.35484 15.8161 3.25066 15.89 3.1343 15.89C3.10348 15.89 3.07281 15.8847 3.04324 15.8743C2.90039 15.8241 2.82497 15.6669 2.8752 15.5241C2.90129 15.4498 2.93324 15.3786 2.97 15.3105C3.11496 15.3561 3.30254 15.4374 3.45066 15.5761C3.42871 15.6177 3.40941 15.6609 3.39347 15.7062ZM5.94965 15.3638C5.29251 14.9992 4.54862 14.9001 4.00831 15.1055C3.96019 15.1238 3.9146 15.1446 3.87116 15.1674C3.7166 15.0169 3.53949 14.911 3.3732 14.8372C3.50238 14.7369 3.6498 14.654 3.8132 14.5919C4.511 14.3267 5.40927 14.4357 6.21614 14.8833C6.28641 14.9224 6.35387 14.9547 6.4209 14.9819L7.15417 15.6051C6.76293 15.674 6.36531 15.5943 5.94965 15.3638ZM9.42512 18.4024C9.33833 18.6479 9.10516 18.8129 8.84501 18.8129C8.77556 18.8129 8.7065 18.801 8.63997 18.7775C8.32013 18.6644 8.15186 18.3122 8.26494 17.9923C8.38591 17.6501 8.52252 17.241 8.61423 16.8461L9.64879 17.7255C9.58582 17.9333 9.51215 18.1564 9.42512 18.4024ZM12.5623 18.9609C12.4921 18.9511 12.4227 18.9378 12.3541 18.9217L12.4606 18.7948C12.5646 18.6708 12.5484 18.4861 12.4245 18.3821C12.3006 18.278 12.1158 18.2942 12.0118 18.4181L11.7749 18.7004C11.6421 18.6279 11.5162 18.5424 11.3994 18.4444L8.60314 16.0677C8.60294 16.0675 8.60275 16.0674 8.60255 16.0672L7.93463 15.4995C7.93447 15.4994 7.93436 15.4993 7.9342 15.4992L5.67204 13.5764C5.71583 13.5207 5.75559 13.4612 5.78962 13.3972C5.87368 13.2391 6.07481 12.9001 6.29535 12.6324C6.49742 12.3872 6.58539 12.0851 6.56609 11.7906L13.0252 17.2103L12.8321 17.4405C12.7281 17.5644 12.7443 17.7492 12.8682 17.8532C12.9231 17.8993 12.9899 17.9217 13.0564 17.9217C13.14 17.9217 13.223 17.8862 13.2809 17.8171L13.6623 17.3626C13.6623 17.3626 13.6623 17.3626 13.6623 17.3626L13.6624 17.3625L14.8844 15.9061C14.9122 15.9709 14.9373 16.0369 14.9592 16.1044L15.4515 17.6254L14.1457 19.1816L12.5623 18.9609ZM15.9376 19.3592C15.9213 19.3787 15.8748 19.4225 15.7998 19.4123L14.8305 19.2771L15.6645 18.2832L15.966 19.2143C15.9894 19.2867 15.9539 19.3398 15.9376 19.3592Z" fill="white"/>
<path d="M11.8945 7.2655C12.2568 7.2655 12.6012 7.10859 12.8396 6.83508C12.9459 6.71309 12.9331 6.52805 12.8112 6.42172C12.6891 6.3154 12.5041 6.32813 12.3978 6.45012C12.2707 6.59594 12.0873 6.67957 11.8944 6.67957C11.7016 6.67957 11.5181 6.59594 11.391 6.45012C11.2847 6.32809 11.0996 6.31544 10.9777 6.42176C10.8557 6.52809 10.843 6.71313 10.9493 6.83508C11.1878 7.10867 11.5323 7.2655 11.8945 7.2655Z" fill="white"/>
<path d="M15.369 8.68223C15.6947 8.76867 16.3875 9.11531 16.6297 9.2941C16.682 9.33273 16.743 9.35136 16.8034 9.35136C16.8933 9.35136 16.9819 9.31019 17.0394 9.23238C17.1355 9.10222 17.1078 8.91883 16.9776 8.8227C16.6825 8.60477 15.9222 8.2229 15.5193 8.11591C15.3627 8.07454 15.2025 8.16755 15.161 8.32387C15.1195 8.48028 15.2126 8.64071 15.369 8.68223Z" fill="white"/>
<path d="M9.14746 6.91535C9.30929 6.91535 9.44042 6.78422 9.44042 6.62239V6.16638C9.44042 6.00454 9.30929 5.87341 9.14746 5.87341C8.98562 5.87341 8.85449 6.00454 8.85449 6.16638V6.62239C8.85449 6.78422 8.98562 6.91535 9.14746 6.91535Z" fill="white"/>
<path d="M15.7448 7.72724C16.0789 7.6831 16.8515 7.73962 17.1435 7.81263C17.1674 7.81857 17.1913 7.82146 17.2148 7.82146C17.3461 7.82146 17.4655 7.73263 17.4988 7.59947C17.5381 7.44248 17.4426 7.28346 17.2857 7.24416C16.9297 7.15518 16.0814 7.09182 15.6681 7.14635C15.5077 7.16756 15.3948 7.31474 15.416 7.47517C15.4372 7.6356 15.5848 7.7481 15.7448 7.72724Z" fill="white"/>
</svg>
