<svg width="30" height="31" viewBox="0 0 30 31" fill="none" xmlns="http://www.w3.org/2000/svg">
<path d="M22.5862 27.9739L21.5988 5.02301C21.5959 4.95598 21.5974 4.88882 21.6033 4.82199L21.9947 0.443054H1.03478L1.42746 4.823C1.43341 4.88984 1.43493 4.95699 1.43202 5.02402L0.44463 27.975C0.435961 28.1796 0.468748 28.3838 0.541022 28.5754C0.613296 28.767 0.723563 28.942 0.865197 29.0899C1.00683 29.2378 1.17691 29.3555 1.3652 29.436C1.5535 29.5165 1.75612 29.5581 1.9609 29.5583H21.0686C21.2736 29.5583 21.4764 29.5168 21.665 29.4363C21.8535 29.3558 22.0237 29.238 22.1655 29.09C22.3073 28.942 22.4177 28.7668 22.49 28.575C22.5622 28.3832 22.595 28.1787 22.5862 27.9739V27.9739Z" fill="white"/>
<path d="M21.9947 0.443054L21.6023 4.823C21.5998 4.85591 21.5998 4.88883 21.5998 4.92174H1.43176C1.43393 4.88874 1.43223 4.8556 1.42669 4.823L1.03427 0.443054H21.9947Z" fill="white"/>
<path d="M16.1079 12.3527C13.7799 12.6122 12.1133 15.347 12.1133 15.347L14.5959 17.3421C16.658 15.7777 16.1079 12.3527 16.1079 12.3527V12.3527Z" fill="white"/>
<path d="M6.92163 12.3527C9.25085 12.6122 10.9157 15.347 10.9157 15.347L8.43461 17.3421C6.37148 15.7777 6.92163 12.3527 6.92163 12.3527V12.3527Z" fill="white"/>
<path d="M15.8137 17.3426C15.8137 21.5833 12.9705 23.3454 11.5147 23.3454C10.059 23.3454 7.21579 21.5833 7.21579 17.3426C7.21579 14.7678 9.13993 14.026 11.5147 14.026C13.8895 14.026 15.8137 14.7678 15.8137 17.3426Z" fill="white"/>
<path d="M12.1758 20.0275C12.1758 20.3045 11.8798 20.7617 11.5147 20.7617C11.1497 20.7617 10.8537 20.3035 10.8537 20.0275C10.8537 19.7515 11.1497 19.7032 11.5147 19.7032C11.8798 19.7032 12.1758 19.7503 12.1758 20.0275Z" fill="white"/>
<path d="M9.79212 17.8436C10.2116 17.8436 10.5516 17.5035 10.5516 17.0841C10.5516 16.6646 10.2116 16.3245 9.79212 16.3245C9.37265 16.3245 9.03259 16.6646 9.03259 17.0841C9.03259 17.5035 9.37265 17.8436 9.79212 17.8436Z" fill="white"/>
<path d="M13.2374 17.8436C13.6568 17.8436 13.9969 17.5035 13.9969 17.0841C13.9969 16.6646 13.6568 16.3245 13.2374 16.3245C12.8179 16.3245 12.4778 16.6646 12.4778 17.0841C12.4778 17.5035 12.8179 17.8436 13.2374 17.8436Z" fill="white"/>
<path d="M27.633 25.8695C27.5642 25.4155 27.3709 24.9894 27.0746 24.6386C26.7783 24.2878 26.3905 24.0259 25.9544 23.8821C25.8411 23.6565 25.6839 23.4557 25.492 23.2915C25.3001 23.1274 25.0774 23.0032 24.837 22.9261C24.5965 22.8491 24.3431 22.8208 24.0915 22.8428C23.84 22.8649 23.5954 22.937 23.372 23.0547C22.8703 22.8285 22.3076 22.7758 21.7726 22.9048C21.2376 23.0339 20.7608 23.3374 20.4174 23.7674C20.3483 23.7616 20.279 23.7568 20.2083 23.7568C19.6199 23.7572 19.0507 23.9665 18.6021 24.3474C18.1536 24.7282 17.8548 25.256 17.7591 25.8366C17.3228 25.9687 16.9485 26.253 16.7043 26.6378C16.4601 27.0227 16.3622 27.4825 16.4285 27.9334C16.4949 28.3844 16.721 28.7965 17.0656 29.0947C17.4103 29.393 17.8507 29.5575 18.3065 29.5583H26.9874C27.4347 29.5584 27.8678 29.4008 28.2104 29.113C28.5529 28.8253 28.783 28.426 28.8602 27.9853C28.9374 27.5446 28.8566 27.0909 28.6322 26.7039C28.4077 26.3169 28.054 26.0214 27.6332 25.8695H27.633Z" fill="white"/>
<path d="M29.5571 29.5584L28.9849 26.7914C28.9514 26.6289 28.8628 26.483 28.7342 26.3783C28.6055 26.2735 28.4447 26.2164 28.2788 26.2164H17.0142C16.8484 26.2164 16.6876 26.2736 16.559 26.3783C16.4303 26.4831 16.3417 26.629 16.3081 26.7914L15.736 29.5584H29.5571Z" fill="white"/>
<path d="M21.8238 10.2853C21.7657 10.2878 21.7086 10.3017 21.6558 10.3263C21.603 10.3509 21.5556 10.3856 21.5163 10.4285C21.477 10.4714 21.4465 10.5217 21.4266 10.5764C21.4067 10.6311 21.3977 10.6892 21.4003 10.7473L21.4453 11.7899C21.4502 11.9039 21.4989 12.0117 21.5813 12.0907C21.6637 12.1697 21.7735 12.2137 21.8876 12.2137H21.9069C21.965 12.2112 22.0221 12.1973 22.0748 12.1727C22.1276 12.1481 22.175 12.1134 22.2143 12.0705C22.2536 12.0277 22.2841 11.9774 22.3041 11.9228C22.324 11.8681 22.333 11.81 22.3304 11.7519L22.2854 10.7093C22.2797 10.5922 22.228 10.482 22.1416 10.4026C22.0552 10.3232 21.9411 10.2811 21.8238 10.2853Z" fill="#B3BACC"/>
<path d="M2.25586 10.9018L2.16674 12.9642C2.1618 13.0816 2.20366 13.1961 2.28312 13.2827C2.36258 13.3693 2.47315 13.4208 2.59056 13.4259H2.6098C2.72399 13.4259 2.83373 13.3817 2.91617 13.3027C2.99862 13.2237 3.0474 13.116 3.05235 13.0019L3.14122 10.9395C3.14371 10.8813 3.13472 10.8232 3.11476 10.7685C3.0948 10.7138 3.06426 10.6636 3.02488 10.6207C2.9855 10.5777 2.93806 10.543 2.88525 10.5185C2.83245 10.4939 2.77533 10.48 2.71715 10.4775C2.65897 10.475 2.60086 10.484 2.54615 10.5039C2.49144 10.5239 2.4412 10.5544 2.3983 10.5938C2.35539 10.6332 2.32066 10.6806 2.29609 10.7334C2.27153 10.7862 2.2576 10.8433 2.2551 10.9015L2.25586 10.9018Z" fill="#B3BACC"/>
<path d="M11.5147 19.2604C10.6033 19.2604 10.4106 19.6774 10.4106 20.0272C10.4106 20.4966 10.8509 21.2058 11.5147 21.2058C12.1786 21.2058 12.6188 20.4969 12.6188 20.0272C12.6196 19.6774 12.4272 19.2604 11.5147 19.2604ZM11.5147 20.3197C11.4697 20.3161 11.394 20.2346 11.3446 20.1518C11.4577 20.1455 11.571 20.1455 11.6841 20.1518C11.635 20.2349 11.5598 20.3174 11.515 20.3197H11.5147Z" fill="#B3BACC"/>
<path d="M10.995 17.0841C10.995 16.8462 10.9245 16.6137 10.7923 16.4159C10.6602 16.2182 10.4724 16.064 10.2526 15.973C10.0329 15.882 9.79107 15.8582 9.55779 15.9046C9.32451 15.951 9.11023 16.0655 8.94204 16.2337C8.77386 16.4019 8.65932 16.6162 8.61292 16.8494C8.56652 17.0827 8.59033 17.3245 8.68136 17.5443C8.77238 17.764 8.92651 17.9518 9.12428 18.084C9.32204 18.2161 9.55455 18.2866 9.7924 18.2866C10.1112 18.2862 10.4169 18.1594 10.6423 17.934C10.8678 17.7085 10.9946 17.4029 10.995 17.0841V17.0841ZM9.7924 17.4005C9.72981 17.4005 9.66862 17.382 9.61658 17.3472C9.56454 17.3124 9.52397 17.263 9.50002 17.2052C9.47607 17.1473 9.4698 17.0837 9.48201 17.0223C9.49422 16.9609 9.52436 16.9045 9.56862 16.8603C9.61288 16.816 9.66927 16.7859 9.73066 16.7737C9.79205 16.7615 9.85568 16.7677 9.91351 16.7917C9.97134 16.8156 10.0208 16.8562 10.0555 16.9082C10.0903 16.9603 10.1089 17.0215 10.1089 17.0841C10.1088 17.168 10.0754 17.2484 10.0161 17.3078C9.95677 17.3671 9.87631 17.4005 9.7924 17.4005Z" fill="#B3BACC"/>
<path d="M13.2374 15.8815C12.9995 15.8815 12.767 15.952 12.5693 16.0841C12.3715 16.2163 12.2174 16.4041 12.1263 16.6238C12.0353 16.8436 12.0115 17.0854 12.0579 17.3187C12.1043 17.5519 12.2188 17.7662 12.387 17.9344C12.5552 18.1026 12.7695 18.2171 13.0028 18.2635C13.236 18.3099 13.4778 18.2861 13.6976 18.1951C13.9173 18.1041 14.1051 17.9499 14.2373 17.7522C14.3694 17.5544 14.44 17.3219 14.44 17.0841C14.4396 16.7652 14.3128 16.4595 14.0874 16.2341C13.8619 16.0086 13.5562 15.8818 13.2374 15.8815ZM13.2374 17.4005C13.1748 17.4005 13.1136 17.382 13.0616 17.3472C13.0095 17.3124 12.9689 17.263 12.945 17.2052C12.921 17.1473 12.9148 17.0837 12.927 17.0223C12.9392 16.9609 12.9693 16.9045 13.0136 16.8603C13.0579 16.816 13.1142 16.7859 13.1756 16.7737C13.237 16.7615 13.3007 16.7677 13.3585 16.7917C13.4163 16.8156 13.4657 16.8562 13.5005 16.9082C13.5353 16.9603 13.5538 17.0215 13.5538 17.0841C13.5538 17.168 13.5204 17.2484 13.4611 17.3078C13.4017 17.3671 13.3213 17.4005 13.2374 17.4005Z" fill="#B3BACC"/>
<path d="M17.0864 19.1692C17.1442 19.1598 17.1995 19.1389 17.2492 19.108C17.299 19.077 17.342 19.0365 17.376 18.9888C17.4099 18.941 17.4341 18.887 17.447 18.8299C17.46 18.7728 17.4615 18.7137 17.4514 18.656C17.4414 18.5983 17.42 18.5432 17.3885 18.4938C17.357 18.4444 17.3161 18.4017 17.268 18.3683C17.2199 18.3348 17.1657 18.3112 17.1085 18.2989C17.0512 18.2865 16.9921 18.2856 16.9345 18.2963L16.1924 18.4246C16.2347 18.0655 16.2559 17.7042 16.256 17.3425C16.2594 16.927 16.2036 16.5131 16.0901 16.1134C16.8664 14.3839 16.559 12.3699 16.5459 12.2823C16.5282 12.1696 16.4676 12.0682 16.3768 11.9991C16.286 11.9301 16.1721 11.8988 16.0587 11.9119C14.7248 12.0626 13.6186 12.9206 12.8816 13.6803C11.9754 13.5502 11.0553 13.5502 10.1491 13.6803C9.40958 12.9208 8.30092 12.0623 6.97023 11.9122C6.85693 11.8989 6.74289 11.93 6.65206 11.999C6.56123 12.0681 6.50068 12.1696 6.48312 12.2823C6.46894 12.3699 6.16234 14.3837 6.93884 16.1121C6.82533 16.5123 6.76941 16.9266 6.77275 17.3425C6.77278 17.7042 6.794 18.0655 6.8363 18.4246L6.09424 18.2963C6.03665 18.2856 5.97752 18.2865 5.92027 18.2989C5.86302 18.3112 5.8088 18.3348 5.76072 18.3683C5.71265 18.4017 5.67169 18.4444 5.6402 18.4938C5.60872 18.5432 5.58734 18.5983 5.5773 18.656C5.56726 18.7137 5.56876 18.7728 5.58171 18.8299C5.59466 18.887 5.61881 18.941 5.65275 18.9888C5.6867 19.0365 5.72977 19.077 5.77948 19.108C5.82918 19.1389 5.88453 19.1598 5.94233 19.1692L6.99783 19.352C7.08926 19.7396 7.21342 20.1188 7.36898 20.4855L6.12842 21.0604C6.07564 21.0849 6.0282 21.1196 5.98882 21.1624C5.94943 21.2053 5.91887 21.2554 5.89887 21.3101C5.87888 21.3647 5.86984 21.4228 5.87228 21.4809C5.87472 21.5391 5.88859 21.5962 5.91309 21.6489C5.9376 21.7017 5.97226 21.7492 6.01509 21.7885C6.05793 21.8279 6.1081 21.8585 6.16275 21.8785C6.2174 21.8985 6.27545 21.9075 6.33359 21.9051C6.39173 21.9026 6.44882 21.8888 6.5016 21.8643L7.77052 21.2754C8.82196 23.0165 10.4595 23.7884 11.5147 23.7884C12.57 23.7884 14.2088 23.0165 15.2572 21.2754L16.5264 21.8643C16.5794 21.8908 16.6373 21.9064 16.6965 21.9102C16.7557 21.914 16.815 21.9058 16.871 21.8862C16.927 21.8666 16.9785 21.8359 17.0224 21.7961C17.0663 21.7562 17.1018 21.7079 17.1267 21.6541C17.1516 21.6002 17.1655 21.5419 17.1674 21.4827C17.1694 21.4234 17.1594 21.3643 17.1381 21.3089C17.1168 21.2536 17.0846 21.203 17.0434 21.1604C17.0022 21.1177 16.9529 21.0837 16.8983 21.0604L15.6577 20.4852C15.8132 20.1186 15.9374 19.7395 16.0289 19.352L17.0864 19.1692ZM15.7152 12.8775C15.7648 13.5992 15.7042 14.3241 15.5354 15.0275C15.1094 14.5114 14.5432 14.1295 13.905 13.928C14.4201 13.4439 15.0394 13.0845 15.7152 12.8775V12.8775ZM7.31379 12.8775C7.98994 13.0849 8.60973 13.4441 9.12577 13.9277C8.48743 14.1288 7.92085 14.5102 7.4943 15.026C7.32545 14.3232 7.26459 13.5989 7.31379 12.8778V12.8775ZM14.8476 20.1087L14.7754 20.0751C14.6688 20.0256 14.5469 20.0205 14.4366 20.0609C14.3262 20.1013 14.2365 20.1839 14.187 20.2905C14.1376 20.3971 14.1325 20.519 14.1729 20.6293C14.2133 20.7397 14.2959 20.8295 14.4025 20.8789L14.4377 20.8954C13.5756 22.2724 12.311 22.9023 11.5142 22.9023C10.7175 22.9023 9.45288 22.2724 8.59056 20.8954L8.62626 20.8789C8.73285 20.8294 8.81542 20.7396 8.8558 20.6292C8.89618 20.5189 8.89107 20.397 8.84158 20.2904C8.7921 20.1838 8.70229 20.1012 8.59192 20.0609C8.48156 20.0205 8.35967 20.0256 8.25307 20.0751L8.18092 20.1087C8.09977 19.9163 8.02861 19.7197 7.96774 19.5199L8.33865 19.5842C8.36372 19.5886 8.38914 19.5908 8.4146 19.5907C8.52548 19.5907 8.63233 19.5491 8.71402 19.4741C8.79572 19.3992 8.84634 19.2963 8.85588 19.1858C8.86542 19.0753 8.83319 18.9653 8.76555 18.8774C8.69791 18.7896 8.59979 18.7303 8.49055 18.7112L7.75432 18.5846C7.69018 18.1742 7.65827 17.7594 7.65887 17.3441C7.65171 16.9812 7.70161 16.6195 7.80672 16.2721C7.82065 16.2432 7.83135 16.2128 7.83862 16.1815C8.09459 15.4883 8.69461 14.8548 10.0463 14.5953C10.0592 14.5938 10.0716 14.5905 10.0843 14.5877C10.5566 14.5053 11.0354 14.466 11.5147 14.4705C11.9996 14.4659 12.4838 14.5062 12.9611 14.591C12.968 14.5923 12.9746 14.5941 12.9814 14.5951C14.3485 14.8569 14.9465 15.5007 15.1985 16.2022C15.2032 16.2178 15.2087 16.2331 15.2152 16.2481C15.3258 16.6026 15.3783 16.9727 15.3706 17.3441C15.3712 17.7594 15.3393 18.1742 15.2752 18.5846L14.5389 18.7112C14.4297 18.7303 14.3316 18.7896 14.2639 18.8774C14.1963 18.9653 14.1641 19.0753 14.1736 19.1858C14.1831 19.2963 14.2338 19.3992 14.3155 19.4741C14.3972 19.5491 14.504 19.5907 14.6149 19.5907C14.6403 19.5908 14.6658 19.5886 14.6908 19.5842L15.0615 19.5199C15.0003 19.7197 14.9289 19.9162 14.8476 20.1087Z" fill="#B3BACC"/>
<path d="M4.27823 2.68271C4.2781 2.74091 4.28943 2.79857 4.31159 2.85239C4.33375 2.90622 4.3663 2.95514 4.40737 2.99638C4.44845 3.03762 4.49724 3.07036 4.55098 3.09274C4.60471 3.11511 4.66232 3.12668 4.72053 3.12678H18.3082C18.4257 3.12678 18.5384 3.0801 18.6215 2.99701C18.7046 2.91392 18.7513 2.80123 18.7513 2.68372C18.7513 2.56621 18.7046 2.45352 18.6215 2.37043C18.5384 2.28734 18.4257 2.24066 18.3082 2.24066H4.72053C4.60335 2.24093 4.49104 2.28758 4.40816 2.37041C4.32528 2.45325 4.27856 2.56553 4.27823 2.68271Z" fill="#B3BACC"/>
<path d="M29.991 29.4687L29.4189 26.7017C29.3639 26.44 29.2208 26.2049 29.0135 26.036C28.8061 25.867 28.5471 25.7743 28.2796 25.7733H18.2249C18.3286 25.3256 18.5812 24.9262 18.9413 24.6407C19.3014 24.3551 19.7477 24.2001 20.2073 24.2011C20.2613 24.2007 20.3153 24.2032 20.3691 24.2085C20.4432 24.217 20.5182 24.2066 20.5872 24.1781C20.6561 24.1496 20.7166 24.104 20.763 24.0457C21.0452 23.6923 21.437 23.4429 21.8766 23.3366C22.3161 23.2304 22.7785 23.2734 23.191 23.4588C23.2522 23.486 23.3188 23.4991 23.3858 23.497C23.4528 23.4949 23.5184 23.4777 23.5778 23.4466C23.7493 23.3567 23.937 23.3017 24.1299 23.285C24.3228 23.2682 24.5172 23.2901 24.7016 23.3492C24.886 23.4084 25.0567 23.5037 25.2039 23.6295C25.3511 23.7553 25.4718 23.9092 25.5589 24.0821C25.5852 24.1341 25.6214 24.1803 25.6655 24.2183C25.7097 24.2562 25.7609 24.285 25.8162 24.3031C26.1684 24.4192 26.4823 24.6293 26.7238 24.9108C26.7617 24.9549 26.808 24.9911 26.8599 25.0173C26.9119 25.0436 26.9685 25.0593 27.0265 25.0637C27.0845 25.0681 27.1428 25.061 27.1981 25.0428C27.2534 25.0247 27.3045 24.9958 27.3486 24.9579C27.3928 24.9199 27.429 24.8737 27.4552 24.8217C27.4815 24.7698 27.4972 24.7132 27.5016 24.6552C27.506 24.5972 27.4989 24.5389 27.4807 24.4836C27.4625 24.4283 27.4337 24.3771 27.3957 24.333C27.0883 23.9755 26.699 23.6975 26.261 23.5229C25.9706 23.044 25.5185 22.6848 24.9864 22.5101C24.4543 22.3355 23.8773 22.357 23.3596 22.5707C23.1751 22.5038 22.9844 22.4559 22.7902 22.4276L22.4026 13.431C22.3975 13.3135 22.346 13.2028 22.2593 13.1233C22.1726 13.0438 22.0579 13.002 21.9404 13.0071C21.8229 13.0121 21.7122 13.0637 21.6327 13.1503C21.5532 13.237 21.5114 13.3517 21.5165 13.4692L21.9036 22.4322C21.2612 22.5309 20.6703 22.8416 20.225 23.315H20.2073C19.5593 23.3132 18.9291 23.5275 18.4165 23.924C17.9039 24.3204 17.5382 24.8765 17.3771 25.5042C17.2107 25.5783 17.0536 25.6717 16.9092 25.7827C16.6611 25.8053 16.4268 25.9067 16.2405 26.0722C16.0543 26.2376 15.9259 26.4583 15.8742 26.702L15.3752 29.1155H1.9609C1.81576 29.1153 1.67216 29.0858 1.53874 29.0286C1.40531 28.9715 1.28481 28.888 1.18449 28.7831C1.08417 28.6782 1.00609 28.5541 0.954957 28.4183C0.903821 28.2825 0.88068 28.1377 0.886927 27.9927L1.85963 5.36531H21.1686L21.3253 9.00548C21.3299 9.11975 21.3785 9.22783 21.4609 9.30711C21.5434 9.38638 21.6533 9.43071 21.7676 9.43081H21.7871C21.9045 9.42569 22.015 9.37416 22.0944 9.28756C22.1738 9.20096 22.2155 9.08639 22.2104 8.96902L22.04 5.00783C22.0385 4.95986 22.0397 4.91185 22.0436 4.86402L22.436 0.484073C22.4417 0.422693 22.4345 0.360806 22.4149 0.302364C22.3953 0.243922 22.3637 0.190209 22.3222 0.144656C22.2807 0.099103 22.2301 0.0627106 22.1737 0.0378031C22.1173 0.0128956 22.0564 2.05062e-05 21.9947 0H7.00847C6.95029 -1.22612e-09 6.89268 0.01146 6.83892 0.0337258C6.78517 0.0559915 6.73633 0.088627 6.69518 0.129769C6.65404 0.170911 6.62141 0.219753 6.59914 0.273507C6.57688 0.327262 6.56542 0.384875 6.56542 0.443058C6.56542 0.501242 6.57688 0.558855 6.59914 0.612609C6.62141 0.666364 6.65404 0.715206 6.69518 0.756348C6.73633 0.79749 6.78517 0.830125 6.83892 0.852391C6.89268 0.874657 6.95029 0.886117 7.00847 0.886117H21.5102L21.1884 4.47919H1.84089L1.51885 0.886117H4.55697C4.67447 0.886117 4.78717 0.839437 4.87026 0.756348C4.95335 0.673258 5.00003 0.560565 5.00003 0.443058C5.00003 0.325552 4.95335 0.212858 4.87026 0.129769C4.78717 0.0466792 4.67447 2.47626e-09 4.55697 0H1.03428C0.972816 6.8138e-05 0.912043 0.0129295 0.855826 0.0377658C0.799608 0.062602 0.749176 0.0988692 0.707739 0.144259C0.666302 0.189649 0.634768 0.243168 0.615143 0.301411C0.595518 0.359653 0.588232 0.421342 0.593749 0.482554L0.986425 4.87364C0.990616 4.91706 0.991547 4.96073 0.98921 5.00428L0.00182288 27.9544C-0.00958333 28.2189 0.0326294 28.4829 0.125921 28.7306C0.219212 28.9784 0.361654 29.2046 0.544675 29.3959C0.727696 29.5871 0.947512 29.7393 1.1909 29.8434C1.43428 29.9474 1.6962 30.0012 1.9609 30.0014H29.5571C29.6228 30.0014 29.6876 29.9867 29.747 29.9585C29.8063 29.9304 29.8587 29.8894 29.9002 29.8385C29.9417 29.7876 29.9714 29.7281 29.9871 29.6643C30.0028 29.6005 30.0042 29.5341 29.991 29.4697V29.4687ZM21.0681 29.1142H16.28L16.7421 26.8802C16.7551 26.8176 16.7893 26.7614 16.8388 26.721C16.8884 26.6807 16.9503 26.6586 17.0142 26.6584H28.2788C28.3427 26.6586 28.4047 26.6807 28.4542 26.721C28.5038 26.7614 28.538 26.8176 28.551 26.8802L29.0133 29.1142H21.0681Z" fill="#B3BACC"/>
</svg>
