<svg width="20" height="20" viewBox="0 0 20 20" fill="none" xmlns="http://www.w3.org/2000/svg">
<path d="M19.75 9.76744C19.75 15.0183 15.3904 19.2849 10 19.2849C4.60965 19.2849 0.25 15.0183 0.25 9.76744C0.25 4.51662 4.60965 0.25 10 0.25C15.3904 0.25 19.75 4.51662 19.75 9.76744Z" stroke="#B3BACC" stroke-width="0.5"/>
<path d="M13.0312 6.125H11.625V5.42188C11.6249 5.31002 11.5804 5.20279 11.5013 5.1237C11.4222 5.04461 11.315 5.00012 11.2031 5H8.10937C7.99752 5.00012 7.89029 5.04461 7.8112 5.1237C7.73211 5.20279 7.68762 5.31002 7.6875 5.42188V6.125H6.28125C6.20668 6.12509 6.1352 6.15474 6.08247 6.20747C6.02974 6.2602 6.00009 6.33168 6 6.40625V7.25C6.00009 7.32457 6.02974 7.39605 6.08247 7.44878C6.1352 7.50151 6.20668 7.53116 6.28125 7.53125H13.0312C13.1058 7.53116 13.1773 7.50151 13.23 7.44878C13.2828 7.39605 13.3124 7.32457 13.3125 7.25V6.40625C13.3124 6.33168 13.2828 6.2602 13.23 6.20747C13.1773 6.15474 13.1058 6.12509 13.0312 6.125ZM7.96875 5.42188C7.96878 5.38459 7.98361 5.34884 8.00997 5.32248C8.03634 5.29611 8.07209 5.28128 8.10937 5.28125H11.2031C11.2404 5.28128 11.2762 5.29611 11.3025 5.32248C11.3289 5.34884 11.3437 5.38459 11.3437 5.42188V6.125H7.96875V5.42188ZM13.0312 7.25H6.28125V6.40625H13.0312V7.25Z" fill="#B3BACC"/>
<path d="M12.6227 7.81317C12.6043 7.8112 12.5857 7.81292 12.5679 7.81825C12.5502 7.82358 12.5337 7.83239 12.5194 7.84419C12.5051 7.85598 12.4934 7.8705 12.4848 7.88691C12.4762 7.90332 12.471 7.92128 12.4694 7.93973L11.919 13.7187H7.39349L6.84314 7.93979C6.83961 7.90266 6.82147 7.86845 6.79272 7.84469C6.76397 7.82093 6.72695 7.80957 6.68982 7.8131C6.65269 7.81663 6.61848 7.83477 6.59472 7.86352C6.57096 7.89228 6.5596 7.92929 6.56313 7.96642L7.12563 13.8727C7.12895 13.9075 7.14513 13.9399 7.17102 13.9634C7.19691 13.9869 7.23065 14 7.26564 14H12.0469C12.0819 14 12.1156 13.9869 12.1415 13.9634C12.1674 13.9399 12.1836 13.9075 12.1869 13.8727L12.7494 7.96642C12.7511 7.94804 12.7493 7.92949 12.7438 7.91184C12.7384 7.89419 12.7296 7.87777 12.7178 7.86354C12.706 7.84931 12.6916 7.83753 12.6753 7.82889C12.659 7.82025 12.6411 7.81491 12.6227 7.81317Z" fill="#B3BACC"/>
<path d="M9.79688 12.875V8.375C9.79688 8.3377 9.78206 8.30194 9.75569 8.27556C9.72931 8.24919 9.69355 8.23438 9.65625 8.23438C9.61895 8.23438 9.58319 8.24919 9.55681 8.27556C9.53044 8.30194 9.51562 8.3377 9.51562 8.375V12.875C9.51562 12.9123 9.53044 12.9481 9.55681 12.9744C9.58319 13.0008 9.61895 13.0156 9.65625 13.0156C9.69355 13.0156 9.72931 13.0008 9.75569 12.9744C9.78206 12.9481 9.79688 12.9123 9.79688 12.875Z" fill="#B3BACC"/>
<path d="M10.9221 13.0156C10.9578 13.0156 10.9922 13.0019 11.0183 12.9775C11.0443 12.953 11.06 12.9195 11.0623 12.8838L11.3435 8.3838C11.3447 8.36537 11.3422 8.34688 11.3362 8.32941C11.3303 8.31193 11.3209 8.29581 11.3087 8.28196C11.2964 8.26811 11.2816 8.2568 11.265 8.24868C11.2484 8.24057 11.2304 8.23581 11.212 8.23467C11.1749 8.23284 11.1385 8.24557 11.1107 8.27015C11.0828 8.29472 11.0657 8.32919 11.0629 8.36622L10.7816 12.8662C10.7805 12.8847 10.783 12.9031 10.789 12.9206C10.7949 12.9381 10.8043 12.9542 10.8165 12.968C10.8287 12.9819 10.8436 12.9932 10.8602 13.0013C10.8768 13.0094 10.8948 13.0141 10.9132 13.0153C10.9162 13.0155 10.9191 13.0156 10.9221 13.0156Z" fill="#B3BACC"/>
<path d="M8.3904 13.0156C8.39335 13.0156 8.39631 13.0155 8.39933 13.0153C8.41776 13.0142 8.43578 13.0094 8.45237 13.0013C8.46896 12.9932 8.48379 12.9819 8.49601 12.9681C8.50822 12.9542 8.51759 12.9381 8.52358 12.9207C8.52956 12.9032 8.53205 12.8847 8.53089 12.8663L8.24964 8.36629C8.24697 8.32932 8.22981 8.2949 8.2019 8.27051C8.17399 8.24612 8.13758 8.23374 8.10059 8.23605C8.06359 8.23837 8.02901 8.2552 8.00436 8.28288C7.97971 8.31056 7.96698 8.34685 7.96895 8.38386L8.2502 12.8839C8.25245 12.9195 8.2682 12.953 8.29424 12.9775C8.32028 13.002 8.35466 13.0156 8.3904 13.0156Z" fill="#B3BACC"/>
</svg>
