<svg width="20" height="20" viewBox="0 0 20 20" fill="none" xmlns="http://www.w3.org/2000/svg">
<path d="M19.75 9.76744C19.75 15.0183 15.3904 19.2849 10 19.2849C4.60965 19.2849 0.25 15.0183 0.25 9.76744C0.25 4.51662 4.60965 0.25 10 0.25C15.3904 0.25 19.75 4.51662 19.75 9.76744Z" stroke="#B3BACC" stroke-width="0.5"/>
<path d="M13.827 6.02675H11.8143V5.14768C11.8143 5.10851 11.7988 5.07095 11.7711 5.04325C11.7434 5.01556 11.7058 5 11.6667 5H8.30802C8.26886 5.00002 8.23131 5.01559 8.20362 5.04328C8.17593 5.07097 8.16036 5.10852 8.16034 5.14768V6.02675H6.14768C6.10851 6.02675 6.07095 6.04231 6.04325 6.07001C6.01556 6.0977 6 6.13526 6 6.17443V7.24118C6.00002 7.28034 6.01559 7.31789 6.04328 7.34558C6.07097 7.37327 6.10852 7.38884 6.14768 7.38886H6.50397L6.90734 14.8603C6.90939 14.898 6.92583 14.9335 6.95326 14.9595C6.9807 14.9855 7.01706 15 7.05485 15H12.9198C12.9576 15 12.994 14.9855 13.0214 14.9595C13.0488 14.9335 13.0652 14.898 13.0673 14.8603L13.4707 7.38886H13.827C13.8662 7.38886 13.9037 7.3733 13.9314 7.34561C13.9591 7.31791 13.9747 7.28035 13.9747 7.24118V6.17443C13.9747 6.15503 13.9709 6.13583 13.9635 6.1179C13.956 6.09998 13.9452 6.0837 13.9315 6.06998C13.9177 6.05627 13.9015 6.04539 13.8835 6.03797C13.8656 6.03055 13.8464 6.02674 13.827 6.02675V6.02675ZM8.4557 5.29536H11.519V6.02675H8.4557V5.29536ZM12.7799 14.7046H7.19477L6.79975 7.38886H13.175L12.7799 14.7046ZM13.6793 7.0935H6.29536V6.32211H8.30515H8.30802C8.30802 6.32211 8.30987 6.32211 8.31089 6.32211H11.6639H11.6667C11.6667 6.32211 11.6686 6.32211 11.6695 6.32211H13.6793V7.0935Z" fill="#B3BACC"/>
<path d="M8.52463 12.7476C8.56379 12.7476 8.60134 12.732 8.62903 12.7043C8.65672 12.6766 8.67229 12.6391 8.67231 12.5999V9.04364C8.67231 9.00448 8.65675 8.96691 8.62906 8.93922C8.60136 8.91152 8.5638 8.89597 8.52463 8.89597C8.48547 8.89597 8.4479 8.91152 8.42021 8.93922C8.39251 8.96691 8.37695 9.00448 8.37695 9.04364V12.5999C8.37695 12.6391 8.39251 12.6767 8.42021 12.7044C8.4479 12.7321 8.48547 12.7476 8.52463 12.7476V12.7476Z" fill="#B3BACC"/>
<path d="M9.9874 12.7476C10.0266 12.7476 10.0641 12.732 10.0918 12.7043C10.1195 12.6766 10.1351 12.6391 10.1351 12.5999V9.04364C10.1351 9.00448 10.1195 8.96691 10.0918 8.93922C10.0641 8.91152 10.0266 8.89597 9.9874 8.89597C9.94823 8.89597 9.91067 8.91152 9.88298 8.93922C9.85528 8.96691 9.83972 9.00448 9.83972 9.04364V12.5999C9.83974 12.6391 9.85531 12.6766 9.883 12.7043C9.91069 12.732 9.94824 12.7476 9.9874 12.7476V12.7476Z" fill="#B3BACC"/>
<path d="M11.45 12.7476C11.4892 12.7476 11.5268 12.7321 11.5545 12.7044C11.5822 12.6767 11.5977 12.6391 11.5977 12.5999V9.04364C11.5977 9.00448 11.5822 8.96691 11.5545 8.93922C11.5268 8.91152 11.4892 8.89597 11.45 8.89597C11.4109 8.89597 11.3733 8.91152 11.3456 8.93922C11.3179 8.96691 11.3024 9.00448 11.3024 9.04364V12.5999C11.3024 12.6391 11.3179 12.6767 11.3456 12.7044C11.3733 12.7321 11.4109 12.7476 11.45 12.7476V12.7476Z" fill="#B3BACC"/>
</svg>
