<svg width="15" height="8" viewBox="0 0 15 8" fill="none" xmlns="http://www.w3.org/2000/svg">
<path d="M14.439 0.099564L7.49622 7.04295L0.553471 0.099564C0.423949 -0.0255562 0.217514 -0.021949 0.0923942 0.107573C-0.0296384 0.233947 -0.0296384 0.434267 0.0923942 0.56061L7.266 7.73422C7.39332 7.86151 7.59972 7.86151 7.72708 7.73422L14.9007 0.56061C15.0302 0.43549 15.0338 0.229086 14.9087 0.0995334C14.7836 -0.0299887 14.5772 -0.0335654 14.4476 0.0915242C14.4449 0.0941532 14.4422 0.0968127 14.4396 0.0995334L14.439 0.099564Z" fill="#FFC107"/>
<path d="M7.496 7.83106C7.40946 7.83121 7.3264 7.79697 7.26514 7.73583L0.0915359 0.562229C-0.0335842 0.432706 -0.029977 0.226272 0.0995451 0.101152C0.225919 -0.0208806 0.426239 -0.0208806 0.552582 0.101152L7.49597 7.0439L14.4387 0.10051C14.5638 -0.0290122 14.7702 -0.0325888 14.8998 0.0925008C15.0293 0.217621 15.0329 0.424025 14.9078 0.553578C14.9052 0.556298 14.9025 0.558958 14.8998 0.561587L7.72622 7.73519C7.6652 7.79639 7.58239 7.83084 7.496 7.83106Z" fill="#B3BACC"/>
</svg>
