<svg width="85" height="86" viewBox="0 0 85 86" fill="none" xmlns="http://www.w3.org/2000/svg">
<path d="M64.6478 80.3785L61.765 13.3715C61.7565 13.1758 61.761 12.9798 61.7783 12.7846L62.9211 0H1.72697L2.87342 12.7876C2.89079 12.9827 2.89523 13.1788 2.88673 13.3745L0.00397608 80.3814C-0.021334 80.9787 0.0743918 81.575 0.2854 82.1344C0.496408 82.6938 0.818342 83.2048 1.23185 83.6366C1.64536 84.0684 2.14191 84.4121 2.69165 84.6471C3.24139 84.8822 3.83298 85.0036 4.43084 85.0042H60.2172C60.8157 85.0041 61.4079 84.883 61.9583 84.648C62.5087 84.413 63.0058 84.0691 63.4197 83.6369C63.8337 83.2047 64.1559 82.6932 64.3669 82.1332C64.578 81.5732 64.6735 80.9763 64.6478 80.3785Z" fill="#9F9FC6"/>
<path d="M62.9209 0L61.7752 12.7876C61.7678 12.8837 61.7678 12.9798 61.7678 13.0759H2.88583C2.89218 12.9795 2.88721 12.8828 2.87105 12.7876L1.72534 0H62.9209Z" fill="#E1E5EE"/>
<path d="M6.32545 37.9052H6.26927C5.9265 37.8902 5.60367 37.7398 5.37167 37.487C5.13968 37.2342 5.01748 36.8997 5.03191 36.5569L5.2921 30.5357C5.3068 30.1926 5.45718 29.8694 5.71017 29.6372C5.96315 29.4051 6.29801 29.2829 6.64107 29.2976C6.98414 29.3123 7.30732 29.4627 7.53951 29.7156C7.7717 29.9686 7.89388 30.3035 7.87918 30.6466L7.61973 36.6678C7.60506 37.0011 7.46225 37.3159 7.2211 37.5464C6.97994 37.777 6.65908 37.9055 6.32545 37.9052Z" fill="#9F9FC6"/>
<path d="M45.7341 34.7712C38.9375 35.5289 34.0715 43.5134 34.0715 43.5134L41.3198 49.338C47.3403 44.7707 45.7341 34.7712 45.7341 34.7712Z" fill="#3E3E70"/>
<path d="M18.914 34.7712C25.7144 35.5289 30.5751 43.5134 30.5751 43.5134L23.3313 49.338C17.3078 44.7707 18.914 34.7712 18.914 34.7712Z" fill="#3E3E70"/>
<path d="M44.875 49.3396C44.875 61.7206 36.5742 66.8652 32.324 66.8652C28.0738 66.8652 19.7729 61.7206 19.7729 49.3396C19.7729 41.8223 25.3906 39.6565 32.324 39.6565C39.2574 39.6565 44.875 41.8223 44.875 49.3396Z" fill="white"/>
<path d="M34.254 57.1783C34.254 57.987 33.3899 59.3219 32.324 59.3219C31.2581 59.3219 30.394 57.984 30.394 57.1783C30.394 56.3726 31.2581 56.2314 32.324 56.2314C33.3899 56.2314 34.254 56.3689 34.254 57.1783Z" fill="#3E3E70"/>
<path d="M27.2946 50.8024C28.5193 50.8024 29.5121 49.8096 29.5121 48.5849C29.5121 47.3602 28.5193 46.3674 27.2946 46.3674C26.07 46.3674 25.0771 47.3602 25.0771 48.5849C25.0771 49.8096 26.07 50.8024 27.2946 50.8024Z" fill="#3E3E70"/>
<path d="M37.3532 50.8022C38.5779 50.8022 39.5707 49.8094 39.5707 48.5847C39.5707 47.36 38.5779 46.3672 37.3532 46.3672C36.1286 46.3672 35.1357 47.36 35.1357 48.5847C35.1357 49.8094 36.1286 50.8022 37.3532 50.8022Z" fill="#3E3E70"/>
<path d="M23.2753 55.9032C23.2009 55.9033 23.1267 55.8968 23.0535 55.8839L16.058 54.6724C15.8893 54.6449 15.7277 54.5841 15.5826 54.4937C15.4374 54.4032 15.3117 54.2849 15.2126 54.1456C15.1135 54.0063 15.043 53.8486 15.0052 53.6819C14.9674 53.5151 14.963 53.3425 14.9923 53.1741C15.0216 53.0056 15.084 52.8446 15.176 52.7005C15.2679 52.5563 15.3875 52.4318 15.5278 52.3341C15.6682 52.2364 15.8265 52.1675 15.9936 52.1314C16.1608 52.0954 16.3334 52.0927 16.5015 52.1238L23.4978 53.3353C23.8167 53.3909 24.1032 53.564 24.3006 53.8206C24.4981 54.0771 24.5922 54.3984 24.5644 54.7209C24.5365 55.0434 24.3887 55.3438 24.1502 55.5627C23.9117 55.7816 23.5997 55.9031 23.276 55.9032H23.2753Z" fill="#3E3E70"/>
<path d="M17.1491 62.6615C16.8546 62.6612 16.569 62.5604 16.3395 62.3759C16.11 62.1914 15.9503 61.9341 15.8867 61.6466C15.8231 61.3591 15.8595 61.0584 15.9899 60.7944C16.1202 60.5303 16.3367 60.3186 16.6036 60.1941L22.803 57.3173C23.1142 57.1728 23.47 57.1579 23.7923 57.2758C24.1145 57.3937 24.3767 57.6348 24.5212 57.946C24.6656 58.2572 24.6806 58.613 24.5627 58.9353C24.4448 59.2575 24.2037 59.5197 23.8925 59.6642L17.6931 62.541C17.5227 62.6204 17.3371 62.6615 17.1491 62.6615Z" fill="#3E3E70"/>
<path d="M41.3727 55.9029C41.049 55.9028 40.7371 55.7813 40.4985 55.5624C40.26 55.3436 40.1122 55.0432 40.0844 54.7207C40.0565 54.3981 40.1506 54.0769 40.3481 53.8203C40.5456 53.5638 40.8321 53.3906 41.151 53.335L48.1472 52.1235C48.3153 52.0925 48.488 52.0951 48.6551 52.1312C48.8223 52.1673 48.9806 52.2362 49.1209 52.3338C49.2613 52.4315 49.3809 52.556 49.4728 52.7002C49.5647 52.8444 49.6271 53.0054 49.6564 53.1738C49.6858 53.3423 49.6814 53.5149 49.6436 53.6816C49.6058 53.8484 49.5353 54.006 49.4362 54.1453C49.3371 54.2847 49.2113 54.403 49.0662 54.4934C48.9211 54.5839 48.7595 54.6446 48.5907 54.6722L41.5952 55.8807C41.5219 55.8947 41.4474 55.9021 41.3727 55.9029Z" fill="#3E3E70"/>
<path d="M47.4997 62.6611C47.3117 62.6611 47.126 62.62 46.9556 62.5406L40.7562 59.6638C40.445 59.5194 40.2039 59.2573 40.086 58.9351C39.968 58.613 39.9828 58.2572 40.1272 57.9459C40.2716 57.6347 40.5337 57.3936 40.8558 57.2757C41.178 57.1577 41.5338 57.1725 41.845 57.3169L48.0415 60.1937C48.309 60.3176 48.5262 60.5292 48.6571 60.7934C48.7879 61.0576 48.8246 61.3585 48.761 61.6464C48.6975 61.9343 48.5375 62.1919 48.3075 62.3764C48.0776 62.5609 47.7915 62.6614 47.4967 62.6611H47.4997Z" fill="#3E3E70"/>
<path d="M52.158 7.83513H12.4876C12.1446 7.83513 11.8155 7.69885 11.573 7.45626C11.3304 7.21367 11.1941 6.88466 11.1941 6.54159C11.1941 6.19852 11.3304 5.8695 11.573 5.62692C11.8155 5.38433 12.1446 5.24805 12.4876 5.24805H52.158C52.501 5.24805 52.8301 5.38433 53.0726 5.62692C53.3152 5.8695 53.4515 6.19852 53.4515 6.54159C53.4515 6.88466 53.3152 7.21367 53.0726 7.45626C52.8301 7.69885 52.501 7.83513 52.158 7.83513Z" fill="white"/>
<path d="M79.3824 74.2344C79.1815 72.9088 78.6172 71.6648 77.7521 70.6405C76.887 69.6163 75.755 68.8518 74.4817 68.4319C74.1508 67.7731 73.6918 67.187 73.1316 66.7077C72.5714 66.2285 71.9213 65.8657 71.2192 65.6408C70.5171 65.4159 69.7773 65.3332 69.0429 65.3977C68.3085 65.4622 67.5943 65.6725 66.9422 66.0163C65.4775 65.3559 63.8345 65.2019 62.2726 65.5786C60.7107 65.9554 59.3186 66.8415 58.3161 68.0971C58.1143 68.0801 57.9118 68.066 57.7055 68.066C55.9875 68.0671 54.3257 68.6782 53.0161 69.7902C51.7066 70.9023 50.8343 72.4432 50.5548 74.1383C49.2812 74.5238 48.1883 75.3539 47.4753 76.4775C46.7623 77.6011 46.4766 78.9434 46.6702 80.26C46.8638 81.5766 47.5239 82.7798 48.5302 83.6506C49.5366 84.5213 50.8222 85.0016 52.1529 85.004H77.4975C78.8036 85.0044 80.068 84.544 81.0681 83.704C82.0683 82.8639 82.7401 81.698 82.9653 80.4115C83.1906 79.1249 82.9549 77.8002 82.2996 76.6703C81.6444 75.5404 80.6116 74.6778 79.3831 74.2344H79.3824Z" fill="#3E3E70"/>
<path d="M85 85.0041L83.3295 76.9257C83.2315 76.4514 82.973 76.0254 82.5974 75.7196C82.2218 75.4138 81.7523 75.2469 81.268 75.2471H48.3802C47.896 75.2471 47.4265 75.414 47.051 75.7198C46.6754 76.0256 46.4168 76.4515 46.3187 76.9257L44.6482 85.0041H85Z" fill="#E1E5EE"/>
</svg>
