<svg width="25" height="15" viewBox="0 0 25 15" fill="none" xmlns="http://www.w3.org/2000/svg">
<path d="M23.2292 0H4.27083C3.80134 0.00052385 3.35123 0.187261 3.01924 0.519243C2.68726 0.851226 2.50052 1.30134 2.5 1.77083V7.5H0.416667C0.30616 7.5 0.200179 7.5439 0.122039 7.62204C0.0438987 7.70018 0 7.80616 0 7.91667C0 8.02717 0.0438987 8.13315 0.122039 8.21129C0.200179 8.28943 0.30616 8.33333 0.416667 8.33333H2.5V10.8333H1.66667C1.55616 10.8333 1.45018 10.8772 1.37204 10.9554C1.2939 11.0335 1.25 11.1395 1.25 11.25C1.25 11.3605 1.2939 11.4665 1.37204 11.5446C1.45018 11.6228 1.55616 11.6667 1.66667 11.6667H2.5V13.2292C2.50052 13.6987 2.68726 14.1488 3.01924 14.4808C3.35123 14.8127 3.80134 14.9995 4.27083 15H23.2292C23.6987 14.9995 24.1488 14.8127 24.4808 14.4808C24.8127 14.1488 24.9995 13.6987 25 13.2292V1.77083C24.9995 1.30134 24.8127 0.851226 24.4808 0.519243C24.1488 0.187261 23.6987 0.00052385 23.2292 0ZM4.27083 0.833333H23.2292C23.2939 0.833378 23.3585 0.840133 23.4219 0.853489L14.6247 8.2974C14.3805 8.50503 14.0705 8.61904 13.75 8.61904C13.4295 8.61904 13.1195 8.50503 12.8753 8.2974L4.07812 0.853489C4.14149 0.84013 4.20607 0.833376 4.27083 0.833333ZM3.33333 13.2292V11.6667H4.16667C4.27717 11.6667 4.38315 11.6228 4.46129 11.5446C4.53943 11.4665 4.58333 11.3605 4.58333 11.25C4.58333 11.1395 4.53943 11.0335 4.46129 10.9554C4.38315 10.8772 4.27717 10.8333 4.16667 10.8333H3.33333V10H4.58333C4.69384 10 4.79982 9.9561 4.87796 9.87796C4.9561 9.79982 5 9.69384 5 9.58333C5 9.47283 4.9561 9.36685 4.87796 9.2887C4.79982 9.21056 4.69384 9.16667 4.58333 9.16667H3.33333V8.33333H5C5.11051 8.33333 5.21649 8.28943 5.29463 8.21129C5.37277 8.13315 5.41667 8.02717 5.41667 7.91667C5.41667 7.80616 5.37277 7.70018 5.29463 7.62204C5.21649 7.5439 5.11051 7.5 5 7.5H3.33333V1.77083C3.33346 1.63489 3.3634 1.50062 3.42104 1.3775C3.43876 1.40034 3.4588 1.42128 3.48083 1.44L11.4241 8.1612L3.41401 13.608C3.36085 13.4888 3.33336 13.3597 3.33333 13.2292ZM23.2292 14.1667H4.27083C4.21305 14.1665 4.15541 14.1609 4.09865 14.1501L12.0844 8.71979L12.337 8.93333C12.7314 9.26875 13.2323 9.45292 13.75 9.45292C14.2677 9.45292 14.7686 9.26875 15.163 8.93333L15.4156 8.71979L23.4014 14.1501C23.3446 14.1609 23.2869 14.1665 23.2292 14.1667ZM24.1667 13.2292C24.1666 13.3597 24.1391 13.4888 24.086 13.608L16.0759 8.16109L24.083 1.38589C24.1381 1.50676 24.1666 1.63802 24.1667 1.77083V13.2292Z" fill="#B3BACC"/>
<path d="M1.66663 10.0001C1.77713 10.0001 1.88311 9.95618 1.96125 9.87804C2.03939 9.7999 2.08329 9.69392 2.08329 9.58341C2.08329 9.47291 2.03939 9.36693 1.96125 9.28879C1.88311 9.21065 1.77713 9.16675 1.66663 9.16675H0.833293C0.722786 9.16675 0.616805 9.21065 0.538665 9.28879C0.460525 9.36693 0.416626 9.47291 0.416626 9.58341C0.416626 9.69392 0.460525 9.7999 0.538665 9.87804C0.616805 9.95618 0.722786 10.0001 0.833293 10.0001H1.66663Z" fill="#B3BACC"/>
</svg>
