<svg width="20" height="18" viewBox="0 0 20 18" fill="none" xmlns="http://www.w3.org/2000/svg">
<path d="M11.9727 7.25937C12.2548 7.33426 12.8777 7.6457 13.0872 7.80027C13.1395 7.83891 13.2004 7.85754 13.2609 7.85754C13.3508 7.85754 13.4394 7.81637 13.4968 7.73855C13.5929 7.60836 13.5653 7.42496 13.4351 7.32887C13.1696 7.13281 12.4856 6.7893 12.1231 6.69308C11.9665 6.65164 11.8063 6.74469 11.7647 6.90105C11.7233 7.05742 11.8164 7.21781 11.9727 7.25937Z" fill="white"/>
<path d="M11.3317 5.68377C11.4935 5.68377 11.6246 5.5526 11.6246 5.3908V4.98389C11.6246 4.82205 11.4935 4.69092 11.3317 4.69092C11.1698 4.69092 11.0387 4.82205 11.0387 4.98389V5.3908C11.0387 5.5526 11.1699 5.68377 11.3317 5.68377Z" fill="white"/>
<path d="M12.3204 6.40797C12.6097 6.36972 13.3043 6.42031 13.5568 6.48347C13.5806 6.48941 13.6046 6.4923 13.6281 6.4923C13.7594 6.4923 13.8788 6.40343 13.9121 6.27031C13.9514 6.11332 13.856 5.95425 13.699 5.915C13.3788 5.83496 12.6157 5.778 12.2436 5.82707C12.0833 5.84828 11.9704 5.99554 11.9916 6.15593C12.0128 6.31632 12.1601 6.42918 12.3204 6.40797Z" fill="white"/>
<path d="M16.4935 14.8928H17.9712C18.133 14.8928 18.2642 14.7617 18.2642 14.5999C18.2642 14.4381 18.133 14.3069 17.9712 14.3069H16.4935C16.3317 14.3069 16.2006 14.4381 16.2006 14.5999C16.2006 14.7617 16.3317 14.8928 16.4935 14.8928Z" fill="white"/>
<path d="M13.52 10.8962C13.3582 10.8962 13.2271 11.0274 13.2271 11.1892V13.7006C13.2271 13.8624 13.3582 13.9936 13.52 13.9936C13.6819 13.9936 13.813 13.8624 13.813 13.7006V11.1892C13.813 11.0274 13.6818 10.8962 13.52 10.8962Z" fill="white"/>
<path d="M18.4651 15.2599H15.9995C15.8377 15.2599 15.7065 15.391 15.7065 15.5529C15.7065 15.7147 15.8377 15.8458 15.9995 15.8458H18.4651C18.627 15.8458 18.7581 15.7147 18.7581 15.5529C18.7581 15.3911 18.627 15.2599 18.4651 15.2599Z" fill="white"/>
<path d="M13.52 14.6744C13.3582 14.6744 13.2271 14.8056 13.2271 14.9674V15.5528C13.2271 15.7147 13.3582 15.8458 13.52 15.8458C13.6819 15.8458 13.813 15.7147 13.813 15.5528V14.9674C13.813 14.8056 13.6818 14.6744 13.52 14.6744Z" fill="white"/>
<path d="M18.8727 8.53596H18.8531C17.9666 7.40096 16.1725 7.23139 14.8359 7.56737C14.7901 7.57889 14.7455 7.59104 14.7013 7.60358C14.8621 7.16963 14.9435 6.69756 14.9435 6.19205C14.9435 5.54865 14.8137 4.92252 14.5652 4.33404C15.262 3.2815 15.4524 1.99213 15.0849 0.768842C14.9648 0.368881 14.6191 0.0788411 14.2043 0.0299347C12.9866 -0.113542 11.7873 0.263959 10.8844 1.06826C10.0732 0.781381 9.19354 0.630444 8.28647 0.630444C7.37939 0.630444 6.49974 0.781381 5.68857 1.06826C4.78576 0.263959 3.58669 -0.11362 2.36864 0.0298957C1.9538 0.078763 1.6081 0.368803 1.48802 0.768842C1.12056 1.99209 1.31091 3.28142 2.00774 4.334C1.75923 4.92248 1.6295 5.54862 1.6295 6.19202C1.6295 7.22573 1.96474 8.11104 2.62599 8.82347C3.09431 9.32804 3.71767 9.73487 4.48337 10.0385C4.45123 10.1241 4.42224 10.2107 4.39677 10.2982C4.35876 10.3122 4.32123 10.3281 4.28447 10.3464C4.02044 10.4774 3.82326 10.7034 3.72923 10.9827C3.63517 11.262 3.65552 11.5612 3.78658 11.8252C4.01494 12.2854 4.31306 12.6397 4.64611 12.9064C4.65849 12.9307 4.67044 12.9552 4.68337 12.9791C4.52853 13.0071 4.37048 12.9863 4.19033 12.9177C2.66696 12.3374 1.61794 12.4196 0.576141 13.2337C0.572703 13.2364 0.569305 13.2391 0.565984 13.2419C0.463094 13.3227 0.360281 13.4105 0.257039 13.5057C-0.0669853 13.8046 -0.087415 14.3114 0.211414 14.6354C0.362273 14.799 0.576531 14.8928 0.799227 14.8928C0.961532 14.8928 1.11759 14.8432 1.24974 14.7528V16.2653C1.24974 16.7795 1.66813 17.1979 2.18239 17.1979H18.8727C19.4943 17.1979 20 16.6922 20 16.0706V9.66327C20 9.04171 19.4943 8.53596 18.8727 8.53596ZM0.943876 14.2504C0.904305 14.2869 0.852938 14.3069 0.799188 14.3069C0.738758 14.3069 0.682977 14.2825 0.642117 14.2382C0.603445 14.1963 0.583406 14.1418 0.58575 14.0848C0.588055 14.0278 0.612391 13.9751 0.654344 13.9364C0.698211 13.896 0.741805 13.8576 0.785282 13.8202C0.891298 13.9 0.990165 14.0139 1.0647 14.1424C1.02458 14.1772 0.984384 14.213 0.943876 14.2504ZM14.9788 8.13565C15.9853 7.88257 17.2318 7.96671 18.014 8.53596H14.758C14.7579 8.53596 14.7578 8.53596 14.7577 8.53596C14.7576 8.53596 14.7575 8.53596 14.7574 8.53596H14.0547C14.2508 8.38788 14.5623 8.24038 14.9788 8.13565ZM14.2527 3.71717C13.931 3.17674 13.5018 2.67834 12.9733 2.24084C12.949 2.22068 12.9242 2.20099 12.8995 2.18119C13.4826 1.72466 14.1145 1.49283 14.6253 1.37564C14.7221 1.94666 14.7368 2.81924 14.2527 3.71717ZM14.1357 0.61185C14.2712 0.627826 14.3899 0.702319 14.4638 0.811538C13.8547 0.954975 13.0972 1.24416 12.4099 1.82416C12.1221 1.63396 11.8182 1.46509 11.5008 1.31865C12.5384 0.530873 13.6658 0.556537 14.1357 0.61185ZM2.4372 0.61185C2.90693 0.556498 4.03458 0.530873 5.07201 1.31861C4.75462 1.46505 4.45072 1.63388 4.16302 1.82412C3.47568 1.24419 2.71825 0.955014 2.10911 0.811499C2.18302 0.70228 2.30165 0.627826 2.4372 0.61185ZM1.94763 1.3756C2.45849 1.49283 3.09044 1.7247 3.67341 2.18119C3.64872 2.20099 3.62392 2.22068 3.59958 2.24088C3.07118 2.67834 2.64193 3.17674 2.32025 3.71721C1.83614 2.81924 1.85083 1.94666 1.94763 1.3756ZM2.2154 6.19209C2.2154 3.44853 4.93884 1.21638 8.28643 1.21638C11.634 1.21638 14.3575 3.4485 14.3575 6.19209C14.3575 6.85182 14.198 7.44127 13.8841 7.94573C13.7342 8.03671 13.6074 8.13635 13.5064 8.243C13.2503 8.00057 12.8408 7.79573 12.2982 7.64405C10.6741 7.19018 8.44291 7.35803 7.39627 8.53608H7.3331C6.71154 8.53608 6.2058 9.04175 6.2058 9.66335V11.295C6.03509 11.2123 5.87541 11.0703 5.76338 10.8444C5.63232 10.5804 5.40634 10.3832 5.12701 10.2891C5.09377 10.278 5.06025 10.2685 5.02654 10.2605C5.03001 10.2512 5.03376 10.2419 5.03732 10.2326C5.07837 10.2452 5.11912 10.258 5.16087 10.2701C5.18806 10.278 5.21552 10.2818 5.24255 10.2818C5.36963 10.2818 5.48666 10.1985 5.52381 10.0703C5.56881 9.91483 5.47931 9.75237 5.32392 9.70733C3.90579 9.29628 2.2154 8.35292 2.2154 6.19209ZM2.18235 16.612C1.99118 16.612 1.83563 16.4565 1.83563 16.2653V14.4577C1.83563 14.3791 1.86075 14.3176 1.88884 14.2733C2.1754 14.1296 2.49845 14.0943 2.97767 14.2077V16.612H2.18235ZM4.29982 16.612H3.56365V14.3907C3.58275 14.3978 3.60146 14.4046 3.62099 14.4121C3.84947 14.4991 4.07677 14.5548 4.29982 14.5795V16.612ZM4.59279 14.0076C4.59017 14.0076 4.58763 14.0079 4.58501 14.008C4.57642 14.0082 4.56791 14.0085 4.55931 14.0085C4.32607 14.0085 4.08056 13.96 3.82958 13.8644C3.66814 13.8029 3.51704 13.7517 3.37408 13.7092C3.35993 13.7038 3.34536 13.6993 3.33029 13.6962C2.54907 13.4714 2.02782 13.5281 1.56231 13.785C1.55481 13.7887 1.54747 13.7928 1.54024 13.7971C1.46313 13.6742 1.37138 13.5617 1.26985 13.4653C2.03376 13.0068 2.82075 13.0231 3.98173 13.4653C4.34572 13.604 4.68705 13.6132 5.0183 13.4927C5.11033 13.6114 5.20986 13.7249 5.31588 13.8329C5.07888 13.945 4.84091 14.0025 4.59615 14.0078C4.59501 14.0078 4.59388 14.0076 4.59279 14.0076ZM4.88576 16.612V14.571C5.19459 14.5267 5.49349 14.4189 5.78943 14.2445C5.92189 14.3425 6.06084 14.433 6.20576 14.5149V16.0706C6.20576 16.2667 6.25619 16.4512 6.34459 16.612H4.88576ZM5.79439 13.4825C5.9324 13.5194 6.07009 13.5465 6.20576 13.565V13.8224C6.05904 13.7193 5.9215 13.6055 5.79439 13.4825ZM4.3113 11.5648C4.2499 11.441 4.24037 11.3007 4.28443 11.1697C4.32853 11.0387 4.42099 10.9327 4.54486 10.8712C4.6174 10.8352 4.69564 10.817 4.77435 10.817C4.82994 10.817 4.88576 10.8261 4.93994 10.8443C5.07095 10.8884 5.17693 10.9809 5.23837 11.1047C5.52197 11.6764 6.0017 11.9112 6.44138 11.9629C6.45927 11.9665 6.47775 11.9684 6.4967 11.9685C6.73678 11.9886 6.96166 11.9551 7.13181 11.8935C7.40025 11.7963 7.69756 11.9357 7.79471 12.2038C7.89182 12.4721 7.7526 12.7694 7.48432 12.8666C7.31279 12.9287 7.12955 12.9714 6.93967 12.9934C6.10271 13.0908 4.91205 12.7752 4.3113 11.5648ZM7.3331 16.612C7.03459 16.612 6.79178 16.3691 6.79178 16.0707V13.5924C6.86537 13.5892 6.93756 13.5837 7.00744 13.5756C7.24225 13.5482 7.46978 13.4951 7.68377 13.4176C8.25584 13.2105 8.55276 12.5766 8.34565 12.0044C8.13865 11.4326 7.50467 11.1357 6.93244 11.3426C6.89049 11.3578 6.84295 11.37 6.79166 11.3784V9.66335C6.79166 9.36487 7.03451 9.12206 7.33299 9.12206H11.9892V16.612H7.3331V16.612ZM12.2823 8.53596C12.2822 8.53596 12.2821 8.536 12.2819 8.536H8.29826C9.35573 7.86995 11.0716 7.90952 12.1404 8.20827C12.4896 8.30589 12.7509 8.42214 12.9304 8.53596H12.2827C12.2826 8.536 12.2825 8.53596 12.2823 8.53596ZM19.414 16.0706C19.414 16.3691 19.1712 16.6119 18.8727 16.6119H15.0507V15.4763C15.0507 15.3145 14.9196 15.1834 14.7577 15.1834C14.5959 15.1834 14.4648 15.3145 14.4648 15.4763V16.6119H12.5753V9.12194H13.5184C13.5195 9.12194 13.5205 9.12194 13.5216 9.12194H14.4647V14.1341C14.4647 14.296 14.5959 14.4271 14.7577 14.4271C14.9195 14.4271 15.0507 14.296 15.0507 14.1341V9.12194H18.7044C18.7046 9.12194 18.7048 9.12198 18.705 9.12198C18.7052 9.12198 18.7053 9.12194 18.7055 9.12194H18.8727C19.1712 9.12194 19.414 9.36479 19.414 9.66327V16.0706H19.414Z" fill="white"/>
<path d="M5.44035 6.408C5.6007 6.42925 5.74801 6.31636 5.76922 6.15597C5.79043 5.99558 5.67754 5.84831 5.51719 5.8271C5.14527 5.77796 4.38203 5.83499 4.06183 5.91503C3.90484 5.95429 3.80941 6.11335 3.84867 6.27034C3.88199 6.40347 4.0014 6.49234 4.13269 6.49234C4.15625 6.49234 4.18015 6.48948 4.20398 6.48351C4.45644 6.42038 5.15113 6.36968 5.44035 6.408Z" fill="white"/>
<path d="M6.42896 5.68377C6.59079 5.68377 6.72192 5.5526 6.72192 5.3908V4.98389C6.72192 4.82205 6.59079 4.69092 6.42896 4.69092C6.26712 4.69092 6.13599 4.82205 6.13599 4.98389V5.3908C6.13599 5.5526 6.26716 5.68377 6.42896 5.68377Z" fill="white"/>
<path d="M8.88035 5.99632C9.21273 5.99632 9.52879 5.85238 9.74746 5.6014C9.85379 5.47945 9.84102 5.29437 9.71902 5.18808C9.59707 5.08175 9.41195 5.09448 9.3057 5.21652C9.19832 5.33972 9.04324 5.41042 8.88031 5.41042C8.71734 5.41042 8.56226 5.33972 8.45488 5.21652C8.34859 5.09448 8.16351 5.08179 8.04156 5.18808C7.91957 5.29437 7.90683 5.47945 8.01312 5.6014C8.23187 5.85238 8.54793 5.99632 8.88035 5.99632Z" fill="white"/>
<path d="M10.3814 14.3074H8.39956C8.11718 14.3074 7.88745 14.5371 7.88745 14.8195V15.5061C7.88745 15.7885 8.11718 16.0182 8.39956 16.0182H10.3814C10.6637 16.0182 10.8935 15.7885 10.8935 15.5061V14.8195C10.8935 14.5371 10.6638 14.3074 10.3814 14.3074ZM10.3076 15.4323H8.47339V14.8933H10.3076V15.4323Z" fill="white"/>
<path d="M5.9958 6.90105C5.95428 6.74469 5.79393 6.65164 5.63745 6.69308C5.27502 6.78933 4.59111 7.13285 4.32545 7.32887C4.19525 7.42492 4.1676 7.60836 4.26369 7.73852C4.32115 7.81637 4.40979 7.85754 4.49963 7.85754C4.56006 7.85754 4.621 7.83891 4.67338 7.80027C4.88283 7.6457 5.5058 7.33422 5.7878 7.25937C5.9442 7.21785 6.03733 7.05746 5.9958 6.90105Z" fill="white"/>
</svg>
