<svg width="55" height="75" viewBox="0 0 55 75" fill="none" xmlns="http://www.w3.org/2000/svg">
<path d="M12.0596 38.89C11.6479 40.2266 12.2686 41.8067 13.4736 42.51C13.9794 42.8047 14.5614 42.9531 15.0516 43.2729C16.1164 43.9668 16.5365 45.295 16.8824 46.5177C17.2796 47.9232 17.6777 49.4093 17.314 50.8232C17.082 51.7251 16.5543 52.5224 16.2544 53.4044C16.0035 54.1432 15.9162 54.9276 15.9983 55.7035C16.0422 56.1152 16.1446 56.5395 16.4268 56.8467C16.8344 57.2857 17.4906 57.3515 18.08 57.457C19.3261 57.6927 20.4986 58.2203 21.5013 58.9967C22.504 59.7731 23.3085 60.7761 23.8486 61.9235" stroke="#3E3E70" stroke-width="2" stroke-miterlimit="10"/>
<path d="M27.7706 28.8995C26.7559 30.3208 25.7014 31.8392 25.6126 33.5792C25.4799 36.2534 27.6191 38.4407 28.5742 40.9425C28.9882 42.0445 29.1755 43.2187 29.1251 44.3949C29.0746 45.571 28.7874 46.7249 28.2806 47.7874C27.8145 48.7509 27.1498 49.7082 27.2355 50.7751C27.2846 51.4262 27.6107 52.0187 27.873 52.6175C28.5168 54.1182 28.7977 55.7496 28.6929 57.3792C28.5881 59.0088 28.1007 60.5907 27.27 61.9967" stroke="#3E3E70" stroke-width="2" stroke-miterlimit="10"/>
<path d="M42.0196 41.6364L42.5107 45.6399C42.5755 46.1718 42.6309 46.7518 42.3456 47.2074C42.0749 47.6369 41.5671 47.8417 41.172 48.1594C39.8752 49.2045 39.9933 51.2015 40.4405 52.8046C40.8878 54.4077 41.5315 56.1299 40.9097 57.6723C40.6527 58.3087 40.1991 58.8448 39.8647 59.4426C39.291 60.4641 39.0637 61.644 39.2168 62.8055" stroke="#3E3E70" stroke-width="2" stroke-miterlimit="10"/>
<path d="M13.8205 39.7888H11.0533L11.5382 38.1293H13.1977L13.8205 39.7888Z" fill="#B3BACC"/>
<path d="M23.8486 22.2908C23.8486 28.632 18.7081 37.9213 12.3679 37.9213C6.02771 37.9213 0.887207 28.631 0.887207 22.2908C0.887207 19.2458 2.09683 16.3255 4.24998 14.1723C6.40312 12.0192 9.32341 10.8096 12.3684 10.8096C15.4134 10.8096 18.3337 12.0192 20.4869 14.1723C22.64 16.3255 23.8496 19.2458 23.8496 22.2908H23.8486Z" fill="#B3BACC"/>
<path d="M13.1976 38.1982H11.5381L10.5694 37.6454H14.1664L13.1976 38.1982Z" fill="#3E3E70"/>
<path opacity="0.1" d="M8.21812 13.3684C8.21812 13.3684 3.3765 15.9967 2.68469 21.2532L8.21812 13.3684Z" fill="white"/>
<path d="M28.8344 29.6959H26.0672L26.5521 28.0364H28.2116L28.8344 29.6959Z" fill="#BDBDE7"/>
<path d="M38.8626 12.1979C38.8626 18.5391 33.7221 27.8284 27.3819 27.8284C21.0417 27.8284 15.9012 18.5381 15.9012 12.1979C15.9012 9.15288 17.1108 6.23259 19.264 4.07944C21.4171 1.9263 24.3374 0.716675 27.3824 0.716675C30.4274 0.716675 33.3477 1.9263 35.5008 4.07944C37.654 6.23259 38.8636 9.15288 38.8636 12.1979H38.8626Z" fill="white"/>
<path d="M28.2116 28.1054H26.5521L25.5834 27.5515H29.1804L28.2116 28.1054Z" fill="#3E3E70"/>
<path opacity="0.1" d="M23.232 3.27551C23.232 3.27551 18.3904 5.90376 17.6986 11.1603L23.232 3.27551Z" fill="white"/>
<path d="M43.722 42.5655H40.9547L41.4396 40.9049H43.0991L43.722 42.5655Z" fill="#BDBDE7"/>
<path d="M53.75 25.0664C53.75 31.4077 48.6095 40.6969 42.2693 40.6969C35.9291 40.6969 30.7876 31.4077 30.7876 25.0664C30.7876 22.0214 31.9972 19.1011 34.1504 16.948C36.3035 14.7948 39.2238 13.5852 42.2688 13.5852C45.3138 13.5852 48.2341 14.7948 50.3873 16.948C52.5404 19.1011 53.75 22.0214 53.75 25.0664Z" fill="#BDBDE7"/>
<path d="M43.0991 40.9738H41.4396L40.4708 40.421H44.0678L43.0991 40.9738Z" fill="#3E3E70"/>
<path opacity="0.1" d="M38.1196 16.1439C38.1196 16.1439 33.2779 18.7722 32.5861 24.0287L38.1196 16.1439Z" fill="white"/>
<path d="M27.8176 50.865L27.4884 50.934C27.3484 50.9632 24.0398 51.631 22.3814 49.9203C21.5934 49.1072 21.0751 48.1166 20.9183 47.1321C20.7553 46.0798 21.0229 45.155 21.6708 44.5269C22.3187 43.8988 23.2519 43.6606 24.298 43.856C25.2772 44.0389 26.2511 44.5875 27.0391 45.4016C28.6965 47.1123 27.9253 50.3989 27.8918 50.5379L27.8176 50.865ZM22.9551 44.9616C22.7536 45.0315 22.5697 45.1442 22.4159 45.2919C22.0229 45.6733 21.8662 46.269 21.9738 46.9702C22.093 47.7383 22.5089 48.5231 23.1453 49.1804C24.1349 50.2014 26.1278 50.0551 26.9273 49.9475C27.06 49.1522 27.269 47.1645 26.2793 46.1435C25.6429 45.4873 24.8717 45.0463 24.1067 44.9041C23.7245 44.8217 23.3273 44.8415 22.9551 44.9616Z" fill="white"/>
<path d="M27.3285 50.8797L27.2554 50.5516C27.224 50.4116 26.5092 47.1124 28.1959 45.431C28.9985 44.6315 29.9808 44.0996 30.9632 43.9334C32.0082 43.7558 32.9414 44.0097 33.5757 44.6493C34.2101 45.2888 34.464 46.2168 34.2832 47.2618C34.1139 48.2431 33.5789 49.2244 32.7763 50.0239C31.0896 51.7053 27.7925 50.9801 27.6556 50.9487L27.3285 50.8797ZM32.2924 45.0558C31.9228 44.9291 31.5263 44.9021 31.1429 44.9774C30.3758 45.107 29.5973 45.5344 28.9483 46.1792C27.9409 47.1835 28.1123 49.1732 28.2346 49.9716C29.0319 50.0928 31.0227 50.2736 32.0291 49.2704C32.677 48.6246 33.1055 47.8471 33.2382 47.0758C33.3584 46.3767 33.2121 45.7779 32.8254 45.3902C32.6738 45.2418 32.492 45.1277 32.2924 45.0558Z" fill="white"/>
<path d="M41.4344 51.9414H13.4119V74.6844H41.4344V51.9414Z" fill="#3E3E70"/>
<path d="M30.0623 56.0024H24.7828V74.6834H30.0623V56.0024Z" fill="white"/>
<path opacity="0.1" d="M41.4344 50.7229H13.4119V56.4089H41.4344V50.7229Z" fill="#B3BACC"/>
<path d="M43.0594 50.3164H11.7879V56.0024H43.0594V50.3164Z" fill="#3E3E70"/>
<path d="M30.0623 50.3164H24.7828V56.0024H30.0623V50.3164Z" fill="white"/>
</svg>
