<svg width="512" height="384" viewBox="0 0 512 384" fill="none" xmlns="http://www.w3.org/2000/svg">
<path d="M316.332 131.662C312.172 127.502 305.409 127.502 301.249 131.662C297.089 135.822 297.089 142.606 301.249 146.745C313.324 158.82 320.001 174.884 320.001 191.993C320.001 227.278 291.286 255.993 256.001 255.993C238.892 255.993 222.828 249.337 210.753 237.241C206.593 233.081 199.83 233.081 195.67 237.241C191.51 241.38 191.51 248.164 195.67 252.324C211.755 268.452 233.195 277.327 256.001 277.327C303.062 277.327 341.334 239.055 341.334 191.994C341.334 169.187 332.46 147.747 316.332 131.662Z" fill="#B3BACC"/>
<path d="M270.87 108.131C266.027 107.278 261.078 106.659 256.001 106.659C208.94 106.659 170.668 144.931 170.668 191.992C170.668 197.069 171.287 202.019 172.161 206.861C173.078 212.024 177.58 215.672 182.636 215.672C183.255 215.672 183.873 215.629 184.513 215.501C190.294 214.477 194.177 208.93 193.153 203.149C192.492 199.522 192.001 195.832 192.001 191.992C192.001 156.707 220.716 127.992 256.001 127.992C259.841 127.992 263.532 128.483 267.158 129.123C272.833 130.275 278.486 126.264 279.51 120.483C280.534 114.702 276.652 109.155 270.87 108.131Z" fill="#B3BACC"/>
<path d="M509.462 185.102C507.051 182.243 449.345 114.894 369.75 73.6572C364.587 70.9482 358.081 72.9962 355.371 78.2442C352.662 83.4712 354.71 89.9132 359.958 92.6232C421.27 124.367 470.251 173.903 486.998 191.994C461.569 219.535 361.494 319.994 256.001 319.994C220.204 319.994 184.129 311.354 148.737 294.287C143.489 291.706 137.068 293.946 134.508 299.258C131.927 304.549 134.167 310.927 139.479 313.487C177.772 331.983 216.983 341.327 256.002 341.327C387.437 341.327 504.557 204.708 509.485 198.884C512.854 194.915 512.833 189.091 509.462 185.102Z" fill="#B3BACC"/>
<path d="M325.996 54.9472C301.719 46.7762 278.167 42.6592 256.001 42.6592C124.566 42.6592 7.44602 179.278 2.51802 185.102C-0.596977 188.771 -0.852977 194.105 1.92102 198.094C3.39302 200.206 38.657 250.275 99.777 290.873C101.59 292.089 103.617 292.665 105.665 292.665C109.1 292.665 112.492 291.001 114.54 287.865C117.804 282.98 116.46 276.345 111.553 273.102C66.668 243.257 35.948 207.225 24.449 192.569C49.004 165.902 149.74 63.9932 256.001 63.9932C275.862 63.9932 297.132 67.7482 319.19 75.1502C324.779 77.1552 330.838 74.0622 332.694 68.4512C334.572 62.8622 331.585 56.8252 325.996 54.9472Z" fill="#B3BACC"/>
<path d="M444.865 3.12806C440.705 -1.03194 433.942 -1.03194 429.782 3.12806L67.116 365.795C62.956 369.955 62.956 376.718 67.116 380.878C69.207 382.947 71.937 383.993 74.668 383.993C77.399 383.993 80.129 382.948 82.199 380.878L444.865 18.2111C449.025 14.0511 449.025 7.28806 444.865 3.12806Z" fill="#B3BACC"/>
</svg>
