<svg width="20" height="16" viewBox="0 0 20 16" fill="none" xmlns="http://www.w3.org/2000/svg">
<path d="M13.4657 15.1593C12.5241 15.1593 11.6386 14.7926 10.9723 14.1267L10 13.1542L9.02788 14.1266C7.65323 15.5014 5.41603 15.5014 4.04092 14.1267C3.37494 13.4608 3.00818 12.5752 3.00818 11.6332C3.00818 10.9124 3.2238 10.2197 3.63166 9.62983C3.72369 9.49674 3.90611 9.46342 4.03927 9.55549C4.17236 9.64752 4.20564 9.83002 4.11361 9.96311C3.77377 10.4546 3.59412 11.0321 3.59412 11.6332C3.59412 12.4187 3.8999 13.1571 4.45521 13.7124C5.60186 14.8587 7.46725 14.8586 8.6135 13.7124L9.7928 12.5327C9.84772 12.4778 9.92225 12.4469 9.99999 12.4469C10.0777 12.4469 10.1522 12.4778 10.2072 12.5327L11.3865 13.7124C11.9421 14.2676 12.6805 14.5734 13.4656 14.5734C14.2508 14.5734 14.9892 14.2676 15.5449 13.7123C16.6911 12.5657 16.6911 10.7003 15.5448 9.55401L12.1538 6.16299C11.5785 5.58767 10.8136 5.27088 10 5.27088C9.18651 5.27088 8.42174 5.58767 7.84663 6.16295L4.86967 9.13995C4.75525 9.25432 4.56978 9.2544 4.45533 9.13995C4.34092 9.02553 4.34092 8.84006 4.45533 8.72565L7.43229 5.74869C8.11807 5.06271 9.02995 4.68494 10 4.68494C10.9701 4.68494 11.8821 5.06271 12.5681 5.74869L15.9591 9.13971C17.3338 10.5144 17.3338 12.7516 15.9591 14.1267C15.2928 14.7926 14.4073 15.1593 13.4657 15.1593Z" fill="white"/>
<path d="M2.3861 8.45083C1.07039 8.45083 0 7.38044 0 6.06477C0 4.7491 1.07039 3.67871 2.3861 3.67871C3.7018 3.67871 4.77216 4.7491 4.77216 6.06477C4.77216 7.38044 3.7018 8.45083 2.3861 8.45083ZM2.3861 4.26461C1.39348 4.26461 0.585939 5.07215 0.585939 6.06477C0.585939 7.05739 1.39348 7.86489 2.3861 7.86489C3.37868 7.86489 4.18622 7.05735 4.18622 6.06477C4.18622 5.07219 3.37868 4.26461 2.3861 4.26461Z" fill="white"/>
<path d="M6.86006 4.77212C5.54435 4.77212 4.474 3.70173 4.474 2.38606C4.474 1.07039 5.54435 0 6.86006 0C8.17576 0 9.24616 1.07039 9.24616 2.38606C9.24616 3.70173 8.17576 4.77212 6.86006 4.77212ZM6.86006 0.585899C5.86748 0.585899 5.05994 1.39344 5.05994 2.38602C5.05994 3.3786 5.86748 4.18614 6.86006 4.18614C7.85268 4.18614 8.66022 3.3786 8.66022 2.38602C8.66022 1.39344 7.85268 0.585899 6.86006 0.585899Z" fill="white"/>
<path d="M17.6141 8.45072C16.2983 8.45072 15.2278 7.3804 15.2278 6.06477C15.2278 4.74915 16.2983 3.67883 17.6141 3.67883C17.9902 3.67883 18.3648 3.76852 18.6973 3.93817C18.8414 4.01172 18.8986 4.18817 18.8251 4.33227C18.7515 4.47641 18.5751 4.5336 18.4309 4.46008C18.1769 4.33047 17.9021 4.26477 17.6141 4.26477C16.6213 4.26477 15.8137 5.07223 15.8137 6.06477C15.8137 7.05728 16.6213 7.86478 17.6141 7.86478C18.6066 7.86478 19.4141 7.05732 19.4141 6.06477C19.4141 5.73157 19.3224 5.40626 19.1489 5.12407C19.0641 4.98622 19.1072 4.80579 19.245 4.72106C19.3828 4.63637 19.5633 4.67934 19.648 4.81719C19.8783 5.19177 20 5.62317 20 6.06477C20.0001 7.38036 18.9297 8.45072 17.6141 8.45072Z" fill="white"/>
<path d="M13.1399 4.77212C11.8242 4.77212 10.7538 3.70173 10.7538 2.38606C10.7538 1.07039 11.8242 0 13.1399 0C14.4556 0 15.5259 1.07039 15.5259 2.38606C15.5259 3.70173 14.4555 4.77212 13.1399 4.77212ZM13.1399 0.585899C12.1473 0.585899 11.3397 1.39344 11.3397 2.38602C11.3397 3.3786 12.1473 4.18614 13.1399 4.18614C14.1325 4.18614 14.94 3.3786 14.94 2.38602C14.94 1.39344 14.1325 0.585899 13.1399 0.585899Z" fill="white"/>
</svg>
