<svg width="19" height="20" viewBox="0 0 19 20" fill="none" xmlns="http://www.w3.org/2000/svg" class="test">
<path d="M9.09636 6.50344C8.99007 6.38145 9.00277 6.19641 9.12476 6.09008C9.24675 5.98371 9.43175 5.99648 9.53812 6.11844C9.67398 6.27434 9.87011 6.36375 10.0762 6.36375C10.2824 6.36375 10.4785 6.27434 10.6143 6.11848C10.7206 5.99648 10.9057 5.98379 11.0277 6.09008C11.1496 6.19637 11.1624 6.38141 11.0561 6.5034C10.809 6.78703 10.4518 6.94969 10.0763 6.94969C9.7007 6.94965 9.34355 6.78703 9.09636 6.50344Z" fill="none"/>
<path d="M0.0231018 15.0738C0.0764217 14.8427 0.216579 14.6462 0.417711 14.5205C0.624392 14.3914 0.841698 14.2872 1.06545 14.2057C1.06885 14.2043 1.07228 14.2032 1.07572 14.2019C2.29682 13.7616 3.71264 14.0215 4.70959 14.892C4.17971 14.1188 4.06221 13.1153 4.4369 12.2021C4.54174 11.9465 4.72256 11.7445 4.94256 11.6112C4.66092 11.4906 4.39592 11.3572 4.1492 11.2111C2.62319 10.307 1.81658 8.92705 1.81658 7.22064C1.81658 6.46287 1.97107 5.72548 2.26732 5.03325C1.44506 3.80567 1.21857 2.29719 1.6483 0.866526C1.78354 0.416251 2.17264 0.0897662 2.63951 0.0347661C4.0653 -0.133281 5.46893 0.313048 6.52085 1.26164C7.47593 0.920041 8.51324 0.740275 9.58328 0.740275C10.6533 0.740275 11.6906 0.920041 12.6457 1.26164C13.6975 0.313087 15.1009 -0.133242 16.527 0.0347661C16.9939 0.0897662 17.383 0.41629 17.5183 0.866526C17.9481 2.29719 17.7216 3.80567 16.8992 5.03325C17.1955 5.72552 17.35 6.46286 17.35 7.22068C17.35 8.62181 16.8253 9.77959 15.7906 10.662C15.2931 11.0862 14.6886 11.4359 13.9845 11.7101C13.9918 11.7287 13.9989 11.7474 14.0059 11.7662C15.0532 11.8153 15.6979 11.4492 15.8993 11.2369C16.3718 10.739 17.1612 10.7184 17.6591 11.1908C18.1569 11.6633 18.1775 12.4527 17.7051 12.9506C16.6848 14.0257 15.2438 14.2514 14.2145 14.2514C14.1867 14.2514 14.1588 14.2512 14.1307 14.2509C13.9679 14.8685 13.6643 15.4348 13.2535 15.9184C13.5931 16.5053 14.0754 17.6976 13.5549 19.1699C13.3794 19.6664 12.9078 20 12.3813 20C12.2401 20 12.1005 19.976 11.9664 19.9286C11.3193 19.6998 10.979 18.9872 11.2078 18.3401C11.3595 17.9108 11.2846 17.5563 11.1793 17.3166C10.681 17.4858 10.1436 17.5782 9.58335 17.5782C9.42906 17.5782 9.27558 17.5706 9.12331 17.5564C8.96812 18.2678 8.56765 18.9475 7.90487 19.6255C7.6687 19.867 7.35257 20 7.01483 20C6.68764 20 6.37862 19.874 6.14471 19.6453C5.65397 19.1654 5.64507 18.3758 6.12487 17.885C6.61433 17.3844 6.72034 17.0593 6.71046 16.8349C6.3855 17.047 6.04022 17.1744 5.68003 17.2144C5.6035 17.2228 5.52585 17.2272 5.44921 17.2272C4.80921 17.2272 4.18678 16.9266 3.69651 16.3809C3.17799 15.8036 2.41174 15.6694 1.79963 15.8366C1.78443 15.8424 1.7685 15.8467 1.75205 15.85C1.61017 15.8929 1.47732 15.9523 1.35888 16.0263C0.943806 16.2857 0.395016 16.1591 0.135525 15.7439C0.00962448 15.5429 -0.0302582 15.3049 0.0231018 15.0738ZM14.2661 13.206C14.2661 13.3612 14.2573 13.5144 14.2403 13.6653C15.1527 13.6617 16.4111 13.4629 17.28 12.5472C17.5301 12.2837 17.5192 11.8659 17.2558 11.6158C16.9922 11.3658 16.5743 11.3767 16.3243 11.6402C16.1266 11.8485 15.7949 12.0411 15.4143 12.1686C15.0343 12.2959 14.6198 12.3586 14.1778 12.3567C14.2363 12.6342 14.2661 12.9179 14.2661 13.206ZM2.57518 4.4177C2.95455 3.75809 3.47061 3.15059 4.1117 2.61985C4.15659 2.5827 4.2019 2.5461 4.24768 2.50997C3.52209 1.92559 2.72705 1.64086 2.09803 1.5027C1.97217 2.19586 1.93912 3.29454 2.57518 4.4177ZM2.70807 0.616681C2.50904 0.640158 2.33846 0.761838 2.24951 0.936174C2.97826 1.09946 3.90397 1.44168 4.73698 2.15493C5.10499 1.90899 5.49604 1.69313 5.90577 1.50903C5.00874 0.803322 3.86713 0.480158 2.70807 0.616681ZM16.4584 0.616681C15.2997 0.480079 14.1578 0.803322 13.2607 1.50903C13.6705 1.69313 14.0614 1.90899 14.4295 2.15493C15.2624 1.44164 16.1882 1.09942 16.917 0.936135C16.828 0.761799 16.6575 0.640119 16.4584 0.616681ZM17.0685 1.5027C16.4395 1.64086 15.6444 1.92567 14.9188 2.50997C14.9646 2.5461 15.01 2.5827 15.0548 2.61985C15.6959 3.15059 16.212 3.75805 16.5913 4.4177C17.2274 3.29454 17.1944 2.19586 17.0685 1.5027ZM11.7601 18.5354C11.639 18.8779 11.8191 19.2551 12.1617 19.3762C12.2328 19.4013 12.3067 19.4141 12.3812 19.4141C12.6598 19.4141 12.9095 19.2375 13.0023 18.9746C13.4055 17.8342 13.1012 16.8921 12.8259 16.3573C12.4995 16.6502 12.1279 16.8995 11.722 17.095C11.8696 17.4366 11.9721 17.9357 11.7601 18.5354ZM6.54366 18.2947C6.28968 18.5545 6.2944 18.9724 6.55417 19.2263C6.678 19.3474 6.84155 19.4141 7.01472 19.4141C7.19351 19.4141 7.36085 19.3436 7.48585 19.2158C8.0573 18.6313 8.4048 18.0567 8.54253 17.4673C8.10222 17.3727 7.67933 17.2193 7.28722 17.0134C7.2428 17.4177 7.00093 17.827 6.54366 18.2947ZM6.99925 15.5253C7.43421 15.5253 7.86882 15.3949 8.26077 15.1481C8.26226 15.1471 8.26374 15.1462 8.26523 15.1453C8.28359 15.1337 8.30198 15.1221 8.32015 15.11C8.62226 14.9083 8.70402 14.4983 8.50234 14.1962C8.40464 14.0499 8.25581 13.9503 8.08327 13.9159C7.91054 13.8814 7.73503 13.9163 7.58862 14.0141C7.20069 14.2729 6.77819 14.2713 6.45827 14.0096C6.21464 13.8102 6.00026 13.4065 6.19796 12.9246C6.21593 12.8808 6.22917 12.8355 6.23733 12.7898C6.26577 12.6305 6.41772 12.5244 6.57718 12.5528C6.73647 12.5812 6.84257 12.7333 6.81417 12.8926C6.79874 12.9793 6.77378 13.0649 6.74003 13.1471C6.6469 13.3742 6.77143 13.5088 6.82929 13.5562C6.94722 13.6526 7.08921 13.643 7.26335 13.5268C7.32917 13.4829 7.39819 13.4459 7.46948 13.4156C7.54136 13.2735 7.63558 13.1455 7.7512 13.0342C8.25284 12.5514 9.02589 12.5024 9.58328 12.8824C10.1406 12.5024 10.9137 12.5515 11.4153 13.0343C11.6946 13.3031 11.8505 13.6681 11.8543 14.062C11.858 14.4603 11.6995 14.8495 11.4193 15.1297L10.3131 16.2359C10.1182 16.4308 9.85898 16.5382 9.58324 16.5382C9.30749 16.5382 9.04831 16.4308 8.85331 16.2359L8.37593 15.7584C7.94273 15.9899 7.47233 16.1113 6.99913 16.1113C6.98526 16.1113 6.97147 16.1106 6.95761 16.1104C7.68788 16.6725 8.61784 16.9924 9.58316 16.9924C11.8423 16.9924 13.6801 15.2939 13.6801 13.2061C13.6801 12.8418 13.6251 12.4857 13.5163 12.1424C13.5143 12.1369 13.5125 12.1312 13.5109 12.1255C13.4868 12.0509 13.46 11.9771 13.4309 11.9037C12.9715 12.0471 12.4762 12.1626 11.9446 12.2486C11.785 12.2743 11.6345 12.1658 11.6087 12.0061C11.5828 11.8464 11.6914 11.696 11.8511 11.6701C12.443 11.5744 12.9855 11.4411 13.4779 11.2721C13.4899 11.267 13.502 11.2627 13.5142 11.2593C14.2687 10.9963 14.9037 10.648 15.4102 10.2161C16.3084 9.45021 16.7639 8.44236 16.7639 7.22068C16.7639 3.97048 13.5426 1.32625 9.58308 1.32625C5.62358 1.32625 2.40229 3.97048 2.40229 7.22068C2.40229 8.72994 3.09045 9.90287 4.44768 10.7071C5.70046 11.4493 7.47624 11.8416 9.58312 11.8416C9.90437 11.8416 10.2231 11.8323 10.5303 11.8138C10.692 11.8038 10.8306 11.9271 10.8403 12.0886C10.85 12.2501 10.727 12.3889 10.5655 12.3987C10.2465 12.4178 9.91597 12.4276 9.58308 12.4276C8.35323 12.4276 7.22647 12.2973 6.23729 12.0451C6.14862 12.1302 6.01206 12.1535 5.89741 12.0928C5.87827 12.0826 5.85843 12.0733 5.83839 12.0651C5.50221 11.9273 5.11663 12.0885 4.97878 12.4246C4.59713 13.3546 4.85627 14.4014 5.62366 15.0293C5.75827 15.1395 5.90221 15.2316 6.05303 15.3057C6.05772 15.3079 6.06237 15.3101 6.06694 15.3125C6.096 15.3266 6.1253 15.3399 6.15487 15.3526C6.16167 15.3553 6.16831 15.3582 6.17491 15.3614C6.43448 15.4693 6.71233 15.5253 6.99925 15.5253ZM8.86089 15.4146L9.26773 15.8215C9.35199 15.9058 9.46406 15.9522 9.58328 15.9522C9.70246 15.9522 9.81453 15.9058 9.89878 15.8215L11.0049 14.7153C11.1746 14.5456 11.2707 14.3095 11.2683 14.0675C11.2661 13.8322 11.174 13.6151 11.009 13.4563C10.6699 13.1299 10.1233 13.1353 9.79043 13.4683C9.73546 13.5232 9.66097 13.5541 9.58324 13.5541C9.50554 13.5541 9.43105 13.5232 9.37609 13.4683C9.08019 13.1724 8.61585 13.1359 8.27812 13.3604C8.56991 13.4386 8.8205 13.6175 8.98964 13.871C9.3171 14.3616 9.24878 15.0022 8.86089 15.4146ZM1.92018 15.217C2.6701 15.1045 3.52971 15.3185 4.13221 15.9893C4.51541 16.4158 4.97073 16.6412 5.44905 16.6412C5.50417 16.6412 5.5601 16.6381 5.6153 16.632C5.86866 16.6039 6.11514 16.5153 6.35139 16.3685C6.19491 16.2296 6.04807 16.0801 5.91249 15.9207C5.79104 15.9809 5.66924 16.0185 5.54866 16.0319C5.31358 16.058 4.95506 16.0016 4.58135 15.5857C3.84291 14.7637 2.71533 14.4241 1.68154 14.6373C1.78806 14.8192 1.86685 15.022 1.92018 15.217ZM0.632204 15.4334C0.720407 15.5746 0.907047 15.6177 1.04818 15.5294C1.144 15.4696 1.24717 15.4173 1.35549 15.3723C1.30103 15.172 1.21498 14.9678 1.10232 14.8208C0.974119 14.8767 0.848923 14.9419 0.728182 15.0174C0.659782 15.0601 0.612127 15.1269 0.594002 15.2055C0.575916 15.2841 0.58947 15.365 0.632204 15.4334Z" fill="none"/>
<path d="M4.75737 8.60691C5.06585 8.37921 5.86007 7.98027 6.28093 7.86851C6.43749 7.82703 6.59776 7.92015 6.63929 8.07652C6.68081 8.23289 6.58768 8.39331 6.43132 8.43484C6.08886 8.52574 5.3601 8.89031 5.10538 9.07836C5.05299 9.11699 4.99206 9.13562 4.93163 9.13562C4.84178 9.13562 4.75315 9.09445 4.69569 9.01664C4.59956 8.8864 4.62721 8.70296 4.75737 8.60691Z" fill="none"/>
<path d="M7.79144 6.85737C7.63273 7.01604 7.4218 7.10342 7.19734 7.10342C6.97293 7.10342 6.76195 7.01604 6.60328 6.85737L5.78449 6.03861C5.56269 5.81682 5.43722 5.50885 5.44023 5.19377C5.4432 4.88154 5.56687 4.59213 5.78843 4.37892C6.17324 4.00865 6.75949 3.96017 7.1973 4.23064C7.63512 3.96033 8.22148 4.00865 8.60621 4.37892C8.82777 4.59217 8.95145 4.88158 8.95441 5.19377C8.95742 5.50889 8.83195 5.81686 8.61016 6.03861L7.79144 6.85737ZM8.19996 4.80099C8.09078 4.69592 7.94859 4.64353 7.80644 4.64353C7.66051 4.64353 7.51457 4.69873 7.40449 4.80885C7.29012 4.92326 7.10461 4.92322 6.99019 4.80885C6.77289 4.5915 6.41601 4.5881 6.1948 4.80103C6.08753 4.90428 6.02765 5.04576 6.02617 5.19935C6.02464 5.35818 6.08757 5.51307 6.19886 5.62432L7.01765 6.44311C7.06562 6.49111 7.12945 6.51756 7.19738 6.51756C7.26531 6.51756 7.32914 6.49111 7.37715 6.44311L8.19594 5.62432C8.30723 5.51307 8.37016 5.35814 8.36863 5.19935C8.36711 5.04568 8.30723 4.90424 8.19996 4.80099Z" fill="none"/>
<path d="M14.1094 7.43362C13.9496 7.45483 13.8018 7.34198 13.7805 7.18155C13.7594 7.02116 13.8722 6.87389 14.0326 6.85272C14.4644 6.79569 15.3506 6.86198 15.7226 6.95495C15.8796 6.99416 15.975 7.15327 15.9358 7.31022C15.9024 7.44335 15.783 7.53221 15.6517 7.53221C15.6282 7.53221 15.6043 7.52936 15.5805 7.52338C15.2733 7.44659 14.4605 7.38721 14.1094 7.43362Z" fill="none"/>
<path d="M12.955 4.23054C13.3927 3.9603 13.9791 4.00847 14.3639 4.37882C14.5855 4.59206 14.7091 4.88147 14.7121 5.19362C14.7151 5.50878 14.5896 5.81675 14.3678 6.03851L13.5491 6.8573C13.3853 7.02105 13.1701 7.10292 12.955 7.10292C12.7398 7.10292 12.5247 7.02105 12.3609 6.85726L11.5421 6.03851C11.3203 5.81671 11.1948 5.50874 11.1978 5.19362C11.2008 4.8814 11.3245 4.59202 11.546 4.37886C11.9309 4.00843 12.5172 3.96011 12.955 4.23054ZM11.9565 5.62425L12.7752 6.443C12.8744 6.54214 13.0356 6.54214 13.1347 6.44304L13.9535 5.62425C14.0648 5.51296 14.1277 5.35808 14.1262 5.19925C14.1247 5.04566 14.0648 4.90421 13.9576 4.80097C13.8484 4.69589 13.7062 4.64351 13.5641 4.64351C13.4181 4.64351 13.2722 4.6987 13.1621 4.80878C13.0477 4.92319 12.8622 4.92319 12.7478 4.80878C12.5304 4.59144 12.1736 4.58804 11.9525 4.80097C11.8451 4.90421 11.7853 5.04566 11.7838 5.19925C11.7823 5.35808 11.8452 5.51296 11.9565 5.62425Z" fill="none"/>
<path d="M13.8713 7.8685C14.2921 7.98022 15.0864 8.3792 15.3949 8.6069C15.5251 8.70299 15.5527 8.88639 15.4566 9.01658C15.3992 9.0944 15.3105 9.13557 15.2207 9.13557C15.1603 9.13557 15.0993 9.11694 15.047 9.0783C14.7922 8.89026 14.0634 8.52572 13.721 8.43479C13.5646 8.39326 13.4715 8.23283 13.513 8.07647C13.5545 7.92014 13.7147 7.82705 13.8713 7.8685Z" fill="none"/>
<path d="M6.11977 6.85274C6.28016 6.87391 6.39301 7.02118 6.37184 7.18157C6.35063 7.342 6.20328 7.45462 6.04301 7.43364C5.69164 7.3872 4.87898 7.44661 4.57183 7.52337C4.548 7.52935 4.5241 7.5322 4.50058 7.5322C4.36933 7.53216 4.24988 7.44333 4.21656 7.3102C4.17734 7.15325 4.27281 6.99419 4.42976 6.95493C4.80168 6.86196 5.68793 6.79567 6.11977 6.85274Z" fill="none"/>
</svg>
