<svg width="512" height="439" viewBox="0 0 512 439" fill="none" xmlns="http://www.w3.org/2000/svg">
<path d="M502.38 264.44H476.09C475.94 254.39 475.14 244.45 473.67 234.68L503.49 229.42C508.72 228.5 512.22 223.51 511.3 218.27C510.38 213.04 505.39 209.54 500.15 210.46L469.98 215.78C466.05 199.47 460.28 183.72 452.76 168.8C466.64 134.96 474.01 101.34 473.54 73.66C472.99 41.71 462.53 18.96 443.3 7.86001C411.63 -10.42 364.36 8.31001 319 56.75C298.81 50.75 277.65 47.64 256 47.64C234.35 47.64 213.18 50.75 193 56.75C147.65 8.31001 100.38 -10.42 68.72 7.86001C49.49 18.96 39.03 41.72 38.48 73.66C38 101.34 45.37 134.96 59.26 168.8C51.73 183.73 45.97 199.47 42.04 215.78L11.87 210.46C6.64 209.54 1.64 213.03 0.72 218.27C-0.2 223.5 3.29 228.5 8.53 229.42L38.35 234.68C36.88 244.46 36.08 254.4 35.93 264.44H9.62C4.3 264.44 0 268.75 0 274.06C0 279.38 4.31 283.68 9.62 283.68H36.47C38.24 306.93 43.94 327.99 53.49 346.47C64.38 367.53 80.33 385.37 100.9 399.52C101.01 399.6 101.12 399.68 101.23 399.75L101.74 400.11C139.18 425.54 192.52 438.98 255.99 438.98C319.46 438.98 372.8 425.54 410.24 400.11C410.41 399.99 410.58 399.87 410.75 399.75C410.86 399.68 410.97 399.6 411.08 399.52C431.65 385.36 447.61 367.52 458.49 346.47C468.04 328 473.74 306.93 475.51 283.68H502.36C507.68 283.68 511.98 279.37 511.98 274.06C512 268.75 507.69 264.44 502.38 264.44V264.44ZM433.66 24.53C458.85 39.07 461.06 89.2 440.36 147.39C436.64 141.72 432.65 136.21 428.4 130.87C433.19 115.41 436.19 100.77 437.3 87.31C439.32 62.81 434.75 44.23 425.39 38.83C423.25 37.6 419.68 35.54 399.97 42.75C390.58 46.19 376.91 52.35 365.1 62.22C361.82 64.96 358.5 67.94 355.17 71.1C349.89 68.43 344.5 65.98 339.02 63.76C375.02 27.77 412.07 12.06 433.66 24.53V24.53ZM418.11 85.73C417.39 94.48 415.75 103.87 413.24 113.74C412.71 113.2 412.19 112.65 411.65 112.11C399.73 100.19 386.68 89.82 372.75 81.07C374.32 79.67 375.88 78.3 377.42 77.01C390.85 65.79 407.84 59.99 416.16 57.79C417.68 62.22 419.31 71.17 418.11 85.73V85.73ZM78.34 24.53C99.93 12.07 136.98 27.77 172.99 63.78C167.51 66.01 162.12 68.45 156.84 71.12C153.52 67.96 150.19 64.97 146.92 62.24C135.1 52.36 121.43 46.2 112.04 42.76C92.33 35.55 88.75 37.61 86.61 38.84C77.25 44.23 72.69 62.81 74.7 87.31C75.81 100.78 78.81 115.41 83.6 130.87C79.34 136.21 75.35 141.72 71.64 147.39C50.94 89.2 53.15 39.07 78.34 24.53V24.53ZM100.35 112.11C99.81 112.65 99.29 113.2 98.76 113.74C96.25 103.87 94.61 94.49 93.89 85.73C92.69 71.16 94.32 62.22 95.83 57.79C104.15 59.98 121.15 65.79 134.57 77.01C136.11 78.3 137.67 79.67 139.24 81.07C125.32 89.82 112.27 100.19 100.35 112.11V112.11ZM116.13 386.54V321.63C116.13 279.28 150.59 244.83 192.94 244.83H225.49C228.62 254.74 236.46 262.58 246.37 265.71V288.83H173.87C168.55 288.83 164.25 293.14 164.25 298.45C164.25 303.77 168.56 308.07 173.87 308.07H338.12C343.44 308.07 347.74 303.76 347.74 298.45C347.74 293.13 343.43 288.83 338.12 288.83H265.62V265.71C275.53 262.58 283.37 254.74 286.5 244.83H319.05C361.4 244.83 395.86 279.28 395.86 321.63V386.54C361.78 408.27 313.55 419.74 255.99 419.74C198.43 419.74 150.21 408.27 116.13 386.54V386.54ZM256 247.94C248.98 247.94 243.26 242.23 243.26 235.2C243.26 228.17 248.97 222.46 256 222.46C263.03 222.46 268.74 228.17 268.74 235.2C268.74 242.23 263.02 247.94 256 247.94ZM415.11 371.82V321.63C415.11 268.67 372.02 225.58 319.05 225.58H286.5C282.41 212.63 270.28 203.22 256 203.22C241.72 203.22 229.59 212.63 225.5 225.58H192.95C139.98 225.58 96.89 268.67 96.89 321.63V371.82C72.62 349.6 58.85 320.07 55.8 283.69H83.58C88.9 283.69 93.2 279.38 93.2 274.07C93.2 268.75 88.89 264.45 83.58 264.45H55.18C55.33 255.49 56.05 246.67 57.34 238.03L81.34 242.26C81.91 242.36 82.47 242.41 83.02 242.41C87.6 242.41 91.66 239.12 92.49 234.46C93.41 229.23 89.92 224.23 84.68 223.31L61.09 219.15C82.88 131.79 162 66.88 256 66.88C350 66.88 429.12 131.79 450.91 219.14L427.32 223.3C422.09 224.22 418.59 229.21 419.51 234.45C420.33 239.12 424.39 242.4 428.98 242.4C429.53 242.4 430.1 242.35 430.66 242.25L454.66 238.02C455.95 246.66 456.68 255.48 456.82 264.44H428.42C423.1 264.44 418.8 268.75 418.8 274.06C418.8 279.38 423.11 283.68 428.42 283.68H456.2C453.15 320.07 439.38 349.6 415.11 371.82Z" fill="#FF9843"/>
<path d="M204.45 155.13C199.13 155.13 194.83 159.44 194.83 164.75C194.83 176.3 185.43 185.7 173.88 185.7C162.33 185.7 152.93 176.3 152.93 164.75C152.93 159.43 148.62 155.13 143.31 155.13C137.99 155.13 133.69 159.44 133.69 164.75C133.69 186.92 151.72 204.95 173.89 204.95C196.06 204.95 214.09 186.92 214.09 164.75C214.07 159.44 209.77 155.13 204.45 155.13Z" fill="#FF9843"/>
<path d="M368.7 155.13C363.38 155.13 359.08 159.44 359.08 164.75C359.08 176.3 349.68 185.7 338.13 185.7C326.58 185.7 317.18 176.3 317.18 164.75C317.18 159.43 312.87 155.13 307.56 155.13C302.24 155.13 297.94 159.44 297.94 164.75C297.94 186.92 315.97 204.95 338.14 204.95C360.31 204.95 378.34 186.92 378.34 164.75C378.32 159.44 374.02 155.13 368.7 155.13Z" fill="#FF9843"/>
</svg>
