<svg width="319" height="239" viewBox="0 0 319 239" fill="none" xmlns="http://www.w3.org/2000/svg">
<path d="M91.3853 145.094H8.91603C7.5257 139.962 7.38993 135.155 8.91603 130.778H91.3853C93.2832 135.361 93.2832 140.511 91.3853 145.094Z" fill="#161616"/>
<path d="M12.3706 136.643L16.862 137.54V137.871L12.6639 137.029V138.115L12.3706 138.055V136.643Z" fill="white"/>
<path d="M22.9505 130.773C23.0537 130.805 22.0435 134.031 20.7021 138.012C19.3606 141.993 18.193 145.159 18.0898 145.127C17.9866 145.094 18.9967 141.868 20.3382 137.887C21.6796 133.906 22.8527 130.74 22.9505 130.773Z" fill="white"/>
<path d="M26.3116 130.773C26.4094 130.805 25.4047 134.031 24.0632 138.012C22.7218 141.993 21.5487 145.159 21.4509 145.127C21.3531 145.094 22.3579 141.868 23.6993 137.887C25.0408 133.906 26.2139 130.74 26.3116 130.773Z" fill="white"/>
<path d="M81.398 130.773C81.4958 130.805 80.4911 134.031 79.1496 138.012C77.8082 141.993 76.6351 145.159 76.5373 145.127C76.4396 145.094 77.4443 141.868 78.7858 137.887C80.1272 133.906 81.3003 130.74 81.398 130.773Z" fill="white"/>
<path d="M84.7599 130.773C84.8576 130.805 83.8529 134.031 82.506 138.012C81.1591 141.993 79.9969 145.159 79.8991 145.127C79.8014 145.094 80.8061 141.868 82.1476 137.887C83.489 133.906 84.6567 130.74 84.7599 130.773Z" fill="white"/>
<path d="M105.571 157.965H1.38368C-0.370527 153.349 -0.549749 149.021 1.38368 145.083H105.571C106.75 147.025 107.373 149.253 107.373 151.524C107.373 153.796 106.75 156.024 105.571 157.965Z" fill="#3E3E70"/>
<path d="M8.43311 151.361H13.2178V152.448H9.31835V153.403H8.43311V151.361Z" fill="white"/>
<path d="M79.6167 145.083L84.5535 157.965H91.038L86.9214 145.083H79.6167Z" fill="#263238"/>
<path d="M5.2999 157.661C5.2999 157.661 -4.58447 165.189 4.88172 175.138C4.96315 175.223 5.06113 175.289 5.16953 175.334C5.27793 175.379 5.39442 175.401 5.51171 175.399L91.8642 174.899C91.8642 174.899 99.2394 166.628 93.1187 157.102L5.2999 157.661Z" fill="#BDBDE7"/>
<path d="M9.19334 175.567C9.13946 175.577 9.08429 175.577 9.03041 175.567C8.87848 175.547 8.72917 175.511 8.58507 175.459C8.02986 175.265 7.53151 174.937 7.135 174.503C6.51188 173.835 6.17633 172.95 6.20087 172.037C6.22217 171.46 6.37756 170.896 6.65472 170.39C6.93187 169.884 7.32317 169.449 7.79758 169.121L7.83559 169.387C7.24011 169.209 6.71305 168.854 6.32485 168.369C5.93666 167.883 5.70582 167.291 5.66321 166.671C5.64861 165.944 5.89717 165.236 6.36316 164.677C6.82915 164.118 7.48123 163.746 8.19947 163.63L8.15059 163.902C7.68444 163.632 7.28731 163.257 6.99045 162.807C6.6936 162.358 6.50511 161.846 6.43983 161.311C6.34736 160.471 6.58493 159.628 7.10241 158.959C7.42945 158.526 7.85859 158.181 8.35154 157.955C8.48111 157.896 8.61559 157.849 8.75343 157.813C8.80195 157.805 8.85154 157.805 8.90006 157.813C8.90006 157.813 8.71541 157.889 8.39498 158.063C7.93973 158.313 7.5463 158.662 7.24362 159.084C6.78775 159.729 6.59365 160.523 6.70052 161.306C6.77376 161.798 6.95867 162.266 7.24108 162.676C7.5235 163.085 7.89593 163.425 8.32981 163.668L8.72084 163.88L8.28093 163.94C7.64136 164.047 7.06142 164.38 6.64603 164.878C6.23064 165.376 6.00723 166.007 6.01622 166.655C6.0528 167.209 6.25517 167.74 6.59704 168.177C6.93891 168.615 7.4045 168.94 7.93335 169.11L8.24292 169.197L7.9768 169.376C7.5377 169.677 7.17369 170.075 6.91285 170.539C6.65202 171.004 6.50133 171.522 6.47242 172.053C6.43144 172.906 6.72356 173.742 7.28707 174.383C7.65541 174.81 8.11595 175.148 8.63394 175.372C8.98153 175.507 9.19877 175.545 9.19334 175.567Z" fill="white"/>
<path d="M9.2151 172.602C9.2151 172.602 9.1445 172.602 9.0576 172.531C9.00509 172.464 8.96691 172.388 8.94542 172.305C8.92393 172.223 8.91959 172.137 8.93269 172.053C9.03141 171.794 9.22575 171.582 9.47578 171.461C9.7982 171.314 10.1477 171.234 10.5022 171.228C10.9135 171.206 11.3259 171.219 11.7351 171.266C11.9523 171.288 12.175 171.32 12.4031 171.364C12.656 171.399 12.8974 171.492 13.1091 171.635C13.1958 171.699 13.2681 171.78 13.3214 171.874C13.3747 171.968 13.4078 172.071 13.4187 172.178C13.4234 172.284 13.4015 172.389 13.355 172.484C13.3085 172.579 13.2389 172.66 13.1526 172.721C12.8646 172.9 12.5353 173.001 12.1967 173.015C11.6664 173.079 11.1303 173.079 10.6 173.015C10.1027 173.001 9.61842 172.853 9.1988 172.586C9.1988 172.531 9.7419 172.754 10.6163 172.797C11.1322 172.82 11.6491 172.789 12.1587 172.705C12.4426 172.691 12.7187 172.607 12.9625 172.461C13.0108 172.425 13.0493 172.377 13.0744 172.322C13.0994 172.268 13.1103 172.207 13.106 172.147C13.1017 172.087 13.0823 172.029 13.0496 171.979C13.0169 171.928 12.972 171.887 12.919 171.858C12.7443 171.742 12.5456 171.668 12.3379 171.641C12.1207 171.597 11.9089 171.559 11.697 171.532C11.3024 171.485 10.9051 171.463 10.5077 171.467C9.78535 171.467 9.20424 171.717 9.0576 172.081C9.02326 172.215 9.0367 172.357 9.09562 172.482C9.17165 172.558 9.22053 172.586 9.2151 172.602Z" fill="white"/>
<path d="M8.9817 166.769C8.9817 166.769 8.9111 166.769 8.8242 166.698C8.7717 166.632 8.73351 166.555 8.71202 166.472C8.69053 166.39 8.68619 166.304 8.69929 166.221C8.79918 165.963 8.99338 165.753 9.24239 165.634C9.5648 165.486 9.91425 165.407 10.2688 165.4C10.6783 165.379 11.0889 165.391 11.4962 165.438C11.7171 165.46 11.9398 165.493 12.1642 165.536C12.4191 165.571 12.6626 165.664 12.8757 165.808C12.9624 165.872 13.0347 165.953 13.088 166.047C13.1413 166.14 13.1744 166.244 13.1853 166.351C13.19 166.456 13.1681 166.562 13.1216 166.656C13.0751 166.751 13.0055 166.833 12.9192 166.894C12.6312 167.073 12.3019 167.174 11.9633 167.187C11.433 167.252 10.8969 167.252 10.3666 167.187C9.86983 167.17 9.38637 167.022 8.9654 166.758C8.9654 166.704 9.5085 166.927 10.3829 166.97C10.8988 166.99 11.4154 166.959 11.9253 166.878C12.2092 166.864 12.4853 166.78 12.7291 166.633C12.7773 166.597 12.8157 166.549 12.8407 166.493C12.8657 166.438 12.8765 166.378 12.8722 166.317C12.8679 166.257 12.8486 166.199 12.816 166.148C12.7834 166.096 12.7386 166.054 12.6856 166.025C12.5094 165.913 12.3112 165.841 12.1045 165.813C11.8873 165.77 11.6755 165.732 11.4637 165.705C11.069 165.657 10.6717 165.635 10.2743 165.639C9.55195 165.639 8.97084 165.889 8.8242 166.253C8.78477 166.387 8.79838 166.531 8.86222 166.655C8.93825 166.726 8.98713 166.753 8.9817 166.769Z" fill="white"/>
<path d="M9.10108 161.121C9.10108 161.121 9.03591 161.121 8.94901 161.056C8.89531 160.99 8.85639 160.913 8.83484 160.83C8.8133 160.748 8.80964 160.662 8.8241 160.578C8.92672 160.322 9.12011 160.113 9.3672 159.991C9.68981 159.844 10.0391 159.765 10.3937 159.758C10.8048 159.734 11.2172 159.745 11.6265 159.79C11.8437 159.817 12.0664 159.85 12.2945 159.893C12.5489 159.93 12.792 160.023 13.0059 160.165C13.0918 160.229 13.1633 160.311 13.2157 160.404C13.2681 160.498 13.3002 160.601 13.3101 160.708C13.3139 160.814 13.2915 160.918 13.2451 161.013C13.1987 161.108 13.1296 161.19 13.044 161.251C12.758 161.429 12.4302 161.528 12.0935 161.539C11.5534 161.612 11.0065 161.621 10.4643 161.566C9.96716 161.547 9.48391 161.397 9.06306 161.132C9.53157 161.228 10.0047 161.301 10.4805 161.349C10.9964 161.366 11.5128 161.335 12.0229 161.257C12.3086 161.243 12.5865 161.159 12.8322 161.012C12.8802 160.975 12.9182 160.927 12.9428 160.871C12.9673 160.816 12.9776 160.755 12.9728 160.695C12.9679 160.634 12.9481 160.576 12.915 160.525C12.8819 160.475 12.8366 160.433 12.7833 160.404C12.6095 160.292 12.4128 160.219 12.2076 160.192C11.9904 160.149 11.7731 160.111 11.5613 160.084C11.1687 160.034 10.7731 160.012 10.3774 160.018C9.64961 160.018 9.07392 160.268 8.92729 160.632C8.89053 160.766 8.90405 160.909 8.9653 161.034C9.06849 161.083 9.11194 161.11 9.10108 161.121Z" fill="white"/>
<path d="M86.7314 157.341C86.7314 157.341 86.7858 157.341 86.8889 157.341C87.0423 157.365 87.1932 157.403 87.3397 157.455C87.8948 157.646 88.3933 157.973 88.7898 158.405C89.4124 159.073 89.7479 159.958 89.7239 160.871C89.703 161.448 89.5478 162.012 89.2706 162.518C88.9934 163.024 88.6019 163.459 88.1272 163.787L88.0892 163.521C88.6835 163.701 89.2093 164.057 89.5972 164.542C89.9851 165.026 90.2167 165.618 90.2616 166.237C90.2748 166.965 90.0251 167.673 89.5582 168.232C89.0913 168.79 88.4386 169.162 87.7199 169.278L87.7688 169.007C88.2363 169.274 88.635 169.647 88.9329 170.096C89.2309 170.545 89.4199 171.057 89.485 171.592C89.5789 172.434 89.3412 173.279 88.8224 173.949C88.4942 174.379 88.0652 174.722 87.5732 174.948C87.4422 175.008 87.3058 175.055 87.1659 175.089C87.0736 175.089 87.0247 175.122 87.0247 175.089C87.0247 175.057 87.2094 175.013 87.5298 174.839C87.9855 174.592 88.3777 174.243 88.6757 173.818C89.1317 173.176 89.3259 172.383 89.2188 171.603C89.1456 171.111 88.9607 170.642 88.6783 170.232C88.3958 169.823 88.0234 169.483 87.5895 169.24L87.1985 169.023L87.6384 168.963C88.278 168.856 88.8579 168.523 89.2733 168.025C89.6887 167.526 89.9121 166.896 89.9031 166.248C89.8662 165.694 89.6637 165.165 89.3217 164.728C88.9798 164.291 88.5144 163.967 87.986 163.798L87.671 163.711L87.9425 163.532C88.3823 163.23 88.7468 162.831 89.0077 162.366C89.2685 161.901 89.4188 161.382 89.4469 160.849C89.4853 159.996 89.1913 159.161 88.6268 158.519C88.2599 158.094 87.8012 157.758 87.2854 157.536C86.9487 157.401 86.7314 157.363 86.7314 157.341Z" fill="white"/>
<path d="M86.7312 160.301C86.7312 160.301 86.7964 160.301 86.8887 160.371C86.9414 160.437 86.9797 160.513 87.0012 160.594C87.0227 160.676 87.027 160.761 87.0136 160.844C86.9138 161.101 86.7196 161.311 86.4706 161.43C86.1483 161.579 85.799 161.661 85.4441 161.669C85.0328 161.688 84.6206 161.676 84.2113 161.631C83.994 161.631 83.7714 161.572 83.5433 161.528C83.2907 161.495 83.0491 161.404 82.8372 161.262C82.7515 161.197 82.6799 161.116 82.6267 161.022C82.5734 160.929 82.5398 160.826 82.5277 160.719C82.5244 160.614 82.5469 160.509 82.5933 160.414C82.6397 160.32 82.7085 160.238 82.7938 160.176C83.0828 160 83.4118 159.901 83.7496 159.888C84.279 159.817 84.8148 159.808 85.3463 159.861C85.8436 159.879 86.3272 160.029 86.7475 160.295C86.7475 160.344 86.2044 160.127 85.33 160.084C84.8143 160.062 84.2977 160.091 83.7876 160.17C83.5037 160.189 83.2283 160.275 82.9839 160.42C82.7666 160.567 82.7992 160.849 83.0273 161.023C83.2016 161.135 83.398 161.207 83.603 161.235C83.8257 161.284 84.0375 161.316 84.2493 161.344C84.6435 161.395 85.041 161.419 85.4387 161.414C86.161 161.414 86.7367 161.159 86.8887 160.8C86.9215 160.667 86.9061 160.527 86.8453 160.404C86.7584 160.35 86.7312 160.301 86.7312 160.301Z" fill="white"/>
<path d="M86.9485 166.139C86.9485 166.139 87.0191 166.139 87.106 166.21C87.1587 166.275 87.197 166.351 87.2185 166.433C87.24 166.514 87.2442 166.599 87.2309 166.682C87.131 166.94 86.9368 167.149 86.6878 167.269C86.3658 167.418 86.0163 167.5 85.6614 167.508C85.2501 167.527 84.8379 167.514 84.4285 167.47C84.2113 167.47 83.9886 167.41 83.7605 167.366C83.5079 167.333 83.2664 167.242 83.0545 167.1C82.9688 167.035 82.8972 166.954 82.844 166.861C82.7907 166.767 82.757 166.664 82.7449 166.557C82.7416 166.452 82.7642 166.347 82.8106 166.253C82.8569 166.158 82.9258 166.076 83.0111 166.014C83.3004 165.839 83.6292 165.74 83.9669 165.726C84.4963 165.656 85.0321 165.647 85.5636 165.699C86.0609 165.717 86.5445 165.867 86.9648 166.134C86.9648 166.182 86.4217 165.965 85.5473 165.922C85.0316 165.9 84.515 165.929 84.0049 166.009C83.721 166.027 83.4455 166.113 83.2011 166.259C82.9839 166.405 83.0165 166.688 83.2446 166.861C83.4197 166.975 83.6184 167.048 83.8257 167.073C84.0429 167.122 84.2548 167.155 84.4666 167.182C84.8608 167.234 85.2583 167.257 85.6559 167.252C86.3783 167.252 86.9594 166.997 87.106 166.639C87.1423 166.506 87.1268 166.364 87.0626 166.242C86.992 166.182 86.9431 166.155 86.9485 166.139Z" fill="white"/>
<path d="M86.824 171.782C86.824 171.782 86.8946 171.782 86.9815 171.852C87.0347 171.918 87.0734 171.994 87.095 172.075C87.1165 172.157 87.1204 172.242 87.1064 172.325C87.0094 172.584 86.8143 172.795 86.5633 172.911C86.2409 173.06 85.8916 173.141 85.5368 173.15C85.1255 173.172 84.7131 173.16 84.304 173.112C84.0795 173.091 83.8565 173.056 83.636 173.009C83.3812 172.978 83.1374 172.887 82.9245 172.743C82.8384 172.679 82.7664 172.597 82.7131 172.504C82.6598 172.41 82.6264 172.307 82.615 172.2C82.6123 172.094 82.6356 171.989 82.683 171.895C82.7303 171.8 82.8002 171.718 82.8865 171.657C83.1721 171.477 83.4999 171.376 83.8369 171.364C84.369 171.299 84.907 171.299 85.4391 171.364C85.9348 171.377 86.4175 171.525 86.8348 171.793C86.8348 171.842 86.2917 171.624 85.4173 171.581C84.9014 171.559 84.3846 171.59 83.8749 171.673C83.5911 171.688 83.3152 171.772 83.0712 171.918C83.0228 171.954 82.9843 172.001 82.9593 172.056C82.9342 172.111 82.9233 172.171 82.9276 172.231C82.932 172.291 82.9514 172.349 82.984 172.4C83.0167 172.45 83.0616 172.492 83.1146 172.52C83.2904 172.634 83.4887 172.708 83.6957 172.738C83.913 172.781 84.1302 172.814 84.3366 172.841C84.7309 172.893 85.1283 172.916 85.526 172.911C86.2537 172.911 86.8294 172.662 86.976 172.298C87.0155 172.164 87.0019 172.02 86.938 171.896C86.8728 171.825 86.8185 171.798 86.824 171.782Z" fill="white"/>
<path d="M72.8663 165.52C72.8663 165.607 62.1184 165.677 48.8614 165.677C35.6044 165.677 24.8511 165.607 24.8511 165.52C24.8511 165.433 35.599 165.362 48.8614 165.362C62.1238 165.362 72.8663 165.433 72.8663 165.52Z" fill="white"/>
<path d="M59.4408 168.643C59.4408 168.73 54.3846 168.8 48.1498 168.8C41.9151 168.8 36.8643 168.73 36.8643 168.643C36.8643 168.556 41.9151 168.485 48.1498 168.485C54.3846 168.485 59.4408 168.556 59.4408 168.643Z" fill="white"/>
<path d="M286.374 110.091L295.335 102.189L294.249 101.809L286.146 98.9688L283.083 97.8826L274.98 95.0422L273.894 94.662L275.974 106.42C275.974 106.42 249.053 136.747 253.044 171.858L256.721 173.172L259.784 174.258L263.45 175.54C288.476 150.59 286.374 110.091 286.374 110.091Z" fill="white"/>
<path d="M286.374 110.091C286.374 110.091 286.374 110.205 286.374 110.434C286.374 110.662 286.401 110.977 286.407 111.455C286.407 112.351 286.407 113.681 286.407 115.408C286.253 120.341 285.774 125.257 284.973 130.126C283.79 137.555 281.787 144.83 278.999 151.818C275.74 159.774 270.852 168.279 263.548 175.627L263.488 175.687L263.407 175.66L253.006 172.021L252.925 171.988V171.901C252.292 165.986 252.436 160.014 253.354 154.137C254.091 149.351 255.258 144.641 256.84 140.065C258.333 135.694 260.129 131.433 262.217 127.313C264.171 123.433 266.347 119.668 268.734 116.038C270.924 112.67 273.32 109.439 275.909 106.366V106.469C275.185 102.287 274.497 98.3659 273.845 94.7055L273.812 94.5262L273.981 94.586L295.411 102.14L295.52 102.178L295.433 102.249L288.753 108.087L287.02 109.586C286.635 109.923 286.428 110.091 286.428 110.091C286.428 110.091 286.613 109.912 286.972 109.548C287.33 109.184 287.922 108.696 288.671 108.033L295.281 102.151V102.265L273.823 94.7869L273.964 94.6674C274.616 98.3334 275.317 102.244 276.061 106.426V106.48L276.023 106.523C273.449 109.595 271.064 112.819 268.881 116.18C266.509 119.806 264.345 123.565 262.402 127.438C260.321 131.547 258.532 135.797 257.047 140.157C255.47 144.717 254.309 149.411 253.576 154.18C252.66 160.032 252.514 165.979 253.142 171.869L253.05 171.755L263.45 175.404L263.309 175.437C270.592 168.127 275.49 159.66 278.733 151.731C281.537 144.765 283.563 137.51 284.772 130.099C285.589 125.238 286.093 120.329 286.282 115.403C286.342 113.681 286.352 112.351 286.347 111.455C286.347 111.009 286.347 110.673 286.347 110.434C286.347 110.195 286.374 110.091 286.374 110.091Z" fill="#3E3E70"/>
<path d="M278.825 105.681C278.463 104.568 278.189 103.427 278.005 102.271C277.731 101.132 277.549 99.9736 277.462 98.8058C277.823 99.9199 278.097 101.06 278.282 102.216C278.556 103.355 278.737 104.514 278.825 105.681Z" fill="white"/>
<path d="M263.341 174.258C272.628 163.988 276.892 153.621 281.416 138.838C281.91 137.208 282.567 135.72 282.958 134.118C282.999 133.959 282.984 133.79 282.914 133.642C282.844 133.493 282.725 133.373 282.576 133.303C282.427 133.233 282.259 133.217 282.1 133.257C281.94 133.298 281.8 133.393 281.704 133.526C280.438 135.155 279.189 136.893 277.402 137.784C274.861 139.049 271.971 139.826 269.956 141.808C268.87 142.851 268.077 144.203 266.774 144.931C264.992 145.93 262.804 145.501 260.767 145.436C258.731 145.371 256.27 146.034 255.7 147.994C255.7 147.994 252.849 162.875 254.136 170.88L263.341 174.258Z" fill="#65708D"/>
<path d="M291.279 85.8367C293.278 84.1322 295.685 82.9763 298.265 82.4821C300.845 81.988 303.509 82.1727 305.997 83.018C304.008 84.9483 301.504 86.2624 298.785 86.802C296.067 87.3416 293.251 87.0837 290.676 86.0593" fill="#3E3E70"/>
<path d="M297.996 72.6503C296.911 70.2578 296.465 67.6251 296.7 65.0086C296.935 62.3922 297.844 59.8813 299.338 57.7206C300.644 60.1648 301.218 62.9344 300.988 65.6965C300.759 68.4586 299.737 71.0958 298.045 73.2911" fill="#3E3E70"/>
<path d="M291.137 70.4616C289.397 68.9332 288.088 66.9758 287.341 64.7843C286.593 62.5927 286.432 60.2434 286.874 57.9704C288.818 59.4641 290.284 61.4938 291.09 63.8097C291.895 66.1256 292.006 68.6266 291.409 71.0047" fill="#3E3E70"/>
<path d="M294.439 55.0703C294.64 53.3886 295.279 51.7891 296.292 50.432C297.305 49.0748 298.657 48.0074 300.212 47.3365C300.114 49.121 299.497 50.8379 298.435 52.2757C297.374 53.7136 295.915 54.8095 294.238 55.4287" fill="#3E3E70"/>
<path d="M285.19 98.2519C285.904 96.7185 287.007 95.3991 288.389 94.4252C289.772 93.4512 291.386 92.8569 293.07 92.7014C292.427 94.3617 291.314 95.7986 289.867 96.8364C288.421 97.8743 286.703 98.468 284.924 98.5452" fill="#3E3E70"/>
<path d="M296.329 40.1296C296.329 40.1296 295.905 45.691 294.569 54.6032C294.395 55.7165 294.211 56.8842 294.026 58.0953C293.842 59.3064 293.592 60.5664 293.364 61.8698C292.918 64.4821 292.332 67.2519 291.734 70.1738C290.474 75.9958 288.921 82.3609 287.015 88.9649C285.109 95.569 282.996 101.777 280.948 107.371C279.862 110.157 278.901 112.801 277.88 115.256C277.375 116.478 276.908 117.668 276.419 118.797L275.012 122.056C271.374 130.3 268.756 135.226 268.756 135.226C268.756 135.226 268.783 135.145 268.854 134.987L269.174 134.303L270.418 131.685L271.325 129.795C271.647 129.1 271.991 128.345 272.357 127.53C273.09 125.901 273.986 124.06 274.828 121.98L276.223 118.721C276.701 117.592 277.163 116.397 277.663 115.175C278.678 112.725 279.656 110.075 280.704 107.289C282.741 101.695 284.821 95.4875 286.749 88.8943C288.677 82.3011 290.208 75.9306 291.479 70.1466C292.082 67.2302 292.679 64.4658 293.108 61.859C293.342 60.5555 293.592 59.301 293.787 58.0899L294.33 54.6032C294.71 52.3819 294.96 50.3616 295.21 48.5911C295.335 47.7058 295.449 46.8803 295.552 46.12C295.655 45.3597 295.726 44.6645 295.797 44.0399C295.949 42.8017 296.063 41.8295 296.144 41.1615C296.188 40.8393 296.22 40.5895 296.242 40.412C296.313 40.2165 296.329 40.1296 296.329 40.1296Z" fill="#3E3E70"/>
<path d="M308.804 58.0899C308.773 58.1473 308.736 58.2019 308.695 58.2528L308.353 58.709L307.028 60.4523L306.061 61.7123L304.975 63.233C304.182 64.3192 303.254 65.5574 302.309 66.9749L300.799 69.1745C300.256 69.9457 299.767 70.7657 299.218 71.6021C298.132 73.2694 297.046 75.1105 295.857 77.0331C293.581 80.9108 291.213 85.2556 288.959 89.9316C286.705 94.6077 284.826 99.1643 283.224 103.395C282.458 105.508 281.709 107.512 281.106 109.418C280.797 110.368 280.471 111.281 280.205 112.171C279.938 113.062 279.661 113.915 279.433 114.729C278.923 116.359 278.548 117.847 278.19 119.145C278.01 119.797 277.848 120.405 277.695 120.964C277.543 121.524 277.435 122.05 277.321 122.507C277.098 123.414 276.919 124.136 276.778 124.63C276.718 124.864 276.669 125.048 276.636 125.173C276.621 125.236 276.601 125.298 276.577 125.358C276.58 125.294 276.589 125.23 276.604 125.168C276.636 125.027 276.674 124.842 276.723 124.625C276.837 124.12 276.995 123.403 277.201 122.485C277.304 122.018 277.424 121.502 277.549 120.937C277.674 120.372 277.853 119.769 278.021 119.112C278.369 117.803 278.727 116.304 279.227 114.675C279.466 113.861 279.721 113.002 279.982 112.112C280.243 111.221 280.563 110.309 280.867 109.353C281.465 107.441 282.209 105.432 282.969 103.308C284.56 99.0937 286.456 94.5154 288.693 89.8176C290.931 85.1198 293.331 80.7859 295.618 76.9082C296.796 74.9856 297.893 73.1445 299.012 71.4772C299.555 70.6408 300.098 69.8479 300.603 69.055L302.135 66.8826C303.091 65.476 304.03 64.254 304.85 63.1624L305.975 61.6526C306.338 61.2018 306.664 60.7836 306.963 60.4089C307.55 59.6757 308.006 59.1 308.332 58.6981L308.695 58.2582C308.764 58.1424 308.8 58.0862 308.804 58.0899Z" fill="#3E3E70"/>
<path d="M284.881 70.4345C284.916 70.5624 284.94 70.6933 284.951 70.8255C284.989 71.1134 285.038 71.4881 285.103 71.9606C285.168 72.4331 285.239 73.0468 285.293 73.7582C285.348 74.4697 285.44 75.2572 285.478 76.1424C285.516 77.0277 285.581 77.9998 285.597 79.0426C285.614 80.0853 285.597 81.215 285.597 82.3718C285.538 84.7179 285.38 87.2976 285.054 89.9751C284.728 92.6526 284.272 95.2106 283.778 97.5024C283.512 98.6484 283.268 99.7346 282.985 100.761C282.703 101.787 282.442 102.705 282.187 103.553C281.932 104.4 281.671 105.182 281.448 105.828C281.226 106.474 281.014 107.066 280.834 107.528C280.655 107.99 280.525 108.326 280.422 108.614C280.378 108.74 280.324 108.862 280.259 108.978C280.281 108.846 280.317 108.717 280.367 108.592L280.731 107.506C280.894 107.039 281.095 106.469 281.274 105.796C281.454 105.122 281.741 104.367 281.975 103.509C282.208 102.651 282.518 101.733 282.741 100.718C282.963 99.702 283.246 98.6267 283.501 97.459C283.984 95.1726 284.43 92.6363 284.756 89.9534C285.081 87.2705 285.234 84.7071 285.299 82.35C285.299 81.1824 285.348 80.069 285.299 79.0317C285.25 77.9944 285.255 77.0222 285.217 76.137C285.179 75.2518 285.12 74.4534 285.076 73.7528C285.033 73.0522 284.978 72.4494 284.929 71.9552C284.881 71.4609 284.853 71.1025 284.832 70.8201C284.835 70.6902 284.851 70.561 284.881 70.4345Z" fill="#3E3E70"/>
<path d="M310.765 57.7585C310.149 59.0637 309.902 60.5118 310.048 61.9472C310.195 63.3827 310.73 64.751 311.596 65.905C311.943 66.3612 312.47 66.812 313.019 66.6545C313.567 66.497 313.79 65.7584 313.811 65.1501C313.857 63.8723 313.64 62.5987 313.172 61.4085C312.705 60.2183 311.999 59.1367 311.096 58.231C312.411 59.8907 314.19 61.1214 316.207 61.7666C316.967 62.011 317.95 62.1033 318.433 61.4625C318.917 60.8216 318.574 59.9527 318.124 59.3281C317.313 58.2576 316.18 57.4745 314.893 57.0935C313.605 56.7124 312.229 56.7532 310.966 57.21C312.144 56.9548 313.216 56.3449 314.037 55.4623C314.859 54.5798 315.39 53.4669 315.56 52.2733C315.674 51.3554 315.376 50.1878 314.474 50.014C314.196 49.9891 313.915 50.0248 313.652 50.1185C313.388 50.2123 313.148 50.3619 312.948 50.5571C312.113 51.2546 311.438 52.1242 310.969 53.1065C310.5 54.0887 310.249 55.1605 310.233 56.2487C310.398 54.9714 310.185 53.6738 309.622 52.5157C309.058 51.3576 308.168 50.3898 307.061 49.7316C306.349 49.3188 305.432 49.0636 304.731 49.5035C303.857 50.0466 303.889 51.3609 304.188 52.3493C304.598 53.5784 305.279 54.7002 306.179 55.6324C307.079 56.5646 308.177 57.2836 309.391 57.7368C308.624 57.5121 307.814 57.4767 307.031 57.6337C306.248 57.7907 305.515 58.1355 304.894 58.6384C304.09 59.3064 303.525 60.5718 304.204 61.3538C304.883 62.1359 306.089 61.8372 306.985 61.3864C308.607 60.5622 310.026 59.388 311.139 57.9486" fill="#BDBDE7"/>
<path d="M311.878 63.3307C311.813 62.2868 311.686 61.2476 311.498 60.2188C311.216 59.2105 310.873 58.2202 310.471 57.2535C311.128 58.103 311.571 59.0975 311.764 60.1536C312.052 61.1889 312.091 62.2775 311.878 63.3307Z" fill="#3E3E70"/>
<path d="M315.087 60.0613C314.454 59.4928 313.764 58.9906 313.029 58.5623C311.774 57.9269 310.623 57.7205 310.645 57.6282C311.527 57.6505 312.39 57.8872 313.159 58.3179C313.971 58.6789 314.647 59.2896 315.087 60.0613Z" fill="#3E3E70"/>
<path d="M312.937 53.3975C312.96 54.2464 312.751 55.0854 312.334 55.8252C311.996 56.6085 311.405 57.2565 310.656 57.6663C311.202 57.0629 311.681 56.4019 312.085 55.6948C312.408 54.9443 312.693 54.1775 312.937 53.3975Z" fill="#3E3E70"/>
<path d="M310.352 56.4823C310.531 56.4175 310.725 56.4065 310.91 56.4508C311.095 56.4951 311.262 56.5926 311.393 56.7314C311.523 56.8701 311.609 57.0439 311.641 57.2313C311.674 57.4187 311.65 57.6115 311.574 57.7857C311.294 57.677 310.999 57.6128 310.7 57.5956C310.635 57.2191 310.518 56.8535 310.352 56.5094" fill="white"/>
<path d="M306.045 51.8388C306.395 51.976 306.719 52.1726 307.001 52.4199C308.464 53.5247 309.592 55.0137 310.26 56.7213C310.418 57.0643 310.517 57.4315 310.553 57.8074C310.048 56.6541 309.433 55.5519 308.717 54.5163C307.915 53.5399 307.02 52.6433 306.045 51.8388Z" fill="#3E3E70"/>
<path d="M282.333 70.5648C281.998 71.9668 281.287 73.2511 280.278 74.2805C279.269 75.3098 277.999 76.0454 276.604 76.4085C276.061 76.5443 275.355 76.566 275.023 76.1044C274.692 75.6428 274.98 74.9204 275.338 74.4317C276.101 73.4059 277.067 72.5476 278.174 71.9096C279.282 71.2716 280.509 70.8675 281.779 70.7223C279.717 71.1979 277.561 71.0505 275.583 70.2987C274.833 70.0108 274.008 69.4677 274.035 68.6694C274.062 67.871 274.86 67.3985 275.604 67.1922C276.906 66.8614 278.28 66.956 279.524 67.4622C280.768 67.9685 281.817 68.8597 282.518 70.0054C281.758 69.0688 281.303 67.9225 281.213 66.7199C281.123 65.5174 281.402 64.316 282.013 63.2764C282.496 62.4889 283.458 61.7666 284.278 62.1902C284.509 62.3497 284.703 62.5568 284.847 62.7975C284.991 63.0383 285.082 63.3071 285.114 63.586C285.331 64.6527 285.315 65.7536 285.067 66.8136C284.82 67.8736 284.347 68.8678 283.68 69.7284C284.348 68.6244 285.325 67.7403 286.49 67.1853C287.655 66.6303 288.957 66.4288 290.235 66.6056C291.05 66.7305 291.935 67.1053 292.201 67.8819C292.538 68.8649 291.702 69.8588 290.833 70.429C289.746 71.1365 288.514 71.5903 287.228 71.7567C285.942 71.9231 284.634 71.7979 283.403 71.3903C284.142 71.6936 284.797 72.1718 285.311 72.7839C285.824 73.3959 286.182 74.1235 286.352 74.9041C286.564 75.9252 286.222 77.2666 285.19 77.4676C284.158 77.6685 283.414 76.6638 283.018 75.7514C282.266 74.0949 281.895 72.2911 281.931 70.4725" fill="#BDBDE7"/>
<path d="M277.989 74.2199C278.691 73.4519 279.438 72.7265 280.226 72.0475C281.075 71.4334 281.96 70.8712 282.877 70.3639C281.835 70.625 280.868 71.1252 280.053 71.8248C279.187 72.451 278.48 73.2712 277.989 74.2199Z" fill="#3E3E70"/>
<path d="M277.516 69.6632C278.365 69.6147 279.216 69.6529 280.057 69.7773C281.437 70.0651 282.469 70.6245 282.512 70.5376C281.809 70.0056 280.987 69.6515 280.117 69.5058C279.255 69.2832 278.345 69.3383 277.516 69.6632Z" fill="#3E3E70"/>
<path d="M283.36 65.8018C282.808 66.447 282.447 67.2331 282.317 68.072C282.094 68.8958 282.149 69.7704 282.474 70.5594C282.426 69.7466 282.464 68.931 282.589 68.1263C282.802 67.3376 283.059 66.5615 283.36 65.8018Z" fill="#3E3E70"/>
<path d="M283.452 69.8262C283.352 69.665 283.208 69.5362 283.036 69.4552C282.865 69.3743 282.673 69.3447 282.485 69.37C282.298 69.4005 282.123 69.4835 281.981 69.6094C281.838 69.7353 281.735 69.899 281.682 70.0815C281.969 70.1692 282.241 70.3031 282.485 70.4779C282.773 70.2127 283.099 69.9929 283.452 69.8262Z" fill="white"/>
<path d="M289.72 68.8866C289.358 68.7741 288.979 68.7245 288.601 68.74C287.685 68.7186 286.772 68.8247 285.885 69.055C285.003 69.2792 284.156 69.6266 283.371 70.0869C283.031 70.2518 282.724 70.4762 282.464 70.7495C284.661 69.4836 287.162 68.8396 289.698 68.8866H289.72Z" fill="#3E3E70"/>
<path d="M297.16 36.4746C295.879 38.0107 294.203 39.1694 292.314 39.8266C290.425 40.4838 288.392 40.6149 286.434 40.2057C285.657 40.0319 284.777 39.6626 284.653 38.8534C284.528 38.0441 285.331 37.3544 286.081 36.9688C287.665 36.1601 289.399 35.6863 291.174 35.577C292.95 35.4676 294.728 35.7251 296.4 36.3334C293.543 35.653 290.952 34.1411 288.954 31.9886C288.204 31.1685 287.509 29.99 288.036 29.007C288.563 28.024 289.85 27.9208 290.898 28.1435C292.722 28.5352 294.372 29.5005 295.607 30.898C296.843 32.2955 297.598 34.0519 297.763 35.9098C297.393 34.2753 297.532 32.5667 298.161 31.0134C298.79 29.4601 299.879 28.1365 301.282 27.2202C302.368 26.5413 303.998 26.2372 304.763 27.2745C305.225 27.9045 305.133 28.7735 304.943 29.5284C304.555 30.9884 303.856 32.3474 302.894 33.5125C301.932 34.6776 300.731 35.6213 299.371 36.2791C300.883 35.3195 302.643 34.8231 304.434 34.8511C306.225 34.8791 307.969 35.4302 309.45 36.4366C310.385 37.0992 311.253 38.1093 311.107 39.239C310.917 40.6727 309.266 41.4113 307.848 41.5634C306.056 41.7706 304.24 41.5722 302.535 40.9827C300.829 40.3933 299.278 39.428 297.996 38.1582C298.729 38.9894 299.248 39.9864 299.51 41.0632C299.771 42.14 299.766 43.2642 299.495 44.3386C299.126 45.7453 297.866 47.2008 296.47 46.8097C295.075 46.4187 294.76 44.7188 294.803 43.3285C294.887 40.8031 295.533 38.3282 296.693 36.0836" fill="#BDBDE7"/>
<path d="M289.502 38.3266C289.557 38.4352 291.289 37.4685 293.641 36.9797C295.993 36.4909 297.986 36.6484 297.986 36.5289C297.986 36.4094 296.003 36.0781 293.576 36.6049C291.148 37.1317 289.443 38.2505 289.502 38.3266Z" fill="#3E3E70"/>
<path d="M291.729 32.3633C291.697 32.4828 293.283 32.863 294.82 34.0795C296.357 35.2961 297.296 36.6158 297.399 36.5343C296.856 35.4328 296.053 34.4803 295.059 33.7591C293.44 32.4991 291.724 32.271 291.729 32.3633Z" fill="#3E3E70"/>
<path d="M301.38 31.1685C301.342 31.0871 299.886 31.7985 298.665 33.3409C297.443 34.8833 297.231 36.5452 297.334 36.5398C297.437 36.5343 297.796 35.0462 298.963 33.5799C300.131 32.1135 301.451 31.2717 301.38 31.1685Z" fill="#3E3E70"/>
<path d="M299.012 36.2302C298.989 35.9667 298.89 35.7156 298.726 35.5082C298.562 35.3009 298.34 35.1465 298.089 35.0642C297.837 34.982 297.567 34.9756 297.312 35.0458C297.057 35.116 296.829 35.2597 296.655 35.459C296.958 35.7454 297.213 36.0792 297.41 36.4474C297.939 36.2934 298.488 36.2202 299.039 36.2302" fill="white"/>
<path d="M307.381 38.9294C307.003 38.5649 306.564 38.2707 306.083 38.0604C303.834 36.8839 301.305 36.3485 298.773 36.5126C298.249 36.5144 297.73 36.6044 297.236 36.7787C297.236 36.9091 299.62 36.5452 302.455 37.1643C305.29 37.7835 307.321 39.038 307.381 38.9294Z" fill="#3E3E70"/>
<path d="M287.824 152.958C287.894 152.652 287.985 152.35 288.096 152.057C288.194 151.769 288.308 151.416 288.422 151.003C288.536 150.59 288.693 150.123 288.813 149.591C289.128 148.365 289.376 147.123 289.557 145.871C289.766 144.333 289.88 142.784 289.899 141.233C289.897 139.682 289.801 138.133 289.611 136.595C289.444 135.34 289.212 134.094 288.916 132.863C288.802 132.32 288.655 131.864 288.541 131.451C288.427 131.039 288.324 130.68 288.226 130.392C288.114 130.098 288.028 129.795 287.971 129.485C288.111 129.766 288.23 130.057 288.329 130.354C288.443 130.642 288.568 130.99 288.693 131.403C288.818 131.815 288.981 132.282 289.106 132.815C289.438 134.047 289.693 135.298 289.872 136.562C290.077 138.112 290.181 139.674 290.181 141.238C290.162 142.801 290.039 144.362 289.812 145.909C289.619 147.169 289.351 148.417 289.008 149.645C288.872 150.188 288.704 150.639 288.574 151.046C288.443 151.454 288.313 151.807 288.199 152.089C288.102 152.39 287.976 152.681 287.824 152.958Z" fill="#3E3E70"/>
<path d="M290.518 153.403C290.586 153.095 290.677 152.792 290.79 152.496C290.887 152.209 291.001 151.861 291.115 151.443C291.23 151.025 291.387 150.563 291.507 150.036C291.822 148.809 292.068 147.565 292.245 146.311C292.459 144.775 292.575 143.228 292.593 141.678C292.591 140.128 292.495 138.579 292.305 137.04C292.138 135.783 291.906 134.536 291.61 133.303C291.496 132.76 291.349 132.31 291.235 131.891C291.121 131.473 291.012 131.12 290.92 130.832C290.811 130.537 290.724 130.234 290.659 129.925C290.805 130.206 290.926 130.499 291.023 130.8C291.137 131.082 291.262 131.43 291.387 131.848C291.512 132.266 291.675 132.728 291.8 133.255C292.132 134.486 292.386 135.738 292.56 137.002C292.768 138.552 292.873 140.114 292.875 141.678C292.856 143.241 292.733 144.802 292.506 146.349C292.311 147.609 292.043 148.856 291.702 150.085C291.566 150.628 291.398 151.079 291.268 151.492C291.137 151.904 291.007 152.252 290.893 152.534C290.79 152.833 290.664 153.123 290.518 153.403Z" fill="#3E3E70"/>
<path d="M257.161 153.469C257.161 153.469 257.161 153.306 257.243 152.996C257.324 152.687 257.406 152.209 257.52 151.638C257.634 151.068 257.802 150.329 258.008 149.504C258.215 148.678 258.432 147.728 258.731 146.696C259.029 145.664 259.328 144.524 259.714 143.318C260.099 142.112 260.512 140.825 260.968 139.478C261.913 136.801 263.048 133.884 264.379 130.887C265.709 127.889 267.149 125.103 268.512 122.61C269.212 121.372 269.87 120.193 270.538 119.118C271.206 118.042 271.814 117.038 272.4 116.136C272.987 115.235 273.536 114.431 274.03 113.725C274.524 113.019 274.937 112.421 275.295 111.938C275.654 111.455 275.92 111.102 276.121 110.852C276.211 110.718 276.313 110.593 276.425 110.477C276.348 110.619 276.261 110.755 276.164 110.884L275.387 112.03C275.04 112.519 274.627 113.116 274.16 113.839C273.693 114.561 273.144 115.354 272.585 116.272C272.026 117.19 271.385 118.173 270.755 119.264C270.125 120.356 269.451 121.524 268.756 122.762C267.409 125.26 266.003 128.041 264.656 131.028C263.309 134.015 262.19 136.926 261.229 139.592C260.767 140.934 260.317 142.205 259.953 143.394C259.589 144.583 259.236 145.719 258.943 146.75C258.649 147.782 258.399 148.722 258.182 149.547C257.965 150.373 257.78 151.084 257.639 151.671C257.498 152.257 257.389 152.681 257.308 153.012C257.274 153.169 257.225 153.322 257.161 153.469Z" fill="white"/>
<path d="M256.362 167.584C256.02 165.215 256.066 162.807 256.498 160.453C256.58 160.453 256.455 162.082 256.422 164.021C256.39 165.96 256.444 167.578 256.362 167.584Z" fill="white"/>
<path d="M247.195 186.902H228.925V223.914H247.195V186.902Z" fill="#161616"/>
<path d="M63.3128 186.902H45.043V223.914H63.3128V186.902Z" fill="#161616"/>
<g opacity="0.3">
<path opacity="0.3" d="M45.043 199.42L63.3128 199.768V192.968H45.043V199.42Z" fill="#161616"/>
</g>
<g opacity="0.3">
<path opacity="0.3" d="M228.925 199.42L247.195 199.768V192.968H228.925V199.42Z" fill="#161616"/>
</g>
<path d="M275.832 175.324H7.40625V192.975H275.832V175.324Z" fill="#161616"/>
<path d="M275.838 192.968C275.838 193.05 215.961 193.109 142.117 193.109C68.2716 193.109 8.38428 193.05 8.38428 192.968C8.38428 192.887 68.2662 192.827 142.127 192.827C215.989 192.827 275.838 192.887 275.838 192.968Z" fill="#263238"/>
<path d="M275.838 175.323C275.838 175.399 215.961 175.464 142.117 175.464C68.2716 175.464 8.38428 175.399 8.38428 175.323C8.38428 175.247 68.2662 175.182 142.127 175.182C215.989 175.182 275.838 175.241 275.838 175.323Z" fill="#263238"/>
<path d="M163.047 97.5948C163.047 97.5948 161.853 85.6901 167.191 78.5429C172.53 71.3958 177.722 70.3964 193.097 69.1256C208.472 67.8547 221.278 73.6713 225.14 81.682C229.001 89.6927 228.311 100.598 224.472 109.923L222.234 114.941C222.234 114.941 225.493 119.737 225.905 137.273C226.318 154.81 215.12 169.588 215.12 169.588L196.937 175.019H86.1448C86.1448 175.019 78.221 155.63 79.1877 146.186C80.5292 133.102 90.2126 106.681 119.887 106.681C127.393 106.681 139.108 110.211 143.811 110.732C163.08 112.845 164.742 111.465 164.742 111.465L163.047 97.5948Z" fill="#A6A6C8"/>
<g opacity="0.3">
<path opacity="0.3" d="M180.351 124.272C180.351 124.272 186.526 124.815 193.798 132.456C201.07 140.098 202.954 158.829 202.954 158.829L201.939 158.394L180.351 124.272Z" fill="#161616"/>
</g>
<path d="M238.554 170.381C236.773 169.74 232.482 169.213 232.482 169.213C232.482 169.213 226.655 166.888 220.534 163.961L201.966 158.394C201.966 158.394 200.141 145.854 194.737 136.372C185.982 121.013 167.544 121.969 167.544 121.969L156.449 144.426C156.449 144.426 166.626 155.168 168.625 164.227C170.624 173.286 168.625 174.91 168.625 174.91L227.709 174.997H242.215C242.122 173.954 241.726 172.961 241.075 172.141C240.425 171.32 239.548 170.708 238.554 170.381Z" fill="#A6A6C8"/>
<g opacity="0.4">
<path opacity="0.4" d="M206.452 87.9058L205.051 87.2976C204.393 86.8319 203.67 86.4659 202.905 86.2114L200.385 69.0604C197.506 68.8875 194.618 68.9547 191.75 69.2613C191.75 69.2613 195.4 75.3603 196.888 86.3797C196.224 86.6318 195.596 86.9696 195.02 87.3845C193.562 88.4476 192.47 89.937 191.894 91.6471C191.319 93.3572 191.288 95.2038 191.807 96.932C192.325 98.6603 193.367 100.185 194.789 101.296C196.211 102.407 197.942 103.049 199.744 103.134C201.546 103.231 203.335 102.777 204.872 101.833C206.409 100.888 207.623 99.4984 208.351 97.8477C209.079 96.1969 209.287 94.3636 208.948 92.5916C208.609 90.8195 207.738 89.1927 206.452 87.9276V87.9058Z" fill="white"/>
</g>
<path d="M193.014 88.3601C194.078 84.1863 191.557 79.9404 187.383 78.8765C183.209 77.8127 178.963 80.3337 177.899 84.5075C176.836 88.6812 179.357 92.9271 183.53 93.991C187.704 95.0549 191.95 92.5338 193.014 88.3601Z" fill="white"/>
<path d="M193.254 86.4395C193.2 85.8032 193.1 85.1716 192.956 84.5495C192.687 83.5096 192.203 82.5374 191.536 81.6953C190.869 80.8532 190.034 80.1598 189.083 79.6597C188.132 79.1596 187.088 78.8637 186.016 78.7911C184.944 78.7185 183.869 78.8707 182.86 79.238C182.164 79.4876 181.51 79.841 180.921 80.2862C180.293 80.738 179.743 81.2882 179.291 81.9155C178.321 83.2252 177.797 84.8121 177.797 86.4422C177.797 88.0723 178.321 89.6592 179.291 90.9689C179.745 91.5947 180.295 92.1446 180.921 92.5982C181.509 93.0439 182.163 93.3956 182.86 93.641C183.87 94.0067 184.945 94.158 186.017 94.0851C187.089 94.0121 188.134 93.7166 189.086 93.2174C190.037 92.7182 190.874 92.0262 191.543 91.1856C192.212 90.3449 192.699 89.3741 192.972 88.3349C193.113 87.7125 193.211 87.081 193.265 86.4449C193.273 86.4862 193.273 86.5286 193.265 86.5698C193.265 86.673 193.265 86.7925 193.265 86.9446C193.265 87.1465 193.249 87.3481 193.216 87.5474C193.188 87.8223 193.139 88.0946 193.07 88.3621C192.899 89.1019 192.615 89.8109 192.228 90.4639C191.661 91.429 190.895 92.2626 189.981 92.9096C189.067 93.5565 188.026 94.002 186.927 94.2167C185.536 94.4817 184.1 94.3692 182.767 93.8908C181.289 93.3598 180.003 92.3991 179.074 91.1319C178.069 89.7748 177.527 88.1308 177.527 86.4422C177.527 84.7536 178.069 83.1096 179.074 81.7526C180.008 80.492 181.293 79.5344 182.767 78.9991C184.099 78.5181 185.537 78.4055 186.927 78.6732C188.135 78.9 189.271 79.4121 190.24 80.1667C191.043 80.7822 191.718 81.5477 192.228 82.4206C192.616 83.075 192.9 83.7859 193.07 84.5278C193.14 84.7951 193.189 85.0675 193.216 85.3424C193.249 85.5418 193.265 85.7434 193.265 85.9453C193.265 86.0919 193.265 86.2168 193.265 86.32C193.269 86.3602 193.265 86.4007 193.254 86.4395Z" fill="#263238"/>
<path d="M179.058 84.3595C179.965 81.644 181.942 79.8735 183.479 80.384C185.016 80.8945 185.532 83.5122 184.625 86.2223C183.718 88.9323 181.741 90.7137 180.204 90.1978C178.667 89.6818 178.167 87.0695 179.058 84.3595Z" fill="#3E3E70"/>
<path d="M168.196 79.3793C168.196 79.3793 170.879 58.9371 174.007 56.6126C177.136 54.2882 189.04 70.7332 189.04 70.7332L172.938 78.0704L168.196 79.3793Z" fill="#A6A6C8"/>
<path d="M201.977 70.5322C201.977 70.5322 207.842 61.696 209.075 60.4632C210.308 59.2304 213.132 54.6575 215.956 56.3302C218.78 58.003 220.447 75.8165 220.447 75.8165L208.059 73.3563L201.977 70.5322Z" fill="#A6A6C8"/>
<path d="M196.98 87.1401C198.907 86.3773 201.042 86.3196 203.008 86.9772C203.136 86.9729 203.262 87.0053 203.372 87.0707C203.482 87.1361 203.571 87.2317 203.628 87.3461C203.685 87.4605 203.708 87.5888 203.695 87.716C203.681 87.8431 203.631 87.9637 203.551 88.0634L201.303 90.6757C201.197 90.797 201.051 90.8763 200.892 90.8992C200.732 90.9221 200.57 90.8871 200.434 90.8006L196.632 88.3458C196.522 88.265 196.439 88.1522 196.394 88.0226C196.35 87.8931 196.347 87.753 196.385 87.6214C196.422 87.4899 196.5 87.3732 196.606 87.2871C196.713 87.201 196.843 87.1497 196.98 87.1401Z" fill="#263238"/>
<path d="M96.3225 213.226C94.6661 201.945 84.8903 193.701 75.0277 187.993C73.4636 187.086 71.8451 186.19 70.6829 184.811C69.5207 183.431 68.8852 181.433 69.5967 179.776C70.5526 177.604 73.268 176.936 75.6142 176.518L86.965 174.622L83.9019 158.726C77.3847 159.714 70.7915 160.719 64.6871 163.212C58.5827 165.705 52.929 169.886 49.9583 175.774C46.9876 181.661 47.2428 189.389 51.5876 194.326C54.8462 198.013 59.8644 199.757 63.2262 203.352C65.1017 205.408 66.3643 207.948 66.8711 210.684C67.3779 213.421 67.1086 216.244 66.0937 218.836C64.5676 222.567 61.4448 225.896 61.5806 229.91C61.7652 235.411 68.0109 238.789 73.5287 238.936C76.8046 239.026 80.0605 238.398 83.068 237.096C86.0755 235.795 88.7618 233.851 90.9384 231.401C93.115 228.951 94.7292 226.055 95.6677 222.915C96.6063 219.775 96.8465 216.468 96.3714 213.226H96.3225Z" fill="#A6A6C8"/>
<path d="M143.67 122.512C142.388 121.898 141.147 121.201 139.955 120.427C138.714 119.73 137.52 118.952 136.382 118.097C137.666 118.71 138.909 119.407 140.102 120.182C141.344 120.876 142.536 121.654 143.67 122.512Z" fill="#263238"/>
<path d="M182.811 86.0593C182.811 86.358 181.877 86.6024 180.72 86.6024C179.563 86.6024 178.624 86.3635 178.624 86.0593C178.624 85.7552 179.563 85.5162 180.72 85.5162C181.877 85.5162 182.811 85.7606 182.811 86.0593Z" fill="white"/>
<path d="M200.929 90.6105C201.005 90.7974 201.051 90.9955 201.064 91.197C201.136 91.7378 201.136 92.2856 201.064 92.8263C200.976 93.6329 200.733 94.4149 200.348 95.129C199.857 96.0104 199.138 96.7438 198.267 97.2526C197.399 97.7722 196.394 98.0199 195.384 97.964C194.562 97.9062 193.769 97.6388 193.081 97.1874C192.618 96.8862 192.22 96.4968 191.908 96.0414C191.785 95.8784 191.693 95.6944 191.636 95.4983C192.044 96.1063 192.568 96.6269 193.179 97.0299C193.848 97.4362 194.607 97.6712 195.389 97.7142C196.342 97.75 197.286 97.5085 198.105 97.019C198.931 96.5325 199.618 95.8402 200.098 95.0096C200.488 94.3268 200.748 93.5772 200.863 92.7992C200.954 92.0733 200.976 91.3405 200.929 90.6105Z" fill="#263238"/>
<path d="M209.678 93.8365C209.616 94.012 209.53 94.1783 209.423 94.3307C209.166 94.7686 208.873 95.1846 208.548 95.5744C208.07 96.1769 207.435 96.6355 206.713 96.8995C205.795 97.178 204.806 97.0884 203.954 96.6497C203.104 96.2395 202.393 95.5878 201.912 94.776C201.528 94.1213 201.249 93.4102 201.086 92.6688C200.975 92.1757 200.904 91.6744 200.874 91.1699C200.849 90.9897 200.849 90.8069 200.874 90.6268C200.929 90.6268 200.961 91.4197 201.276 92.6362C201.456 93.3473 201.744 94.0267 202.129 94.6511C202.595 95.4117 203.27 96.0224 204.073 96.4108C204.86 96.8177 205.773 96.9089 206.626 96.666C207.313 96.4261 207.924 96.0082 208.396 95.4549C209.233 94.4991 209.629 93.8039 209.678 93.8365Z" fill="#263238"/>
<path d="M204.04 97.9097C204.068 97.9097 203.894 98.2519 203.459 98.6483C202.88 99.165 202.158 99.496 201.389 99.5986C200.619 99.7012 199.836 99.5707 199.142 99.224C198.848 99.1108 198.588 98.9238 198.387 98.6809C198.414 98.6429 198.702 98.8547 199.223 99.0611C199.895 99.3381 200.628 99.4338 201.349 99.3384C202.069 99.2431 202.752 98.9602 203.329 98.518C203.796 98.1596 204.04 97.8771 204.04 97.9097Z" fill="#263238"/>
<g opacity="0.3">
<path opacity="0.3" d="M173.654 76.5877C173.654 76.5877 173.654 59.2575 175.365 58.9914C177.076 58.7253 186.064 70.9395 186.064 70.9395C186.064 70.9395 178.955 78.0269 173.654 76.5877Z" fill="#161616"/>
</g>
<path d="M186.857 70.7983C184.603 70.2552 181.676 70.668 179.433 71.2545C180.342 71.4552 181.162 71.9426 181.773 72.6448C178.129 73.8722 174.317 75.2028 171.721 78.0378L174.398 78.6406L184.543 77.1037L186.857 70.7983Z" fill="#A6A6C8"/>
<g opacity="0.3">
<path opacity="0.3" d="M203.905 71.2328C203.905 71.2328 213.963 57.1122 215.511 57.8889C217.059 58.6655 217.292 73.8288 217.292 73.8288C217.292 73.8288 207.386 75.4526 203.905 71.2328Z" fill="#161616"/>
</g>
<path d="M218.014 74.1492C216.499 72.4004 213.871 71.0373 211.704 70.2172C212.323 70.9042 212.704 71.7728 212.79 72.6937C209.113 71.5749 205.241 70.4453 201.477 71.2491L203.307 73.2966L212.458 77.9346L218.014 74.1492Z" fill="#A6A6C8"/>
<path d="M220.935 87.0703C221.919 82.8769 219.317 78.6801 215.123 77.6966C210.93 76.713 206.733 79.3151 205.75 83.5085C204.766 87.7019 207.368 91.8987 211.562 92.8822C215.755 93.8658 219.952 91.2637 220.935 87.0703Z" fill="white"/>
<path d="M221.137 85.2936C221.083 84.6575 220.985 84.026 220.843 83.4036C220.396 81.7142 219.394 80.2241 217.997 79.1729C216.973 78.399 215.772 77.8941 214.502 77.7043C213.233 77.5146 211.936 77.646 210.731 78.0867C209.309 78.61 208.072 79.5391 207.174 80.7587C206.203 82.0684 205.679 83.6554 205.679 85.2854C205.679 86.9155 206.203 88.5025 207.174 89.8122C207.627 90.4379 208.177 90.9878 208.803 91.4415C209.391 91.8871 210.045 92.2388 210.742 92.4842C212.03 92.9555 213.421 93.0755 214.771 92.8318C215.955 92.6187 217.071 92.1293 218.03 91.4034C219.425 90.3538 220.428 88.8658 220.876 87.1781C221.017 86.5557 221.115 85.9242 221.169 85.2882C221.177 85.3294 221.177 85.3718 221.169 85.4131C221.169 85.5163 221.169 85.6357 221.169 85.7824C221.169 85.9861 221.153 86.1895 221.12 86.3906C221.092 86.6655 221.043 86.9378 220.974 87.2053C220.803 87.9451 220.519 88.6541 220.132 89.3071C219.205 90.8953 217.751 92.1079 216.022 92.7332C214.293 93.3585 212.399 93.3569 210.671 92.7286C209.194 92.1985 207.908 91.2398 206.978 89.9751C205.973 88.618 205.431 86.9741 205.431 85.2854C205.431 83.5968 205.973 81.9529 206.978 80.5958C207.912 79.3353 209.196 78.3776 210.671 77.8423C212.003 77.3624 213.44 77.248 214.831 77.511C215.93 77.7256 216.971 78.1712 217.885 78.8181C218.798 79.465 219.564 80.2987 220.132 81.2638C220.52 81.9182 220.804 82.6291 220.974 83.371C221.044 83.6384 221.093 83.9107 221.12 84.1857C221.153 84.385 221.169 84.5866 221.169 84.7885C221.169 84.9351 221.169 85.0601 221.169 85.1578C221.168 85.2048 221.156 85.251 221.137 85.2936Z" fill="#263238"/>
<g opacity="0.4">
<path opacity="0.4" d="M222.956 164.868C220.251 168.471 216.336 170.978 211.932 171.928C211.388 172.043 210.737 172.081 210.438 171.624C210.139 171.168 210.438 170.538 210.764 170.109C212.393 167.73 213.892 165.254 215.652 162.967L216.01 162.5L220.512 163.961L222.956 164.868Z" fill="white"/>
</g>
<path d="M206.826 83.8543C207.527 81.0846 209.368 79.162 210.943 79.5584C212.518 79.9549 213.224 82.5238 212.524 85.2936C211.823 88.0633 209.982 89.9913 208.407 89.5895C206.832 89.1876 206.131 86.6296 206.826 83.8543Z" fill="#3E3E70"/>
<path d="M208.01 85.652C209.165 85.652 210.101 85.4113 210.101 85.1143C210.101 84.8174 209.165 84.5767 208.01 84.5767C206.856 84.5767 205.919 84.8174 205.919 85.1143C205.919 85.4113 206.856 85.652 208.01 85.652Z" fill="white"/>
<path d="M251.094 138.924C249.623 138.702 244.061 139.386 244.061 139.386L230.782 141.879L219.377 142.15L216.233 160.882C216.233 160.882 227.839 158.932 231.097 157.808C234.356 156.684 246.114 146.18 246.614 146.18C247.113 146.18 251.632 144.909 252.387 144.909L253.229 144.54C253.469 144.429 253.659 144.232 253.76 143.987C253.86 143.742 253.865 143.468 253.772 143.22C253.267 141.749 252.164 139.087 251.094 138.924Z" fill="#A6A6C8"/>
<g opacity="0.3">
<path opacity="0.3" d="M230.783 141.879C230.783 141.879 228.415 155.136 224.581 159.35L220.73 160.078L224.955 142.015L230.783 141.879Z" fill="#161616"/>
</g>
<path d="M220.513 160.431C224.428 154.24 227.665 144.29 226.253 137.078L227.703 140.88C227.854 136.709 227.233 132.546 225.873 128.6L228.648 132.163C227.486 126.574 225.292 119.742 222.213 114.958" fill="#A6A6C8"/>
<path d="M222.212 114.93C222.288 115.018 222.355 115.113 222.413 115.213C222.533 115.403 222.728 115.68 222.956 116.06C223.6 117.149 224.186 118.271 224.71 119.422C226.522 123.491 227.887 127.745 228.784 132.109L228.898 132.652L228.556 132.217C227.67 131.077 226.736 129.887 225.775 128.66L226.014 128.53C227.005 131.394 227.606 134.379 227.801 137.404C227.881 138.553 227.899 139.706 227.855 140.858V141.542L227.605 140.901C227.111 139.609 226.628 138.343 226.155 137.1L226.421 137.024C226.721 138.711 226.815 140.429 226.704 142.14C226.618 143.703 226.409 145.258 226.079 146.788C225.546 149.333 224.775 151.823 223.776 154.223C223.13 155.81 222.379 157.353 221.528 158.84C221.24 159.383 220.985 159.747 220.811 160.018L220.616 160.317C220.597 160.351 220.573 160.382 220.545 160.409C220.545 160.409 220.545 160.371 220.594 160.301L220.768 159.991C220.92 159.714 221.169 159.329 221.441 158.791C222.261 157.293 222.986 155.746 223.613 154.158C224.585 151.76 225.332 149.276 225.846 146.74C226.163 145.218 226.362 143.675 226.443 142.123C226.548 140.436 226.45 138.742 226.15 137.078L226.41 137.002C226.883 138.224 227.372 139.484 227.866 140.776L227.594 140.825C227.638 139.685 227.621 138.543 227.545 137.404C227.339 134.409 226.74 131.455 225.764 128.616L225.498 127.845L225.998 128.492L228.762 132.06L228.539 132.163C227.659 127.812 226.331 123.564 224.575 119.487C223.918 118.004 223.326 116.864 222.891 116.103C222.685 115.718 222.505 115.435 222.391 115.235C222.325 115.137 222.266 115.035 222.212 114.93Z" fill="#263238"/>
<g opacity="0.4">
<path opacity="0.4" d="M123.423 174.611C125.5 171.346 128.484 168.756 132.009 167.16C134.916 166.315 138.027 166.521 140.797 167.741C145.592 169.778 146.097 172.825 146.526 174.937L123.423 174.611Z" fill="white"/>
</g>
<path d="M135.409 169.408C135.939 169.323 136.477 169.301 137.011 169.343C138.332 169.341 139.634 169.65 140.813 170.245C141.455 170.59 142.012 171.074 142.442 171.662C142.784 172.149 143.014 172.706 143.116 173.292C143.182 173.687 143.169 174.091 143.078 174.481C143.057 174.627 143.003 174.766 142.92 174.888C143.006 174.37 143.006 173.842 142.92 173.324C142.799 172.775 142.564 172.257 142.23 171.804C141.808 171.255 141.275 170.802 140.666 170.473C139.525 169.906 138.279 169.585 137.006 169.528C136.472 169.52 135.939 169.48 135.409 169.408Z" fill="#263238"/>
<path d="M58.0881 180.205C58.0569 180.309 58.0112 180.408 57.9523 180.499L57.5124 181.297L55.8831 184.159L55.7256 184.425L55.6713 184.121C55.3937 182.513 55.6353 180.858 56.3611 179.396L56.5892 179.548L55.3455 180.938L53.1133 183.42L52.8418 183.719L52.8744 183.317C53.0325 181.435 53.5254 179.596 54.3299 177.886C54.5621 177.395 54.8233 176.918 55.1119 176.458C55.2036 176.287 55.3168 176.128 55.4487 175.985C55.3804 176.175 55.293 176.357 55.188 176.528C55.0142 176.86 54.7589 177.343 54.4874 177.979C53.7466 179.681 53.2933 181.494 53.1459 183.344L52.9124 183.247L55.1337 180.754L56.3556 179.396L57.0617 178.609L56.5837 179.554C55.8776 180.963 55.6271 182.557 55.8668 184.116L55.6605 184.078L57.3984 181.264L57.8926 180.499C57.9421 180.391 58.0081 180.292 58.0881 180.205Z" fill="#263238"/>
<path d="M80.035 208.636C79.8577 208.543 79.6903 208.432 79.5354 208.305L78.2048 207.306C77.086 206.453 75.5273 205.247 73.7622 203.868L73.9795 203.705C74.1859 204.188 74.4031 204.694 74.6203 205.209L75.9509 208.359L76.0704 208.636L75.788 208.533C74.3739 208.012 73.1956 206.997 72.4697 205.677C72.2636 205.306 72.1014 204.912 71.9863 204.503C71.9379 204.359 71.9087 204.21 71.8994 204.058C72.0979 204.587 72.3357 205.101 72.6109 205.595C73.3474 206.852 74.5 207.813 75.8695 208.311L75.7065 208.49L74.3542 205.351L73.6971 203.814L73.4853 203.309L73.9143 203.651C75.6685 205.041 77.2055 206.274 78.2971 207.165L79.5734 208.224C79.7439 208.341 79.8989 208.48 80.035 208.636Z" fill="#263238"/>
<path d="M98.1361 112.829C91.6189 115.544 80.4203 127.601 78.6172 133.336L82.7447 129.067C80.283 132.216 78.5466 135.869 77.6594 139.766C76.7722 143.663 76.7562 147.707 77.6125 151.611C77.9329 148.586 78.3565 146.522 79.7849 144.057C78.3022 148.429 79.0462 155.147 80.9525 159.356" fill="#A6A6C8"/>
<path d="M80.9636 159.372C80.9158 159.29 80.8741 159.205 80.8387 159.117C80.7681 158.948 80.6432 158.704 80.5182 158.367C80.1398 157.39 79.8331 156.386 79.6004 155.364C79.2323 153.758 79.0123 152.122 78.9433 150.476C78.8968 149.453 78.9222 148.427 79.0193 147.408C79.1134 146.263 79.3394 145.133 79.6927 144.04L79.8937 144.133C79.2571 145.216 78.7642 146.377 78.4273 147.587C78.0875 148.92 77.8569 150.279 77.7376 151.649L77.6561 152.431L77.4878 151.665C76.8663 148.922 76.683 146.097 76.9447 143.296C77.4148 138.079 79.3839 133.109 82.6146 128.986L82.8264 129.165L78.6934 133.434L78.2644 133.879L78.4653 133.303C79.1986 131.411 80.1871 129.627 81.4035 128.003C82.5386 126.433 83.7008 124.999 84.8522 123.691C86.86 121.402 89.0289 119.261 91.3422 117.282C92.8454 115.967 94.4671 114.795 96.1866 113.779C96.6429 113.506 97.1164 113.263 97.6041 113.051L97.9843 112.883C98.0256 112.861 98.0693 112.845 98.1146 112.834L97.9897 112.905L97.6258 113.095C97.1456 113.322 96.6795 113.577 96.23 113.86C94.5355 114.901 92.9362 116.09 91.4508 117.412C89.1603 119.402 87.0134 121.55 85.026 123.843C83.8854 125.151 82.7341 126.585 81.6099 128.149C80.4166 129.757 79.4448 131.518 78.7206 133.385L78.4979 133.249L82.6255 128.975L82.8373 129.16C79.6501 133.248 77.6996 138.162 77.2162 143.324C76.9487 146.093 77.1173 148.888 77.7159 151.606H77.466C77.5912 150.222 77.8291 148.851 78.1775 147.505C78.5268 146.277 79.0343 145.1 79.6873 144.002L80.2304 143.057L79.8774 144.095C79.5225 145.171 79.2929 146.284 79.1931 147.413C79.0891 148.423 79.0565 149.44 79.0953 150.454C79.1457 152.099 79.3475 153.735 79.6982 155.342C79.9157 156.361 80.2006 157.364 80.5508 158.346C80.6649 158.688 80.7844 158.938 80.8441 159.111C80.9038 159.285 80.9636 159.372 80.9636 159.372Z" fill="#263238"/>
<path d="M98.1365 165.189C98.1365 165.189 98.0822 165.156 97.9953 165.08C97.9084 165.004 97.7727 164.884 97.6097 164.722C97.2784 164.407 96.806 163.929 96.2411 163.288C94.678 161.523 93.334 159.575 92.2385 157.488L92.472 157.439C92.3422 159.025 92.4428 160.622 92.7707 162.18L92.8631 162.631L92.5372 162.305C90.2662 160.018 88.9547 156.951 88.8713 153.729L89.1374 153.767C88.5465 155.623 88.416 157.595 88.7573 159.513L88.9419 160.54L88.54 159.578C87.8074 157.83 87.3671 155.973 87.2366 154.082C87.2083 153.561 87.2083 153.039 87.2366 152.518C87.2366 152.339 87.2366 152.203 87.2366 152.111C87.231 152.064 87.231 152.017 87.2366 151.97C87.2521 152.15 87.2521 152.332 87.2366 152.513C87.2366 152.871 87.2637 153.398 87.3235 154.066C87.4988 155.937 87.9661 157.77 88.7084 159.497L88.4911 159.562C88.1192 157.608 88.2387 155.593 88.8387 153.697L89.0831 152.915V153.735C89.1747 156.883 90.4555 159.879 92.6675 162.12L92.434 162.245C92.11 160.661 92.0167 159.038 92.157 157.428L92.1951 157.004L92.3906 157.384C93.4667 159.465 94.7729 161.417 96.2846 163.206C96.8277 163.858 97.2893 164.347 97.5989 164.684C97.9084 165.02 98.1365 165.189 98.1365 165.189Z" fill="#263238"/>
<path d="M173.871 174.997C173.728 175.008 173.585 175.008 173.442 174.997L172.225 174.932L167.794 174.649L167.365 174.622L167.756 174.443C169.069 173.824 170.148 172.8 170.835 171.521L170.982 171.711L168.196 172.374L167.973 172.428L168.027 172.2C168.332 171.09 168.528 169.953 168.614 168.806C168.883 164.854 167.874 160.92 165.735 157.585C165.086 156.579 164.342 155.637 163.514 154.772L162.819 154.088C162.656 153.93 162.575 153.843 162.585 153.838C162.684 153.893 162.773 153.963 162.852 154.044C163.025 154.191 163.281 154.403 163.596 154.691C164.458 155.536 165.231 156.468 165.904 157.471C168.133 160.839 169.189 164.848 168.907 168.876C168.822 170.043 168.62 171.198 168.304 172.325L168.141 172.157L170.922 171.505L171.204 171.434L171.069 171.689C170.35 173.015 169.217 174.068 167.843 174.687L167.805 174.481L172.231 174.861L173.447 174.981C173.589 174.973 173.731 174.978 173.871 174.997Z" fill="#263238"/>
<path d="M210.302 109.646C210.281 109.715 210.25 109.781 210.21 109.842C210.14 109.966 210.042 110.151 209.901 110.385C209.493 111.054 209.047 111.7 208.565 112.318C206.881 114.475 204.816 116.305 202.471 117.716L202.151 117.912L202.275 117.559C202.638 116.552 202.801 115.484 202.753 114.414L203.014 114.48C201.949 116.277 200.442 117.773 198.637 118.824L198.354 118.993L198.436 118.672C198.767 117.336 199.087 116.06 199.386 114.871L199.603 114.985C198.357 116.329 196.841 117.397 195.155 118.118L194.873 118.238L195.041 117.983C195.614 117.111 196.061 116.162 196.367 115.164C196.475 114.816 196.54 114.539 196.589 114.355C196.607 114.259 196.633 114.164 196.665 114.072C196.67 114.171 196.66 114.27 196.638 114.366C196.606 114.556 196.557 114.833 196.464 115.191C196.191 116.214 195.764 117.19 195.199 118.086L195.085 117.95C196.732 117.213 198.21 116.146 199.43 114.816L199.766 114.447L199.647 114.93C199.359 116.125 199.044 117.401 198.718 118.732L198.517 118.58C200.274 117.548 201.744 116.091 202.791 114.344L203.03 113.947V114.409C203.074 115.518 202.901 116.625 202.52 117.668L202.33 117.505C204.657 116.119 206.722 114.334 208.429 112.231C209.064 111.455 209.515 110.803 209.819 110.352C209.968 110.108 210.129 109.873 210.302 109.646Z" fill="#263238"/>
<path d="M142.127 125.401C141.903 125.303 141.688 125.183 141.487 125.043C141.09 124.793 140.509 124.44 139.787 124.022C137.896 122.928 135.93 121.968 133.905 121.149C131.878 120.34 129.797 119.675 127.676 119.161C126.861 118.96 126.198 118.814 125.737 118.721C125.496 118.683 125.26 118.623 125.031 118.542C125.275 118.539 125.519 118.562 125.759 118.613C126.226 118.672 126.899 118.792 127.719 118.966C129.868 119.426 131.974 120.069 134.014 120.888C136.052 121.707 138.018 122.698 139.89 123.848C140.601 124.293 141.172 124.668 141.552 124.934C141.758 125.071 141.951 125.227 142.127 125.401Z" fill="#263238"/>
<path d="M172.748 77.4947C172.748 77.4947 172.78 77.4296 172.867 77.3264C172.988 77.1682 173.119 77.0177 173.258 76.8756C173.764 76.3455 174.325 75.8704 174.931 75.4581C176.95 74.112 179.211 73.1713 181.589 72.6883H181.649L181.573 72.9164C181.014 72.2669 180.309 71.7604 179.515 71.4392L179.205 71.3143L179.515 71.1839C181.198 70.4911 183.029 70.2369 184.837 70.4453C185.357 70.506 185.871 70.6095 186.374 70.7549C186.562 70.7995 186.744 70.865 186.917 70.9504C186.917 70.9939 186.151 70.7332 184.831 70.6191C183.056 70.4653 181.27 70.7468 179.629 71.4392V71.1839C180.469 71.516 181.215 72.0494 181.801 72.7372L181.948 72.911L181.72 72.9653H181.66C179.316 73.4479 177.079 74.3494 175.056 75.6265C174.235 76.183 173.463 76.808 172.748 77.4947Z" fill="#263238"/>
<path d="M202.661 71.059C202.661 71.059 202.732 71.0318 202.868 71.0047C203.003 70.9775 203.21 70.9341 203.476 70.9069C204.228 70.8232 204.985 70.8032 205.741 70.8472C208.249 70.9816 210.707 71.6072 212.975 72.6883L212.768 72.8186V72.6828C212.69 72.2372 212.526 71.8111 212.285 71.4283C212.068 71.0372 211.818 70.6625 211.595 70.2823L211.427 69.9891L211.753 70.0868C213.602 70.6225 215.306 71.5694 216.738 72.8566C217.151 73.2295 217.527 73.6404 217.862 74.084C217.99 74.2404 218.097 74.4119 218.183 74.5945C217.7 74.0159 217.177 73.4715 216.619 72.9652C215.18 71.7441 213.497 70.8442 211.682 70.3258L211.834 70.1248C212.051 70.4942 212.301 70.8635 212.529 71.2708C212.799 71.6826 212.984 72.1442 213.072 72.6285V72.7915V73.0304L212.85 72.9218C210.612 71.8596 208.199 71.2172 205.73 71.0264C204.984 70.966 204.234 70.9551 203.487 70.9938C203.214 71.0362 202.938 71.058 202.661 71.059Z" fill="#263238"/>
<g opacity="0.4">
<path opacity="0.4" d="M163.471 88.6119C166.306 89.3451 168.902 90.0076 171.813 89.8664C172.741 89.823 173.811 89.5895 174.235 88.7802C174.386 88.4038 174.42 87.9903 174.33 87.5944C174.241 87.1986 174.034 86.8394 173.735 86.5644C173.129 86.027 172.419 85.6187 171.65 85.3642L164.888 82.6487C164.09 85.0655 163.514 87.2161 163.471 88.6119Z" fill="white"/>
</g>
<g opacity="0.4">
<path opacity="0.4" d="M227.182 89.546C226.693 88.3132 226.997 92.2072 226.188 93.2554C225.317 94.2565 224.333 95.1532 223.255 95.9274C222.175 96.7033 221.273 97.7014 220.611 98.8547C220.068 99.9409 219.986 101.348 220.833 102.184C221.534 102.863 222.609 102.923 223.581 102.912C224.738 102.912 226.09 102.716 226.677 101.717C226.677 101.717 229.273 94.8032 227.182 89.546Z" fill="white"/>
</g>
<g opacity="0.4">
<path opacity="0.4" d="M220.523 130.371C218.552 126.113 215.282 122.224 210.856 120.649C206.43 119.074 200.814 120.475 198.484 124.549C197.42 126.6 196.998 128.924 197.273 131.218C197.553 133.497 198.018 135.749 198.664 137.952C200.353 144.616 202.433 151.97 202.96 158.829L217.232 162.908C219.948 156.765 222.696 150.454 223.076 143.747C223.332 139.147 222.456 134.553 220.523 130.371Z" fill="white"/>
</g>
<g opacity="0.4">
<path opacity="0.4" d="M138.635 135.09C140.134 138.436 123.428 154.479 111.594 156.477C110.6 156.646 109.422 156.722 108.721 156.021C108.021 155.321 108.113 153.849 108.83 152.963C109.547 152.078 110.622 151.638 111.654 151.193C116.65 149.021 120.343 145.621 124.004 141.596C127.664 137.572 130.814 131.978 129.951 126.596C129.951 126.596 136.484 130.3 138.635 135.09Z" fill="white"/>
</g>
<g opacity="0.4">
<path opacity="0.4" d="M227.937 174.997L232.51 169.332C232.51 169.332 239.353 169.235 241.199 172.319C241.46 172.663 241.674 173.039 241.835 173.438C241.996 173.947 242.116 174.469 242.193 174.997H227.937Z" fill="white"/>
</g>
<path d="M239.26 175.431C239.136 175.044 239.04 174.649 238.973 174.247C238.816 173.305 238.31 172.455 237.555 171.869C236.71 171.412 235.737 171.253 234.791 171.418C234.391 171.494 233.986 171.535 233.58 171.543C233.955 171.373 234.354 171.263 234.764 171.217C235.207 171.134 235.66 171.107 236.11 171.135C236.676 171.162 237.226 171.332 237.707 171.63C238.185 171.944 238.562 172.389 238.793 172.911C238.979 173.323 239.108 173.758 239.179 174.204C239.27 174.606 239.297 175.021 239.26 175.431Z" fill="#263238"/>
<g opacity="0.4">
<path opacity="0.4" d="M204.73 159.215C200.025 165.718 193.212 170.389 185.45 172.434C184.445 172.694 182.973 172.607 182.865 171.575C182.878 171.313 182.945 171.056 183.063 170.822C183.181 170.587 183.346 170.379 183.549 170.212C189.116 164.189 194.954 158.172 200.537 152.149L201.944 158.4L204.73 159.215Z" fill="white"/>
</g>
<g opacity="0.4">
<path opacity="0.4" d="M196.046 138.577C196.046 138.577 185.396 148.896 178.906 151.665C178.178 151.975 177.331 152.263 176.62 151.91C175.805 151.497 175.582 150.367 175.892 149.504C176.277 148.67 176.85 147.936 177.565 147.359C182.572 142.601 187.036 136.768 190.805 130.984C190.805 130.973 192.277 131.978 196.046 138.577Z" fill="white"/>
</g>
<g opacity="0.4">
<path opacity="0.4" d="M85.2106 235.97C87.0245 235.134 87.774 232.652 87.9858 230.664C88.2663 228.019 87.7745 225.348 86.5698 222.976C85.3651 220.604 83.4991 218.631 81.1974 217.297C78.8957 215.963 76.2567 215.323 73.5995 215.457C70.9423 215.59 68.3805 216.49 66.2239 218.048C66.2239 218.048 64.7793 221.426 64.1656 222.513C63.5519 223.599 58.5825 230.062 63.8886 235.069C69.1947 240.076 75.4566 238.985 77.3085 238.702C80.0946 238.312 82.7783 237.384 85.2106 235.97Z" fill="white"/>
</g>
<path d="M242.193 174.997C242.193 174.997 242.193 174.742 242.068 174.269C241.909 173.572 241.599 172.917 241.161 172.352C240.351 171.29 239.222 170.516 237.94 170.142C236.188 169.57 234.353 169.289 232.509 169.311H232.471L220.463 164.102L201.895 158.552L201.813 158.525V158.443C201.569 157.145 201.308 155.766 201.021 154.381C199.674 147.761 197.735 141.52 194.726 136.459C193.324 134.063 191.601 131.87 189.605 129.942C187.858 128.274 185.872 126.877 183.712 125.798C181.924 124.92 180.065 124.193 178.156 123.625C176.473 123.082 175.001 122.74 173.811 122.452L171.025 121.806L170.303 121.638L170.059 121.572C170.143 121.581 170.226 121.593 170.308 121.61L171.036 121.752C171.677 121.877 172.622 122.067 173.839 122.344C175.055 122.621 176.527 122.968 178.221 123.473C180.144 124.037 182.016 124.764 183.815 125.646C186.005 126.721 188.019 128.122 189.789 129.8C191.807 131.725 193.55 133.918 194.97 136.318C198.017 141.385 199.967 147.652 201.319 154.289C201.607 155.679 201.862 157.058 202.112 158.356L202.014 158.248L220.572 163.831L232.52 169.11H232.482C234.352 169.092 236.212 169.39 237.984 169.99C239.289 170.381 240.432 171.185 241.242 172.281C241.681 172.864 241.983 173.538 242.128 174.253C242.177 174.498 242.199 174.747 242.193 174.997Z" fill="#263238"/>
<g opacity="0.3">
<path opacity="0.3" d="M145.766 165.77C144.738 164.715 143.501 163.886 142.136 163.334C140.77 162.783 139.304 162.521 137.832 162.565C139.921 160.127 141.435 157.251 142.264 154.149C143.092 151.047 143.212 147.798 142.616 144.643C142.077 141.959 141.016 139.408 139.494 137.132C140.297 140.077 140.553 143.143 140.248 146.18C139.65 153.573 136.997 160.651 132.591 166.617C135.274 166.188 139.255 166.829 142.367 168.246C143.451 168.772 144.391 169.554 145.106 170.523C145.821 171.493 146.29 172.622 146.472 173.813L146.695 175.035L148.661 174.937C148.905 172.01 147.798 167.904 145.766 165.77Z" fill="#161616"/>
</g>
<g opacity="0.4">
<path opacity="0.4" d="M118.171 124.087C118.171 124.087 113.772 123.598 105.805 125.781C105.262 125.928 100.483 130.181 98.2395 132.804C97.5498 133.602 96.8492 134.58 97.0284 135.617C97.2456 136.861 98.6903 137.572 99.9448 137.431C101.199 137.29 102.286 136.524 103.307 135.802C108.265 132.212 113.419 127.965 118.171 124.103" fill="white"/>
</g>
<path d="M85.4771 174.915H85.7812H86.6719H90.1097L102.91 174.877L146.527 174.845L146.391 175.002C146.298 174.353 146.171 173.71 146.011 173.074C145.83 172.443 145.565 171.838 145.223 171.277C144.535 170.126 143.535 169.194 142.339 168.588C139.837 167.408 137.112 166.772 134.345 166.726C133.718 166.718 133.091 166.762 132.471 166.856L132.129 166.91L132.335 166.628C135.358 162.529 137.569 157.891 138.853 152.963C139.455 150.629 139.843 148.244 140.009 145.838C140.197 143.535 140.078 141.218 139.656 138.946C139.256 136.791 138.425 134.739 137.212 132.912C136.054 131.201 134.592 129.716 132.9 128.53C129.844 126.389 126.328 124.994 122.636 124.456C119.6 124.05 116.526 124.024 113.485 124.38C110.796 124.674 108.504 125.113 106.647 125.499C104.79 125.885 103.345 126.227 102.367 126.449L101.281 126.705L100.901 126.781L101.276 126.678L102.362 126.395C103.334 126.156 104.768 125.803 106.625 125.396C108.483 124.989 110.78 124.538 113.474 124.223C116.53 123.85 119.621 123.863 122.674 124.261C126.394 124.781 129.941 126.165 133.031 128.301C133.867 128.898 134.655 129.559 135.388 130.278C136.137 131.033 136.814 131.857 137.408 132.739C138.645 134.589 139.495 136.671 139.906 138.859C140.333 141.152 140.457 143.491 140.276 145.816C139.751 153.389 137.076 160.654 132.564 166.758L132.428 166.536C133.064 166.442 133.707 166.398 134.35 166.405C137.17 166.449 139.947 167.095 142.497 168.301C143.737 168.93 144.775 169.898 145.489 171.092C145.841 171.676 146.116 172.302 146.309 172.955C146.472 173.603 146.599 174.259 146.69 174.921V175.084H146.527L102.91 175.019L90.1097 174.964L86.6719 174.937H85.7812L85.4771 174.915Z" fill="#263238"/>
<path d="M193.923 93.8908C193.923 93.9669 184.19 95.4224 172.166 97.1494C160.142 98.8765 150.382 100.207 150.372 100.126C150.361 100.044 160.098 98.594 172.128 96.867C184.158 95.1399 193.912 93.8094 193.923 93.8908Z" fill="#263238"/>
<path d="M194.966 95.0204C194.852 95.0715 194.734 95.1115 194.613 95.1399L193.592 95.4332C192.701 95.683 191.419 96.0252 189.79 96.4325C186.591 97.2526 182.149 98.3008 177.212 99.3163C172.275 100.332 167.795 101.103 164.531 101.646C162.901 101.901 161.576 102.097 160.658 102.189L159.605 102.325C159.482 102.344 159.359 102.353 159.235 102.352C159.351 102.31 159.471 102.281 159.594 102.265L160.642 102.081L164.498 101.424C167.757 100.88 172.237 100.044 177.174 99.0339C182.111 98.0238 186.548 97.0027 189.763 96.2316L193.565 95.3192L194.596 95.0802C194.717 95.0453 194.841 95.0252 194.966 95.0204Z" fill="#263238"/>
<path d="M237.441 93.8962C237.441 93.9777 230.245 93.8962 221.37 93.6573C212.496 93.4183 205.311 93.2119 205.311 93.1142C205.311 93.0164 212.507 93.1467 221.381 93.3586C230.255 93.5704 237.441 93.8202 237.441 93.8962Z" fill="#263238"/>
<path d="M231.961 99.3381C231.961 99.4195 226.351 98.4419 219.47 97.1657C212.589 95.8894 207.006 94.7869 207.022 94.7109C207.038 94.6348 212.632 95.607 219.513 96.8833C226.394 98.1595 231.977 99.262 231.961 99.3381Z" fill="#263238"/>
<path d="M253.207 143.497C252.936 143.213 252.692 142.904 252.479 142.574C251.954 141.807 251.191 141.234 250.307 140.945C249.4 140.792 248.468 140.973 247.684 141.455C247.352 141.662 247.005 141.843 246.646 141.998C246.919 141.712 247.236 141.471 247.586 141.287C247.956 141.061 248.352 140.878 248.765 140.744C249.291 140.574 249.855 140.551 250.394 140.679C251.33 140.984 252.124 141.617 252.631 142.46C252.873 142.775 253.067 143.125 253.207 143.497Z" fill="#263238"/>
<g opacity="0.4">
<path opacity="0.4" d="M239.651 140.206C239.375 143.77 238.175 147.201 236.17 150.161C235.274 148.934 235.046 147.337 235.035 145.816C235.106 144.251 235.088 142.682 234.98 141.119L239.651 140.206Z" fill="white"/>
</g>
<path d="M201.7 87.1781C201.7 87.265 200.7 87.1781 199.495 87.2976C198.289 87.4171 197.322 87.694 197.322 87.618C197.988 87.2463 198.733 87.0396 199.495 87.0152C200.232 86.9003 200.987 86.9561 201.7 87.1781Z" fill="white"/>
<path d="M171.351 65.8018C171.327 66.2869 171.257 66.7686 171.145 67.241C170.971 68.2186 170.77 69.4134 170.547 70.6897C170.325 71.966 170.162 73.1608 170.004 74.1438C169.957 74.6263 169.87 75.1041 169.744 75.5721C169.711 75.088 169.731 74.6018 169.803 74.1221C169.885 73.226 170.037 71.9931 170.254 70.6408C170.471 69.2885 170.727 68.0774 170.938 67.203C171.026 66.7227 171.165 66.2531 171.351 65.8018Z" fill="white"/>
<path d="M210.395 60.7836C209.439 62.2219 208.405 63.607 207.299 64.9329C206.261 66.3182 205.148 67.6454 203.964 68.9083C204.928 67.4712 205.966 66.0862 207.076 64.7591C208.111 63.3756 209.218 62.0486 210.395 60.7836Z" fill="white"/>
<path d="M198.43 102.912C197.486 103.111 196.507 103.062 195.587 102.77C194.668 102.477 193.84 101.952 193.184 101.244C193.965 101.752 194.799 102.173 195.671 102.499C196.573 102.736 197.499 102.875 198.43 102.912Z" fill="white"/>
<path d="M155.884 115.702C155.851 115.778 154.689 115.3 153.222 114.827C151.756 114.355 150.534 114.056 150.55 113.975C151.494 114.03 152.424 114.228 153.309 114.561C154.221 114.807 155.089 115.192 155.884 115.702Z" fill="white"/>
<path d="M160.593 115.224C160.566 115.3 158.866 114.778 156.759 114.192C154.651 113.605 152.93 113.171 152.957 113.106C153.348 113.109 153.737 113.164 154.114 113.269C154.82 113.41 155.786 113.638 156.829 113.931C157.872 114.224 158.833 114.534 159.512 114.778C159.89 114.878 160.254 115.028 160.593 115.224Z" fill="white"/>
<path d="M85.645 125.228C87.4687 123.474 89.4201 121.858 91.4833 120.394C90.605 121.306 89.6592 122.15 88.6538 122.919C87.7117 123.765 86.7058 124.537 85.645 125.228Z" fill="white"/>
<path d="M84.0698 132.06C84.263 131.521 84.5124 131.004 84.8139 130.517C85.4864 129.313 86.2394 128.155 87.0677 127.052C87.9023 125.949 88.8094 124.902 89.7832 123.919C90.1679 123.496 90.5936 123.112 91.054 122.773C90.71 123.228 90.3344 123.658 89.9298 124.06C89.2238 124.836 88.3005 125.939 87.3175 127.226C86.3345 128.513 85.5633 129.724 85.0094 130.62C84.7248 131.118 84.411 131.599 84.0698 132.06Z" fill="white"/>
<path d="M95.2095 158.492C94.0285 156.945 93.3059 155.097 93.124 153.159C93.2055 153.159 93.4716 154.403 94.0527 155.874C94.6338 157.346 95.2855 158.449 95.2095 158.492Z" fill="white"/>
<path d="M100.113 163.559C99.7385 163.24 99.4047 162.875 99.1194 162.473C98.3846 161.515 97.7426 160.49 97.2023 159.41C96.6617 158.331 96.2235 157.204 95.8934 156.043C95.7315 155.569 95.6311 155.076 95.5947 154.577C95.7867 155.035 95.95 155.505 96.0835 155.983C96.8431 158.246 97.9181 160.391 99.2769 162.354C99.5806 162.738 99.86 163.14 100.113 163.559Z" fill="white"/>
<path d="M61.9824 165.145C62.339 164.878 62.73 164.661 63.1447 164.499C65.0896 163.605 67.1619 163.018 69.2871 162.761C69.7241 162.682 70.1698 162.662 70.6122 162.701C70.1878 162.824 69.7535 162.909 69.3142 162.956C68.5159 163.098 67.4134 163.326 66.224 163.663C65.2064 163.952 64.204 164.293 63.2207 164.684C62.8214 164.871 62.4072 165.026 61.9824 165.145Z" fill="white"/>
<path d="M60.8906 168.501C61.1954 168.086 61.5617 167.72 61.9768 167.415C63.8766 165.83 66.1875 164.817 68.6406 164.493C69.1406 164.403 69.6511 164.387 70.1559 164.445C70.1559 164.488 69.5802 164.531 68.6678 164.694C67.4802 164.911 66.3213 165.263 65.2137 165.743C64.1069 166.229 63.0607 166.843 62.0963 167.573C61.3414 168.138 60.9232 168.534 60.8906 168.501Z" fill="white"/>
<path d="M168.837 150.34C168.052 149.26 167.348 148.124 166.73 146.941C166.025 145.804 165.403 144.619 164.867 143.394C166.35 145.614 167.677 147.935 168.837 150.34Z" fill="white"/>
<path d="M169.711 155.956C169.668 155.956 169.396 155.326 168.886 154.327C168.221 153.007 167.462 151.736 166.616 150.525C165.758 149.318 164.814 148.174 163.791 147.103C163.009 146.278 162.488 145.8 162.515 145.767C162.542 145.735 162.673 145.854 162.922 146.055C163.172 146.256 163.52 146.566 163.933 146.962C166.087 149.045 167.828 151.516 169.065 154.245C169.298 154.788 169.472 155.196 169.575 155.5C169.643 155.644 169.689 155.798 169.711 155.956Z" fill="white"/>
<path d="M195.008 104.905C194.185 104.97 193.357 104.857 192.581 104.574C191.773 104.377 191.019 104.007 190.37 103.487C190.408 103.417 191.38 103.906 192.662 104.286C193.944 104.666 195.019 104.796 195.008 104.905Z" fill="white"/>
<path d="M187.949 44.6221C188.998 43.4932 190.264 42.5889 191.673 41.9637C193.081 41.3386 194.601 41.0057 196.142 40.9851C197.682 40.9646 199.211 41.2568 200.636 41.8441C202.06 42.4314 203.35 43.3016 204.429 44.4021C206.529 46.5221 209.809 43.2721 207.709 41.1521C206.199 39.6307 204.401 38.4267 202.419 37.6109C200.437 36.7951 198.312 36.3839 196.169 36.4016C194.026 36.4193 191.908 36.8655 189.94 37.714C187.972 38.5624 186.193 39.796 184.709 41.3421C182.659 43.4921 185.909 46.7821 187.969 44.6221H187.949Z" fill="#3E3E70"/>
<path d="M173.989 25.5221C180.239 20.1221 187.699 16.7221 196.049 16.7021C204.385 16.5831 212.451 19.6522 218.599 25.2821C220.759 27.2821 224.049 24.0721 221.879 22.0321C214.871 15.5409 205.652 11.9649 196.099 12.0321C186.489 12.0321 177.949 16.0321 170.759 22.2021C168.509 24.1521 171.759 27.4221 174.019 25.4821L173.989 25.5221Z" fill="#3E3E70"/>
<path d="M179.499 36.0921C181.583 33.7666 184.126 31.8981 186.968 30.6044C189.81 29.3108 192.889 28.6202 196.011 28.576C199.133 28.5318 202.231 29.1351 205.108 30.3479C207.985 31.5606 210.58 33.3564 212.729 35.6221C214.809 37.7521 218.089 34.5021 216.009 32.3621C213.431 29.6678 210.327 27.5318 206.89 26.0863C203.453 24.6409 199.755 23.9168 196.026 23.959C192.298 24.0011 188.617 24.8087 185.214 26.3316C181.81 27.8545 178.755 30.0602 176.239 32.8121C174.239 34.9921 177.469 38.2821 179.499 36.0921Z" fill="#3E3E70"/>
<path d="M234.992 16.8097C236.205 9.95184 231.628 3.40914 224.771 2.19621C217.913 0.983282 211.37 5.55943 210.157 12.4173C208.944 19.2752 213.52 25.8178 220.378 27.0308C227.236 28.2437 233.779 23.6676 234.992 16.8097Z" fill="#C44540"/>
<path d="M227.772 11.0875L225.983 9.29849L217.971 17.31L219.76 19.099L227.772 11.0875Z" fill="white"/>
<path d="M219.765 9.28921L217.976 11.0782L225.987 19.0897L227.776 17.3007L219.765 9.28921Z" fill="white"/>
<path d="M19.2217 149.734L20.6162 153.215L22.0107 149.734H22.7402V154H22.1777V152.339L22.2305 150.546L20.8301 154H20.3994L19.002 150.555L19.0576 152.339V154H18.4951V149.734H19.2217ZM25.6055 154C25.5742 153.938 25.5488 153.826 25.5293 153.666C25.2773 153.928 24.9766 154.059 24.627 154.059C24.3145 154.059 24.0576 153.971 23.8564 153.795C23.6572 153.617 23.5576 153.393 23.5576 153.121C23.5576 152.791 23.6826 152.535 23.9326 152.354C24.1846 152.17 24.5381 152.078 24.9932 152.078H25.5205V151.829C25.5205 151.64 25.4639 151.489 25.3506 151.378C25.2373 151.265 25.0703 151.208 24.8496 151.208C24.6562 151.208 24.4941 151.257 24.3633 151.354C24.2324 151.452 24.167 151.57 24.167 151.709H23.6221C23.6221 151.551 23.6777 151.398 23.7891 151.252C23.9023 151.104 24.0547 150.986 24.2461 150.9C24.4395 150.814 24.6514 150.771 24.8818 150.771C25.2471 150.771 25.5332 150.863 25.7402 151.047C25.9473 151.229 26.0547 151.479 26.0625 151.8V153.259C26.0625 153.55 26.0996 153.781 26.1738 153.953V154H25.6055ZM24.7061 153.587C24.876 153.587 25.0371 153.543 25.1895 153.455C25.3418 153.367 25.4521 153.253 25.5205 153.112V152.462H25.0957C24.4316 152.462 24.0996 152.656 24.0996 153.045C24.0996 153.215 24.1562 153.348 24.2695 153.443C24.3828 153.539 24.5283 153.587 24.7061 153.587ZM27.4219 153.558H29.2764V154H26.7598V153.602L28.5088 151.278H26.7861V150.83H29.1885V151.214L27.4219 153.558ZM30.4775 154H29.9355V149.5H30.4775V154ZM32.6631 154.059C32.2334 154.059 31.8838 153.918 31.6143 153.637C31.3447 153.354 31.21 152.976 31.21 152.503V152.403C31.21 152.089 31.2695 151.809 31.3887 151.562C31.5098 151.314 31.6777 151.121 31.8926 150.982C32.1094 150.842 32.3438 150.771 32.5957 150.771C33.0078 150.771 33.3281 150.907 33.5566 151.179C33.7852 151.45 33.8994 151.839 33.8994 152.345V152.57H31.752C31.7598 152.883 31.8506 153.136 32.0244 153.329C32.2002 153.521 32.4229 153.616 32.6924 153.616C32.8838 153.616 33.0459 153.577 33.1787 153.499C33.3115 153.421 33.4277 153.317 33.5273 153.188L33.8584 153.446C33.5928 153.854 33.1943 154.059 32.6631 154.059ZM32.5957 151.217C32.377 151.217 32.1934 151.297 32.0449 151.457C31.8965 151.615 31.8047 151.838 31.7695 152.125H33.3574V152.084C33.3418 151.809 33.2676 151.596 33.1348 151.445C33.002 151.293 32.8223 151.217 32.5957 151.217ZM35.042 150.83L35.0596 151.229C35.3018 150.924 35.6182 150.771 36.0088 150.771C36.6787 150.771 37.0166 151.149 37.0225 151.905V154H36.4805V151.902C36.4785 151.674 36.4258 151.505 36.3223 151.396C36.2207 151.286 36.0615 151.231 35.8447 151.231C35.6689 151.231 35.5146 151.278 35.3818 151.372C35.249 151.466 35.1455 151.589 35.0713 151.741V154H34.5293V150.83H35.042ZM38.4287 154H37.8838V150.83H38.4287V154ZM38.4346 149.503H39.0908L38.3057 150.364H37.8691L38.4346 149.503ZM42.6562 153.159C42.6562 153.013 42.6006 152.899 42.4893 152.819C42.3799 152.737 42.1875 152.667 41.9121 152.608C41.6387 152.55 41.4209 152.479 41.2588 152.397C41.0986 152.315 40.9795 152.218 40.9014 152.104C40.8252 151.991 40.7871 151.856 40.7871 151.7C40.7871 151.44 40.8965 151.221 41.1152 151.041C41.3359 150.861 41.6172 150.771 41.959 150.771C42.3184 150.771 42.6094 150.864 42.832 151.05C43.0566 151.235 43.1689 151.473 43.1689 151.762H42.624C42.624 151.613 42.5605 151.485 42.4336 151.378C42.3086 151.271 42.1504 151.217 41.959 151.217C41.7617 151.217 41.6074 151.26 41.4961 151.346C41.3848 151.432 41.3291 151.544 41.3291 151.683C41.3291 151.813 41.3809 151.912 41.4844 151.979C41.5879 152.045 41.7744 152.108 42.0439 152.169C42.3154 152.229 42.5352 152.302 42.7031 152.386C42.8711 152.47 42.9951 152.571 43.0752 152.69C43.1572 152.808 43.1982 152.951 43.1982 153.121C43.1982 153.404 43.085 153.632 42.8584 153.804C42.6318 153.974 42.3379 154.059 41.9766 154.059C41.7227 154.059 41.498 154.014 41.3027 153.924C41.1074 153.834 40.9541 153.709 40.8428 153.549C40.7334 153.387 40.6787 153.212 40.6787 153.024H41.2207C41.2305 153.206 41.3027 153.351 41.4375 153.458C41.5742 153.563 41.7539 153.616 41.9766 153.616C42.1816 153.616 42.3457 153.575 42.4688 153.493C42.5938 153.409 42.6562 153.298 42.6562 153.159ZM46.6641 153.616C46.8574 153.616 47.0264 153.558 47.1709 153.44C47.3154 153.323 47.3955 153.177 47.4111 153.001H47.9238C47.9141 153.183 47.8516 153.355 47.7363 153.52C47.6211 153.684 47.4668 153.814 47.2734 153.912C47.082 154.01 46.8789 154.059 46.6641 154.059C46.2324 154.059 45.8887 153.915 45.6328 153.628C45.3789 153.339 45.252 152.944 45.252 152.444V152.354C45.252 152.045 45.3086 151.771 45.4219 151.53C45.5352 151.29 45.6973 151.104 45.9082 150.971C46.1211 150.838 46.3721 150.771 46.6611 150.771C47.0166 150.771 47.3115 150.878 47.5459 151.091C47.7822 151.304 47.9082 151.58 47.9238 151.92H47.4111C47.3955 151.715 47.3174 151.547 47.1768 151.416C47.0381 151.283 46.8662 151.217 46.6611 151.217C46.3857 151.217 46.1719 151.316 46.0195 151.516C45.8691 151.713 45.7939 151.999 45.7939 152.374V152.477C45.7939 152.842 45.8691 153.123 46.0195 153.32C46.1699 153.518 46.3848 153.616 46.6641 153.616ZM46.5381 149.998L46.9775 149.5H47.4463V149.529L46.7021 150.332H46.3711L45.6357 149.529V149.5H46.0957L46.5381 149.998ZM49.1221 154H48.5801V149.5H49.1221V154ZM49.8486 152.386C49.8486 152.075 49.9092 151.796 50.0303 151.548C50.1533 151.3 50.3232 151.108 50.54 150.974C50.7588 150.839 51.0078 150.771 51.2871 150.771C51.7188 150.771 52.0674 150.921 52.333 151.22C52.6006 151.519 52.7344 151.916 52.7344 152.412V152.45C52.7344 152.759 52.6748 153.036 52.5557 153.282C52.4385 153.526 52.2695 153.717 52.0488 153.854C51.8301 153.99 51.5781 154.059 51.293 154.059C50.8633 154.059 50.5146 153.909 50.2471 153.61C49.9814 153.312 49.8486 152.916 49.8486 152.424V152.386ZM50.3936 152.45C50.3936 152.802 50.4746 153.084 50.6367 153.297C50.8008 153.51 51.0195 153.616 51.293 153.616C51.5684 153.616 51.7871 153.509 51.9492 153.294C52.1113 153.077 52.1924 152.774 52.1924 152.386C52.1924 152.038 52.1094 151.757 51.9434 151.542C51.7793 151.325 51.5605 151.217 51.2871 151.217C51.0195 151.217 50.8037 151.323 50.6396 151.536C50.4756 151.749 50.3936 152.054 50.3936 152.45ZM54.4131 153.265L55.1982 150.83H55.752L54.6152 154H54.2021L53.0537 150.83H53.6074L54.4131 153.265ZM57.5479 154.059C57.1182 154.059 56.7686 153.918 56.499 153.637C56.2295 153.354 56.0947 152.976 56.0947 152.503V152.403C56.0947 152.089 56.1543 151.809 56.2734 151.562C56.3945 151.314 56.5625 151.121 56.7773 150.982C56.9941 150.842 57.2285 150.771 57.4805 150.771C57.8926 150.771 58.2129 150.907 58.4414 151.179C58.6699 151.45 58.7842 151.839 58.7842 152.345V152.57H56.6367C56.6445 152.883 56.7354 153.136 56.9092 153.329C57.085 153.521 57.3076 153.616 57.5771 153.616C57.7686 153.616 57.9307 153.577 58.0635 153.499C58.1963 153.421 58.3125 153.317 58.4121 153.188L58.7432 153.446C58.4775 153.854 58.0791 154.059 57.5479 154.059ZM57.4805 151.217C57.2617 151.217 57.0781 151.297 56.9297 151.457C56.7812 151.615 56.6895 151.838 56.6543 152.125H58.2422V152.084C58.2266 151.809 58.1523 151.596 58.0195 151.445C57.8867 151.293 57.707 151.217 57.4805 151.217ZM57.4746 149.998L57.9141 149.5H58.3828V149.529L57.6387 150.332H57.3076L56.5723 149.529V149.5H57.0322L57.4746 149.998ZM60.2988 152.532L59.959 152.887V154H59.417V149.5H59.959V152.222L60.249 151.873L61.2363 150.83H61.8955L60.6621 152.154L62.0391 154H61.4033L60.2988 152.532ZM63.7119 154.059C63.2822 154.059 62.9326 153.918 62.6631 153.637C62.3936 153.354 62.2588 152.976 62.2588 152.503V152.403C62.2588 152.089 62.3184 151.809 62.4375 151.562C62.5586 151.314 62.7266 151.121 62.9414 150.982C63.1582 150.842 63.3926 150.771 63.6445 150.771C64.0566 150.771 64.377 150.907 64.6055 151.179C64.834 151.45 64.9482 151.839 64.9482 152.345V152.57H62.8008C62.8086 152.883 62.8994 153.136 63.0732 153.329C63.249 153.521 63.4717 153.616 63.7412 153.616C63.9326 153.616 64.0947 153.577 64.2275 153.499C64.3604 153.421 64.4766 153.317 64.5762 153.188L64.9072 153.446C64.6416 153.854 64.2432 154.059 63.7119 154.059ZM63.6445 151.217C63.4258 151.217 63.2422 151.297 63.0938 151.457C62.9453 151.615 62.8535 151.838 62.8184 152.125H64.4062V152.084C64.3906 151.809 64.3164 151.596 64.1836 151.445C64.0508 151.293 63.8711 151.217 63.6445 151.217ZM66.0879 150.83L66.1025 151.182C66.335 150.908 66.6484 150.771 67.043 150.771C67.4863 150.771 67.7881 150.941 67.9482 151.281C68.0537 151.129 68.1904 151.006 68.3584 150.912C68.5283 150.818 68.7285 150.771 68.959 150.771C69.6543 150.771 70.0078 151.14 70.0195 151.876V154H69.4775V151.908C69.4775 151.682 69.4258 151.513 69.3223 151.401C69.2188 151.288 69.0449 151.231 68.8008 151.231C68.5996 151.231 68.4326 151.292 68.2998 151.413C68.167 151.532 68.0898 151.693 68.0684 151.896V154H67.5234V151.923C67.5234 151.462 67.2979 151.231 66.8467 151.231C66.4912 151.231 66.248 151.383 66.1172 151.686V154H65.5752V150.83H66.0879Z" fill="white"/>
<path d="M31.2822 135.734H31.8477V138.755C31.8477 139.163 31.7246 139.482 31.4785 139.713C31.2344 139.943 30.9082 140.059 30.5 140.059C30.0762 140.059 29.7461 139.95 29.5098 139.733C29.2734 139.517 29.1553 139.213 29.1553 138.822H29.7178C29.7178 139.066 29.7842 139.257 29.917 139.394C30.0518 139.53 30.2461 139.599 30.5 139.599C30.7324 139.599 30.9199 139.525 31.0625 139.379C31.207 139.232 31.2803 139.027 31.2822 138.764V135.734ZM34.6777 140C34.6465 139.938 34.6211 139.826 34.6016 139.666C34.3496 139.928 34.0488 140.059 33.6992 140.059C33.3867 140.059 33.1299 139.971 32.9287 139.795C32.7295 139.617 32.6299 139.393 32.6299 139.121C32.6299 138.791 32.7549 138.535 33.0049 138.354C33.2568 138.17 33.6104 138.078 34.0654 138.078H34.5928V137.829C34.5928 137.64 34.5361 137.489 34.4229 137.378C34.3096 137.265 34.1426 137.208 33.9219 137.208C33.7285 137.208 33.5664 137.257 33.4355 137.354C33.3047 137.452 33.2393 137.57 33.2393 137.709H32.6943C32.6943 137.551 32.75 137.398 32.8613 137.252C32.9746 137.104 33.127 136.986 33.3184 136.9C33.5117 136.814 33.7236 136.771 33.9541 136.771C34.3193 136.771 34.6055 136.863 34.8125 137.047C35.0195 137.229 35.127 137.479 35.1348 137.8V139.259C35.1348 139.55 35.1719 139.781 35.2461 139.953V140H34.6777ZM33.7783 139.587C33.9482 139.587 34.1094 139.543 34.2617 139.455C34.4141 139.367 34.5244 139.253 34.5928 139.112V138.462H34.168C33.5039 138.462 33.1719 138.656 33.1719 139.045C33.1719 139.215 33.2285 139.348 33.3418 139.443C33.4551 139.539 33.6006 139.587 33.7783 139.587ZM36.8691 138.532L36.5293 138.887V140H35.9873V135.5H36.5293V138.222L36.8193 137.873L37.8066 136.83H38.4658L37.2324 138.154L38.6094 140H37.9736L36.8691 138.532ZM42.3594 139.159C42.3594 139.013 42.3037 138.899 42.1924 138.819C42.083 138.737 41.8906 138.667 41.6152 138.608C41.3418 138.55 41.124 138.479 40.9619 138.397C40.8018 138.315 40.6826 138.218 40.6045 138.104C40.5283 137.991 40.4902 137.856 40.4902 137.7C40.4902 137.44 40.5996 137.221 40.8184 137.041C41.0391 136.861 41.3203 136.771 41.6621 136.771C42.0215 136.771 42.3125 136.864 42.5352 137.05C42.7598 137.235 42.8721 137.473 42.8721 137.762H42.3271C42.3271 137.613 42.2637 137.485 42.1367 137.378C42.0117 137.271 41.8535 137.217 41.6621 137.217C41.4648 137.217 41.3105 137.26 41.1992 137.346C41.0879 137.432 41.0322 137.544 41.0322 137.683C41.0322 137.813 41.084 137.912 41.1875 137.979C41.291 138.045 41.4775 138.108 41.7471 138.169C42.0186 138.229 42.2383 138.302 42.4062 138.386C42.5742 138.47 42.6982 138.571 42.7783 138.69C42.8604 138.808 42.9014 138.951 42.9014 139.121C42.9014 139.404 42.7881 139.632 42.5615 139.804C42.335 139.974 42.041 140.059 41.6797 140.059C41.4258 140.059 41.2012 140.014 41.0059 139.924C40.8105 139.834 40.6572 139.709 40.5459 139.549C40.4365 139.387 40.3818 139.212 40.3818 139.024H40.9238C40.9336 139.206 41.0059 139.351 41.1406 139.458C41.2773 139.563 41.457 139.616 41.6797 139.616C41.8848 139.616 42.0488 139.575 42.1719 139.493C42.2969 139.409 42.3594 139.298 42.3594 139.159ZM44.1494 137.214C44.3896 136.919 44.7021 136.771 45.0869 136.771C45.7568 136.771 46.0947 137.149 46.1006 137.905V140H45.5586V137.902C45.5566 137.674 45.5039 137.505 45.4004 137.396C45.2988 137.286 45.1396 137.231 44.9229 137.231C44.7471 137.231 44.5928 137.278 44.46 137.372C44.3271 137.466 44.2236 137.589 44.1494 137.741V140H43.6074V135.5H44.1494V137.214ZM46.7686 138.386C46.7686 138.075 46.8291 137.796 46.9502 137.548C47.0732 137.3 47.2432 137.108 47.46 136.974C47.6787 136.839 47.9277 136.771 48.207 136.771C48.6387 136.771 48.9873 136.921 49.2529 137.22C49.5205 137.519 49.6543 137.916 49.6543 138.412V138.45C49.6543 138.759 49.5947 139.036 49.4756 139.282C49.3584 139.526 49.1895 139.717 48.9688 139.854C48.75 139.99 48.498 140.059 48.2129 140.059C47.7832 140.059 47.4346 139.909 47.167 139.61C46.9014 139.312 46.7686 138.916 46.7686 138.424V138.386ZM47.3135 138.45C47.3135 138.802 47.3945 139.084 47.5566 139.297C47.7207 139.51 47.9395 139.616 48.2129 139.616C48.4883 139.616 48.707 139.509 48.8691 139.294C49.0312 139.077 49.1123 138.774 49.1123 138.386C49.1123 138.038 49.0293 137.757 48.8633 137.542C48.6992 137.325 48.4805 137.217 48.207 137.217C47.9395 137.217 47.7236 137.323 47.5596 137.536C47.3955 137.749 47.3135 138.054 47.3135 138.45ZM50.2021 138.389C50.2021 137.902 50.3174 137.512 50.5479 137.217C50.7783 136.92 51.0801 136.771 51.4531 136.771C51.8242 136.771 52.1182 136.898 52.335 137.152V135.5H52.877V140H52.3789L52.3525 139.66C52.1357 139.926 51.834 140.059 51.4473 140.059C51.0801 140.059 50.7803 139.908 50.5479 139.607C50.3174 139.307 50.2021 138.914 50.2021 138.43V138.389ZM50.7441 138.45C50.7441 138.81 50.8184 139.091 50.9668 139.294C51.1152 139.497 51.3203 139.599 51.582 139.599C51.9258 139.599 52.1768 139.444 52.335 139.136V137.68C52.1729 137.381 51.9238 137.231 51.5879 137.231C51.3223 137.231 51.1152 137.334 50.9668 137.539C50.8184 137.744 50.7441 138.048 50.7441 138.45ZM54.3096 140H53.7676V136.83H54.3096V140ZM53.7236 135.989C53.7236 135.901 53.75 135.827 53.8027 135.767C53.8574 135.706 53.9375 135.676 54.043 135.676C54.1484 135.676 54.2285 135.706 54.2832 135.767C54.3379 135.827 54.3652 135.901 54.3652 135.989C54.3652 136.077 54.3379 136.15 54.2832 136.209C54.2285 136.268 54.1484 136.297 54.043 136.297C53.9375 136.297 53.8574 136.268 53.8027 136.209C53.75 136.15 53.7236 136.077 53.7236 135.989ZM55.915 136.062V136.83H56.5068V137.249H55.915V139.215C55.915 139.342 55.9414 139.438 55.9941 139.502C56.0469 139.564 56.1367 139.596 56.2637 139.596C56.3262 139.596 56.4121 139.584 56.5215 139.561V140C56.3789 140.039 56.2402 140.059 56.1055 140.059C55.8633 140.059 55.6807 139.985 55.5576 139.839C55.4346 139.692 55.373 139.484 55.373 139.215V137.249H54.7959V136.83H55.373V136.062H55.915ZM59.1436 136.83L59.1611 137.229C59.4033 136.924 59.7197 136.771 60.1104 136.771C60.7803 136.771 61.1182 137.149 61.124 137.905V140H60.582V137.902C60.5801 137.674 60.5273 137.505 60.4238 137.396C60.3223 137.286 60.1631 137.231 59.9463 137.231C59.7705 137.231 59.6162 137.278 59.4834 137.372C59.3506 137.466 59.2471 137.589 59.1729 137.741V140H58.6309V136.83H59.1436ZM63.2568 140.059C62.8271 140.059 62.4775 139.918 62.208 139.637C61.9385 139.354 61.8037 138.976 61.8037 138.503V138.403C61.8037 138.089 61.8633 137.809 61.9824 137.562C62.1035 137.314 62.2715 137.121 62.4863 136.982C62.7031 136.842 62.9375 136.771 63.1895 136.771C63.6016 136.771 63.9219 136.907 64.1504 137.179C64.3789 137.45 64.4932 137.839 64.4932 138.345V138.57H62.3457C62.3535 138.883 62.4443 139.136 62.6182 139.329C62.7939 139.521 63.0166 139.616 63.2861 139.616C63.4775 139.616 63.6396 139.577 63.7725 139.499C63.9053 139.421 64.0215 139.317 64.1211 139.188L64.4521 139.446C64.1865 139.854 63.7881 140.059 63.2568 140.059ZM63.1895 137.217C62.9707 137.217 62.7871 137.297 62.6387 137.457C62.4902 137.615 62.3984 137.838 62.3633 138.125H63.9512V138.084C63.9355 137.809 63.8613 137.596 63.7285 137.445C63.5957 137.293 63.416 137.217 63.1895 137.217ZM65.8584 136.062V136.83H66.4502V137.249H65.8584V139.215C65.8584 139.342 65.8848 139.438 65.9375 139.502C65.9902 139.564 66.0801 139.596 66.207 139.596C66.2695 139.596 66.3555 139.584 66.4648 139.561V140C66.3223 140.039 66.1836 140.059 66.0488 140.059C65.8066 140.059 65.624 139.985 65.501 139.839C65.3779 139.692 65.3164 139.484 65.3164 139.215V137.249H64.7393V136.83H65.3164V136.062H65.8584ZM67.7217 138.799C67.7256 138.566 67.752 138.383 67.8008 138.248C67.8496 138.113 67.9492 137.964 68.0996 137.8L68.4834 137.404C68.6475 137.219 68.7295 137.02 68.7295 136.807C68.7295 136.602 68.6758 136.441 68.5684 136.326C68.4609 136.209 68.3047 136.15 68.0996 136.15C67.9004 136.15 67.7402 136.203 67.6191 136.309C67.498 136.414 67.4375 136.556 67.4375 136.733H66.8955C66.8994 136.417 67.0117 136.162 67.2324 135.969C67.4551 135.773 67.7441 135.676 68.0996 135.676C68.4688 135.676 68.7559 135.775 68.9609 135.975C69.168 136.172 69.2715 136.443 69.2715 136.789C69.2715 137.131 69.1133 137.468 68.7969 137.8L68.4775 138.116C68.335 138.274 68.2637 138.502 68.2637 138.799H67.7217ZM67.6982 139.728C67.6982 139.64 67.7246 139.566 67.7773 139.508C67.832 139.447 67.9121 139.417 68.0176 139.417C68.123 139.417 68.2031 139.447 68.2578 139.508C68.3125 139.566 68.3398 139.64 68.3398 139.728C68.3398 139.815 68.3125 139.889 68.2578 139.947C68.2031 140.004 68.123 140.032 68.0176 140.032C67.9121 140.032 67.832 140.004 67.7773 139.947C67.7246 139.889 67.6982 139.815 67.6982 139.728Z" fill="white"/>
</svg>
