<svg width="91" height="38" viewBox="0 0 91 38" fill="none" xmlns="http://www.w3.org/2000/svg">
<g clip-path="url(#clip0)">
<path d="M81.1611 5.46625C72.1432 5.46625 72.1432 9.97142 63.1253 9.97142C54.1074 9.97142 54.4832 8.08086 45.0895 8.08086C35.6958 8.08086 36.4473 13.6319 27.0537 13.6319C17.66 13.6319 19.163 11.4034 9.01786 11.4034C-1.12728 11.4034 1.50294 16.8177 -9.01795 16.8177C-19.5388 16.8177 -18.0359 8.84513 -27.0538 8.84513C-36.0717 8.84513 -35.3202 14.6616 -45.0896 14.6616C-54.859 14.6616 -53.356 13.0687 -63.1254 13.0687C-72.8948 13.0687 -71.3918 17.051 -81.1612 17.051C-90.9306 17.051 -89.8034 18.9818 -99.197 18.9818C-108.591 18.9818 -107.839 14.6375 -117.233 14.6375C-126.627 14.6375 -125.499 19.207 -135.269 19.207C-145.038 19.207 -142.784 16.4476 -153.304 16.4476C-163.825 16.4476 -161.947 13.3744 -171.34 13.3744C-180.734 13.3744 -179.607 20.3896 -189.376 20.3896C-199.146 20.3896 -197.643 10.3737 -207.412 10.3737C-217.181 10.3737 -216.054 16.3591 -225.448 16.3591C-234.841 16.3591 -232.963 19.9391 -243.484 19.9391C-254.004 19.9391 -251.374 17.767 -261.519 17.767C-271.665 17.767 -269.034 22.1917 -279.555 22.1917C-290.076 22.1917 -287.446 20.4862 -297.591 20.4862C-307.736 20.4862 -305.857 17.9037 -315.627 17.9037C-325.396 17.9037 -323.893 27.1796 -333.663 27.1796C-343.432 27.1796 -341.178 24.9109 -351.698 24.9109C-362.219 24.9109 -360.716 28.4587 -369.734 28.4587C-378.752 28.4587 -377.625 25.9245 -387.77 25.9245C-397.915 25.9245 -396.412 33.2454 -405.806 33.2454C-415.2 33.2454 -413.321 31.0411 -423.842 31.0411C-434.363 31.0411 -431.732 29.4402 -441.878 29.4402C-452.023 29.4402 -450.144 34.3476 -459.913 34.3476C-469.683 34.3476 -467.428 35.3774 -477.949 35.3774C-488.47 35.3774 -485.464 32.6662 -495.985 32.6662C-506.506 32.6662 -505.003 31.2181 -514.021 31.2181C-523.039 31.2181 -523.039 35.9244 -532.057 35.9244C-541.075 35.9244 -540.323 34.2672 -550.092 34.2672" stroke="#E1E5EE" stroke-width="0.751492"/>
</g>
<rect x="0.375746" y="-0.375746" width="6.75149" height="6.75149" rx="3.37575" transform="matrix(-1 0 0 1 66.9008 6.57056)" fill="#E1E5EE" stroke="white" stroke-width="0.751492"/>
<rect x="0.375746" y="-0.375746" width="6.75149" height="6.75149" rx="3.37575" transform="matrix(-1 0 0 1 48.8649 4.67297)" fill="#E1E5EE" stroke="white" stroke-width="0.751492"/>
<rect x="0.375746" y="-0.375746" width="6.75149" height="6.75149" rx="3.37575" transform="matrix(-1 0 0 1 30.8291 10.2542)" fill="#E1E5EE" stroke="white" stroke-width="0.751492"/>
<rect x="0.375746" y="-0.375746" width="6.75149" height="6.75149" rx="3.37575" transform="matrix(-1 0 0 1 12.7932 8.02167)" fill="#E1E5EE" stroke="white" stroke-width="0.751492"/>
<rect x="0.375746" y="-0.375746" width="6.75149" height="6.75149" rx="3.37575" transform="matrix(-1 0 0 1 84.9366 1.99402)" fill="#E1E5EE" stroke="white" stroke-width="0.751492"/>
<defs>
<clipPath id="clip0">
<rect width="80" height="31.8127" fill="white" transform="matrix(-1 0 0 1 81.1611 5.45111)"/>
</clipPath>
</defs>
</svg>
