<svg width="356" height="312" viewBox="0 0 356 312" fill="none" xmlns="http://www.w3.org/2000/svg">
<path d="M337.047 135.861C317.582 88.4352 287.818 39.9849 235.864 13.1057C197.409 -6.79226 156.643 -1.59961 117.011 12.5359C69.2379 29.5779 35.3101 59.7818 27.3042 104.129C20.4746 141.941 6.9932 178.65 1.06916 216.636C-4.85488 254.86 12.0709 296.689 96.7 307.507C120.506 310.551 146.047 309.13 168.584 301.485C198.619 291.295 227.198 274.044 260.88 280.823C305.141 289.73 347.414 272.709 354.819 232.502C361.589 195.721 337.047 135.861 337.047 135.861Z" fill="#F0F2F7"/>
<path d="M174.543 310.532C207.912 310.532 234.963 299.379 234.963 285.622C234.963 271.865 207.912 260.712 174.543 260.712C141.174 260.712 114.123 271.865 114.123 285.622C114.123 299.379 141.174 310.532 174.543 310.532Z" fill="#263238" stroke="#263238" stroke-linecap="round" stroke-linejoin="round"/>
<path d="M174.543 307.102C212.027 307.102 242.413 295.949 242.413 282.192C242.413 268.435 212.027 257.282 174.543 257.282C137.06 257.282 106.673 268.435 106.673 282.192C106.673 295.949 137.06 307.102 174.543 307.102Z" fill="white" stroke="#263238" stroke-linecap="round" stroke-linejoin="round"/>
<path d="M188.878 278.179C186.775 278.031 184.77 277.943 182.861 277.904L180.362 265.89C180.236 265.286 179.644 264.898 179.04 265.024C178.436 265.15 178.048 265.741 178.174 266.345L180.573 277.881C178.747 277.882 177.016 277.928 175.38 278.011L172.904 267.937C172.757 267.337 172.152 266.971 171.552 267.118C170.953 267.265 170.587 267.871 170.734 268.47L173.114 278.153C170.99 278.311 169.045 278.529 167.28 278.783L165.454 271.507C165.303 270.908 164.696 270.545 164.098 270.695C163.499 270.845 163.136 271.452 163.286 272.051L165.064 279.135C163.199 279.46 161.573 279.819 160.187 280.173C160.141 280.185 160.097 280.197 160.051 280.209L158.587 275.331C158.41 274.74 157.787 274.405 157.196 274.582C156.605 274.759 156.269 275.382 156.446 275.973L157.898 280.81C153.295 282.201 151.082 283.573 150.977 283.639C150.455 283.968 150.298 284.657 150.626 285.18C150.839 285.517 151.202 285.702 151.573 285.702C151.776 285.702 151.982 285.646 152.167 285.53C152.212 285.501 154.128 284.332 158.12 283.086L157.89 289.617C157.868 290.233 158.35 290.751 158.967 290.773C158.98 290.773 158.994 290.773 159.007 290.773C159.606 290.773 160.101 290.299 160.123 289.695L160.379 282.439C161.817 282.061 163.451 281.694 165.287 281.367L165.04 290.52C165.024 291.136 165.51 291.65 166.127 291.667C166.137 291.667 166.147 291.667 166.158 291.667C166.761 291.667 167.257 291.186 167.274 290.58L167.533 281.003C169.295 280.746 171.218 280.529 173.304 280.375L172.492 291.361C172.446 291.977 172.908 292.512 173.523 292.558C173.551 292.56 173.579 292.561 173.607 292.561C174.187 292.561 174.677 292.114 174.72 291.526L175.556 280.236C177.195 280.155 178.925 280.111 180.749 280.114L179.94 291.664C179.897 292.279 180.361 292.813 180.976 292.856C181.003 292.858 181.029 292.859 181.056 292.859C181.637 292.859 182.128 292.409 182.169 291.82L182.988 280.141C184.812 280.181 186.722 280.267 188.72 280.408C189.335 280.451 189.87 279.987 189.913 279.371C189.957 278.756 189.493 278.222 188.878 278.179Z" fill="#3E3E70"/>
<path d="M138 275.2H142.187C147.37 275.2 151.572 279.402 151.572 284.585H147.385C142.202 284.585 138 280.383 138 275.2Z" fill="#BDBDE7"/>
<path d="M142.187 298.157V293.97C142.187 288.787 146.389 284.585 151.572 284.585V288.772C151.572 293.955 147.37 298.157 142.187 298.157Z" fill="#BDBDE7"/>
<path d="M211 284.992C205.685 288.17 199.438 290.509 192.616 291.742C190.207 288.192 188.799 283.907 188.799 279.293C188.799 274.04 190.624 269.212 193.675 265.412C201.997 269.012 208.415 276.183 211 284.992Z" fill="#BDBDE7"/>
<path d="M200.72 281.159C200.434 281.159 200.149 281.05 199.93 280.831L196.138 277.039C195.702 276.603 195.702 275.895 196.138 275.459C196.574 275.023 197.282 275.023 197.718 275.459L201.51 279.251C201.947 279.688 201.947 280.395 201.51 280.831C201.292 281.05 201.006 281.159 200.72 281.159Z" fill="#3E3E70"/>
<path d="M196.929 281.158C196.643 281.158 196.357 281.049 196.138 280.831C195.702 280.394 195.702 279.687 196.138 279.251L199.931 275.458C200.367 275.022 201.075 275.022 201.511 275.458C201.947 275.894 201.947 276.602 201.511 277.038L197.719 280.831C197.5 281.049 197.214 281.158 196.929 281.158Z" fill="#3E3E70"/>
<path d="M149.116 64.0276C151.016 64.3276 153.616 66.7276 155.616 78.1276C161.516 78.5276 167.416 78.9276 173.316 79.3276C178.216 75.2276 183.116 71.1276 188.016 66.9276C188.716 70.9276 189.616 76.8276 190.416 84.0276C192.216 100.728 191.116 104.728 192.216 114.028C192.716 118.128 195.016 135.428 205.716 152.228C213.916 165.128 219.316 165.528 225.716 178.128C230.716 188.028 232.216 197.328 232.816 203.428C233.816 203.328 246.516 202.328 254.616 212.228C258.316 216.828 262.416 225.428 259.316 232.228C256.316 238.828 249.416 237.828 236.916 248.728C232.516 252.528 228.316 256.328 229.316 259.328C230.316 262.428 235.716 261.828 245.216 266.928C250.216 269.628 252.616 271.028 253.416 273.428C256.416 282.128 237.416 295.528 234.616 297.528C225.416 303.928 214.216 308.928 212.816 306.928C210.716 303.928 233.316 287.428 229.916 281.028C227.416 276.228 213.216 282.228 209.916 276.928C206.316 271.128 219.016 256.628 225.816 248.728C238.916 233.528 247.216 229.728 245.816 224.628C244.316 219.228 232.916 215.628 227.016 219.328C222.016 222.428 223.016 229.428 221.116 234.028C217.516 242.828 200.316 250.028 141.116 243.428C141.916 241.828 143.116 239.928 144.616 238.128C149.716 232.228 156.116 230.128 159.316 229.328C158.416 227.828 153.216 218.928 156.416 208.128C158.816 199.928 164.516 195.428 166.416 194.028C162.416 186.128 158.416 177.528 154.616 168.128C152.216 162.028 150.016 156.128 148.116 150.428C142.516 150.428 136.016 149.428 131.016 145.128C123.516 138.528 126.516 130.428 118.716 124.528C111.416 118.928 102.716 121.428 101.216 116.628C100.516 114.328 101.916 111.628 103.416 110.228C107.216 106.628 114.016 108.428 121.416 110.428C126.516 111.828 133.816 114.428 141.916 119.328C139.216 115.428 134.316 107.228 134.016 96.3276C133.316 79.9276 143.316 63.2276 149.116 64.0276Z" fill="#263238"/>
<path d="M145.616 135.828C138.716 138.828 141.316 159.128 143.816 177.628C145.416 189.328 148.116 204.828 153.216 222.928C139.216 233.728 139.916 236.828 140.316 237.628C141.616 240.328 150.916 238.728 153.816 238.228C156.916 237.728 161.316 236.928 163.816 235.328C170.916 230.628 167.216 216.328 165.016 193.528C161.816 160.528 165.616 146.728 155.016 138.828C153.616 137.728 149.016 134.328 145.616 135.828Z" fill="#263238"/>
<path d="M77.2158 177.228C77.5158 177.128 80.1158 175.828 80.0158 175.728C79.8158 175.628 79.8158 177.228 79.8158 177.628C79.7158 178.928 79.3158 180.528 79.5158 181.928C79.9158 183.928 81.4158 184.928 83.4158 184.728C84.5158 184.628 85.3158 184.128 86.2158 183.428C86.4158 183.228 87.8158 182.028 87.9158 182.028C88.1158 182.128 88.1158 184.328 88.2158 184.528C88.6158 186.428 90.0158 188.028 92.1158 187.828C94.0158 187.628 94.0158 184.628 92.1158 184.828C91.1158 184.928 90.8158 179.528 89.1158 178.928C88.4158 178.628 87.6158 178.828 87.0158 179.128C85.5158 179.828 83.3158 183.028 82.6158 180.228C82.1158 178.128 84.2158 175.128 82.3158 173.328C80.5158 171.628 77.5158 173.628 75.8158 174.528C74.0158 175.528 75.5158 178.128 77.2158 177.228Z" fill="white"/>
<path d="M146.016 96.6276C147.716 95.0276 150.616 95.4276 151.816 97.4276C152.616 98.6276 154.516 97.5277 153.716 96.3277C151.716 93.1277 147.116 92.5277 144.416 95.0277C143.416 96.0277 145.016 97.6276 146.016 96.6276Z" fill="white"/>
<path d="M167.416 95.9276C169.216 94.1276 172.216 94.0276 174.116 95.7276C175.216 96.7276 176.816 95.1276 175.716 94.1276C172.916 91.5276 168.516 91.6276 165.816 94.3276C164.816 95.3276 166.416 96.9276 167.416 95.9276Z" fill="white"/>
<path d="M149.916 107.628C148.816 109.828 144.116 117.428 149.216 118.028C151.316 118.228 153.316 116.328 154.516 114.928C156.216 112.928 157.216 110.428 158.116 108.028C158.816 106.228 155.916 105.428 155.216 107.228C154.116 110.028 152.916 112.628 150.516 114.628C150.016 115.028 149.716 115.728 149.916 114.828C150.016 114.228 150.316 113.628 150.616 113.128C151.216 111.828 151.816 110.528 152.516 109.228C153.316 107.328 150.716 105.828 149.916 107.628Z" fill="#FAE3C3"/>
<path d="M152.616 109.228C153.916 108.628 154.916 107.828 156.116 107.028C155.716 107.128 155.316 107.128 154.916 107.228C155.016 107.228 155.116 107.328 155.216 107.328C154.916 107.128 154.616 106.828 154.316 106.628C154.316 106.028 154.216 106.028 153.816 106.728C153.516 107.028 153.316 107.328 153.016 107.728C152.516 108.328 152.116 108.928 151.716 109.528C150.816 110.928 150.016 112.328 149.216 113.828C148.316 115.528 150.916 117.028 151.816 115.328C152.716 113.728 153.616 112.028 154.616 110.528C155.416 109.328 157.116 108.028 157.216 106.528C157.316 105.428 156.416 104.428 155.416 104.428C154.716 104.328 154.216 104.728 153.716 105.128C152.816 105.828 152.016 106.328 150.916 106.828C149.416 107.328 150.916 109.928 152.616 109.228Z" fill="#FAE3C3"/>
<path d="M149.616 107.528C152.916 107.628 156.016 105.228 156.616 101.928C156.816 100.528 154.716 99.9276 154.416 101.328C154.016 103.728 152.016 105.428 149.616 105.328C148.116 105.228 148.116 107.428 149.616 107.528Z" fill="white"/>
<path d="M154.716 101.228C155.116 105.228 158.616 108.428 162.716 108.128C164.116 108.028 164.116 105.728 162.716 105.828C159.916 106.028 157.216 104.128 156.916 101.228C156.816 99.8277 154.616 99.8277 154.716 101.228Z" fill="white"/>
</svg>
