<svg width="207" height="306" viewBox="0 0 207 306" fill="none" xmlns="http://www.w3.org/2000/svg">
<path d="M201.251 164.445C207.458 153.274 186.943 49.3164 186.943 49.3164L181.587 47.4893C181.587 47.4893 156.735 146.116 159.146 155.226C161.557 164.336 184.132 174.206 201.251 164.445Z" fill="#BDBDE7"/>
<path opacity="0.1" d="M201.251 164.445C207.458 153.274 186.943 49.3164 186.943 49.3164L181.587 47.4893C181.587 47.4893 156.735 146.116 159.146 155.226C161.557 164.336 184.132 174.206 201.251 164.445Z" fill="#4B4261"/>
<path opacity="0.1" d="M173.871 140.577L200.934 134.995C200.042 127.053 198.815 118.218 197.455 109.325C194.435 108.85 188.621 104.319 187.069 101.883C181.613 93.3322 181.763 76.0212 182.289 68.2542C183.056 57.1168 184.066 51.4521 184.066 51.4521L187.511 52.2864C187.152 50.426 186.944 49.3915 186.944 49.3915L181.588 47.4893C181.588 47.4893 170.242 92.4729 163.618 124.492L173.871 140.577Z" fill="#4B4261"/>
<path opacity="0.1" d="M187.82 73.1347C187.82 73.1347 186.685 56.6413 185.517 48.8492L183.014 48.015C183.014 48.015 179.135 62.7898 178.918 66.4355L184.024 49.7502C184.024 49.7502 187.202 68.638 187.82 73.1347Z" fill="#4B4261"/>
<path d="M185.567 36.6522C187.235 37.8953 188.904 38.7462 190.906 38.3208C192.908 37.8953 196.796 32.8313 197.964 32.2306C199.132 31.63 197.747 30.3452 195.945 29.6194C194.143 28.8936 186.977 28.2011 184.958 34.4832C184.873 34.8669 184.884 35.2657 184.99 35.6441C185.096 36.0225 185.295 36.3688 185.567 36.6522V36.6522Z" fill="#BDBDE7"/>
<path opacity="0.15" d="M190.873 35.3675C190.998 35.2924 191.148 35.1756 191.107 35.0254C191.065 34.8753 190.89 34.8586 190.74 34.8502L187.836 34.7084L191.365 31.8302C191.515 31.705 191.674 31.5549 191.657 31.363C191.64 31.282 191.598 31.2086 191.536 31.1531C191.475 31.0977 191.397 31.0631 191.315 31.0543C191.147 31.0335 190.977 31.0595 190.823 31.1294C189.256 31.7384 187.79 32.5823 186.476 33.6322C186.043 33.9409 185.342 34.4665 185.559 35.1005C185.776 35.7345 186.585 35.7929 187.044 35.8931C188.341 36.1957 189.705 36.0086 190.873 35.3675V35.3675Z" fill="#4B4261"/>
<path d="M179.518 33.7907C177.516 33.2401 175.798 32.3975 174.922 30.5871C174.046 28.7768 175.656 22.5698 175.406 21.2767C175.155 19.9836 177.074 20.2923 178.743 21.2767C180.411 22.2612 185.358 27.492 181.637 32.9564C181.38 33.2593 181.052 33.494 180.683 33.6395C180.313 33.7851 179.913 33.837 179.518 33.7907V33.7907Z" fill="#BDBDE7"/>
<path opacity="0.15" d="M177.266 28.8185C177.266 28.6683 177.266 28.4764 177.391 28.4264C177.516 28.3763 177.658 28.4848 177.758 28.6016L179.652 30.804L179.761 26.2573C179.761 26.0654 179.761 25.8485 179.952 25.7484C180.027 25.709 180.112 25.695 180.195 25.7085C180.277 25.7221 180.354 25.7625 180.411 25.8235C180.522 25.9491 180.605 26.097 180.653 26.2573C181.127 27.866 181.36 29.5359 181.346 31.2128C181.346 31.7468 181.346 32.6227 180.745 32.8814C180.144 33.14 179.577 32.4893 179.21 32.1973C178.164 31.3525 177.471 30.1476 177.266 28.8185Z" fill="#4B4261"/>
<path d="M186.793 36.3519C186.793 37.2429 186.529 38.1139 186.034 38.8548C185.539 39.5956 184.835 40.173 184.012 40.514C183.189 40.855 182.283 40.9442 181.409 40.7704C180.535 40.5965 179.733 40.1675 179.103 39.5374C178.473 38.9074 178.044 38.1047 177.87 37.2308C177.696 36.3569 177.785 35.4511 178.126 34.6279C178.467 33.8047 179.045 33.1011 179.785 32.6061C180.526 32.1111 181.397 31.8469 182.288 31.8469C182.88 31.8458 183.466 31.9616 184.014 32.1876C184.561 32.4136 185.058 32.7454 185.476 33.1639C185.895 33.5825 186.227 34.0795 186.453 34.6266C186.679 35.1737 186.794 35.76 186.793 36.3519Z" fill="#BDBDE7"/>
<path opacity="0.1" d="M179.544 36.3519C178.709 34.2162 180.495 32.4225 182.505 31.8552H182.288C181.428 31.8537 180.585 32.0986 179.86 32.5609C179.134 33.0232 178.556 33.6836 178.194 34.4639C177.832 35.2443 177.701 36.1121 177.816 36.9647C177.932 37.8172 178.289 38.6189 178.845 39.2749C179.402 39.9309 180.135 40.4138 180.957 40.6665C181.779 40.9192 182.657 40.9312 183.486 40.701C184.315 40.4708 185.061 40.008 185.635 39.3674C186.209 38.7268 186.588 37.9351 186.727 37.0861C185.25 39.3302 180.361 38.4543 179.544 36.3519Z" fill="#4B4261"/>
<path d="M112.102 132.81C111.017 134.945 109.874 137.064 108.665 139.133C103.751 147.518 97.4187 154.225 90.486 160.933C83.8118 167.365 76.3952 173.447 67.4269 176.25C65.0993 176.984 62.2711 177.376 60.4691 175.741C58.6671 174.106 58.8006 171.211 59.0842 168.758C57.2805 172.755 54.6171 176.304 51.2839 179.153C50.3506 180.027 49.2493 180.703 48.0469 181.139C47.4438 181.352 46.7989 181.421 46.1643 181.34C45.5296 181.259 44.9229 181.03 44.3928 180.671C42.7994 179.453 42.7243 177.117 42.9662 175.132C41.5146 177.067 40.6386 179.362 39.5791 181.539C38.5196 183.716 37.1931 185.869 35.1659 187.187C33.1386 188.505 30.2437 188.747 28.3916 187.187C25.4216 184.684 27.2237 180.78 27.7326 177.651C28.3761 173.745 29.2847 169.888 30.4523 166.105C32.7888 158.626 36.0007 151.449 40.0213 144.723C44.4123 137.417 49.5542 130.589 55.3634 124.35C58.1999 121.28 61.1532 118.268 64.2734 115.49C67.64 112.572 71.2176 109.906 74.977 107.515C99.4126 93.791 109.599 94.9423 115.164 98.2043C118.634 100.248 121.12 115.081 112.102 132.81Z" fill="#BDBDE7"/>
<path opacity="0.7" d="M112.102 132.81C111.017 134.945 109.874 137.064 108.665 139.133C103.751 147.518 97.4187 154.225 90.486 160.933C83.8118 167.365 76.3952 173.447 67.4269 176.25C65.0993 176.984 62.2711 177.376 60.4691 175.741C58.6671 174.106 58.8006 171.211 59.0842 168.758C57.2805 172.755 54.6171 176.304 51.2839 179.153C50.3506 180.027 49.2493 180.703 48.0469 181.139C47.4438 181.352 46.7989 181.421 46.1643 181.34C45.5296 181.259 44.9229 181.03 44.3928 180.671C42.7994 179.453 42.7243 177.117 42.9662 175.132C41.5146 177.067 40.6386 179.362 39.5791 181.539C38.5196 183.716 37.1931 185.869 35.1659 187.187C33.1386 188.505 30.2437 188.747 28.3916 187.187C25.4216 184.684 27.2237 180.78 27.7326 177.651C28.3761 173.745 29.2847 169.888 30.4523 166.105C32.7888 158.626 36.0007 151.449 40.0213 144.723C44.4123 137.417 49.5542 130.589 55.3634 124.35C58.1999 121.28 61.1532 118.268 64.2734 115.49C67.64 112.572 71.2176 109.906 74.977 107.515C99.4126 93.791 109.599 94.9423 115.164 98.2043C118.634 100.248 121.12 115.081 112.102 132.81Z" fill="#FAFAFA"/>
<path d="M99.7047 257.09C95.3332 256.398 94.7409 256.381 93.0306 256.673C91.3204 256.965 90.9283 257.849 92.1546 258.291C93.381 258.734 97.1602 259.126 98.5701 260.694C99.98 262.263 103.951 267.485 105.144 268.686C106.337 269.888 108.731 275.285 109.399 276.687C110.066 278.089 111.852 277.354 111.593 275.127C111.209 271.79 108.74 266.943 108.74 266.943C111.116 268.115 113.366 269.527 115.456 271.156C116.866 272.357 118.034 273.617 119.318 273.45C120.603 273.283 120.153 271.69 118.484 269.821C116.674 268.011 114.754 266.315 112.736 264.74C115.979 265.406 119.114 266.515 122.055 268.036C124.299 269.204 125.534 268.561 125.075 267.427C124.616 266.292 122.922 264.607 118.242 262.755C113.862 261.036 107.171 258.283 99.7047 257.09Z" fill="#FFBE55"/>
<path opacity="0.15" d="M119.735 273.266C118.901 273.35 118.342 273.125 116.799 271.356C115.134 269.302 113.045 267.631 110.675 266.459C107.88 265.074 107.722 265.625 108.706 266.968C111.068 268.143 113.304 269.554 115.38 271.181C116.79 272.382 117.958 273.642 119.243 273.475C119.425 273.457 119.596 273.385 119.735 273.266Z" fill="#4B4261"/>
<path opacity="0.15" d="M125.074 268.027C124.908 268.378 124.44 268.595 123.79 268.194C123.139 267.794 122.071 267.243 120.035 266.234C118.091 265.236 116.047 264.448 113.937 263.881C112.268 263.497 111.826 264.24 112.677 264.715C115.918 265.387 119.053 266.496 121.996 268.011C123.798 268.962 124.933 268.736 125.074 268.027Z" fill="#4B4261"/>
<path opacity="0.15" d="M109.349 276.695C109.409 276.881 109.522 277.045 109.674 277.168C109.825 277.291 110.01 277.368 110.204 277.388C110.398 277.408 110.594 277.372 110.768 277.283C110.942 277.194 111.087 277.057 111.184 276.887C110.492 277.404 110.2 276.887 109.899 276.053C109.439 274.566 108.881 273.112 108.231 271.698C107.396 269.825 106.328 268.064 105.052 266.459C103.943 265.224 101.164 261.662 99.6878 260.085C98.2112 258.508 96.4008 258.258 94.1817 258.075C91.9625 257.891 91.5037 257.332 91.6789 257.115C91.1616 257.499 91.2701 257.949 92.0793 258.275C93.3057 258.717 97.0849 259.109 98.4948 260.669C99.9047 262.229 103.876 267.468 105.069 268.67C106.262 269.871 108.681 275.294 109.349 276.695Z" fill="#4B4261"/>
<path d="M105.578 260.21L101.298 260.502L96.918 190.165L101.198 189.865L105.578 260.21Z" fill="#FFBE55"/>
<path opacity="0.15" d="M101.198 189.865L96.918 190.165L97.2267 195.121C97.8916 195.498 98.6539 195.669 99.4162 195.611C100.178 195.553 100.906 195.269 101.506 194.795L101.198 189.865Z" fill="#4B4261"/>
<path d="M101.189 190.049L96.918 189.673L102.182 133.911L106.454 134.286L101.189 190.049Z" fill="#FFBE55"/>
<path opacity="0.15" d="M102.549 175.683L106.454 134.286L103.117 133.994L102.165 133.911L97.9941 178.619C99.5723 177.736 101.094 176.756 102.549 175.683V175.683Z" fill="#4B4261"/>
<path d="M98.9286 193.986C101.117 193.986 102.891 192.212 102.891 190.024C102.891 187.835 101.117 186.061 98.9286 186.061C96.74 186.061 94.9658 187.835 94.9658 190.024C94.9658 192.212 96.74 193.986 98.9286 193.986Z" fill="#FFBE55"/>
<path d="M152.563 17.8479C152.56 13.3528 150.862 9.02433 147.808 5.72608C144.754 2.42782 140.568 0.402349 136.087 0.0538073C131.605 -0.294734 127.157 1.05929 123.63 3.84569C120.103 6.6321 117.756 10.646 117.057 15.0865C114.83 21.4436 113.295 30.6956 114.896 43.5433C117.658 65.6346 129.68 86.5747 116.824 98.9468C114.004 101.667 108.147 99.414 104.877 99.1887C99.6711 98.83 94.4319 98.4296 89.1927 98.8717C78.0563 99.8861 67.289 103.384 57.6825 109.108C43.6919 117.351 32.3292 129.589 23.7029 143.313C18.4387 151.697 13.6917 161.667 3.99759 165.438C3.02984 165.813 1.82851 166.464 2.02039 167.482C2.09666 167.733 2.22327 167.966 2.39251 168.167C2.56175 168.368 2.77008 168.532 3.00482 168.65C4.5478 169.613 6.36833 170.033 8.17726 169.843C8.11408 170.28 7.9429 170.694 7.67922 171.048C7.41555 171.402 7.06772 171.684 6.66724 171.87C5.86687 172.238 5.09935 172.673 4.37301 173.171C4.01784 173.433 3.75904 173.805 3.63684 174.229C3.51464 174.653 3.53588 175.105 3.69725 175.516C4.04133 175.999 4.54278 176.347 5.11551 176.5C11.0388 178.761 17.9966 178.36 24.02 176.775C31.253 174.882 38.1107 171.653 45.4439 170.185C53.9867 168.466 62.8049 169.2 71.523 169.042C85.7501 168.568 99.6051 164.378 111.71 156.887C124.713 148.728 134.186 135.99 138.256 121.188C145.264 95.543 137.096 81.9779 129.68 56.8498C126.61 46.4382 125.133 38.813 124.716 32.6561C127.403 34.465 130.532 35.5093 133.768 35.6771C137.003 35.845 140.223 35.1302 143.084 33.6091C145.944 32.0881 148.337 29.818 150.007 27.0418C151.677 24.2656 152.56 21.0876 152.563 17.8479V17.8479Z" fill="#BDBDE7"/>
<path opacity="0.9" d="M152.563 17.8479C152.56 13.3528 150.862 9.02433 147.808 5.72608C144.754 2.42782 140.568 0.402349 136.087 0.0538073C131.605 -0.294734 127.157 1.05929 123.63 3.84569C120.103 6.6321 117.756 10.646 117.057 15.0865C114.83 21.4436 113.295 30.6956 114.896 43.5433C117.658 65.6346 129.68 86.5747 116.824 98.9468C114.004 101.667 108.147 99.414 104.877 99.1887C99.6711 98.83 94.4319 98.4296 89.1927 98.8717C78.0563 99.8861 67.289 103.384 57.6825 109.108C43.6919 117.351 32.3292 129.589 23.7029 143.313C18.4387 151.697 13.6917 161.667 3.99759 165.438C3.02984 165.813 1.82851 166.464 2.02039 167.482C2.09666 167.733 2.22327 167.966 2.39251 168.167C2.56175 168.368 2.77008 168.532 3.00482 168.65C4.5478 169.613 6.36833 170.033 8.17726 169.843C8.11408 170.28 7.9429 170.694 7.67922 171.048C7.41555 171.402 7.06772 171.684 6.66724 171.87C5.86687 172.238 5.09935 172.673 4.37301 173.171C4.01784 173.433 3.75904 173.805 3.63684 174.229C3.51464 174.653 3.53588 175.105 3.69725 175.516C4.04133 175.999 4.54278 176.347 5.11551 176.5C11.0388 178.761 17.9966 178.36 24.02 176.775C31.253 174.882 38.1107 171.653 45.4439 170.185C53.9867 168.466 62.8049 169.2 71.523 169.042C85.7501 168.568 99.6051 164.378 111.71 156.887C124.713 148.728 134.186 135.99 138.256 121.188C145.264 95.543 137.096 81.9779 129.68 56.8498C126.61 46.4382 125.133 38.813 124.716 32.6561C127.403 34.465 130.532 35.5093 133.768 35.6771C137.003 35.845 140.223 35.1302 143.084 33.6091C145.944 32.0881 148.337 29.818 150.007 27.0418C151.677 24.2656 152.56 21.0876 152.563 17.8479V17.8479Z" fill="#FAFAFA"/>
<path opacity="0.03" d="M140.767 106.872C139.599 119.253 132.049 134.837 122.463 141.911C111.818 149.729 96.3174 152.231 97.6856 145.966C99.6961 137.349 99.7929 128.395 97.9693 119.737C97.9693 119.737 91.8458 140.018 70.7222 155.26C49.5986 170.502 10.4966 177.86 10.4966 177.86C15.017 178.365 19.5922 178.005 23.9783 176.8C31.2114 174.907 38.069 171.678 45.4022 170.21C53.9451 168.491 62.7633 169.225 71.4814 169.067C85.7084 168.593 99.5635 164.403 111.668 156.912C124.672 148.753 134.144 136.015 138.214 121.213C139.541 116.53 140.396 111.726 140.767 106.872Z" fill="#BDBDE7"/>
<path opacity="0.03" d="M140.767 106.872C139.599 119.253 132.049 134.837 122.463 141.911C111.818 149.729 96.3174 152.231 97.6856 145.966C99.6961 137.349 99.7929 128.395 97.9693 119.737C97.9693 119.737 91.8458 140.018 70.7222 155.26C49.5986 170.502 10.4966 177.86 10.4966 177.86C15.017 178.365 19.5922 178.005 23.9783 176.8C31.2114 174.907 38.069 171.678 45.4022 170.21C53.9451 168.491 62.7633 169.225 71.4814 169.067C85.7084 168.593 99.5635 164.403 111.668 156.912C124.672 148.753 134.144 136.015 138.214 121.213C139.541 116.53 140.396 111.726 140.767 106.872Z" fill="#4B4261"/>
<path d="M13.9671 172.554C12.4737 170.051 21.7925 161.392 21.7925 161.392C21.7925 161.392 12.8491 166.222 11.4893 165.229C10.1294 164.236 12.2318 161.133 14.3675 157.554C11.6438 161.027 8.0729 163.742 3.99759 165.438C3.02984 165.813 1.82851 166.464 2.02039 167.482C2.09666 167.733 2.22327 167.966 2.39251 168.167C2.56175 168.368 2.77008 168.532 3.00482 168.65C4.54779 169.613 6.36833 170.033 8.17726 169.843C8.11408 170.28 7.9429 170.694 7.67922 171.048C7.41555 171.402 7.06772 171.684 6.66724 171.87C5.86687 172.238 5.09935 172.673 4.37301 173.171C4.01783 173.433 3.75904 173.805 3.63684 174.229C3.51464 174.653 3.53588 175.105 3.69725 175.516C4.04133 175.999 4.54278 176.347 5.11551 176.5C11.0388 178.761 17.9966 178.36 24.02 176.775C26.7647 176.058 29.451 175.149 32.1373 174.214C25.288 174.323 14.9598 174.206 13.9671 172.554Z" fill="#161616"/>
<path d="M67.2934 276.687C62.9135 275.986 62.2878 275.969 60.6192 276.261C58.9507 276.553 58.5085 277.438 59.7349 277.88C60.9613 278.322 64.7405 278.714 66.1504 280.283C67.5603 281.851 71.5314 287.082 72.7244 288.275C73.9174 289.468 76.3118 294.874 76.9792 296.275C77.6466 297.677 79.482 296.943 79.1816 294.715C78.7895 291.378 76.3201 286.531 76.3201 286.531C78.696 287.704 80.9462 289.115 83.0359 290.744C84.4458 291.954 85.6222 293.247 86.8986 293.047C88.175 292.847 87.7328 291.278 86.0643 289.41C84.254 287.6 82.3344 285.903 80.3162 284.329C83.5576 284.999 86.6926 286.108 89.635 287.624C91.8791 288.792 93.1139 288.15 92.655 287.015C92.1962 285.881 90.5026 284.195 85.8224 282.343C81.4759 280.641 74.8017 277.872 67.2934 276.687Z" fill="#FFBE55"/>
<path opacity="0.15" d="M87.3157 292.847C86.4814 292.93 85.9141 292.705 84.3707 290.936C82.7031 288.874 80.6083 287.197 78.2305 286.022C75.4441 284.646 75.2856 285.188 76.2617 286.531C78.6376 287.704 80.8878 289.116 82.9775 290.744C84.3874 291.954 85.5637 293.247 86.8401 293.047C87.0129 293.021 87.1764 292.952 87.3157 292.847Z" fill="#4B4261"/>
<path opacity="0.15" d="M92.6716 287.607C92.5131 287.958 92.0376 288.175 91.3869 287.783C90.7361 287.391 89.6683 286.832 87.641 285.814C85.695 284.817 83.6477 284.031 81.5342 283.47C79.8657 283.086 79.4235 283.82 80.2744 284.304C83.5158 284.974 86.6508 286.083 89.5932 287.599C91.3952 288.567 92.5298 288.325 92.6716 287.607Z" fill="#4B4261"/>
<path opacity="0.15" d="M76.9456 296.275C77.0049 296.462 77.117 296.627 77.2683 296.751C77.4197 296.875 77.6037 296.952 77.7981 296.973C77.9925 296.994 78.1889 296.959 78.3634 296.87C78.5378 296.782 78.6829 296.645 78.781 296.476C78.0885 296.985 77.7965 296.476 77.4962 295.641C77.0377 294.152 76.4803 292.694 75.8277 291.278C74.9912 289.409 73.9233 287.651 72.6491 286.047C71.5479 284.804 68.7615 281.25 67.2848 279.674C65.8082 278.097 63.9978 277.847 61.7786 277.655C59.5595 277.463 59.1007 276.912 59.2759 276.704C58.767 277.079 58.8671 277.538 59.6763 277.855C60.9027 278.305 64.6819 278.689 66.0918 280.258C67.5017 281.826 71.4728 287.057 72.6658 288.25C73.8588 289.443 76.2782 294.874 76.9456 296.275Z" fill="#4B4261"/>
<path d="M73.1665 279.799L68.895 280.099L64.5151 209.754L68.7866 209.454L73.1665 279.799Z" fill="#FFBE55"/>
<path opacity="0.15" d="M68.7866 209.454L64.5151 209.754L64.7904 214.734C65.454 215.11 66.2139 215.28 66.9743 215.224C67.7346 215.167 68.4611 214.887 69.0619 214.417L68.7866 209.454Z" fill="#4B4261"/>
<path d="M68.503 210.763L64.3149 209.837L76.7288 155.226L80.9168 156.152L68.503 210.763Z" fill="#FFBE55"/>
<path opacity="0.15" d="M80.9169 156.152L76.7455 155.226L69.7544 186.002C71.206 186.002 72.6994 185.894 74.201 185.752L80.9169 156.152Z" fill="#4B4261"/>
<path d="M66.5174 213.575C68.706 213.575 70.4802 211.801 70.4802 209.612C70.4802 207.423 68.706 205.649 66.5174 205.649C64.3289 205.649 62.5547 207.423 62.5547 209.612C62.5547 211.801 64.3289 213.575 66.5174 213.575Z" fill="#FFBE55"/>
<path d="M91.8122 143.822C85.4134 156.878 77.221 168.566 64.2064 175.357C63.2387 175.853 62.1769 176.137 61.0911 176.192C60.0053 176.246 58.9203 176.07 57.9077 175.674C55.9222 174.84 56.3894 170.301 57.4572 168.441C54.4956 173.447 49.2397 179.737 43.2247 182.807C41.7146 183.583 38.6529 183.808 37.6267 182.307C36.6006 180.805 37.0511 177.243 37.5517 175.632C36.367 179.537 32.3792 186.737 29.3175 189.44C28.1912 190.424 26.8147 191.35 25.3464 191.283C22.0093 191.141 22.3263 186.228 22.8436 184.826C20.3408 188.931 16.7534 195.488 13.408 198.925C12.2401 200.118 10.5966 201.361 9.06151 200.694C7.52646 200.026 7.31789 197.891 7.39298 196.18C8.36072 182.323 12.9659 168.842 19.907 156.803C24.1832 149.436 29.216 142.536 34.9237 136.213C37.7102 133.102 40.6217 130.04 43.7085 127.22C45.9944 125.134 54.0868 118.877 56.7898 117.309C78.2221 105.12 88.7255 106.013 94.3317 109.192C97.869 111.194 100.572 125.985 91.8122 143.822Z" fill="#BDBDE7"/>
<path opacity="0.85" d="M91.8122 143.822C85.4134 156.878 77.221 168.566 64.2064 175.357C63.2387 175.853 62.1769 176.137 61.0911 176.192C60.0053 176.246 58.9203 176.07 57.9077 175.674C55.9222 174.84 56.3894 170.301 57.4572 168.441C54.4956 173.447 49.2397 179.737 43.2247 182.807C41.7146 183.583 38.6529 183.808 37.6267 182.307C36.6006 180.805 37.0511 177.243 37.5517 175.632C36.367 179.537 32.3792 186.737 29.3175 189.44C28.1912 190.424 26.8147 191.35 25.3464 191.283C22.0093 191.141 22.3263 186.228 22.8436 184.826C20.3408 188.931 16.7534 195.488 13.408 198.925C12.2401 200.118 10.5966 201.361 9.06151 200.694C7.52646 200.026 7.31789 197.891 7.39298 196.18C8.36072 182.323 12.9659 168.842 19.907 156.803C24.1832 149.436 29.216 142.536 34.9237 136.213C37.7102 133.102 40.6217 130.04 43.7085 127.22C45.9944 125.134 54.0868 118.877 56.7898 117.309C78.2221 105.12 88.7255 106.013 94.3317 109.192C97.869 111.194 100.572 125.985 91.8122 143.822Z" fill="#FAFAFA"/>
<path opacity="0.2" d="M91.8123 143.822C92.3546 142.721 92.8551 141.628 93.3056 140.552C88.1876 147.678 81.6557 153.673 74.1175 158.163C71.8483 159.498 68.9284 160.666 66.7093 159.272C66.0469 158.783 65.5112 158.142 65.1469 157.403C64.7826 156.665 64.6003 155.85 64.6152 155.026C64.6505 153.054 65.1752 151.122 66.1419 149.403C62.8049 153.574 58.8255 159.598 54.9127 163.836C53.336 165.504 50.9667 167.014 48.6808 166.656C46.3949 166.297 45.9694 164.387 46.0028 162.051C46.2218 159.415 46.9981 156.856 48.2803 154.542C44.8098 158.238 41.406 163.636 37.7185 167.348C36.4421 168.633 34.8904 169.959 33.0884 169.851C30.8108 169.676 30.5856 167.465 30.7357 165.187C30.8859 162.91 32.4961 159.973 33.4555 157.854C31.5526 159.904 29.791 162.081 28.1829 164.37C26.7033 166.294 25.0531 168.081 23.2524 169.709C21.5255 171.319 19.5483 172.487 17.2624 171.895C16.5073 171.682 15.8177 171.284 15.2565 170.736C14.6954 170.188 14.2807 169.508 14.0505 168.758C10.3927 177.483 8.16174 186.739 7.44307 196.172C7.32628 197.882 7.50147 200.01 9.1116 200.685C10.7217 201.361 12.2902 200.11 13.4581 198.917C16.7952 195.48 20.4242 188.906 22.8937 184.818C22.3931 186.219 22.0594 191.133 25.3965 191.275C26.8898 191.342 28.2413 190.441 29.3675 189.431C32.4293 186.728 36.4171 179.528 37.6018 175.624C37.1012 177.243 36.7174 180.905 37.6768 182.298C38.6362 183.691 41.7647 183.575 43.2748 182.799C49.2898 179.729 54.5457 173.447 57.5073 168.433C56.4395 170.293 55.9723 174.865 57.9578 175.666C58.9704 176.062 60.0554 176.238 61.1412 176.183C62.227 176.129 63.2888 175.844 64.2565 175.349C77.221 168.591 85.4135 156.903 91.8123 143.822Z" fill="#BDBDE7"/>
<path d="M86.106 154.15C82.0181 158.78 77.5798 162.952 71.8317 165.354C70.0547 166.105 67.043 167.248 64.3233 166.631C63.2251 166.344 62.257 165.692 61.5779 164.783C60.8988 163.873 60.549 162.76 60.5858 161.625C58.083 165.955 53.9117 170.644 49.7988 172.078C48.0802 172.679 45.1603 173.113 43.4834 171.72C42.0818 170.552 42.0485 168.558 42.1236 166.255C40.4808 169.75 37.7298 172.603 34.2981 174.373C30.0434 176.5 26.6146 175.207 27.4822 171.278C25.9829 173.719 23.9946 175.824 21.6423 177.46C19.2146 179.028 15.3687 179.896 13.4332 177.743C12.1234 176.3 12.2986 174.006 12.8409 171.812C9.87465 179.626 8.05108 187.828 7.42647 196.164C7.30968 197.874 7.48487 200.001 9.095 200.677C10.7051 201.353 12.2736 200.101 13.4415 198.908C16.7786 195.471 20.4076 188.897 22.8771 184.809C22.3765 186.211 22.0428 191.125 25.3799 191.267C26.8732 191.333 28.2247 190.432 29.351 189.423C32.4127 186.72 36.4005 179.52 37.5852 175.616C37.0846 177.234 36.7008 180.897 37.6602 182.29C38.6196 183.683 41.7481 183.566 43.2582 182.79C49.2732 179.72 54.5291 173.438 57.4907 168.424C56.4229 170.285 55.9557 174.857 57.9412 175.657C58.9538 176.053 60.0388 176.23 61.1246 176.175C62.2104 176.12 63.2722 175.836 64.2399 175.34C73.6671 170.443 80.6916 162.935 86.106 154.15Z" fill="#161616"/>
<path opacity="0.2" d="M124.716 32.6478C122.592 31.2144 120.8 29.3426 119.46 27.1583C119.62 28.8455 120.193 30.4673 121.128 31.8803C122.152 33.3159 123.465 34.5209 124.983 35.4175C124.858 34.5332 124.783 33.5988 124.716 32.6478Z" fill="#BDBDE7"/>
<path d="M138.99 20.7011C138.99 21.1961 138.843 21.68 138.568 22.0916C138.293 22.5032 137.902 22.8239 137.445 23.0134C136.988 23.2028 136.484 23.2524 135.999 23.1558C135.513 23.0592 135.067 22.8209 134.717 22.4708C134.367 22.1208 134.129 21.6749 134.032 21.1894C133.936 20.7039 133.985 20.2006 134.175 19.7433C134.364 19.286 134.685 18.8951 135.097 18.6201C135.508 18.3451 135.992 18.1983 136.487 18.1983C137.151 18.1983 137.788 18.462 138.257 18.9314C138.726 19.4007 138.99 20.0373 138.99 20.7011Z" fill="#161616"/>
<path d="M194.627 49.4332L202.97 53.8381C203.053 53.8702 203.119 53.9339 203.155 54.0153C203.191 54.0966 203.194 54.1889 203.161 54.2719C203.129 54.3549 203.066 54.4217 202.984 54.4577C202.903 54.4937 202.811 54.4959 202.728 54.4638C190.122 51.0016 143.92 33.8741 142.744 33.5321C140.613 32.7001 138.852 31.1311 137.78 29.1105C137.205 27.7757 137.78 27.6088 138.573 27.5838C141.653 27.5126 144.664 26.6508 147.316 25.081C149.719 23.6961 151.579 22.3112 152.405 20.0754L206.123 51.7775C206.2 51.8141 206.26 51.8787 206.29 51.9579C206.321 52.0371 206.32 52.1251 206.288 52.2038C206.256 52.2826 206.196 52.3462 206.118 52.3817C206.041 52.4172 205.953 52.4219 205.873 52.3948L194.627 49.4332Z" fill="#FFBE55"/>
<path opacity="0.3" d="M194.627 49.4332L197.914 51.4187C199.733 52.5116 197.755 52.1946 196.204 51.4855L144.721 31.1044L194.627 49.4332Z" fill="#4B4261"/>
<path opacity="0.3" d="M152.897 27.2084C152.805 27.5421 152.246 27.6672 151.646 27.492C151.045 27.3168 150.645 26.9164 150.745 26.591C150.845 26.2657 151.396 26.1322 151.988 26.3074C152.58 26.4826 152.989 26.883 152.897 27.2084Z" fill="#4B4261"/>
<path d="M201.318 164.336L201.251 164.445C191.178 171.514 179.277 175.521 166.98 175.983C159.984 176.349 152.977 175.543 146.248 173.597C141.451 164.286 140.483 147.067 143.912 123.816C149.043 89.0107 170.216 40.4732 170.216 40.4732L176.515 42.7841C176.515 42.7841 178.267 77.5062 179.627 101.45C179.902 106.28 180.361 111.661 181.037 117.192C183.723 139.075 189.797 163.244 201.318 164.336Z" fill="#BDBDE7"/>
<path opacity="0.1" d="M166.98 175.983C179.277 175.521 191.179 171.514 201.251 164.445C201.251 164.445 180.303 172.788 163.543 164.336C146.782 155.885 143.253 128.605 144.713 118.927C144.413 120.596 144.135 122.226 143.879 123.816C140.45 147.067 141.418 164.286 146.215 173.597C152.955 175.547 159.973 176.353 166.98 175.983V175.983Z" fill="#4B4261"/>
<path opacity="0.1" d="M171.927 41.0989C168.782 49.308 159.747 77.5145 158.979 83.296C158.979 83.296 170.659 47.1306 172.728 42.9509L174.229 92.5063V41.9415L171.927 41.0989Z" fill="#4B4261"/>
<path d="M13.3291 222.55H159.743V298.14C159.743 299.108 159.553 300.067 159.182 300.962C158.811 301.857 158.268 302.67 157.583 303.355C156.898 304.04 156.085 304.583 155.19 304.954C154.296 305.324 153.337 305.515 152.368 305.515H20.7045C19.736 305.515 18.7769 305.324 17.8821 304.954C16.9872 304.583 16.1742 304.04 15.4893 303.355C14.8044 302.67 14.2612 301.857 13.8905 300.962C13.5199 300.067 13.3291 299.108 13.3291 298.14V222.55Z" fill="#BDBDE7"/>
<path d="M13.3292 222.55H116.939L104.194 206.237C102.792 204.448 99.3266 203 96.4425 203H3.26351C0.390852 203 -0.817487 204.448 0.584644 206.237L13.3292 222.55Z" fill="#BDBDE7"/>
<path opacity="0.2" d="M13.3292 222.55H116.939L104.194 206.237C102.792 204.448 99.3266 203 96.4425 203H3.26351C0.390852 203 -0.817487 204.448 0.584644 206.237L13.3292 222.55Z" fill="#161616"/>
<path d="M159.744 222.55H56.1455L68.8901 211.914C70.2922 210.774 73.7576 209.805 76.6417 209.805H169.809C172.693 209.805 173.89 210.752 172.488 211.914L159.744 222.55Z" fill="#BDBDE7"/>
<path opacity="0.2" d="M56.1455 222.55H159.744V298.14C159.744 299.108 159.553 300.067 159.182 300.962C158.812 301.857 158.268 302.67 157.583 303.355C156.898 304.04 156.085 304.583 155.191 304.954C154.296 305.324 153.337 305.515 152.368 305.515H63.5209C62.5524 305.515 61.5933 305.324 60.6985 304.954C59.8037 304.583 58.9906 304.04 58.3057 303.355C57.6209 302.67 57.0776 301.857 56.7069 300.962C56.3363 300.067 56.1455 299.108 56.1455 298.14V222.55Z" fill="white"/>
<path opacity="0.5" d="M26.187 222.55V274.395L29.7664 271.568L32.2857 274.395L34.4744 271.248L36.7201 274.395L39.8435 272.035L43.2862 274.395V222.55H26.187Z" fill="white"/>
<path d="M168.515 150.607C168.592 150.088 168.829 149.608 169.203 149.24C169.208 149.235 169.214 149.229 169.22 149.224C170.592 147.851 170.262 145.296 168.483 143.516C166.703 141.736 164.148 141.407 162.775 142.779C162.769 142.785 162.763 142.792 162.757 142.798C162.39 143.172 161.909 143.408 161.391 143.485C160.808 143.572 160.247 143.842 159.801 144.296C158.736 145.38 158.733 147.137 159.794 148.225C160.049 148.488 160.343 148.689 160.658 148.83C161.778 149.331 162.669 150.222 163.17 151.342C163.311 151.657 163.512 151.951 163.775 152.206C164.863 153.268 166.621 153.264 167.705 152.199C168.159 151.753 168.429 151.191 168.515 150.607V150.607Z" fill="white"/>
<path d="M171.186 139.436C172.134 138.488 172.292 137.111 171.541 136.36C170.79 135.609 169.413 135.768 168.466 136.715C167.518 137.663 167.359 139.04 168.111 139.791C168.862 140.542 170.239 140.383 171.186 139.436Z" fill="white"/>
<path d="M163.958 139.709C164.905 138.762 165.064 137.385 164.313 136.633C163.562 135.882 162.185 136.041 161.237 136.989C160.29 137.936 160.131 139.313 160.882 140.064C161.633 140.815 163.01 140.656 163.958 139.709Z" fill="white"/>
<path d="M175.464 143.715C176.412 142.768 176.571 141.391 175.82 140.639C175.068 139.888 173.691 140.047 172.744 140.995C171.797 141.942 171.638 143.319 172.389 144.07C173.14 144.821 174.517 144.662 175.464 143.715Z" fill="white"/>
<path d="M175.102 150.856C176.05 149.908 176.209 148.531 175.457 147.78C174.706 147.029 173.329 147.188 172.382 148.135C171.434 149.082 171.275 150.459 172.027 151.211C172.778 151.962 174.155 151.803 175.102 150.856Z" fill="white"/>
</svg>
