<svg width="21" height="20" viewBox="0 0 21 20" fill="none" xmlns="http://www.w3.org/2000/svg" class="test">
<path d="M17.8313 6.69798L17.8903 6.67654L17.8688 6.61758C17.8134 6.46552 17.8919 6.29745 18.0439 6.24209C18.1959 6.1868 18.3641 6.26518 18.4194 6.41716L18.4409 6.47611L18.4998 6.45466C18.6519 6.39946 18.8199 6.47775 18.8753 6.62973C18.9307 6.78179 18.8523 6.94986 18.7002 7.00522L18.6413 7.02667L18.6627 7.08563C18.7181 7.23769 18.6397 7.40576 18.4876 7.46112C18.4545 7.47316 18.4207 7.47886 18.3875 7.47886C18.2678 7.47886 18.1555 7.40494 18.1122 7.28605L18.0907 7.2271L18.0318 7.24855C17.9987 7.26058 17.9648 7.26628 17.9316 7.26628C17.8119 7.26628 17.6996 7.19237 17.6562 7.07344C17.6009 6.92142 17.6793 6.75335 17.8313 6.69798Z" fill="none"/>
<path d="M11.9211 7.74826C12.3359 7.85836 13.1188 8.25163 13.4229 8.47608C13.553 8.57215 13.5807 8.75558 13.4846 8.88576C13.4272 8.96358 13.3386 9.00472 13.2487 9.00472C13.1883 9.00472 13.1273 8.98609 13.075 8.94745C12.8243 8.76253 12.1075 8.40396 11.7708 8.31453C11.6144 8.273 11.5213 8.11258 11.5628 7.95619C11.6043 7.79991 11.7647 7.70681 11.9211 7.74826Z" fill="none"/>
<path d="M8.9302 8.63995C8.81018 8.63995 8.69145 8.61963 8.57737 8.57962C7.50043 8.20194 7.11665 7.25135 7.11665 6.48767C7.11665 6.40816 7.12646 6.32905 7.14443 6.25099C7.13435 6.1589 7.16787 6.06349 7.243 5.99801C7.36497 5.89171 7.54997 5.9044 7.65635 6.02642C7.78926 6.17894 7.98117 6.26646 8.18281 6.26646C8.38448 6.26646 8.57639 6.17898 8.70934 6.02642C8.81565 5.90452 9.00072 5.89175 9.12269 5.99801C9.1979 6.06353 9.23135 6.15894 9.22127 6.2511C9.2392 6.32913 9.24901 6.4082 9.24901 6.48767C9.24901 6.53291 9.25756 6.55432 9.2601 6.5578C9.26342 6.56057 9.27475 6.56456 9.28303 6.56745C9.83778 6.76197 10.1309 7.37165 9.93631 7.92643C9.7866 8.35322 9.38227 8.63995 8.9302 8.63995ZM9.08909 7.12031C8.86195 7.04065 8.75353 6.88883 8.70337 6.7417C8.54123 6.8137 8.36425 6.85234 8.18285 6.85234C8.02473 6.85234 7.87002 6.82288 7.72547 6.76772C7.80622 7.26479 8.11014 7.79488 8.77135 8.02676C8.82296 8.04485 8.8764 8.05403 8.93024 8.05403C9.13383 8.05403 9.31597 7.92483 9.38344 7.73253C9.471 7.4826 9.33902 7.20799 9.08909 7.12031Z" fill="none"/>
<path d="M10.9724 5.23767C11.4498 5.23767 11.8381 5.62602 11.8381 6.1034C11.8381 6.26523 11.707 6.39638 11.5452 6.39638C11.3834 6.39638 11.2522 6.26527 11.2522 6.1034C11.2522 5.94912 11.1267 5.82359 10.9724 5.82359C10.8182 5.82359 10.6927 5.94908 10.6927 6.1034C10.6927 6.26523 10.5615 6.39638 10.3997 6.39638C10.2379 6.39638 10.1067 6.26527 10.1067 6.1034C10.1068 5.62602 10.4951 5.23767 10.9724 5.23767Z" fill="none"/>
<path d="M2.94278 8.47608C3.24681 8.25163 4.02972 7.8584 4.44456 7.74826C4.60091 7.70681 4.76133 7.79987 4.80286 7.95627C4.84439 8.11262 4.75125 8.27304 4.59486 8.31457C4.25812 8.404 3.54128 8.76254 3.29073 8.94749C3.23834 8.98613 3.17743 9.0048 3.11699 9.0048C3.02717 9.0048 2.93852 8.96359 2.88105 8.8858C2.78498 8.75558 2.8126 8.57219 2.94278 8.47608Z" fill="none"/>
<path d="M0.0885544 10.504C0.256199 10.0434 0.643297 9.69802 1.18726 9.49771C0.751675 8.80786 0.530466 8.00855 0.530466 7.11473C0.530466 6.36874 0.682367 5.64284 0.973743 4.96124C0.164389 3.75169 -0.0583839 2.26578 0.364929 0.856514C0.498625 0.411399 0.883261 0.0886881 1.34478 0.0343038C2.74944 -0.131349 4.13174 0.308061 5.16825 1.24174C6.10852 0.905819 7.12956 0.728992 8.18282 0.728992C9.23612 0.728992 10.2572 0.905819 11.1974 1.24174C12.234 0.308022 13.6164 -0.131232 15.0209 0.0343429C15.4825 0.0887271 15.8671 0.411399 16.0008 0.856553C16.4241 2.26585 16.2013 3.75173 15.3919 4.96127C15.6833 5.6428 15.8353 6.36874 15.8353 7.11476C15.8353 7.65146 15.7555 8.15275 15.5994 8.61549C15.9945 8.63018 16.3603 8.41037 16.5308 8.04473C16.7217 7.6354 16.6118 7.14938 16.2636 6.86277C16.1515 6.77049 16.0824 6.63937 16.0689 6.49364C16.0554 6.3476 16.1017 6.19941 16.1959 6.08709C17.0935 5.01683 18.1625 4.59051 18.986 4.97448C20.1299 5.50785 20.3389 7.39907 19.4618 9.27994C18.9533 10.3705 18.1776 11.2275 17.3629 11.6087C17.447 12.0296 17.4673 12.4873 17.4216 12.9429C17.3887 13.2705 17.1983 13.5632 16.9122 13.726C16.7571 13.8143 16.5834 13.8587 16.4095 13.8587C16.263 13.8587 16.1163 13.8272 15.9802 13.7637L15.9168 13.7341C15.2041 14.2238 14.2819 14.5022 13.3569 14.5022C13.2191 14.5022 13.0803 14.4958 12.9445 14.4832C12.809 14.4706 12.6746 14.4506 12.5422 14.425C12.4559 14.6558 12.3493 14.8777 12.2241 15.0888C12.502 15.2634 12.7652 15.2762 13.1231 15.1475C14.4027 14.6875 15.8532 14.166 17.194 15.2401C17.3772 15.3868 17.4923 15.5961 17.5181 15.8294C17.5439 16.0627 17.4773 16.2921 17.3305 16.4753C17.1838 16.6585 16.9745 16.7735 16.7412 16.7993C16.5079 16.825 16.2785 16.7585 16.0953 16.6117C16.0161 16.5483 15.9357 16.4978 15.851 16.4594C15.8498 16.459 15.8487 16.4585 15.8476 16.458C15.4082 16.261 14.8499 16.3943 13.7174 16.8013C13.3666 16.9274 13.0197 16.9914 12.6864 16.9914C12.18 16.9914 11.6984 16.8454 11.2548 16.5575C11.179 16.5084 11.1048 16.4552 11.0309 16.3979C10.9621 16.4484 10.8916 16.4969 10.8197 16.5438C10.8147 17.042 11.0458 17.7671 11.2552 18.3595C11.4813 18.9991 11.145 19.7032 10.5054 19.9294C10.3728 19.9762 10.2348 20 10.0954 20C9.57517 20 9.10903 19.6703 8.93557 19.1795C8.66767 18.4218 8.50534 17.8318 8.42317 17.3126C8.34355 17.3165 8.26346 17.3185 8.18286 17.3185C7.52173 17.3185 6.8833 17.1898 6.29531 16.943C6.26206 16.9765 6.2287 17.0155 6.19897 17.0609C6.12876 17.1678 6.0702 17.3144 6.16763 17.59C6.39373 18.2295 6.05742 18.9337 5.41794 19.1599C5.28541 19.2067 5.14742 19.2305 5.00783 19.2305C4.4911 19.2305 4.02602 18.9038 3.85068 18.4176C3.79575 18.2654 3.87463 18.0976 4.02684 18.0426C4.1789 17.9877 4.3469 18.0666 4.40183 18.2188C4.49376 18.4735 4.73723 18.6446 5.00787 18.6446C5.08077 18.6446 5.15301 18.6321 5.22263 18.6075C5.55753 18.4891 5.73365 18.1202 5.61528 17.7853C5.47572 17.3906 5.50643 17.0485 5.70916 16.7394C5.72404 16.7168 5.73936 16.6951 5.75495 16.6742C5.63035 16.6019 5.50842 16.5244 5.39024 16.4405C5.15434 16.2729 4.93719 16.0838 4.74075 15.8779C4.63491 16.0164 4.54435 16.1638 4.4702 16.3186C4.3553 16.5586 4.28278 16.8127 4.25477 17.0739C4.23867 17.2242 4.11166 17.3357 3.96386 17.3357C3.95343 17.3357 3.94288 17.3351 3.93225 17.334C3.77141 17.3167 3.65494 17.1723 3.67221 17.0114C3.70729 16.6839 3.79801 16.3656 3.94179 16.0655C4.05216 15.835 4.19175 15.6183 4.35799 15.4185C4.21476 15.2206 4.08927 15.0118 3.98289 14.7949C3.75969 15.0185 3.45159 15.1537 3.11317 15.1537C3.04882 15.1537 2.98369 15.1486 2.91974 15.1385C2.59519 15.0871 2.31006 14.9125 2.11687 14.6466C1.92371 14.3808 1.84561 14.0557 1.89695 13.7312C1.90922 13.6537 1.92441 13.5757 1.94098 13.4973C0.487059 12.6992 -0.270725 11.4909 0.0885544 10.504ZM16.4616 16.1544C16.5227 16.2033 16.5991 16.2256 16.6768 16.2169C16.7546 16.2083 16.8243 16.17 16.8732 16.1089C16.9221 16.0479 16.9443 15.9715 16.9357 15.8937C16.9271 15.816 16.8888 15.7463 16.8277 15.6974C16.7522 15.6369 16.6763 15.5834 16.6 15.535C16.4707 15.6584 16.3503 15.8286 16.2902 16.0325C16.3478 16.0688 16.405 16.1091 16.4616 16.1544ZM1.28196 4.34574C1.65542 3.69832 2.16254 3.10197 2.7921 2.58083C2.83488 2.54543 2.87813 2.51054 2.92165 2.47613C2.21079 1.90509 1.43261 1.62563 0.815708 1.48959C0.692797 2.17033 0.661621 3.24571 1.28196 4.34574ZM1.41335 0.6162C1.22082 0.638899 1.05556 0.755637 0.967884 0.923244C1.68445 1.08448 2.59296 1.42118 3.41107 2.12079C3.77082 1.88063 4.15288 1.66962 4.55314 1.48939C3.67151 0.798379 2.55081 0.482153 1.41335 0.6162ZM14.9524 0.6162C13.8148 0.482153 12.6942 0.798379 11.8125 1.48943C12.2128 1.66966 12.5948 1.88067 12.9546 2.12083C13.7727 1.42126 14.6812 1.08448 15.3977 0.923283C15.3101 0.755676 15.1449 0.638899 14.9524 0.6162ZM15.5499 1.48959C14.933 1.62563 14.1549 1.90509 13.444 2.47613C13.4876 2.51058 13.5308 2.54543 13.5735 2.58083C14.2031 3.10201 14.7102 3.69836 15.0837 4.34578C15.7041 3.24571 15.6728 2.17037 15.5499 1.48959ZM15.8242 12.3329C15.8926 12.1863 16.0669 12.1227 16.2135 12.1913C16.3601 12.2596 16.4236 12.4339 16.3552 12.5806L16.0826 13.165L16.2276 13.2326C16.3556 13.2923 16.4995 13.2865 16.6223 13.2166C16.7455 13.1465 16.8243 13.0254 16.8385 12.8844C16.8955 12.317 16.826 11.8654 16.7578 11.5864C16.7115 11.3968 16.8133 11.2003 16.9949 11.1293C17.7175 10.8467 18.4594 10.0432 18.9307 9.03224C19.6443 7.50194 19.5562 5.88686 18.7383 5.50543C18.6191 5.44983 18.4884 5.42288 18.3495 5.42288C17.8393 5.42288 17.2202 5.78763 16.6673 6.43688C17.197 6.89645 17.3598 7.65325 17.0618 8.29235C16.7729 8.91191 16.1317 9.26986 15.4565 9.1925C15.401 9.672 15.4335 10.108 15.5508 10.4559C15.6131 10.6406 15.5281 10.845 15.3529 10.9314C15.0954 11.0584 14.7049 11.2955 14.3068 11.7039C14.2079 11.8054 14.1658 11.9436 14.1913 12.083C14.2167 12.222 14.3047 12.336 14.4327 12.3957L14.5777 12.4633L14.8503 11.8789C14.9187 11.7323 15.093 11.6687 15.2396 11.7372C15.3862 11.8056 15.4497 11.9799 15.3813 12.1265L15.1088 12.7109L15.5516 12.9174L15.8242 12.3329ZM12.9985 13.8997C13.1164 13.9106 13.237 13.9162 13.3569 13.9162C14.0384 13.9162 14.7151 13.7446 15.2802 13.4372L14.5958 13.1181C14.5958 13.1181 14.5957 13.118 14.5957 13.118C14.5957 13.118 14.5957 13.118 14.5957 13.118L14.1853 12.9267C14.024 12.8514 13.8879 12.7359 13.7873 12.5946C13.6436 12.6164 13.4991 12.6277 13.3575 12.6277C13.2763 12.6277 13.1961 12.6241 13.1176 12.6168C12.9954 12.6054 12.8805 12.5855 12.7738 12.5581C12.7903 12.7068 12.7986 12.8571 12.7986 13.0086C12.7986 13.3003 12.7673 13.5851 12.7078 13.8607C12.8036 13.8776 12.9007 13.8906 12.9985 13.8997ZM12.6347 11.8661C12.7244 11.9342 12.9026 12.0084 13.1716 12.0333C13.3091 12.0461 13.4537 12.0442 13.5991 12.0285C13.5931 11.7575 13.6954 11.4919 13.8874 11.2949C14.2071 10.9669 14.5709 10.6882 14.9474 10.4821C14.9028 10.3136 14.8734 10.1322 14.8579 9.94196C14.303 10.6118 13.5188 11.1499 12.5226 11.538C12.5647 11.6462 12.6021 11.7556 12.6347 11.8661ZM11.5737 16.0661C11.9207 16.2913 12.295 16.4054 12.6863 16.4054C12.9519 16.4054 13.2321 16.3531 13.5192 16.2499C14.4451 15.9171 15.1425 15.699 15.7442 15.8151C15.8079 15.6227 15.9083 15.4409 16.0383 15.2802C15.1792 15.0315 14.2703 15.3577 13.321 15.6989C12.782 15.8926 12.3305 15.8539 11.892 15.5706C11.769 15.7254 11.635 15.8723 11.4914 16.0103C11.5188 16.0295 11.5462 16.0481 11.5737 16.0661ZM9.48792 18.9842C9.5788 19.2413 9.82286 19.414 10.0953 19.414C10.1682 19.414 10.2404 19.4015 10.3101 19.3769C10.645 19.2585 10.8211 18.8897 10.7027 18.5547C10.506 17.9983 10.3115 17.3876 10.252 16.8602C9.86459 17.0424 9.44628 17.1753 9.00632 17.2495C9.08422 17.7256 9.2371 18.2747 9.48792 18.9842ZM8.18282 16.7324C10.4049 16.7324 12.2126 15.0619 12.2126 13.0086C12.2126 12.5677 12.1305 12.1392 11.9689 11.7313C11.6863 11.8194 11.3896 11.897 11.0784 11.9635C11.0578 11.9679 11.0372 11.97 11.0169 11.97C10.8816 11.97 10.7601 11.8758 10.7307 11.7382C10.6969 11.5799 10.7978 11.4243 10.956 11.3905C12.2933 11.1048 13.3428 10.6101 14.0753 9.91981C14.8543 9.18582 15.2493 8.24207 15.2493 7.11476C15.2493 3.91672 12.0793 1.31499 8.18278 1.31499C4.2863 1.31499 1.11631 3.91676 1.11631 7.11476C1.11631 7.96569 1.34295 8.71519 1.78982 9.34589C2.01044 9.31193 2.24681 9.29599 2.49685 9.29982C2.71967 9.30353 2.92447 9.4266 3.03124 9.62101C3.11505 9.7735 3.25136 9.89031 3.41513 9.94986C3.44463 9.9606 3.47522 9.96951 3.50624 9.97635C3.6692 10.0122 3.8011 10.1292 3.85896 10.2892C3.96343 10.5778 4.18839 10.8034 4.4761 10.9081C4.80502 11.0279 5.16891 10.9736 5.44962 10.7629C5.69525 10.5785 6.0364 10.6022 6.26089 10.8193C6.50097 11.0515 6.69483 11.2943 6.83884 11.5428C7.25079 11.4224 7.70383 11.362 8.16301 11.368C8.42036 11.3713 8.66458 11.4727 8.8484 11.6462C9.11661 11.6349 9.38158 11.6169 9.63752 11.5919C9.79849 11.5766 9.94183 11.6939 9.95757 11.8549C9.97336 12.0159 9.85561 12.1593 9.69456 12.175C9.51754 12.1923 9.33626 12.2062 9.15295 12.2173C9.18151 12.388 9.16693 12.5656 9.10618 12.7324L8.95127 13.1581C8.95127 13.1581 8.95127 13.1581 8.95127 13.1581L8.42888 14.5935C8.31644 14.9023 8.0601 15.1387 7.7431 15.2258C7.65449 15.2502 7.56408 15.2621 7.47411 15.2621C7.2418 15.2621 7.01293 15.1825 6.82919 15.0324C6.47452 14.7424 6.16521 14.4043 5.92709 14.0472C5.48709 14.2058 4.95016 14.2679 4.37499 14.2283C4.93231 15.7124 6.46671 16.7324 8.18282 16.7324ZM2.59074 14.3021C2.69189 14.4414 2.84121 14.5328 3.0112 14.5597C3.04499 14.5651 3.0793 14.5678 3.11305 14.5678C3.41564 14.5678 3.67166 14.3608 3.73894 14.0696C3.73992 14.0638 3.74113 14.0581 3.74246 14.0524C3.74437 14.043 3.74672 14.0337 3.74824 14.0241C3.75808 13.9619 3.77082 13.8987 3.78547 13.8347C3.78555 13.8344 3.78559 13.8341 3.78567 13.8338C3.83861 13.6033 3.92225 13.3616 4.03637 13.1123C4.18421 12.7893 4.04173 12.4062 3.71874 12.2584C3.63209 12.2187 3.54121 12.2 3.45159 12.2C3.20717 12.2 2.97291 12.3397 2.86477 12.576C2.73475 12.8602 2.63379 13.1416 2.56175 13.4171C2.56144 13.4183 2.56112 13.4195 2.56081 13.4208C2.52545 13.5563 2.49654 13.6906 2.47564 13.8227C2.44864 13.9927 2.48955 14.1629 2.59074 14.3021ZM2.10108 12.9142C2.16617 12.7213 2.24271 12.527 2.33194 12.3322C2.61426 11.7154 3.34567 11.4434 3.96245 11.7255C4.57924 12.0078 4.85136 12.7393 4.56908 13.3561C4.52384 13.455 4.48438 13.5518 4.45059 13.6463C4.98786 13.6794 5.47572 13.6115 5.84899 13.448C6.02714 13.3699 6.23784 13.4366 6.33919 13.6034C6.48812 13.849 6.7584 14.2175 7.20023 14.5787C7.31002 14.6684 7.45133 14.6983 7.58799 14.6608C7.72423 14.6233 7.8301 14.5258 7.87839 14.393L7.93309 14.2427L7.32709 14.0222C7.17503 13.9668 7.09662 13.7987 7.15202 13.6467C7.20738 13.4946 7.37549 13.4163 7.52751 13.4716L8.13348 13.6922L8.30058 13.233L7.69457 13.0124C7.54252 12.957 7.46414 12.7889 7.51947 12.6369C7.57483 12.4849 7.74294 12.4066 7.89496 12.4618L8.50092 12.6824L8.55566 12.5321C8.60399 12.3994 8.58566 12.2565 8.5053 12.1403C8.42474 12.0237 8.29725 11.9557 8.15551 11.9539C7.58483 11.9472 7.14092 12.0553 6.86889 12.1477C6.68448 12.2102 6.48011 12.1259 6.39361 11.9515C6.27468 11.7112 6.09297 11.472 5.8536 11.2404C5.83813 11.2255 5.81468 11.2215 5.8014 11.2315C5.36183 11.5615 4.79154 11.6464 4.27571 11.4587C3.84017 11.3002 3.4964 10.9652 3.32582 10.5353C3.28816 10.5253 3.25093 10.5136 3.21471 10.5005C2.91759 10.3924 2.67013 10.1803 2.51784 9.90325C2.51217 9.89293 2.49986 9.8859 2.48728 9.8857C1.53583 9.87015 0.828602 10.1838 0.639116 10.7045C0.398958 11.3641 1.01805 12.2772 2.10108 12.9142Z" fill="none"/>
<path d="M1.57522 10.9428L1.63211 10.9162L1.60558 10.8593C1.53717 10.7127 1.60062 10.5384 1.74724 10.47C1.89379 10.4017 2.06816 10.4651 2.13657 10.6117L2.1631 10.6686L2.21998 10.642C2.36657 10.5737 2.54089 10.6371 2.6093 10.7837C2.67771 10.9303 2.61427 11.1047 2.46764 11.173L2.41075 11.1996L2.43728 11.2564C2.50569 11.4031 2.44225 11.5774 2.29562 11.6458C2.25557 11.6644 2.21342 11.6733 2.172 11.6733C2.06171 11.6733 1.95603 11.6107 1.90629 11.5041L1.87977 11.4472L1.82288 11.4737C1.78284 11.4924 1.74068 11.5013 1.69927 11.5013C1.58897 11.5013 1.48329 11.4387 1.43356 11.3321C1.36515 11.1854 1.4286 11.0111 1.57522 10.9428Z" fill="none"/>
<path d="M4.53968 7.07681C4.51846 7.23723 4.37078 7.34975 4.21087 7.32889C3.86534 7.2831 3.06607 7.34163 2.76394 7.41718C2.74007 7.42312 2.71616 7.42601 2.69264 7.42601C2.56141 7.42601 2.44194 7.33713 2.40861 7.20402C2.36939 7.04704 2.46483 6.88799 2.62177 6.84873C2.98836 6.75707 3.86202 6.69187 4.28756 6.74805C4.44798 6.76922 4.56089 6.91644 4.53968 7.07681Z" fill="none"/>
<path d="M5.96593 6.39634C5.80411 6.39634 5.67299 6.26523 5.67299 6.1034C5.67299 5.94912 5.5475 5.82359 5.39318 5.82359C5.23893 5.82359 5.1134 5.94908 5.1134 6.1034C5.1134 6.26523 4.98229 6.39634 4.82046 6.39634C4.65864 6.39634 4.52748 6.26523 4.52748 6.1034C4.52748 5.62602 4.91579 5.23767 5.39318 5.23767C5.87056 5.23767 6.25891 5.62602 6.25891 6.1034C6.25891 6.26523 6.12776 6.39634 5.96593 6.39634Z" fill="none"/>
<path d="M12.1549 7.32889C11.9945 7.35034 11.8473 7.23723 11.8261 7.07681C11.8049 6.91644 11.9177 6.76922 12.0782 6.74801C12.5037 6.69191 13.3773 6.75707 13.744 6.84869C13.9009 6.88795 13.9964 7.047 13.9571 7.20398C13.9238 7.33705 13.8044 7.42598 13.6732 7.42598C13.6496 7.42598 13.6257 7.42312 13.6019 7.41715C13.2997 7.34159 12.5004 7.28318 12.1549 7.32889Z" fill="none"/>
</svg>
