<svg width="34" height="33" viewBox="0 0 34 33" fill="none" xmlns="http://www.w3.org/2000/svg">
<path d="M33.2857 16.5C33.2857 25.3255 25.9575 32.5 16.8929 32.5C7.82818 32.5 0.5 25.3255 0.5 16.5C0.5 7.67447 7.82818 0.5 16.8929 0.5C25.9575 0.5 33.2857 7.67447 33.2857 16.5Z" stroke="#B3BACC"/>
<path d="M27.5698 12.7186H23.1344L18.9865 8.36987C18.5315 7.89282 17.7732 7.87483 17.296 8.3299C17.2826 8.34274 17.2696 8.35593 17.2568 8.36925C17.2441 8.35593 17.2311 8.34278 17.2176 8.3299C16.7405 7.87487 15.9822 7.89277 15.5271 8.36987L11.3792 12.7186H9.38096C9.19878 12.7186 9.05117 12.8662 9.05117 13.0483C9.05117 13.2305 9.19878 13.3781 9.38096 13.3781H10.7501L10.7166 13.4133C10.7166 13.4133 10.7166 13.4133 10.7165 13.4133C10.3592 13.788 10.2937 14.3362 10.5131 14.7747C10.1326 14.7747 7.39246 14.7747 6.94386 14.7747C6.78714 14.7747 6.65958 14.6472 6.65958 14.4904V13.6625C6.65958 13.5057 6.7871 13.3782 6.94386 13.3782H7.83279C8.01497 13.3782 8.16258 13.2305 8.16258 13.0484C8.16258 12.8663 8.01497 12.7186 7.83279 12.7186H6.94386C6.42341 12.7186 6 13.142 6 13.6625V14.4905C6 15.0109 6.42341 15.4344 6.94386 15.4344H7.42337L8.97769 23.4802C9.14782 24.3608 9.92221 25 10.8191 25H23.7115C24.6084 25 25.3828 24.3609 25.553 23.4802L25.6588 22.9322C25.6933 22.7534 25.5764 22.5804 25.3975 22.5459C25.2188 22.5113 25.0458 22.6283 25.0112 22.8071L24.9054 23.3551C24.7951 23.926 24.293 24.3404 23.7116 24.3404H10.8191C10.2376 24.3404 9.73559 23.9261 9.62535 23.3552L8.09513 15.4343H26.4355L25.3062 21.2798C25.2717 21.4586 25.3887 21.6315 25.5675 21.6661C25.7478 21.7009 25.9195 21.5822 25.9538 21.4049L27.1072 15.4343H27.5697C28.0902 15.4343 28.5136 15.0109 28.5136 14.4904V13.6625C28.5136 13.142 28.0902 12.7186 27.5698 12.7186V12.7186ZM17.2568 10.0212L19.8296 12.7186H14.684L17.2568 10.0212ZM11.2117 14.6265C10.9978 14.4225 10.9898 14.0825 11.1938 13.8686H11.1938L16.0043 8.82511C16.2084 8.61118 16.5484 8.60314 16.7623 8.80717C16.9712 9.00636 16.9881 9.34727 16.7802 9.56516L11.9697 14.6086C11.7656 14.8226 11.4256 14.8306 11.2117 14.6265V14.6265ZM12.7228 14.7747L14.0549 13.3781H20.4588L21.7908 14.7747H12.7228ZM23.3019 14.6265C23.088 14.8306 22.7479 14.8225 22.5439 14.6086L17.7333 9.56516C17.5253 9.34705 17.5427 9.00614 17.7513 8.80717C17.9651 8.60309 18.3052 8.61118 18.5093 8.82506L23.3197 13.8685C23.5238 14.0825 23.5158 14.4225 23.3019 14.6265ZM27.854 14.4905C27.854 14.6473 27.7265 14.7748 27.5698 14.7748C27.1215 14.7748 24.4382 14.7748 24.0005 14.7748C24.22 14.3363 24.1545 13.7881 23.7971 13.4134L23.7635 13.3782H27.5698C27.7265 13.3782 27.854 13.5057 27.854 13.6625V14.4905Z" fill="#B3BACC"/>
<path d="M12.6659 17.0934C12.1271 17.1883 11.7678 17.701 11.8626 18.2399L12.5561 22.1785C12.651 22.718 13.1631 23.0768 13.7026 22.9817C14.2414 22.8869 14.6006 22.3741 14.5058 21.8352L13.8124 17.8967C13.7176 17.3582 13.2048 16.9986 12.6659 17.0934V17.0934ZM13.5882 22.3321C13.4078 22.3639 13.2373 22.2444 13.2057 22.0641L12.5122 18.1256C12.4805 17.9459 12.6003 17.7747 12.7802 17.743C12.9593 17.7114 13.1312 17.8309 13.1628 18.011L13.8562 21.9496C13.8879 22.1293 13.7681 22.3005 13.5882 22.3321V22.3321Z" fill="#B3BACC"/>
<path d="M16.2668 18.0683V22.0068C16.2668 22.5527 16.7109 22.9967 17.2567 22.9967C17.8026 22.9967 18.2466 22.5527 18.2466 22.0068V18.0683C18.2466 17.5225 17.8026 17.0784 17.2567 17.0784C16.7109 17.0784 16.2668 17.5225 16.2668 18.0683ZM17.5871 18.0683V22.0068C17.5871 22.189 17.4389 22.3372 17.2567 22.3372C17.0746 22.3372 16.9264 22.189 16.9264 22.0068V18.0683C16.9264 17.8862 17.0746 17.738 17.2567 17.738C17.4389 17.738 17.5871 17.8862 17.5871 18.0683Z" fill="#B3BACC"/>
<path d="M21.8477 17.0933C21.3107 16.9989 20.7959 17.3592 20.7013 17.8966L20.0079 21.8352C19.9131 22.3739 20.2721 22.8868 20.8112 22.9818C21.3519 23.0768 21.8629 22.7169 21.9576 22.1785L22.6511 18.24C22.7459 17.7011 22.3868 17.1883 21.8477 17.0933V17.0933ZM22.0015 18.1256L21.308 22.0641C21.2764 22.244 21.1063 22.3639 20.9255 22.3322C20.7457 22.3005 20.6257 22.1294 20.6575 21.9496L21.3509 18.011C21.3823 17.8326 21.5529 17.7114 21.7334 17.743C21.9132 17.7747 22.0332 17.9457 22.0015 18.1256V18.1256Z" fill="#B3BACC"/>
</svg>
