<svg width="34" height="34" viewBox="0 0 34 34" fill="none" xmlns="http://www.w3.org/2000/svg">
<path d="M22.2733 11.0642C22.5515 10.4027 22.7894 9.72501 22.9855 9.03474C22.9949 8.99745 22.9957 8.95851 22.9878 8.92088C22.9798 8.88325 22.9634 8.84792 22.9398 8.8176C22.9161 8.78728 22.8859 8.76277 22.8513 8.74593C22.8167 8.7291 22.7787 8.72038 22.7403 8.72046H11.2585C11.22 8.72038 11.1821 8.7291 11.1475 8.74593C11.1129 8.76277 11.0826 8.78728 11.059 8.8176C11.0353 8.84792 11.0189 8.88325 11.011 8.92088C11.0031 8.95851 11.0039 8.99745 11.0133 9.03474C11.2098 9.72503 11.448 10.4028 11.7266 11.0642C10.9781 12.9801 10.9911 18.391 11.003 23.6284C11.0046 24.2793 11.0061 24.9253 11.0061 25.5587C11.0061 25.6256 11.0327 25.6898 11.08 25.7371C11.1274 25.7844 11.1915 25.811 11.2585 25.8111H22.7414C22.8084 25.811 22.8725 25.7844 22.9199 25.7371C22.9672 25.6898 22.9938 25.6256 22.9938 25.5587C22.9938 24.9253 22.9953 24.2793 22.9969 23.6284C23.0091 18.3923 23.0218 12.9807 22.2733 11.0642ZM22.4921 23.6266C22.4906 24.1915 22.4895 24.7528 22.4892 25.3055H11.5107C11.5107 24.7528 11.5093 24.1915 11.5079 23.6266C11.4965 18.7304 11.4838 13.2001 12.1713 11.3153H12.8648C12.9317 11.3153 12.9959 11.2887 13.0432 11.2414C13.0906 11.194 13.1172 11.1298 13.1172 11.0629C13.1172 10.9959 13.0906 10.9317 13.0432 10.8844C12.9959 10.8371 12.9317 10.8105 12.8648 10.8105H12.1683C12.0454 10.5095 11.7711 9.81891 11.5914 9.22396H22.4086C22.2283 9.81891 21.9539 10.5095 21.8316 10.8105H21.135C21.0681 10.8105 21.0039 10.8371 20.9565 10.8844C20.9092 10.9317 20.8826 10.9959 20.8826 11.0629C20.8826 11.1298 20.9092 11.194 20.9565 11.2414C21.0039 11.2887 21.0681 11.3153 21.135 11.3153H21.8285C22.5162 13.2014 22.5035 18.7317 22.4921 23.6279V23.6266Z" fill="#B3BACC"/>
<path d="M21.6298 22.4309L21.6273 23.6259C21.6272 23.659 21.6337 23.6919 21.6463 23.7225C21.6589 23.7532 21.6774 23.7811 21.7008 23.8046C21.7242 23.8281 21.752 23.8467 21.7826 23.8595C21.8132 23.8722 21.846 23.8788 21.8791 23.8789C21.946 23.8789 22.0101 23.8524 22.0574 23.8051C22.1047 23.7579 22.1314 23.6939 22.1315 23.627L22.134 22.4315C22.134 22.3646 22.1075 22.3004 22.0602 22.253C22.013 22.2056 21.9488 22.1789 21.8819 22.1788C21.815 22.1789 21.751 22.2055 21.7037 22.2528C21.6564 22.3 21.6298 22.3641 21.6298 22.4309Z" fill="#B3BACC"/>
<path d="M14.5191 11.3166H16.173C16.2399 11.3166 16.3041 11.29 16.3515 11.2426C16.3988 11.1953 16.4254 11.1311 16.4254 11.0642C16.4254 10.9972 16.3988 10.933 16.3515 10.8857C16.3041 10.8384 16.2399 10.8118 16.173 10.8118H14.5191C14.4522 10.8118 14.388 10.8384 14.3407 10.8857C14.2933 10.933 14.2667 10.9972 14.2667 11.0642C14.2667 11.1311 14.2933 11.1953 14.3407 11.2426C14.388 11.29 14.4522 11.3166 14.5191 11.3166Z" fill="#B3BACC"/>
<path d="M17.8267 11.3166H19.4806C19.5476 11.3166 19.6118 11.29 19.6591 11.2426C19.7064 11.1953 19.733 11.1311 19.733 11.0642C19.733 10.9972 19.7064 10.933 19.6591 10.8857C19.6118 10.8384 19.5476 10.8118 19.4806 10.8118H17.8267C17.7598 10.8118 17.6956 10.8384 17.6483 10.8857C17.6009 10.933 17.5743 10.9972 17.5743 11.0642C17.5743 11.1311 17.6009 11.1953 17.6483 11.2426C17.6956 11.29 17.7598 11.3166 17.8267 11.3166Z" fill="#B3BACC"/>
<path d="M18.7883 18.5871C18.8388 18.5431 18.8698 18.4809 18.8743 18.4141C18.8789 18.3474 18.8568 18.2815 18.8129 18.231C18.6681 18.0891 18.4735 18.0096 18.2708 18.0096C18.0682 18.0096 17.8736 18.0891 17.7288 18.231C17.7058 18.2558 17.6881 18.2849 17.6765 18.3167C17.665 18.3485 17.66 18.3822 17.6618 18.416C17.6636 18.4497 17.6721 18.4828 17.6869 18.5132C17.7017 18.5436 17.7224 18.5707 17.7479 18.5929C17.7734 18.6151 17.803 18.632 17.8351 18.6425C17.8673 18.6531 17.9012 18.657 17.9348 18.6542C17.9685 18.6514 18.0013 18.6419 18.0312 18.6262C18.0611 18.6104 18.0876 18.5889 18.109 18.5627C18.157 18.5312 18.2132 18.5144 18.2707 18.5144C18.3282 18.5144 18.3844 18.5312 18.4324 18.5627C18.4763 18.6132 18.5385 18.6441 18.6053 18.6487C18.672 18.6533 18.7379 18.6312 18.7883 18.5873V18.5871Z" fill="#B3BACC"/>
<path d="M16.2471 18.5866C16.2721 18.5648 16.2925 18.5384 16.3073 18.5087C16.322 18.479 16.3308 18.4467 16.333 18.4136C16.3353 18.3805 16.331 18.3473 16.3204 18.3159C16.3098 18.2845 16.2931 18.2555 16.2713 18.2305C16.1266 18.0886 15.932 18.0092 15.7293 18.0092C15.5266 18.0092 15.332 18.0886 15.1873 18.2305C15.144 18.2811 15.1224 18.3467 15.1273 18.4131C15.1321 18.4794 15.163 18.5412 15.2131 18.585C15.2633 18.6287 15.3287 18.6508 15.3951 18.6466C15.4615 18.6423 15.5236 18.612 15.5678 18.5623C15.6158 18.5307 15.672 18.5139 15.7294 18.5139C15.7869 18.5139 15.8431 18.5307 15.8911 18.5623C15.9129 18.5872 15.9394 18.6077 15.969 18.6224C15.9987 18.6372 16.031 18.6459 16.0641 18.6482C16.0971 18.6504 16.1303 18.6462 16.1617 18.6356C16.1931 18.6251 16.2221 18.6084 16.2471 18.5866Z" fill="#B3BACC"/>
<path d="M20.4391 19.9863C20.3168 19.9384 20.1909 19.9003 20.0625 19.8725C20.1458 19.5745 20.1883 19.2665 20.1888 18.957C20.1923 18.4708 20.0737 17.9915 19.8438 17.563C19.9461 16.9012 19.9034 16.2251 19.7186 15.5814C19.7087 15.5481 19.6919 15.5173 19.6693 15.491C19.6467 15.4647 19.6188 15.4434 19.5874 15.4285C19.5565 15.4129 19.5227 15.4041 19.4881 15.4026C19.4535 15.4011 19.419 15.407 19.3869 15.4199C18.9403 15.6149 18.5254 15.876 18.1563 16.1943C17.4044 15.9521 16.5954 15.9521 15.8435 16.1943C15.4744 15.876 15.0596 15.6149 14.6129 15.4199C14.5808 15.407 14.5463 15.4011 14.5117 15.4026C14.4772 15.4041 14.4433 15.4129 14.4124 15.4285C14.3811 15.4434 14.3531 15.4647 14.3305 15.491C14.3079 15.5173 14.2911 15.5481 14.2812 15.5814C14.0965 16.2251 14.0538 16.9012 14.156 17.563C13.9262 17.9915 13.8076 18.4708 13.811 18.957C13.8116 19.2665 13.8541 19.5745 13.9374 19.8727C13.809 19.9004 13.6831 19.9385 13.5608 19.9863C13.5301 19.9991 13.5022 20.0177 13.4788 20.0412C13.4553 20.0647 13.4367 20.0926 13.424 20.1233C13.4113 20.154 13.4048 20.1869 13.4048 20.2201C13.4049 20.2533 13.4114 20.2862 13.4242 20.3169C13.4369 20.3476 13.4556 20.3754 13.4791 20.3989C13.5026 20.4224 13.5305 20.441 13.5612 20.4537C13.5919 20.4663 13.6248 20.4729 13.658 20.4728C13.6912 20.4728 13.7241 20.4662 13.7548 20.4535C13.8694 20.4089 13.9881 20.3754 14.1091 20.3535C14.1531 20.4534 14.2011 20.5509 14.2534 20.646C14.1429 20.6799 14.0367 20.7266 13.9371 20.7852C13.9083 20.8022 13.8833 20.8247 13.8633 20.8515C13.8434 20.8782 13.8289 20.9087 13.8208 20.941C13.8127 20.9734 13.8111 21.007 13.816 21.04C13.821 21.073 13.8325 21.1047 13.8498 21.1333C13.8671 21.1618 13.8898 21.1866 13.9168 21.2063C13.9437 21.226 13.9743 21.2401 14.0068 21.2479C14.0392 21.2557 14.0729 21.2569 14.1058 21.2516C14.1388 21.2463 14.1703 21.2345 14.1987 21.2169C14.3058 21.1571 14.4216 21.1143 14.5418 21.0898C15.1372 21.873 16.0349 22.3915 17.0002 22.3915C17.9655 22.3915 18.8631 21.873 19.4586 21.09C19.5788 21.1144 19.6945 21.1572 19.8017 21.2169C19.8301 21.2351 19.8618 21.2475 19.895 21.2532C19.9282 21.259 19.9623 21.258 19.9951 21.2504C20.0279 21.2428 20.0589 21.2287 20.0862 21.2089C20.1135 21.1891 20.1366 21.1641 20.154 21.1352C20.1715 21.1064 20.183 21.0744 20.1879 21.041C20.1927 21.0077 20.1909 20.9737 20.1824 20.941C20.1739 20.9084 20.159 20.8778 20.1385 20.8511C20.118 20.8243 20.0923 20.8019 20.0631 20.7852C19.9634 20.7266 19.8573 20.6799 19.7468 20.646C19.7993 20.5511 19.8473 20.4536 19.891 20.3535C20.0121 20.3754 20.1307 20.4089 20.2454 20.4535C20.3072 20.4791 20.3767 20.4791 20.4386 20.4535C20.5004 20.4279 20.5496 20.3788 20.5752 20.3169C20.6008 20.2551 20.6009 20.1855 20.5752 20.1237C20.5496 20.0618 20.5005 20.0127 20.4386 19.9871L20.4391 19.9863ZM19.3061 16.017C19.3703 16.3269 19.4015 16.6428 19.399 16.9592C19.1896 16.7437 18.9482 16.5618 18.6834 16.4198C18.8808 16.2704 19.0889 16.1358 19.3061 16.017ZM14.6937 16.017C14.9114 16.135 15.1197 16.2696 15.3168 16.4197C15.0518 16.5616 14.8103 16.7436 14.601 16.9592C14.5984 16.6428 14.6295 16.3269 14.6937 16.017ZM18.8247 20.548C18.7641 20.5572 18.709 20.5882 18.6696 20.6352C18.6303 20.6822 18.6094 20.7419 18.6109 20.8032C18.6125 20.8644 18.6363 20.923 18.6779 20.968C18.7195 21.013 18.7761 21.0412 18.8371 21.0474C18.6036 21.3043 18.3204 21.5111 18.0046 21.6552C17.6888 21.7994 17.347 21.8779 16.9999 21.886C16.6529 21.8779 16.3112 21.7994 15.9954 21.6553C15.6796 21.5111 15.3964 21.3044 15.1629 21.0476C15.2239 21.0415 15.2807 21.0132 15.3224 20.9682C15.3642 20.9232 15.388 20.8645 15.3895 20.8032C15.391 20.7418 15.3701 20.682 15.3306 20.635C15.2911 20.588 15.2358 20.5571 15.1751 20.548C15.0418 20.5315 14.9071 20.5301 14.7734 20.5438C14.7269 20.4685 14.6834 20.391 14.6429 20.3114C14.7874 20.316 14.9308 20.3368 15.0706 20.3736C15.1026 20.3823 15.136 20.3847 15.1689 20.3805C15.2019 20.3763 15.2336 20.3657 15.2625 20.3492C15.2913 20.3328 15.3166 20.3108 15.3369 20.2845C15.3572 20.2582 15.3721 20.2282 15.3808 20.1962C15.3894 20.1642 15.3917 20.1307 15.3875 20.0978C15.3832 20.0649 15.3725 20.0331 15.356 20.0043C15.3394 19.9756 15.3174 19.9503 15.2911 19.9301C15.2648 19.9099 15.2347 19.895 15.2027 19.8864C14.9544 19.8204 14.6973 19.7932 14.4407 19.8058C14.3582 19.5304 14.3161 19.2445 14.3158 18.957C14.3158 17.5435 15.4447 16.5175 16.9999 16.5175C18.5551 16.5175 19.684 17.5434 19.684 18.957C19.6837 19.2444 19.6417 19.5303 19.5591 19.8056C19.3025 19.7931 19.0455 19.8203 18.7972 19.8864C18.7651 19.895 18.7351 19.9099 18.7088 19.9301C18.6824 19.9503 18.6604 19.9756 18.6439 20.0043C18.6273 20.0331 18.6166 20.0649 18.6124 20.0978C18.6081 20.1307 18.6104 20.1642 18.6191 20.1962C18.6278 20.2282 18.6427 20.2582 18.663 20.2845C18.6833 20.3108 18.7086 20.3328 18.7374 20.3492C18.7662 20.3657 18.798 20.3763 18.8309 20.3805C18.8638 20.3847 18.8973 20.3823 18.9293 20.3736C19.069 20.3367 19.2125 20.3159 19.3569 20.3114C19.3167 20.391 19.2732 20.4685 19.2264 20.5438C19.0928 20.5301 18.958 20.5315 18.8247 20.548Z" fill="#B3BACC"/>
<path d="M17.8509 20.5939C17.6096 20.7472 17.4759 20.7564 17.4162 20.7481C17.5756 20.5747 17.6677 20.3501 17.6758 20.1148C17.6758 19.8762 17.5586 19.5918 16.9998 19.5918C16.4411 19.5918 16.3237 19.8762 16.3237 20.1148C16.3319 20.3501 16.424 20.5747 16.5833 20.7481C16.5236 20.7564 16.3898 20.7472 16.1486 20.5939C16.0921 20.5586 16.024 20.5471 15.959 20.5619C15.8941 20.5766 15.8376 20.6164 15.8019 20.6726C15.7662 20.7288 15.7541 20.7969 15.7683 20.8619C15.7826 20.927 15.822 20.9838 15.8779 21.02C16.0757 21.1604 16.3091 21.2423 16.5513 21.2562C16.6306 21.2566 16.7094 21.2432 16.7842 21.2167C16.8649 21.1865 16.9384 21.1398 17 21.0795C17.0615 21.1397 17.1349 21.1864 17.2155 21.2167C17.2902 21.2433 17.369 21.2567 17.4484 21.2562C17.6906 21.2423 17.924 21.1604 18.1218 21.02C18.1498 21.0022 18.174 20.979 18.193 20.9519C18.2121 20.9248 18.2256 20.8942 18.2328 20.8618C18.24 20.8294 18.2407 20.796 18.235 20.7633C18.2293 20.7307 18.2172 20.6995 18.1994 20.6715C18.1816 20.6435 18.1585 20.6193 18.1314 20.6003C18.1042 20.5812 18.0736 20.5677 18.0412 20.5605C18.0089 20.5533 17.9754 20.5526 17.9428 20.5583C17.9101 20.564 17.8789 20.5761 17.8509 20.5939ZM16.8285 20.1116C16.9418 20.0916 17.0577 20.0916 17.171 20.1116V20.1148C17.1686 20.178 17.1521 20.2399 17.1228 20.296C17.0935 20.3521 17.0521 20.401 17.0016 20.4391C16.95 20.4018 16.9076 20.3531 16.8776 20.2969C16.8476 20.2407 16.8308 20.1784 16.8285 20.1148V20.1116Z" fill="#B3BACC"/>
<path d="M33.2857 17.2205C33.2857 26.046 25.9575 33.2205 16.8929 33.2205C7.82818 33.2205 0.5 26.046 0.5 17.2205C0.5 8.39493 7.82818 1.22046 16.8929 1.22046C25.9575 1.22046 33.2857 8.39493 33.2857 17.2205Z" stroke="#B3BACC"/>
</svg>
