<svg width="512" height="439" viewBox="0 0 512 439" fill="none" xmlns="http://www.w3.org/2000/svg">
<path d="M502.38 264.44H476.09C475.94 254.39 475.14 244.45 473.67 234.67L503.49 229.41C508.72 228.49 512.22 223.5 511.3 218.26C510.38 213.03 505.39 209.53 500.15 210.45L469.98 215.77C466.05 199.46 460.28 183.71 452.76 168.79C466.64 134.95 474.01 101.33 473.54 73.65C472.99 41.7 462.53 18.95 443.3 7.85002C411.63 -10.42 364.35 8.31003 319 56.75C298.81 50.75 277.65 47.64 256 47.64C234.35 47.64 213.18 50.75 193 56.75C147.65 8.31003 100.38 -10.42 68.72 7.86003C49.49 18.96 39.03 41.72 38.48 73.66C38 101.33 45.37 134.96 59.26 168.8C51.73 183.73 45.97 199.47 42.04 215.78L11.87 210.46C6.64 209.53 1.64 213.03 0.72 218.27C-0.2 223.5 3.29 228.5 8.53 229.42L38.35 234.68C36.88 244.46 36.08 254.4 35.93 264.45H9.62C4.3 264.45 0 268.76 0 274.07C0 279.38 4.31 283.69 9.62 283.69H36.47C38.24 306.94 43.94 328 53.49 346.48C64.38 367.54 80.33 385.37 100.9 399.53C101.01 399.61 101.13 399.69 101.24 399.77C101.41 399.89 101.57 400.01 101.74 400.12C139.18 425.55 192.52 438.99 255.99 438.99C319.46 438.99 372.8 425.55 410.24 400.12C410.41 400 410.57 399.88 410.74 399.77C410.86 399.69 410.97 399.61 411.08 399.53C431.65 385.37 447.6 367.54 458.49 346.48C468.04 328.01 473.74 306.94 475.51 283.69H502.36C507.68 283.69 511.98 279.38 511.98 274.07C511.98 268.76 507.69 264.44 502.38 264.44V264.44ZM433.66 24.53C458.85 39.07 461.06 89.2 440.36 147.39C436.64 141.72 432.65 136.21 428.4 130.87C433.19 115.41 436.19 100.77 437.3 87.31C439.32 62.81 434.75 44.23 425.39 38.83C423.25 37.6 419.68 35.54 399.97 42.75C390.58 46.19 376.91 52.35 365.1 62.22C361.82 64.96 358.5 67.95 355.17 71.1C349.89 68.43 344.5 65.98 339.02 63.76C375.02 27.77 412.07 12.06 433.66 24.53V24.53ZM418.11 85.73C417.39 94.48 415.75 103.87 413.24 113.74C412.71 113.2 412.19 112.65 411.65 112.11C399.73 100.19 386.68 89.82 372.75 81.07C374.32 79.67 375.88 78.3 377.42 77.01C390.85 65.79 407.84 59.99 416.16 57.79C417.68 62.22 419.31 71.17 418.11 85.73V85.73ZM78.34 24.53C99.93 12.07 136.98 27.77 172.99 63.78C167.51 66.01 162.12 68.45 156.84 71.12C153.52 67.96 150.2 64.98 146.92 62.24C135.1 52.36 121.43 46.2 112.04 42.76C92.33 35.55 88.75 37.6 86.61 38.84C77.25 44.24 72.69 62.81 74.7 87.31C75.81 100.78 78.81 115.41 83.6 130.87C79.34 136.21 75.35 141.72 71.64 147.39C50.94 89.2 53.15 39.07 78.34 24.53V24.53ZM100.35 112.11C99.81 112.65 99.29 113.2 98.76 113.74C96.25 103.87 94.61 94.49 93.89 85.73C92.69 71.17 94.32 62.22 95.83 57.79C104.15 59.98 121.15 65.79 134.57 77.01C136.12 78.3 137.68 79.67 139.24 81.07C125.32 89.82 112.27 100.19 100.35 112.11V112.11ZM116.13 386.54V321.63C116.13 279.28 150.59 244.83 192.94 244.83H225.49C228.62 254.74 236.46 262.58 246.37 265.71V289.34C208.35 293.3 176.36 320.47 166.8 358.15C165.49 363.3 168.61 368.54 173.76 369.85C174.55 370.05 175.35 370.15 176.13 370.15C180.43 370.15 184.35 367.25 185.45 362.89C193.64 330.62 222.64 308.08 255.99 308.08C289.33 308.08 318.34 330.62 326.53 362.89C327.84 368.04 333.08 371.16 338.23 369.85C343.38 368.54 346.5 363.31 345.19 358.15C335.63 320.48 303.64 293.31 265.62 289.35V265.72C275.53 262.59 283.37 254.75 286.5 244.84H319.05C361.4 244.84 395.86 279.29 395.86 321.64V386.55C361.78 408.28 313.55 419.75 255.99 419.75C198.43 419.75 150.21 408.27 116.13 386.54V386.54ZM256 247.94C248.98 247.94 243.26 242.23 243.26 235.2C243.26 228.17 248.97 222.46 256 222.46C263.03 222.46 268.74 228.17 268.74 235.2C268.74 242.23 263.02 247.94 256 247.94ZM415.11 371.82V321.63C415.11 268.67 372.02 225.58 319.05 225.58H286.5C282.41 212.63 270.28 203.22 256 203.22C241.72 203.22 229.59 212.63 225.5 225.58H192.95C139.98 225.58 96.89 268.67 96.89 321.63V371.82C72.62 349.6 58.85 320.07 55.8 283.69H83.58C88.9 283.69 93.2 279.38 93.2 274.07C93.2 268.76 88.89 264.45 83.58 264.45H55.18C55.33 255.49 56.05 246.67 57.34 238.03L81.34 242.26C81.91 242.36 82.47 242.41 83.02 242.41C87.6 242.41 91.66 239.12 92.49 234.46C93.41 229.23 89.92 224.23 84.68 223.31L61.09 219.15C82.88 131.79 162 66.89 256 66.89C350 66.89 429.12 131.8 450.91 219.15L427.32 223.31C422.09 224.23 418.59 229.22 419.51 234.46C420.33 239.13 424.39 242.41 428.98 242.41C429.53 242.41 430.1 242.36 430.66 242.26L454.66 238.03C455.95 246.67 456.68 255.49 456.82 264.45H428.42C423.1 264.45 418.8 268.76 418.8 274.07C418.8 279.38 423.11 283.69 428.42 283.69H456.2C453.15 320.07 439.38 349.6 415.11 371.82Z" fill="#EC615B"/>
<path d="M359 149.55H317.26C311.94 149.55 307.64 153.86 307.64 159.17C307.64 164.48 311.95 168.79 317.26 168.79V200.91C317.26 206.22 321.57 210.53 326.88 210.53C332.2 210.53 336.5 206.22 336.5 200.91V168.8H359C364.32 168.8 368.62 164.49 368.62 159.18C368.62 153.87 364.31 149.55 359 149.55Z" fill="#EC615B"/>
<path d="M194.75 149.55H153C147.68 149.55 143.38 153.86 143.38 159.17C143.38 164.48 147.69 168.79 153 168.79V200.91C153 206.22 157.31 210.53 162.62 210.53C167.94 210.53 172.24 206.22 172.24 200.91V168.8H194.73C200.05 168.8 204.35 164.49 204.35 159.18C204.35 153.87 200.06 149.55 194.75 149.55V149.55Z" fill="#EC615B"/>
</svg>
