<svg width="18" height="20" viewBox="0 0 18 20" fill="none" xmlns="http://www.w3.org/2000/svg">
<path d="M6.59886 7.52799C6.17824 7.61557 5.37445 7.96607 5.05844 8.17389C4.92324 8.26275 4.8857 8.44443 4.97461 8.57963C5.03086 8.66525 5.12433 8.7117 5.21965 8.7117C5.27488 8.7117 5.33074 8.69611 5.38031 8.66349C5.64078 8.49228 6.37672 8.17279 6.71824 8.1017C6.87668 8.06873 6.97832 7.91357 6.94535 7.75514C6.91238 7.5967 6.75703 7.49525 6.59886 7.52799Z" fill="#BDBDE7"/>
<path d="M16.463 9.7356C16.7515 9.18169 16.9177 8.55771 16.9548 7.87318C16.9953 7.12756 16.8829 6.39377 16.6287 5.69674C17.5034 4.53186 17.8067 3.05885 17.4602 1.62729C17.3507 1.17526 16.984 0.831902 16.5257 0.752488C15.1311 0.510887 13.7254 0.874792 12.6388 1.75171C11.7172 1.36491 10.7063 1.13272 9.65356 1.07553C8.60067 1.01835 7.57055 1.1396 6.61263 1.42432C5.62728 0.434832 4.26884 -0.0789564 2.85681 0.0098716C2.39267 0.0391294 1.99084 0.340731 1.83302 0.778269C1.33341 2.16381 1.47537 3.661 2.21869 4.91381C1.89045 5.5792 1.69916 6.29646 1.65861 7.04209C1.60084 8.10509 1.86162 9.05115 2.43373 9.85384C2.52755 9.98564 2.71056 10.0163 2.84232 9.9224C2.97408 9.82849 3.00478 9.64556 2.91087 9.51376C2.41779 8.82185 2.19334 8.00092 2.24373 7.07381C2.4174 3.87733 5.72782 1.44889 9.62176 1.66053C10.6564 1.71674 11.6464 1.95284 12.5401 2.3469C12.5582 2.35737 12.5773 2.36573 12.5969 2.37202C13.1629 2.62702 13.6894 2.9458 14.1629 3.32319C14.1679 3.32745 14.173 3.33166 14.1784 3.33553C14.3038 3.43608 14.4255 3.54069 14.5432 3.6494C15.2105 4.26584 15.7062 4.97283 16.0128 5.72963C16.0181 5.74822 16.0252 5.76639 16.0341 5.78377C16.2921 6.44174 16.4082 7.13635 16.3698 7.84138C16.3289 8.59439 16.118 9.25259 15.7405 9.81232C15.7332 9.82189 15.7262 9.83173 15.72 9.84216C15.3548 10.372 14.8385 10.8126 14.1726 11.1597C13.9754 11.2626 13.7662 11.3564 13.5458 11.4412C13.5448 11.4416 13.5439 11.4418 13.5429 11.4421C13.5411 11.4428 13.5394 11.4437 13.5376 11.4444C12.338 11.9043 10.8072 12.0962 9.05989 12.0013C7.08743 11.8942 5.44427 11.4587 4.26306 10.7353C4.2556 10.7301 4.24786 10.7251 4.23978 10.7205C4.23919 10.7202 4.23861 10.7199 4.23798 10.7196C4.08283 10.6235 3.9354 10.5226 3.79673 10.4165C3.66822 10.3182 3.48435 10.3428 3.38603 10.4713C3.28775 10.5998 3.31224 10.7837 3.4408 10.882C3.53263 10.9522 3.62806 11.0201 3.7263 11.0863C3.65701 11.2915 3.63251 11.5103 3.65591 11.7181C3.60349 11.7696 3.55505 11.8259 3.51173 11.8871C3.31212 12.169 3.16048 12.4538 3.0574 12.7383C1.76103 14.0872 0.678103 15.5992 0.0815806 16.895C-0.109318 17.3098 0.0447447 17.7927 0.439939 18.0183C0.530916 18.0702 0.631306 18.1206 0.738572 18.1689C0.77658 18.2171 0.81947 18.262 0.86779 18.3022C1.02545 18.4335 1.22509 18.5057 1.43002 18.5057C1.50529 18.5057 1.5792 18.4959 1.65041 18.4776C2.16033 18.6071 2.75966 18.7035 3.43728 18.765C3.43853 18.9545 3.48329 19.1465 3.57712 19.3257C3.79033 19.7331 4.20857 19.9861 4.66861 19.9861C4.86591 19.9861 5.06306 19.9375 5.23868 19.8456C5.84939 19.5259 6.33786 19.1723 6.74786 18.8041C7.17181 18.7809 7.59313 18.7476 7.98973 18.7059C7.97434 19.0037 8.06602 19.3079 8.27106 19.555C8.50575 19.8378 8.85126 20 9.21899 20C9.48438 20 9.73727 19.9166 9.9504 19.7588C10.0804 19.6625 10.1078 19.4791 10.0115 19.349C9.9152 19.2189 9.73168 19.1916 9.60172 19.2879C9.49028 19.3704 9.35793 19.414 9.21899 19.414C9.0261 19.414 8.84497 19.329 8.722 19.1808C8.49485 18.9071 8.53274 18.4995 8.80649 18.2723C9.01122 18.1025 9.17364 17.9048 9.29258 17.6839C9.82297 17.6026 10.3257 17.4348 10.7817 17.1949C10.7371 17.5399 10.6298 17.9419 10.4006 18.3499C10.3213 18.4909 10.3714 18.6696 10.5125 18.7488C10.5579 18.7743 10.6071 18.7864 10.6557 18.7864C10.7582 18.7864 10.8576 18.7326 10.9114 18.6369C11.2942 17.9556 11.3902 17.2896 11.3947 16.808C12.2588 16.1607 12.8697 15.2181 13.0411 14.1148C14.3163 13.6134 15.9448 12.6124 16.8757 11.8901C17.4119 11.474 17.5097 10.6991 17.0937 10.1628C16.9311 9.95353 16.7089 9.80681 16.463 9.7356ZM4.16525 2.63358C3.50763 3.12038 2.9683 3.68901 2.55982 4.31592C1.99916 3.18233 2.08888 2.10881 2.2488 1.43503C2.85814 1.60448 3.62107 1.92612 4.30076 2.53581C4.25521 2.56791 4.20997 2.60045 4.16525 2.63358ZM4.80864 2.20756C4.0288 1.46374 3.13892 1.0778 2.43146 0.877761C2.52818 0.714754 2.69986 0.606863 2.89369 0.594636C4.03841 0.522527 5.14134 0.899519 5.98497 1.63827C5.57493 1.79671 5.18146 1.98694 4.80864 2.20756ZM14.3472 2.72584C14.0005 2.46616 13.6299 2.2344 13.2395 2.03245C14.1584 1.38944 15.296 1.13417 16.4256 1.32991C16.617 1.36303 16.776 1.48893 16.8544 1.66147C16.1295 1.78366 15.203 2.07088 14.3472 2.72584ZM16.3543 5.06549C16.0162 4.39799 15.5417 3.77428 14.9407 3.21909C14.8998 3.18131 14.8584 3.14405 14.8166 3.10717C15.5583 2.57475 16.3516 2.33768 16.9757 2.23522C17.0616 2.92241 17.0345 3.99936 16.3543 5.06549ZM3.49826 13.376C3.54912 13.0017 3.71451 12.6147 3.98997 12.2257C4.0895 12.0851 4.23786 11.9916 4.40767 11.9626C4.44439 11.9563 4.48118 11.9532 4.51771 11.9532C4.65009 11.9532 4.77896 11.994 4.88923 12.072C5.02989 12.1716 5.12329 12.32 5.15232 12.4899C5.18134 12.6597 5.14247 12.8307 5.0429 12.9714C4.827 13.2763 4.73318 13.5513 4.78564 13.7259C4.79388 13.7534 4.80614 13.7795 4.82204 13.8035C4.91915 13.95 5.16907 14.0375 5.41716 14.0113C5.58857 13.9931 5.75677 14.0426 5.89083 14.1509C6.02485 14.2591 6.10864 14.4131 6.12688 14.5846C6.14513 14.7559 6.09556 14.9241 5.98728 15.0582C5.87903 15.1922 5.72501 15.2761 5.55364 15.2943C5.47689 15.3025 5.39923 15.3066 5.32278 15.3066C4.6349 15.3066 4.01279 14.9745 3.69927 14.4398C3.51572 14.1268 3.44622 13.7589 3.49826 13.376ZM1.11545 16.6639C0.996267 16.7856 0.875954 16.918 0.754509 17.064C0.685134 17.1473 0.633533 17.2411 0.599236 17.3406C0.580681 17.2761 0.584041 17.2048 0.613846 17.14C1.09365 16.0978 1.9081 14.9036 2.90044 13.7747C2.92302 14.1167 3.02193 14.443 3.19384 14.7362C3.31107 14.9361 3.45954 15.1148 3.6322 15.2684C2.91947 15.4559 2.06166 15.7039 1.12947 16.6495C1.12463 16.6541 1.12002 16.6589 1.11545 16.6639ZM1.65576 17.8141C1.62576 17.8502 1.58802 17.8776 1.54607 17.8957C1.53869 17.8982 1.53146 17.9012 1.52431 17.9043C1.49431 17.9145 1.46252 17.9198 1.42994 17.9198C1.3817 17.9198 1.31006 17.9081 1.24259 17.8519C1.21654 17.8302 1.19513 17.8046 1.1783 17.7763C1.17787 17.7756 1.17748 17.7749 1.17701 17.7742C1.15564 17.7376 1.14209 17.6966 1.1381 17.6532C1.13095 17.5752 1.15463 17.499 1.20478 17.4388C1.26756 17.3634 1.32974 17.2919 1.39138 17.224C1.5522 17.323 1.70662 17.4604 1.83005 17.614C1.77259 17.6771 1.71455 17.7435 1.65576 17.8141ZM1.81752 16.8027C2.55099 16.1577 3.20986 15.9847 3.85158 15.8166C4.00775 15.7757 4.15697 15.7363 4.30626 15.6903C4.42497 15.7401 4.54841 15.7813 4.6756 15.8132C4.74771 15.912 4.82372 16.0077 4.90333 16.1C4.59294 16.2287 4.29298 16.3075 4.00029 16.3841C3.42165 16.5357 2.86744 16.6814 2.25224 17.2036C2.12462 17.0516 1.97662 16.9152 1.81752 16.8027ZM3.57537 18.1888C3.09306 18.1476 2.65283 18.0888 2.25923 18.0128C2.93408 17.2695 3.47564 17.1273 4.14876 16.9509C4.51079 16.8561 4.91497 16.7502 5.34388 16.545C5.37767 16.5747 5.41196 16.6039 5.44661 16.6326C5.14208 16.9616 4.72173 17.3371 4.09693 17.6641C3.86451 17.7857 3.68744 17.9718 3.57537 18.1888ZM4.96689 19.3264C4.87341 19.3754 4.77302 19.4002 4.66853 19.4002C4.42724 19.4002 4.2079 19.2675 4.09615 19.0541C3.93118 18.7389 4.05337 18.3482 4.36857 18.1833C5.10208 17.7994 5.58118 17.3579 5.92317 16.9798C6.29896 17.219 6.71091 17.4065 7.14696 17.5355C6.62474 18.1667 5.9736 18.7995 4.96689 19.3264ZM8.43223 17.8215C8.33552 17.9017 8.25434 17.9938 8.18884 18.0938C7.92805 18.1247 7.65321 18.1518 7.37114 18.1747C7.5177 18.0096 7.65407 17.8439 7.78368 17.6791C7.83356 17.687 7.8836 17.6943 7.93391 17.7006C8.13196 17.7256 8.32848 17.7381 8.5229 17.7393C8.49395 17.7674 8.46407 17.795 8.43223 17.8215ZM12.476 13.9258C12.2188 15.9651 10.2141 17.3975 8.00727 17.1193C7.28134 17.0277 6.60497 16.7591 6.03849 16.3502C6.03821 16.35 6.03794 16.3498 6.03767 16.3496C5.88349 16.2382 5.73743 16.1165 5.60079 15.985C5.59778 15.982 5.5947 15.9791 5.59157 15.9762C5.56099 15.9466 5.53075 15.9166 5.50114 15.8861C5.53939 15.8836 5.57763 15.881 5.61567 15.877C5.94267 15.8422 6.23657 15.6822 6.44321 15.4263C6.64981 15.1705 6.74446 14.8495 6.70962 14.5226C6.67481 14.1956 6.51489 13.9017 6.25915 13.695C6.02747 13.5079 5.74302 13.4126 5.44782 13.4222C5.46771 13.3888 5.49185 13.3513 5.52118 13.3099C5.61556 13.1766 5.6813 13.029 5.71681 12.8745C6.66235 12.9645 7.69048 13.0862 8.50587 13.2728C8.22177 13.5643 8.03282 13.9423 7.97489 14.35C7.97259 14.362 7.97102 14.3743 7.97024 14.3867C7.96098 14.4624 7.95595 14.539 7.95595 14.6163C7.95595 14.9321 8.03302 15.23 8.16856 15.4931C8.17419 15.5063 8.18059 15.519 8.18798 15.531C8.27919 15.6988 8.39489 15.8513 8.52993 15.9843C8.44649 15.9884 8.3629 15.9814 8.28462 15.9618C8.09891 15.9154 7.96391 15.8079 7.88337 15.6424C7.81251 15.4969 7.6372 15.4363 7.49173 15.5072C7.34622 15.578 7.28571 15.7533 7.35649 15.8988C7.51196 16.2182 7.7911 16.4424 8.14255 16.5303C8.25192 16.5576 8.36626 16.5709 8.48137 16.5709C8.72243 16.5709 8.96579 16.5118 9.17235 16.4029C9.39071 16.4893 9.62829 16.5373 9.877 16.5373C10.9363 16.5373 11.798 15.6756 11.798 14.6163C11.798 14.5531 11.7941 14.4905 11.788 14.4284C11.7876 14.4158 11.7865 14.4033 11.7845 14.3908C11.7425 14.0343 11.6022 13.6993 11.3818 13.4219C11.7643 13.3527 12.1655 13.3212 12.4976 13.2985C12.5091 13.5077 12.5023 13.7177 12.476 13.9258ZM11.0402 13.9622C11.0973 14.0637 11.1415 14.1724 11.1705 14.2861C10.3241 14.7485 9.25337 14.9957 8.62044 15.0674C8.57641 14.9451 8.54973 14.8147 8.54344 14.6789C9.16098 14.6114 10.1745 14.3743 11.0402 13.9622ZM8.6588 14.0729C8.77067 13.8234 8.9579 13.6099 9.19743 13.4675C9.38993 13.5354 9.55657 13.6097 9.68848 13.6915C9.75411 13.7322 9.82465 13.7618 9.89766 13.781C9.43497 13.9279 8.99188 14.0236 8.6588 14.0729ZM11.1715 14.943C11.0254 15.5218 10.5005 15.9515 9.87696 15.9515C9.53422 15.9515 9.22137 15.8216 8.98469 15.6086C9.60504 15.5092 10.4325 15.2956 11.1715 14.943ZM12.5811 12.7058C12.0584 12.7405 11.33 12.7896 10.712 12.9822C10.7005 12.9852 10.6891 12.9886 10.678 12.993C10.5074 13.0481 10.3452 13.1137 10.1995 13.1942C10.1329 13.2309 10.0573 13.2307 9.99727 13.1935C9.16985 12.6804 7.46434 12.4499 5.70669 12.285C5.6779 12.175 5.6345 12.0708 5.5779 11.9745C6.57653 12.3086 7.73763 12.5162 9.02798 12.5863C9.32797 12.6027 9.62184 12.6108 9.90969 12.6108C11.2355 12.6107 12.4267 12.4381 13.4329 12.1027C13.4444 12.2475 13.4223 12.3808 13.3662 12.4761C13.3049 12.5803 13.2023 12.6422 13.0525 12.6654C12.9506 12.6812 12.7794 12.6926 12.5811 12.7058ZM16.5164 11.4272C15.672 12.0824 14.2374 12.9645 13.0889 13.4609C13.0884 13.3915 13.0859 13.3221 13.0818 13.2527C13.1028 13.2501 13.1232 13.2474 13.1421 13.2445C13.553 13.181 13.7655 12.9532 13.8713 12.7733C14.0139 12.531 14.0557 12.2147 13.995 11.8909C14.1499 11.8247 14.2996 11.7543 14.4434 11.6793C15.1496 11.3112 15.7138 10.8376 16.1281 10.2728C16.3231 10.2751 16.5089 10.3651 16.6306 10.522C16.8486 10.8031 16.7974 11.2091 16.5164 11.4272Z" fill="#BDBDE7"/>
<path d="M13.2528 6.62817C13.4073 6.62817 13.5366 6.50723 13.5451 6.3511L13.5707 5.88079C13.5794 5.71923 13.4556 5.58114 13.294 5.57235C13.1334 5.56344 12.9943 5.68739 12.9856 5.84899L12.96 6.3193C12.9512 6.48087 13.0751 6.61895 13.2367 6.6277C13.2421 6.62801 13.2475 6.62817 13.2528 6.62817Z" fill="#BDBDE7"/>
<path d="M14.3279 7.52696C14.6755 7.50016 15.4715 7.60188 15.7693 7.69375C15.7981 7.70266 15.8272 7.70688 15.8558 7.70688C15.9809 7.70688 16.0968 7.62606 16.1357 7.5002C16.1834 7.34559 16.0967 7.18161 15.9421 7.13391C15.5807 7.02243 14.7111 6.90961 14.2827 6.94278C14.1214 6.95524 14.0007 7.0961 14.0132 7.25743C14.0256 7.41871 14.1661 7.5395 14.3279 7.52696Z" fill="#BDBDE7"/>
<path d="M13.7022 8.12219C13.6523 8.2761 13.7366 8.44133 13.8904 8.4913C14.2223 8.59899 14.9193 8.99633 15.1597 9.19477C15.2143 9.23985 15.2804 9.2618 15.346 9.2618C15.4304 9.2618 15.5142 9.22551 15.5721 9.15536C15.6751 9.03059 15.6574 8.84594 15.5327 8.7429C15.241 8.50208 14.48 8.06657 14.0713 7.93391C13.9175 7.88403 13.7522 7.96829 13.7022 8.12219Z" fill="#BDBDE7"/>
<path d="M6.49609 6.51965C6.07382 6.44036 5.19715 6.45817 4.82578 6.52985C4.66691 6.56051 4.56293 6.71418 4.59363 6.87305C4.62066 7.01317 4.7434 7.11055 4.88097 7.11055C4.89937 7.11055 4.91804 7.10879 4.93679 7.1052C5.24293 7.04614 6.04503 7.03118 6.38789 7.09555C6.54671 7.12539 6.70003 7.02075 6.72992 6.86168C6.7598 6.70266 6.65507 6.54954 6.49609 6.51965Z" fill="#BDBDE7"/>
<path d="M7.58634 6.32026C7.74084 6.32026 7.87013 6.19932 7.87861 6.04319L7.90416 5.57288C7.91294 5.41132 7.78908 5.27323 7.62752 5.26448C7.46642 5.25565 7.32787 5.37952 7.31908 5.54112L7.29353 6.01143C7.28474 6.173 7.40861 6.31108 7.57017 6.31987C7.57556 6.32014 7.58095 6.32026 7.58634 6.32026Z" fill="#BDBDE7"/>
<path d="M10.3838 6.83495C10.4071 6.83624 10.4302 6.83687 10.4535 6.83687C10.7995 6.83687 11.1322 6.69691 11.3752 6.44691C11.488 6.33089 11.4853 6.14538 11.3693 6.03265C11.2532 5.91984 11.0678 5.92257 10.955 6.03855C10.8138 6.18382 10.6169 6.26073 10.4156 6.24991C10.2139 6.23894 10.0268 6.14105 9.90212 5.98132C9.80259 5.8537 9.61845 5.83101 9.49095 5.93054C9.36337 6.03007 9.34064 6.21417 9.44017 6.34175C9.669 6.63503 10.0129 6.8148 10.3838 6.83495Z" fill="#BDBDE7"/>
</svg>
