<svg width="512" height="300" viewBox="0 0 512 300" fill="none" xmlns="http://www.w3.org/2000/svg">
<path d="M510.096 143.937C506.064 138.07 409.168 0.662109 255.995 0.662109C124.56 0.662109 7.43999 137.281 2.51199 143.105C-0.837006 147.073 -0.837006 152.897 2.51199 156.886C7.43999 162.71 124.56 299.329 255.995 299.329C387.43 299.329 504.549 162.71 509.477 156.886C512.571 153.217 512.848 147.905 510.096 143.937ZM255.995 277.996C150.63 277.996 50.448 177.516 24.998 149.996C50.406 122.455 150.481 21.9961 255.995 21.9961C379.28 21.9961 466.299 122.327 487.547 149.42C463.013 176.065 362.256 277.996 255.995 277.996Z" fill="#B3BACC"/>
<path d="M255.995 64.6621C208.934 64.6621 170.662 102.934 170.662 149.995C170.662 197.056 208.934 235.328 255.995 235.328C303.056 235.328 341.328 197.056 341.328 149.995C341.328 102.934 303.056 64.6621 255.995 64.6621ZM255.995 213.996C220.71 213.996 191.995 185.281 191.995 149.996C191.995 114.711 220.71 85.9961 255.995 85.9961C291.28 85.9961 319.995 114.711 319.995 149.996C319.995 185.281 291.28 213.996 255.995 213.996Z" fill="#B3BACC"/>
</svg>
