<svg width="512" height="439" viewBox="0 0 512 439" fill="none" xmlns="http://www.w3.org/2000/svg">
<path d="M502.38 264.44H476.09C475.94 254.39 475.14 244.45 473.67 234.67L503.49 229.41C508.72 228.49 512.22 223.5 511.3 218.26C510.38 213.03 505.39 209.53 500.15 210.45L469.98 215.77C466.05 199.46 460.28 183.71 452.76 168.79C466.64 134.95 474.01 101.33 473.54 73.65C472.99 41.7 462.53 18.95 443.3 7.85002C411.62 -10.42 364.35 8.31003 319 56.75C298.81 50.75 277.65 47.64 256 47.64C234.35 47.64 213.18 50.75 193 56.75C147.65 8.31003 100.38 -10.42 68.72 7.86003C49.49 18.96 39.03 41.72 38.48 73.66C38 101.33 45.37 134.96 59.26 168.8C51.73 183.73 45.97 199.47 42.04 215.78L11.87 210.46C6.64 209.53 1.64 213.03 0.72 218.27C-0.2 223.5 3.29 228.5 8.53 229.42L38.35 234.68C36.88 244.46 36.08 254.4 35.93 264.45H9.62C4.3 264.45 0 268.76 0 274.07C0 279.38 4.31 283.69 9.62 283.69H36.47C38.24 306.94 43.94 328 53.49 346.48C64.38 367.54 80.33 385.37 100.9 399.53C101.01 399.61 101.13 399.69 101.24 399.77C101.41 399.89 101.57 400.01 101.74 400.12C139.18 425.55 192.52 438.99 255.99 438.99C319.46 438.99 372.8 425.55 410.24 400.12C410.41 400 410.57 399.88 410.74 399.77C410.86 399.69 410.97 399.61 411.08 399.53C431.65 385.37 447.6 367.54 458.49 346.48C468.04 328.01 473.74 306.94 475.51 283.69H502.36C507.68 283.69 511.98 279.38 511.98 274.07C511.98 268.76 507.69 264.44 502.38 264.44V264.44ZM433.66 24.53C458.85 39.07 461.06 89.2 440.36 147.39C436.64 141.72 432.65 136.21 428.4 130.87C433.19 115.41 436.19 100.77 437.3 87.31C439.32 62.81 434.75 44.23 425.39 38.83C423.25 37.6 419.68 35.54 399.97 42.75C390.58 46.19 376.91 52.35 365.1 62.22C361.82 64.96 358.5 67.95 355.17 71.1C349.89 68.43 344.5 65.98 339.02 63.76C375.02 27.77 412.07 12.06 433.66 24.53V24.53ZM418.11 85.73C417.39 94.48 415.75 103.87 413.24 113.74C412.71 113.2 412.19 112.65 411.65 112.11C399.73 100.19 386.68 89.82 372.75 81.07C374.32 79.67 375.88 78.3 377.42 77.01C390.85 65.79 407.84 59.99 416.16 57.79C417.68 62.22 419.31 71.17 418.11 85.73V85.73ZM78.34 24.53C99.93 12.07 136.98 27.77 172.99 63.78C167.51 66.01 162.12 68.45 156.84 71.12C153.52 67.96 150.2 64.98 146.92 62.24C135.1 52.36 121.43 46.2 112.04 42.76C92.33 35.55 88.75 37.6 86.61 38.84C77.25 44.24 72.69 62.81 74.7 87.31C75.81 100.78 78.81 115.41 83.6 130.87C79.34 136.21 75.35 141.72 71.64 147.39C50.94 89.2 53.15 39.07 78.34 24.53V24.53ZM100.35 112.11C99.81 112.65 99.29 113.2 98.76 113.74C96.25 103.87 94.61 94.49 93.89 85.73C92.69 71.17 94.32 62.22 95.83 57.79C104.15 59.98 121.15 65.79 134.57 77.01C136.12 78.3 137.68 79.67 139.24 81.07C125.32 89.82 112.27 100.19 100.35 112.11V112.11ZM116.13 386.54V321.63C116.13 279.28 150.59 244.83 192.94 244.83H225.49C228.18 253.33 234.33 260.31 242.28 264.1C237.18 276.66 226.97 288.68 206.6 288.68C201.28 288.68 196.98 292.99 196.98 298.3C196.98 303.61 201.29 307.92 206.6 307.92C207.54 307.92 208.46 307.9 209.38 307.86C215.36 328.07 234.21 342.78 255.99 342.78C277.78 342.78 296.64 328.07 302.61 307.86C303.53 307.9 304.45 307.92 305.39 307.92C310.71 307.92 315.01 303.61 315.01 298.3C315.01 292.99 310.7 288.68 305.39 288.68C285.02 288.68 274.82 276.65 269.7 264.1C277.65 260.31 283.8 253.34 286.49 244.83H319.04C361.39 244.83 395.85 279.28 395.85 321.63V386.54C361.77 408.27 313.54 419.74 255.98 419.74C198.42 419.74 150.21 408.27 116.13 386.54V386.54ZM256 279.83C262.61 291.35 272.02 299.61 283.62 304.07C279.52 315.43 268.56 323.54 255.99 323.54C243.43 323.54 232.47 315.43 228.37 304.08C239.98 299.61 249.39 291.36 256 279.83V279.83ZM256 247.94C248.98 247.94 243.26 242.23 243.26 235.2C243.26 228.17 248.97 222.46 256 222.46C263.02 222.46 268.74 228.17 268.74 235.2C268.74 242.23 263.02 247.94 256 247.94ZM415.11 371.82V321.63C415.11 268.67 372.02 225.58 319.05 225.58H286.5C282.41 212.63 270.28 203.22 256 203.22C241.72 203.22 229.59 212.63 225.5 225.58H192.95C139.98 225.58 96.89 268.67 96.89 321.63V371.82C72.62 349.6 58.85 320.07 55.8 283.69H83.57C88.89 283.69 93.19 279.38 93.19 274.07C93.19 268.76 88.88 264.45 83.57 264.45H55.17C55.32 255.49 56.04 246.67 57.33 238.03L81.33 242.26C81.9 242.36 82.46 242.41 83.01 242.41C87.59 242.41 91.65 239.12 92.48 234.46C93.4 229.23 89.91 224.23 84.67 223.31L61.08 219.15C82.88 131.79 162 66.89 256 66.89C350 66.89 429.12 131.8 450.91 219.15L427.32 223.31C422.09 224.23 418.59 229.22 419.51 234.46C420.33 239.13 424.39 242.41 428.98 242.41C429.53 242.41 430.1 242.36 430.66 242.26L454.66 238.03C455.95 246.67 456.68 255.49 456.82 264.45H428.42C423.1 264.45 418.8 268.76 418.8 274.07C418.8 279.38 423.11 283.69 428.42 283.69H456.2C453.15 320.07 439.38 349.6 415.11 371.82Z" fill="#4FBA6F"/>
<path d="M344.17 138.51L342.62 140.02L341.07 138.51C335.34 132.95 327.74 129.88 319.68 129.88C311.62 129.88 304.02 132.94 298.29 138.5C292.48 144.14 289.28 151.65 289.28 159.67C289.28 167.68 292.48 175.2 298.29 180.83C298.46 180.99 298.63 181.15 298.82 181.3C330.37 207.7 338.72 209.51 342.64 209.31C342.79 209.32 342.95 209.32 343.12 209.32C347.25 209.32 356.14 206.67 386.46 181.3C386.64 181.15 386.81 180.99 386.98 180.83C392.79 175.2 395.99 167.68 395.99 159.66C395.99 151.65 392.79 144.13 386.98 138.49C375.16 127.06 355.97 127.06 344.17 138.51V138.51ZM373.77 166.81C362.4 176.3 348.05 187.07 342.62 189.73C337.19 187.07 322.84 176.31 311.47 166.82C309.57 164.87 308.52 162.35 308.52 159.68C308.52 156.92 309.64 154.31 311.69 152.33C313.81 150.27 316.64 149.14 319.68 149.14C322.72 149.14 325.55 150.27 327.67 152.33L335.93 160.35C339.66 163.98 345.6 163.97 349.34 160.35L357.59 152.34C362 148.07 369.16 148.07 373.57 152.34C375.61 154.32 376.73 156.93 376.73 159.69C376.72 162.34 375.67 164.86 373.77 166.81V166.81Z" fill="#4FBA6F"/>
<path d="M170.93 138.51L169.38 140.02L167.83 138.51C162.1 132.95 154.5 129.88 146.44 129.88C138.37 129.88 130.78 132.94 125.05 138.5C119.24 144.14 116.04 151.65 116.04 159.67C116.04 167.68 119.24 175.2 125.05 180.83C125.22 180.99 125.39 181.15 125.58 181.3C157.13 207.7 165.48 209.51 169.4 209.31C169.55 209.32 169.71 209.32 169.88 209.32C174.01 209.32 182.9 206.67 213.22 181.3C213.4 181.15 213.57 180.99 213.74 180.83C219.55 175.2 222.75 167.68 222.75 159.66C222.75 151.65 219.55 144.13 213.74 138.49C201.93 127.06 182.73 127.06 170.93 138.51V138.51ZM200.54 166.81C189.17 176.3 174.82 187.07 169.39 189.73C163.96 187.07 149.61 176.31 138.24 166.82C136.34 164.87 135.29 162.35 135.29 159.68C135.29 156.92 136.41 154.31 138.46 152.33C140.58 150.27 143.41 149.14 146.45 149.14C149.49 149.14 152.32 150.27 154.44 152.33L162.7 160.35C166.43 163.98 172.37 163.97 176.11 160.35L184.36 152.34C188.77 148.07 195.93 148.07 200.34 152.34C202.38 154.32 203.5 156.93 203.5 159.69C203.49 162.34 202.44 164.86 200.54 166.81V166.81Z" fill="#4FBA6F"/>
</svg>
