<svg width="20" height="18" viewBox="0 0 20 18" fill="none" xmlns="http://www.w3.org/2000/svg">
<path d="M6.64062 6.21316V5.74512C6.64062 5.58328 6.50949 5.45215 6.34766 5.45215C6.18582 5.45215 6.05469 5.58328 6.05469 5.74512V6.21316C6.05469 6.375 6.18582 6.50613 6.34766 6.50613C6.50949 6.50613 6.64062 6.375 6.64062 6.21316Z" fill="white"/>
<path d="M5.44858 7.75352C5.03573 7.86317 4.25671 8.25446 3.95433 8.47774C3.82414 8.57387 3.79652 8.75727 3.89261 8.88742C3.95007 8.96524 4.03871 9.00645 4.12855 9.00645C4.18902 9.00645 4.24995 8.98777 4.3023 8.94914C4.55136 8.76528 5.26401 8.40875 5.59897 8.31985C5.75534 8.27832 5.84846 8.1179 5.80694 7.96149C5.76542 7.80512 5.60499 7.71204 5.44858 7.75352Z" fill="white"/>
<path d="M14.215 8.83521C13.4295 8.83521 12.7904 9.4743 12.7904 10.2598C12.7904 11.0454 13.4295 11.6845 14.215 11.6845C15.0006 11.6845 15.6397 11.0454 15.6397 10.2598C15.6397 9.47434 15.0006 8.83521 14.215 8.83521ZM14.215 11.0986C13.7526 11.0986 13.3763 10.7223 13.3763 10.2598C13.3763 9.79735 13.7526 9.4211 14.215 9.4211C14.6775 9.4211 15.0538 9.79735 15.0538 10.2598C15.0538 10.7223 14.6775 11.0986 14.215 11.0986Z" fill="white"/>
<path d="M12.2799 6.21316V5.74512C12.2799 5.58328 12.1488 5.45215 11.9869 5.45215C11.8251 5.45215 11.694 5.58328 11.694 5.74512V6.21316C11.694 6.375 11.8251 6.50613 11.9869 6.50613C12.1488 6.50613 12.2799 6.375 12.2799 6.21316Z" fill="white"/>
<path d="M18.9673 6.73626H16.2561C16.2169 6.11482 16.071 5.51037 15.8263 4.93748C16.6318 3.73397 16.8535 2.25538 16.4322 0.853002C16.2991 0.409723 15.916 0.0882785 15.4563 0.034099C14.0592 -0.130588 12.6838 0.306324 11.6525 1.23503C10.7171 0.900931 9.70161 0.725073 8.65458 0.725073C7.60704 0.725073 6.59158 0.900853 5.65643 1.23488C4.62518 0.306286 3.25011 -0.130471 1.85285 0.034099C1.39313 0.0882785 1.01008 0.409723 0.876917 0.853041C0.455786 2.25499 0.677269 3.73315 1.48223 4.9365C1.19254 5.61439 1.04149 6.33638 1.04149 7.07829C1.04149 8.53594 1.61793 9.72168 2.75468 10.6025C2.80808 10.6438 2.87121 10.6639 2.93394 10.6638C3.0214 10.6638 3.108 10.6248 3.16574 10.5503C3.26484 10.4224 3.24148 10.2384 3.11359 10.1393C2.12742 9.37523 1.62738 8.34539 1.62738 7.07833C1.62738 3.89826 4.77975 1.31105 8.65458 1.31105C9.68438 1.31105 10.6802 1.4923 11.5889 1.83573C11.6065 1.84448 11.6248 1.85132 11.6435 1.85628C12.2204 2.07932 12.7614 2.36827 13.2525 2.71838C13.2547 2.71999 13.2569 2.7217 13.2591 2.72323C13.3843 2.81272 13.5064 2.906 13.6249 3.00334C14.3305 3.58319 14.8674 4.26533 15.2155 5.00853C15.2204 5.02173 15.2264 5.03451 15.2331 5.04697C15.4792 5.58384 15.6273 6.152 15.6688 6.73626H9.72618C9.87891 6.66192 10.0173 6.55747 10.1316 6.42634C10.2379 6.30435 10.2251 6.11931 10.1032 6.01298C9.9811 5.90665 9.79606 5.91939 9.68981 6.04138C9.5579 6.19275 9.36743 6.27958 9.16727 6.27958C8.96712 6.27958 8.77669 6.19275 8.64477 6.04138C8.53841 5.91943 8.35337 5.90673 8.23142 6.01298C8.10946 6.11931 8.09673 6.30435 8.20302 6.42634C8.40649 6.65981 8.68579 6.80954 8.98794 6.85239C8.65692 7.02462 8.43021 7.37071 8.43021 7.76895V10.8984C7.97337 10.633 7.45314 10.4912 6.89783 10.4852C6.19123 10.4782 5.47553 10.6992 4.91549 11.0637C4.68088 10.9854 4.45507 10.8989 4.24378 10.8045C4.09604 10.7386 3.9228 10.8049 3.85687 10.9526C3.79093 11.1004 3.85722 11.2736 4.00499 11.3396C4.12905 11.3949 4.2578 11.4476 4.38956 11.498C4.26343 11.6316 4.15538 11.7749 4.07034 11.9261C3.90991 12.2114 3.87011 12.542 3.95835 12.8571C3.98456 12.9507 4.02132 13.0394 4.06722 13.1224C4.07558 13.308 4.09679 13.4933 4.13061 13.6761C4.08737 13.7744 4.06292 13.8827 4.06292 13.9968V14.6612C4.06292 14.8196 4.10983 14.967 4.18968 15.0914C3.85565 15.26 3.6669 15.1822 3.50269 15.0831C3.18031 14.8885 3.07218 14.5533 2.90238 13.8349C2.74734 13.179 2.545 12.3249 1.84476 11.683C1.84148 11.6798 1.83808 11.6769 1.83465 11.6739C1.68254 11.5358 1.50758 11.4075 1.30434 11.2935C1.1002 11.179 0.863909 11.1509 0.638675 11.2143C0.413598 11.2776 0.226646 11.4249 0.112271 11.6289C-0.00210309 11.8329 -0.030228 12.0692 0.0331311 12.2944C0.0964512 12.5195 0.243716 12.7065 0.4477 12.8209C0.547621 12.8769 0.630902 12.939 0.702464 13.011C0.711253 13.0215 0.72055 13.0314 0.730472 13.0404C0.951369 13.2818 1.05535 13.6339 1.19813 14.2378C1.38242 15.0171 1.61172 15.987 2.59753 16.5822C2.99054 16.8194 3.40726 16.9397 3.83612 16.9397C4.35983 16.9397 4.88709 16.7581 5.40326 16.4001C5.49143 16.339 5.57955 16.2719 5.66893 16.1992C6.49111 16.8563 7.54521 17.229 8.65462 17.229H14.9318C15.6074 17.229 16.157 16.6794 16.157 16.0039C16.157 15.8104 16.112 15.6256 16.0303 15.4602H19.2009C19.6415 15.4602 20 15.1017 20 14.6611V7.76895C19.9999 7.1995 19.5367 6.73626 18.9673 6.73626ZM3.29163 2.56733C2.66605 3.08526 2.16199 3.67776 1.79058 4.32096C1.17555 3.22881 1.20621 2.16143 1.32809 1.48499C1.94078 1.62026 2.71324 1.89788 3.41902 2.4644C3.37616 2.49831 3.33366 2.53257 3.29163 2.56733ZM3.90843 2.10905C3.09534 1.41413 2.19281 1.07929 1.48047 0.918783C1.56766 0.75351 1.73113 0.638432 1.92137 0.615972C3.05159 0.483042 4.16499 0.796713 5.04123 1.48265C4.64428 1.66151 4.26534 1.87085 3.90843 2.10905ZM0.939651 12.4437C0.876799 12.3964 0.808792 12.3515 0.734261 12.3098C0.666839 12.2719 0.61809 12.2101 0.597152 12.1356C0.576176 12.0611 0.585473 11.9829 0.623363 11.9154C0.661214 11.8479 0.72305 11.7992 0.797464 11.7782C0.871839 11.7573 0.95008 11.7665 1.0177 11.8045C1.11617 11.8597 1.20606 11.9191 1.28906 11.9819C1.18633 12.1884 1.05578 12.3391 0.939651 12.4437ZM13.4006 2.10913C13.0437 1.87097 12.6646 1.66179 12.2675 1.48284C13.1439 0.796752 14.2574 0.482964 15.3877 0.615972C15.578 0.638432 15.7415 0.75351 15.8287 0.918783C15.1163 1.07929 14.2137 1.41413 13.4006 2.10913ZM15.5184 4.32127C15.1429 3.67065 14.6315 3.07217 13.9969 2.55065C13.9616 2.52159 13.9257 2.49311 13.8898 2.46471C14.5957 1.898 15.3683 1.62034 15.9811 1.48503C16.103 2.16151 16.1336 3.22905 15.5184 4.32127ZM4.58104 12.2134C4.94928 11.5587 5.92627 11.071 6.86291 11.071C6.87244 11.071 6.88205 11.071 6.89154 11.0711C7.46826 11.0773 7.99736 11.2619 8.43024 11.6057V13.1977H8.10306C8.06431 13.1567 8.03052 13.1112 8.00349 13.0605C7.76193 12.6089 7.41509 12.377 6.94338 12.3516C6.38096 12.3215 5.85674 12.6087 5.70873 12.8193C5.70334 12.8269 5.69834 12.8348 5.69373 12.843C5.55979 13.0785 5.29088 13.2044 5.0242 13.1562C4.95448 13.1435 4.88733 13.1192 4.82467 13.0839C4.7326 13.0322 4.65655 12.9601 4.60092 12.8737C4.59964 12.8718 4.5985 12.8697 4.59717 12.8678C4.56471 12.8161 4.5394 12.7596 4.52253 12.6992C4.47651 12.5348 4.49729 12.3623 4.58104 12.2134ZM7.40029 13.1977H6.16225C6.1708 13.1846 6.17982 13.172 6.18791 13.1585C6.25389 13.0984 6.56025 12.9174 6.91177 12.9367C7.1249 12.9482 7.27455 13.0261 7.40029 13.1977ZM5.06932 15.9186C4.65307 16.2073 4.23815 16.3537 3.83608 16.3537C3.51546 16.3537 3.20062 16.2618 2.90035 16.0805C2.12523 15.6125 1.94379 14.8451 1.76832 14.1028C1.65965 13.6431 1.5598 13.2219 1.33727 12.8738C1.46258 12.76 1.5991 12.608 1.71949 12.4126C2.07539 12.8852 2.20945 13.4506 2.33211 13.9695C2.49355 14.6525 2.63296 15.2423 3.1998 15.5845C3.50487 15.7686 3.99499 15.9542 4.73042 15.4483C4.77331 15.4555 4.81702 15.4601 4.8619 15.4601H4.93795C5.02995 15.5783 5.12795 15.6911 5.23108 15.7988C5.17674 15.8411 5.12288 15.8814 5.06932 15.9186ZM4.8619 14.8742C4.74436 14.8742 4.64878 14.7786 4.64878 14.6611V13.9968C4.64878 13.9546 4.66124 13.9154 4.68245 13.8823C4.68346 13.8808 4.68432 13.8792 4.6853 13.8776C4.72366 13.8209 4.7885 13.7836 4.8619 13.7836H8.43021V14.8742H4.8619ZM11.8398 16.643H8.65458C7.60275 16.643 6.60928 16.2637 5.86943 15.6021C5.86686 15.5997 5.86424 15.5973 5.86158 15.5949C5.81295 15.5512 5.76537 15.5063 5.71901 15.4601H12.1755C12.364 15.5762 12.4791 15.7792 12.4791 16.0038C12.4791 16.3563 12.1923 16.643 11.8398 16.643ZM14.9317 16.643H12.8845C12.9989 16.4568 13.065 16.2379 13.065 16.0038C13.065 15.8104 13.02 15.6256 12.9383 15.4601H15.2675C15.456 15.5762 15.571 15.7792 15.571 16.0038C15.571 16.3563 15.2842 16.643 14.9317 16.643ZM19.414 13.1977H18.6457C18.4839 13.1977 18.3528 13.3288 18.3528 13.4906C18.3528 13.6525 18.4839 13.7836 18.6457 13.7836H19.414V14.6611C19.414 14.7786 19.3184 14.8742 19.2009 14.8742H9.01618V13.7836H17.2833C17.4451 13.7836 17.5762 13.6525 17.5762 13.4906C17.5762 13.3288 17.4451 13.1977 17.2833 13.1977H9.01618V7.76895C9.01618 7.52258 9.21661 7.32215 9.46297 7.32215H18.9673C19.2136 7.32215 19.4141 7.52258 19.4141 7.76895V13.1977H19.414Z" fill="white"/>
<path d="M5.29304 6.75859C4.86964 6.70261 4.00031 6.76761 3.63555 6.85878C3.47856 6.89804 3.38317 7.0571 3.42238 7.21409C3.4557 7.34718 3.57512 7.43609 3.70641 7.43609C3.72996 7.43609 3.75387 7.43323 3.7777 7.42726C4.07805 7.35214 4.87269 7.29409 5.21628 7.33948C5.37617 7.36062 5.5239 7.24788 5.54511 7.08742C5.56632 6.92703 5.45347 6.7798 5.29304 6.75859Z" fill="white"/>
</svg>
