<svg width="91" height="187" viewBox="0 0 91 187" fill="none" xmlns="http://www.w3.org/2000/svg">
<path d="M29.4257 10.3786C21.0855 15.8682 35.0437 27.3661 22.6027 29.9513C10.1618 32.5365 19.1349 52.572 31.0556 53.7529C42.9764 54.9338 65.3788 58.0856 68.2658 41.7045C70.8667 26.7517 62.5872 26.9352 63.6102 20.7434C64.8586 13.1872 62.4918 8.41573 54.9405 4.39427C44.641 -1.14322 26.8248 -1.95709 29.4257 10.3786Z" fill="#3E3E70"/>
<path d="M67.8925 93.7679C67.8925 93.7679 68.6208 133.177 63.9305 162.867C63.7571 187.993 58.9628 243.232 58.9628 243.232C55.7435 243.933 52.3873 243.903 49.1834 243.144C49.1834 243.144 35.312 202.802 39.7248 162.444C32.7891 120.155 33.0145 93.7679 33.0145 93.7679H67.8925Z" fill="#3E3E70"/>
<path d="M55.1918 93.7679C55.1918 93.7679 42.7248 148.536 34.5147 171.963C25.9057 196.531 12.0776 241.341 11.9736 243.184C8.20226 243.839 4.65637 244.078 1.70869 243.184C1.70869 243.184 -3.0943 192.804 7.9335 166.13C10.7078 110.452 27.0067 93.8078 27.0067 93.8078L55.1918 93.7679Z" fill="#3E3E70"/>
<path d="M57.5153 43.0609C57.476 43.0616 57.4371 43.0532 57.4023 43.0365C57.3674 43.0198 57.3377 42.9952 57.3159 42.9651C57.2205 42.8375 57.1078 42.7098 57.0038 42.5822C56.2842 41.7284 55.3999 40.6672 56.2755 39.4384C57.2986 38.0101 59.4139 38.4969 60.9658 38.8559L61.6074 38.9995C62.7689 39.3258 64.0166 39.2779 65.1446 38.8639C66.5491 38.2256 67.3293 36.8851 68.0836 35.5765C68.5329 34.7186 69.0948 33.9147 69.7568 33.1828C69.9389 32.9913 70.1296 32.8078 70.329 32.6242C71.0917 31.9946 71.6852 31.2107 72.063 30.3343C72.0708 30.3063 72.0848 30.2801 72.1043 30.2574C72.1237 30.2347 72.1481 30.216 72.1758 30.2025C72.2036 30.1889 72.2341 30.1809 72.2654 30.1789C72.2968 30.1768 72.3282 30.1808 72.3577 30.1906C72.3886 30.1989 72.4173 30.2126 72.4424 30.2312C72.4674 30.2497 72.4881 30.2726 72.5035 30.2986C72.5188 30.3246 72.5284 30.3531 72.5316 30.3825C72.5349 30.4119 72.5318 30.4416 72.5225 30.4699C72.1206 31.4173 71.4785 32.2626 70.6498 32.9354L70.095 33.478C69.459 34.1857 68.9203 34.9629 68.4911 35.7919C67.7021 37.1564 66.8872 38.5687 65.3353 39.2708C64.1106 39.7295 62.7523 39.7886 61.486 39.4384L60.8271 39.2948C59.3446 38.9517 57.498 38.4969 56.657 39.6937C55.9721 40.6512 56.657 41.4651 57.3679 42.3188C57.4719 42.4545 57.5847 42.5821 57.6887 42.7098C57.7264 42.7575 57.7421 42.817 57.7324 42.8753C57.7226 42.9336 57.6882 42.986 57.6367 43.021C57.6011 43.0445 57.559 43.0583 57.5153 43.0609Z" fill="white"/>
<path d="M77.9756 37.0927L76.2417 34.2361C75.6272 33.2022 74.7308 32.3332 73.6408 31.7147L71.5601 30.5498C70.8924 30.1755 70.1031 30.0288 69.33 30.1353C68.5568 30.2417 67.8487 30.5946 67.3293 31.1323L65.7167 32.7999C65.4214 33.1031 65.1947 33.4574 65.0499 33.8422C64.905 34.227 64.845 34.6344 64.8732 35.0408C64.9015 35.4472 65.0175 35.8443 65.2144 36.2089C65.4113 36.5735 65.6853 36.8984 66.0202 37.1645L67.572 38.4092C67.572 38.4092 71.4387 42.3509 75.9469 43.1248L76.7445 42.1913C77.368 41.4889 77.8041 40.6619 78.0178 39.7765C78.2316 38.8911 78.2172 37.972 77.9756 37.0927V37.0927Z" fill="#FFEED6"/>
<path d="M66.2625 47.5768L67.0688 48.5184C67.3809 48.8774 67.7103 49.2445 68.0484 49.6035C68.7333 50.3217 69.4182 51.0398 70.1465 51.71C71.5312 53.0359 73.0366 54.2505 74.646 55.3405C76.1008 56.3394 77.6851 57.1676 79.3623 57.806C80.1364 58.0817 80.9301 58.3083 81.7378 58.4843C82.1289 58.5693 82.5257 58.6306 82.9256 58.6678H83.0729H83.151C83.151 58.6678 83.229 58.6678 83.151 58.6678H82.9602H82.5614L82.1193 58.7396C81.7633 58.8057 81.417 58.9101 81.0876 59.0508C80.7094 59.1976 80.3515 59.3851 80.0212 59.6093C79.7052 59.8195 79.4145 60.0602 79.1543 60.3274C78.9418 60.5487 78.7504 60.7862 78.5821 61.0376C78.4629 61.2286 78.3558 61.4257 78.2613 61.628C78.1976 61.7714 78.1426 61.9179 78.0966 62.0669C78.0652 62.1689 78.042 62.2729 78.0272 62.3781C78.0146 62.4761 78.0146 62.5752 78.0272 62.6733C78.0272 62.8089 78.0272 62.7451 78.0792 62.6733C78.1129 62.3655 78.1129 62.0554 78.0792 61.7477C77.9594 60.8185 77.7799 59.8966 77.5417 58.9869C77.0735 56.9922 76.4233 54.8937 75.7558 52.7792L71.4903 39.9169V39.877C71.238 39.1072 71.2919 38.2797 71.6424 37.5431C71.9928 36.8065 72.6169 36.2089 73.4027 35.8574C74.1885 35.5058 75.0847 35.4234 75.9305 35.6249C76.7764 35.8263 77.5166 36.2985 78.0185 36.9567C80.9329 40.8167 83.5573 44.8556 85.8732 49.045C87.0864 51.2072 88.1774 53.4257 89.1417 55.6916C89.6705 56.9484 90.1192 58.2326 90.4855 59.5375C90.7106 60.3446 90.87 61.1661 90.9623 61.9951C91.0124 62.566 91.0124 63.1397 90.9623 63.7106C90.9088 64.6414 90.68 65.5567 90.2861 66.4155C90.1342 66.7481 89.9575 67.0707 89.7572 67.3809C89.2255 68.1844 88.5273 68.8838 87.7025 69.4395C87.2481 69.7551 86.7566 70.0227 86.2374 70.2375C85.7642 70.4292 85.2701 70.5736 84.7635 70.6683C84.5403 70.7139 84.3146 70.7486 84.0873 70.7721C83.8792 70.7721 83.6712 70.788 83.4631 70.8199H83.0209H82.5528C81.6858 70.8199 80.8709 70.8199 80.0386 70.7401C78.394 70.6136 76.7657 70.3465 75.1749 69.9422C72.1507 69.1423 69.2705 67.9379 66.6266 66.3676C64.125 64.902 61.8 63.1955 59.6909 61.2769C58.6679 60.3354 57.6795 59.3699 56.7605 58.3486C56.301 57.838 55.8502 57.3193 55.4081 56.7528L54.7579 55.915L54.4197 55.4761L54.0296 54.9336C53.0095 53.4884 52.6302 51.7384 52.9697 50.0436C53.3093 48.3489 54.3418 46.8384 55.8549 45.8231C57.3679 44.8079 59.2463 44.3651 61.1033 44.586C62.9604 44.8068 64.6547 45.6745 65.8377 47.0103L66.2625 47.5768Z" fill="#FFEED6"/>
<path d="M69.5572 55.3967C69.4098 58.5883 74.9064 66.0168 68.118 70.3096C69.3838 72.9187 70.4588 90.6084 67.8926 93.7681C64.1473 96.3054 43.869 95.8107 27.0585 93.7681C26.3476 87.3848 30.171 74.1236 25.4893 53.4657C25.2311 52.334 25.2351 51.1649 25.5009 50.0347C25.7668 48.9045 26.2885 47.8386 27.0322 46.9065C27.7758 45.9744 28.7246 45.1971 29.8167 44.6252C30.9087 44.0533 32.1195 43.6998 33.3701 43.5876C34.7832 43.452 36.2744 43.3482 37.8089 43.2764C43.1628 42.9249 48.5372 42.9249 53.8911 43.2764C55.6251 43.42 57.4197 43.6275 59.0929 43.8509C62.0855 44.2317 64.8163 45.6259 66.7515 47.761C68.6867 49.8962 69.6871 52.6188 69.5572 55.3967V55.3967Z" fill="#BDBDE7"/>
<path d="M37.2974 26.608C38.5805 31.3955 39.8289 39.1432 37.7915 43.2763C37.7915 43.2763 44.6319 43.5875 54.3939 50.7607C58.9888 44.545 54.4719 43.3322 54.4719 43.3322C50.4145 42.4545 49.7643 37.9144 49.773 34.3717L37.2974 26.608Z" fill="#FFEED6"/>
<path opacity="0.2" d="M49.7734 34.3717L42.6817 29.9592C42.619 30.9587 42.837 31.9562 43.3145 32.8556C44.8068 35.4294 47.2385 37.4357 50.1809 38.5208C49.8881 37.1546 49.7515 35.764 49.7734 34.3717Z" fill="#BDBDE7"/>
<path d="M33.9247 17.8789C35.9447 25.6186 36.621 28.9379 41.6147 32.2412C49.1139 37.2521 58.798 33.2945 59.2835 25.1558C59.7256 17.831 56.3531 6.39696 47.5881 4.60964C38.8231 2.82233 31.9134 10.1312 33.9247 17.8789Z" fill="#FFEED6"/>
<path d="M46.5394 21.1111C46.6608 21.7497 47.1289 22.2047 47.5798 22.1329C48.0306 22.061 48.2994 21.4783 48.178 20.8477C48.0566 20.2171 47.5884 19.7461 47.1376 19.826C46.6868 19.9058 46.418 20.4725 46.5394 21.1111Z" fill="#3E3E70"/>
<path d="M55.0445 19.8342C55.1658 20.4728 55.634 20.9278 56.0848 20.8559C56.5356 20.7841 56.8044 20.2014 56.683 19.5707C56.5616 18.9401 56.0935 18.4692 55.6427 18.549C55.1918 18.6288 54.9578 19.1956 55.0445 19.8342Z" fill="#3E3E70"/>
<path d="M55.4778 18.6293L57.0557 17.9188C57.0557 17.9188 56.4401 19.2359 55.4778 18.6293Z" fill="#3E3E70"/>
<path d="M53.0066 20.3524C53.9052 21.7054 54.9989 22.9401 56.2577 24.0228C55.9474 24.3076 55.5733 24.5265 55.1615 24.6644C54.7497 24.8022 54.3101 24.8555 53.8736 24.8207L53.0066 20.3524Z" fill="#FFEED6"/>
<path d="M50.3451 27.8536C50.7403 27.8517 51.1347 27.8197 51.5242 27.7578C51.5781 27.7482 51.6257 27.7192 51.6566 27.6774C51.6874 27.6355 51.6991 27.5841 51.6889 27.5343C51.6847 27.51 51.6753 27.4868 51.6612 27.4659C51.647 27.4451 51.6285 27.427 51.6067 27.4129C51.5849 27.3988 51.5602 27.3888 51.5341 27.3836C51.508 27.3784 51.481 27.3781 51.4548 27.3827C50.5962 27.5407 49.7092 27.5104 48.8657 27.294C48.0222 27.0777 47.246 26.6814 46.5998 26.1374C46.5805 26.1195 46.5575 26.1054 46.5322 26.0957C46.5069 26.086 46.4798 26.0811 46.4524 26.0811C46.425 26.0811 46.3979 26.086 46.3726 26.0957C46.3473 26.1054 46.3244 26.1195 46.305 26.1374C46.2684 26.173 46.248 26.2201 46.248 26.2691C46.248 26.3181 46.2684 26.3652 46.305 26.4008C47.394 27.3523 48.844 27.8737 50.3451 27.8536V27.8536Z" fill="#3E3E70"/>
<path d="M33.3096 25.0919C33.6318 25.7543 34.1028 26.3463 34.6916 26.829C35.2803 27.3117 35.9735 27.6742 36.7255 27.8926C38.6415 28.3793 39.5952 26.4404 39.049 24.4775C38.5548 22.7062 36.9682 20.3204 35.0436 20.7034C33.1189 21.0864 32.4253 23.3525 33.3096 25.0919Z" fill="#FFEED6"/>
<path d="M44.1205 17.1209C44.1729 17.1056 44.2215 17.0808 44.2632 17.0479C44.3049 17.015 44.339 16.9747 44.3633 16.9294C44.5814 16.4963 44.9068 16.1162 45.3133 15.8197C45.7198 15.5232 46.1961 15.3184 46.7041 15.2218C46.7576 15.2161 46.8094 15.2007 46.8564 15.1765C46.9035 15.1523 46.9449 15.1199 46.9783 15.081C47.0117 15.0421 47.0364 14.9975 47.0511 14.9498C47.0658 14.9021 47.0702 14.8522 47.0639 14.8029C47.0576 14.7537 47.0409 14.7061 47.0146 14.6628C46.9884 14.6195 46.9531 14.5814 46.9108 14.5506C46.8686 14.5199 46.8201 14.4971 46.7683 14.4835C46.7165 14.47 46.6623 14.466 46.6087 14.4718C45.9638 14.5782 45.3561 14.8258 44.837 15.1938C44.3179 15.5619 43.9027 16.0394 43.6264 16.5863C43.5778 16.6763 43.5697 16.7804 43.6037 16.8759C43.6378 16.9715 43.7113 17.0508 43.8084 17.0969C43.9056 17.1404 44.0169 17.149 44.1205 17.1209Z" fill="#3E3E70"/>
<path d="M58.2263 15.0549C58.332 15.0393 58.4278 14.9881 58.495 14.9112C58.5612 14.8306 58.5902 14.7292 58.5756 14.629C58.561 14.5289 58.504 14.4381 58.417 14.3764C57.903 14.0004 57.2991 13.7426 56.6552 13.6246C56.0114 13.5066 55.3462 13.5317 54.715 13.6979C54.6586 13.7107 54.6057 13.7343 54.5597 13.7671C54.5137 13.7999 54.4757 13.8412 54.4482 13.8883C54.4206 13.9355 54.4041 13.9874 54.3996 14.0408C54.3952 14.0942 54.403 14.1479 54.4225 14.1983C54.442 14.2488 54.4727 14.2949 54.5128 14.3337C54.5528 14.3726 54.6012 14.4032 54.6549 14.4238C54.7086 14.4443 54.7664 14.4543 54.8246 14.453C54.8827 14.4517 54.9399 14.4392 54.9925 14.4163C55.4934 14.2903 56.0196 14.276 56.5277 14.3746C57.0358 14.4731 57.5111 14.6817 57.9141 14.9831C57.9584 15.0135 58.0088 15.0356 58.0624 15.0479C58.1159 15.0602 58.1717 15.0626 58.2263 15.0549V15.0549Z" fill="#3E3E70"/>
<path d="M46.938 19.8899L48.5245 19.1794C48.5245 19.1794 47.9003 20.5125 46.938 19.8899Z" fill="#3E3E70"/>
<path d="M58.0874 103.303C58.0874 103.303 62.9164 89.2279 50.9696 85.7491C43.6697 83.6426 41.0862 86.3236 41.0862 86.3236L42.8201 99.7284C47.7098 105.003 56.3361 107.596 62.5696 108.505C67.1038 109.208 58.0874 103.303 58.0874 103.303Z" fill="#FAFAFA"/>
<path d="M44.9613 66.1602C44.5192 71.227 55.8591 73.5249 59.535 72.8706C59.535 72.8706 63.471 77.0118 66.2366 75.5676C67.4417 74.9452 64.1386 72.9744 62.6387 70.9158C61.1389 68.8572 55.2955 67.9396 54.0558 65.4022C51.871 60.918 45.5075 60.2797 44.9613 66.1602Z" fill="white"/>
<path d="M36.604 67.1739C31.7576 80.8979 28.5412 95.1965 33.9337 100.646C39.3262 106.096 45.6291 111.187 52.2787 111.984C57.0904 112.551 47.441 104.803 47.441 104.803C47.441 104.803 65.6473 97.7258 51.8192 87.8637C55.235 83.3236 52.5995 71.323 53.6485 66.5755C54.6975 61.8279 41.1035 54.3914 36.604 67.1739Z" fill="white"/>
<path d="M49.5737 50.25C49.1923 49.0053 53.0416 48.6542 55.287 46.3722C56.6395 48.5265 53.3103 53.2901 53.3103 53.2901C53.3103 53.2901 50.2586 52.5001 49.5737 50.25Z" fill="black"/>
<path d="M40.1844 61.7638C40.0716 59.3062 37.7048 56.713 39.3867 52.8193C40.1679 51.079 41.5494 49.6236 43.3183 48.6777C45.0873 47.7317 47.1452 47.3477 49.1748 47.585C51.1132 47.8177 52.9017 48.6685 54.229 49.9893C55.5564 51.31 56.3388 53.0173 56.44 54.814C56.7347 58.261 51.5156 61.5404 52.2005 64.8358C52.8854 68.1311 40.1844 61.7638 40.1844 61.7638Z" fill="white"/>
<path d="M50.3365 47.8164C49.1835 48.9494 53.0762 50.8485 54.9921 50.8804C53.8938 49.3746 52.2399 48.2861 50.3365 47.8164V47.8164Z" fill="#FAFAFA"/>
<path d="M34.3583 132.53H34.2369C31.9481 132.49 29.9888 131.134 28.8444 128.82C28.7179 128.553 28.7117 128.251 28.8272 127.981C28.9426 127.71 29.1702 127.492 29.46 127.376C29.7497 127.259 30.0778 127.254 30.3721 127.36C30.6663 127.466 30.9027 127.676 31.0292 127.942C31.7921 129.482 32.9538 130.336 34.3063 130.336C35.1326 130.283 35.9268 130.02 36.6003 129.577C37.2738 129.133 37.8003 128.526 38.1209 127.823C39.7595 124.807 38.6845 120.594 35.2426 116.548C28.9918 109.192 29.0091 103.782 30.1275 100.59C31.1765 97.558 33.5 95.667 35.2079 95.2042C35.508 95.1217 35.8314 95.1522 36.107 95.2891C36.3826 95.4261 36.5878 95.6581 36.6774 95.9343C36.7671 96.2104 36.7339 96.5081 36.5852 96.7617C36.4364 97.0153 36.1842 97.2042 35.8842 97.2867C34.9739 97.5421 33.2139 98.8347 32.4163 101.276C31.4713 103.997 31.5493 108.633 37.1413 115.24C41.1553 119.955 42.3431 125.038 40.271 128.804C39.7629 129.872 38.9394 130.787 37.8942 131.446C36.849 132.105 35.6239 132.48 34.3583 132.53V132.53Z" fill="white"/>
<path d="M34.3498 132.531C32.087 132.531 30.015 131.19 28.8706 128.82C28.7839 128.564 28.8027 128.287 28.9233 128.043C29.0439 127.799 29.258 127.604 29.5247 127.495C29.7914 127.387 30.0921 127.373 30.3696 127.455C30.6471 127.538 30.8819 127.711 31.0293 127.943C31.9743 129.866 33.5869 130.719 35.3208 130.233C35.6197 130.148 35.9429 130.176 36.2193 130.311C36.4957 130.445 36.7027 130.676 36.7946 130.951C36.8866 131.226 36.8561 131.523 36.7097 131.778C36.5634 132.032 36.3133 132.222 36.0144 132.307C35.4748 132.458 34.9137 132.533 34.3498 132.531V132.531Z" fill="#FAFAFA"/>
<path opacity="0.2" d="M26.304 57.4712C27.1176 61.8618 27.6129 66.2973 27.7865 70.7484C31.6531 65.8173 36.0486 56.8568 35.8059 52.6758L26.304 57.4712Z" fill="#BDBDE7"/>
<path d="M50.2327 70.9637L53.7005 66.647L60.1161 73.2058C60.1161 73.2058 55.8419 76.7485 51.3684 77.0996L50.7095 76.0783C50.2102 75.3161 49.9076 74.4587 49.8249 73.572C49.7422 72.6853 49.8817 71.7929 50.2327 70.9637V70.9637Z" fill="#FFEED6"/>
<path d="M60.1503 66.3359L62.0489 68.8733C62.466 69.4274 62.6281 70.1108 62.4998 70.7745C62.3715 71.4382 61.9632 72.0283 61.364 72.416L60.1416 73.2139L53.7261 66.6551L56.7691 65.4502C57.3571 65.2157 58.0152 65.1758 58.6316 65.3373C59.2479 65.4987 59.7846 65.8516 60.1503 66.3359V66.3359Z" fill="#FFEED6"/>
<path d="M38.7454 54.0323L38.1906 55.5404L37.6097 57.1362C37.2369 58.2213 36.8554 59.3145 36.526 60.4076C35.8237 62.5939 35.2429 64.7802 34.74 66.9345C34.2776 68.9843 33.9706 71.0612 33.8211 73.1502C33.6917 74.7971 33.8409 76.4525 34.2632 78.0574L32.8847 76.1583C32.4783 75.7936 31.9719 75.5371 31.4196 75.4163C31.1335 75.4163 31.1161 75.4163 31.2288 75.4721C31.8017 75.5717 32.3898 75.5717 32.9628 75.4721C34.7676 75.2395 36.5482 74.8685 38.2859 74.363C40.1846 73.8604 42.1266 73.246 44.0859 72.6156L49.9726 70.6608L50.094 70.6209C50.8974 70.3516 51.7776 70.3479 52.5837 70.6104C53.3898 70.8729 54.0716 71.3852 54.5122 72.0596C54.9529 72.734 55.125 73.5284 54.9991 74.3068C54.8731 75.0851 54.457 75.7989 53.8219 76.3259C52.1279 77.7333 50.3446 79.0468 48.4814 80.2596C46.6087 81.5016 44.6607 82.6445 42.6468 83.6826C40.4663 84.8279 38.1622 85.7612 35.7717 86.4673C34.2563 86.9224 32.6821 87.1907 31.0901 87.2652C29.9536 87.3081 28.8165 87.1925 27.7176 86.9221C26.1236 86.5326 24.6643 85.7745 23.4782 84.7199C22.9471 84.2444 22.5178 83.6815 22.2124 83.0602L22.0997 82.8209C20.6644 79.7795 19.9011 76.5057 19.8542 73.1901C19.8542 71.6901 19.8542 70.2378 19.9409 68.8176C20.0276 67.3973 20.2444 66.0169 20.4611 64.6525C20.9097 61.9775 21.5292 59.3292 22.3164 56.7213C22.7066 55.4367 23.114 54.16 23.5822 52.8993C23.8163 52.2689 24.0504 51.6386 24.3018 51.0083C24.5532 50.3779 24.8133 49.7875 25.1687 49.0374C25.8836 47.4089 27.2608 46.1014 29.0072 45.3931C30.7537 44.6849 32.7314 44.6318 34.5197 45.2452C36.308 45.8586 37.7656 47.0901 38.5823 48.6776C39.3991 50.265 39.5104 52.0832 38.8928 53.7451L38.7454 54.0323Z" fill="#FFEED6"/>
<path d="M39.4387 64.4529C36.335 68.6499 43.9036 76.0066 46.8513 78.1211C46.8513 78.1211 46.0797 83.5708 49.0794 84.5043C50.3798 84.9272 49.8076 81.3127 50.5012 78.919C51.1947 76.5253 48.4291 71.1872 48.4898 68.4105C48.5679 63.5592 43.0279 59.5777 39.4387 64.4529Z" fill="#263238"/>
<path d="M43.3144 50.0028C43.6872 48.7581 39.8465 48.407 37.6011 46.125C36.24 48.2794 39.5691 53.0429 39.5691 53.0429C39.5691 53.0429 42.6295 52.2529 43.3144 50.0028Z" fill="#263238"/>
<path opacity="0.6" d="M43.0279 51C42.5944 51 40.7911 51.7021 38.0515 47.8083C37.41 49.5797 40.3056 53.0985 40.3056 53.0985C40.3056 53.0985 42.6464 52.9788 43.0279 51Z" fill="white"/>
<path d="M50.3716 49.6837C50.8115 49.5052 51.2907 49.4238 51.7708 49.446C52.251 49.4681 52.7189 49.5933 53.1372 49.8114C53.6227 50.1147 52.7991 50.8172 52.2702 50.7932C51.7414 50.7693 49.626 50.011 50.3716 49.6837Z" fill="#263238"/>
<path d="M51.0387 52.4691C50.1746 52.4265 49.3324 52.2027 48.5766 51.8146C48.5421 51.7976 48.5163 51.7688 48.5049 51.7344C48.4935 51.6999 48.4975 51.6627 48.5159 51.631C48.5343 51.5992 48.5656 51.5755 48.603 51.565C48.6404 51.5545 48.6808 51.5582 48.7153 51.5751C50.5792 52.4452 51.6976 52.2776 52.1311 51.8385C52.2809 51.6587 52.362 51.4385 52.362 51.2119C52.362 50.9853 52.2809 50.7651 52.1311 50.5853C52.1055 50.5589 52.0914 50.5248 52.0914 50.4895C52.0914 50.4541 52.1055 50.42 52.1311 50.3937C52.1468 50.3835 52.1646 50.3765 52.1834 50.373C52.2022 50.3695 52.2216 50.3696 52.2403 50.3734C52.2591 50.3771 52.2767 50.3844 52.2923 50.3948C52.3078 50.4052 52.3208 50.4184 52.3305 50.4336C52.5275 50.6601 52.6348 50.9417 52.6348 51.2319C52.6348 51.522 52.5275 51.8036 52.3305 52.0301C52.161 52.1831 51.9583 52.3012 51.7357 52.3769C51.513 52.4526 51.2755 52.484 51.0387 52.4691V52.4691Z" fill="#263238"/>
<path d="M54.3591 52.5645C53.6267 52.4211 52.9427 52.1172 52.3651 51.6785C52.3341 51.6563 52.3139 51.6236 52.309 51.5877C52.3041 51.5517 52.315 51.5155 52.3391 51.4869C52.3632 51.4583 52.3987 51.4398 52.4377 51.4353C52.4768 51.4308 52.5161 51.4407 52.5472 51.463C53.1801 51.894 54.2031 52.4288 54.5065 52.2612C54.6279 52.1973 54.6192 51.9818 54.5845 51.8142C54.5808 51.7968 54.5811 51.7789 54.5853 51.7616C54.5895 51.7443 54.5976 51.728 54.609 51.7138C54.6204 51.6995 54.6349 51.6876 54.6516 51.6788C54.6683 51.6699 54.6868 51.6644 54.7059 51.6625C54.7249 51.6577 54.7448 51.6569 54.7642 51.6602C54.7836 51.6634 54.8019 51.6708 54.8178 51.6815C54.8337 51.6923 54.8467 51.7062 54.8558 51.7223C54.865 51.7384 54.87 51.7561 54.8706 51.7743C54.94 52.1361 54.8706 52.3756 54.6626 52.4927C54.5703 52.5414 54.4655 52.5662 54.3591 52.5645Z" fill="#263238"/>
<path d="M47.8222 48.335C47.2066 47.88 45.6981 48.2792 45.6461 48.9257C45.5941 49.5723 48.9232 49.1413 47.8222 48.335Z" fill="black"/>
<path d="M52.1834 48.5664C52.7902 48.3349 53.9173 48.9894 53.7873 49.5163C53.6572 50.0431 51.091 48.9495 52.1834 48.5664Z" fill="#263238"/>
<path d="M50.6139 50.7368C50.6214 50.7532 50.6242 50.7711 50.622 50.7888C50.6198 50.8065 50.6127 50.8233 50.6014 50.8378C50.59 50.8522 50.5749 50.8637 50.5573 50.8712C50.5398 50.8787 50.5204 50.8819 50.5012 50.8805C50.4531 50.8773 50.4067 50.8624 50.3671 50.8371C50.3274 50.8118 50.2959 50.7772 50.2758 50.7368C50.2658 50.7213 50.2607 50.7035 50.2613 50.6854C50.2618 50.6674 50.2678 50.6498 50.2787 50.6348C50.2896 50.6198 50.3048 50.6079 50.3227 50.6005C50.3406 50.5932 50.3604 50.5906 50.3798 50.5931C50.4294 50.5948 50.4776 50.6091 50.5189 50.6345C50.5602 50.6599 50.5931 50.6953 50.6139 50.7368V50.7368Z" fill="#3E3E70"/>
<path d="M49.4696 50.3617C49.4771 50.3781 49.4799 50.396 49.4777 50.4137C49.4755 50.4314 49.4684 50.4483 49.4571 50.4627C49.4457 50.4772 49.4306 50.4887 49.413 50.4961C49.3955 50.5036 49.3762 50.5068 49.3569 50.5054C49.3099 50.5023 49.2645 50.4882 49.2251 50.4644C49.1857 50.4407 49.1534 50.4081 49.1315 50.3697C49.1215 50.3542 49.1165 50.3364 49.117 50.3183C49.1175 50.3003 49.1235 50.2828 49.1344 50.2677C49.1453 50.2527 49.1605 50.2408 49.1784 50.2335C49.1963 50.2261 49.2161 50.2235 49.2355 50.226C49.284 50.2278 49.3312 50.2413 49.3722 50.2651C49.4133 50.2889 49.4469 50.3222 49.4696 50.3617V50.3617Z" fill="#3E3E70"/>
<path d="M49.9292 51.136C49.9392 51.1515 49.9442 51.1693 49.9437 51.1873C49.9432 51.2054 49.9371 51.2229 49.9263 51.2379C49.9154 51.2529 49.9001 51.2648 49.8822 51.2722C49.8643 51.2796 49.8446 51.2822 49.8252 51.2796C49.7768 51.2774 49.73 51.2627 49.6902 51.2374C49.6504 51.212 49.6191 51.1769 49.5997 51.136C49.5897 51.1204 49.5847 51.1026 49.5852 51.0846C49.5858 51.0665 49.5918 51.049 49.6027 51.034C49.6136 51.019 49.6288 51.0071 49.6467 50.9997C49.6646 50.9923 49.6844 50.9898 49.7038 50.9923C49.7522 50.9945 49.7989 51.0092 49.8387 51.0345C49.8785 51.0599 49.9099 51.0951 49.9292 51.136V51.136Z" fill="#3E3E70"/>
<path d="M54.3507 50.7049C54.359 50.7209 54.3624 50.7386 54.3604 50.7562C54.3585 50.7738 54.3513 50.7906 54.3396 50.8046C54.3279 50.8187 54.3122 50.8295 54.2943 50.8358C54.2764 50.8422 54.2569 50.8438 54.238 50.8406C54.191 50.8375 54.1456 50.8234 54.1062 50.7996C54.0668 50.7759 54.0345 50.7433 54.0126 50.7049C54.0026 50.6894 53.9976 50.6716 53.9981 50.6535C53.9986 50.6355 54.0046 50.618 54.0155 50.603C54.0264 50.5879 54.0417 50.5761 54.0595 50.5687C54.0774 50.5613 54.0972 50.5587 54.1166 50.5612C54.1662 50.5629 54.2144 50.5773 54.2557 50.6026C54.297 50.628 54.3299 50.6634 54.3507 50.7049V50.7049Z" fill="#3E3E70"/>
<path d="M53.6658 51.104C53.6658 51.1758 53.6658 51.2397 53.5617 51.2397C53.5143 51.2381 53.4682 51.2247 53.4285 51.2008C53.3887 51.1769 53.3569 51.1434 53.3363 51.104C53.3263 51.0884 53.3213 51.0706 53.3218 51.0526C53.3223 51.0346 53.3284 51.017 53.3392 51.002C53.3501 50.987 53.3654 50.9751 53.3833 50.9677C53.4011 50.9603 53.4209 50.9578 53.4403 50.9603C53.4885 50.9634 53.5348 50.9784 53.5744 51.0037C53.6141 51.029 53.6457 51.0636 53.6658 51.104V51.104Z" fill="#3E3E70"/>
<path d="M57.1166 45.646C58.4046 45.646 59.4487 44.685 59.4487 43.4996C59.4487 42.3142 58.4046 41.3533 57.1166 41.3533C55.8286 41.3533 54.7844 42.3142 54.7844 43.4996C54.7844 44.685 55.8286 45.646 57.1166 45.646Z" fill="#3E3E70"/>
<path d="M57.1163 46.085C56.5608 46.085 56.0177 45.9334 55.5558 45.6493C55.0938 45.3653 54.7338 44.9615 54.5212 44.4891C54.3086 44.0167 54.253 43.4969 54.3613 42.9954C54.4697 42.4939 54.7373 42.0333 55.1301 41.6717C55.5229 41.3102 56.0235 41.064 56.5683 40.9642C57.1132 40.8645 57.678 40.9157 58.1913 41.1113C58.7046 41.307 59.1433 41.6384 59.4519 42.0635C59.7606 42.4886 59.9253 42.9885 59.9253 43.4998C59.923 44.1848 59.6263 44.8411 59.1001 45.3255C58.5738 45.8099 57.8606 46.0829 57.1163 46.085V46.085ZM57.1163 41.8002C56.7511 41.8002 56.3941 41.8999 56.0904 42.0867C55.7867 42.2734 55.55 42.5388 55.4103 42.8494C55.2705 43.1599 55.2339 43.5017 55.3052 43.8313C55.3764 44.161 55.5523 44.4639 55.8106 44.7015C56.0688 44.9392 56.3979 45.1011 56.7561 45.1667C57.1143 45.2323 57.4856 45.1986 57.823 45.07C58.1604 44.9413 58.4489 44.7235 58.6518 44.444C58.8547 44.1645 58.963 43.8359 58.963 43.4998C58.9664 43.2742 58.9213 43.0503 58.8301 42.8408C58.7389 42.6314 58.6036 42.4407 58.4319 42.2797C58.2602 42.1187 58.0555 41.9906 57.8297 41.9029C57.6039 41.8151 57.3615 41.7693 57.1163 41.7683V41.8002Z" fill="white"/>
<path d="M38.095 23.4163C42.6552 18.7565 39.8289 14.2803 39.8289 14.2803C39.8289 14.2803 55.2956 13.4824 57.0815 10.7615C55.2869 5.17612 48.8713 0.715808 38.0689 4.60162C27.2666 8.48744 32.1302 23.0652 32.1302 23.0652L38.095 23.4163Z" fill="#3E3E70"/>
</svg>
