<svg width="100" height="180" viewBox="0 0 100 180" fill="none" xmlns="http://www.w3.org/2000/svg">
<g clip-path="url(#clip0)">
<path d="M29.1234 7.98645C25.7567 13.5488 24.2391 19.9451 23.7945 26.3086C23.3498 32.672 23.9145 39.0618 24.5003 45.4253C24.6062 46.5745 24.7897 47.8616 25.7708 48.5709C26.7519 49.2801 28.1776 49.116 29.4128 48.9124C31.0433 48.6366 32.7726 48.3148 33.9442 47.2312C35.4476 45.8324 35.5535 43.6325 35.5535 41.6623C35.5253 33.007 35.1041 24.3669 34.2901 15.7422" fill="#3E3E70"/>
<path d="M64.3159 11.5787L60.0951 28.0554L51.604 23.8656L57.4271 5.62891L64.3159 11.5787Z" fill="#FFEED6"/>
<path d="M73.6484 65.2449C73.6484 65.2449 71.0368 62.6181 69.9922 62.4868C68.9476 62.3554 63.0186 65.2449 63.0186 65.2449L58.3108 71.083V82.1091L64.9385 84.0793L67.4794 81.3014C67.4794 81.3014 73.4648 78.3462 73.6484 77.637C73.7411 75.9394 73.7411 74.2385 73.6484 72.5409C73.6484 72.5409 71.7497 71.72 71.4179 73.8543L71.1991 75.7916L67.4794 76.7833L68.6794 72.3045C68.6794 72.3045 73.726 70.781 73.726 69.8616C73.726 68.9422 72.3143 68.0294 72.3143 68.0294L73.726 65.6849" fill="#FFEED6"/>
<path d="M15.2331 118.885C15.2331 118.885 8.75364 130.6 14.2591 156.547C17.6964 172.708 21.1832 242.963 21.1832 242.963L48.2375 242.549C48.2375 242.549 48.2374 191.897 48.1457 182.972C48.0822 177.266 50.5173 154.261 50.5173 154.261L52.1124 125.708L15.2331 118.885Z" fill="#BDBDE7"/>
<path d="M62.523 123.862C62.1136 124.716 91.1301 169.352 91.123 178.789C91.123 187.885 58.2528 233.71 58.2528 233.71L37.3604 220.365L60.5044 182.775L40.0778 150.459L33.5842 127.592L62.523 123.862Z" fill="#BDBDE7"/>
<path d="M48.2018 242.549C48.1929 242.461 48.1929 242.374 48.2018 242.286V241.518C48.2018 240.822 48.2018 239.83 48.1595 238.563C48.1595 235.982 48.1171 232.278 48.0818 227.707C48.0818 218.513 47.9971 205.865 47.9407 191.884C47.9407 188.39 47.9407 184.975 47.9407 181.672C47.9407 180.851 48.0113 180.037 48.0607 179.229C48.1101 178.421 48.1665 177.62 48.223 176.826C48.3289 175.243 48.4418 173.693 48.5406 172.183C48.9641 166.135 49.3453 160.69 49.6699 156.107C49.9946 151.523 50.2699 147.852 50.4534 145.278C50.5593 144.017 50.6369 143.025 50.6863 142.335C50.6863 142.014 50.7428 141.758 50.7569 141.567C50.7619 141.481 50.7761 141.395 50.7993 141.311V141.574V142.335C50.7569 143.032 50.7075 144.017 50.6369 145.284C50.4746 147.865 50.2417 151.562 49.9311 156.12C49.6205 160.677 49.2817 166.148 48.8865 172.196C48.7877 173.706 48.6865 175.254 48.583 176.839C48.5265 177.627 48.4771 178.428 48.4206 179.236C48.3642 180.044 48.2795 180.858 48.3077 181.685C48.3077 184.969 48.3077 188.397 48.3077 191.897C48.3077 205.872 48.3077 218.527 48.3077 227.707C48.3077 232.304 48.3077 235.982 48.3077 238.563C48.3077 239.83 48.3077 240.822 48.3077 241.518C48.3077 241.842 48.3077 242.098 48.3077 242.286C48.2838 242.377 48.2483 242.466 48.2018 242.549V242.549Z" fill="#3E3E70"/>
<path d="M21.8818 231.746C21.8743 231.663 21.8743 231.58 21.8818 231.496C21.8818 231.313 21.8818 231.063 21.8818 230.748C21.8818 230.091 21.8183 229.113 21.7689 227.885C21.6842 225.383 21.5571 221.784 21.3948 217.377C21.0701 208.485 20.5548 196.205 19.8137 182.644C19.0726 169.083 18.2538 156.809 17.6045 147.931C17.2798 143.511 17.0187 139.919 16.8351 137.423C16.7504 136.195 16.6799 135.236 16.6305 134.56C16.6305 134.245 16.6304 134.002 16.5881 133.818C16.5787 133.733 16.5787 133.647 16.5881 133.562C16.5939 133.645 16.5939 133.728 16.5881 133.811L16.6728 134.554C16.7363 135.21 16.8281 136.189 16.941 137.41C17.1739 139.893 17.4774 143.478 17.8304 147.917C18.5362 156.79 19.4043 169.063 20.1455 182.624C20.8866 196.185 21.3312 208.446 21.5853 217.344C21.7194 221.797 21.8041 225.396 21.8465 227.885C21.8465 229.113 21.8465 230.071 21.8818 230.748C21.8818 231.063 21.8818 231.306 21.8818 231.496C21.8879 231.58 21.8879 231.663 21.8818 231.746V231.746Z" fill="white"/>
<path d="M32.8784 137.279C32.9772 137.279 32.6878 158.234 32.222 184.076C31.7562 209.917 31.3044 230.873 31.2056 230.873C31.1068 230.873 31.3962 209.924 31.855 184.076C32.3138 158.228 32.7725 137.279 32.8784 137.279Z" fill="white"/>
<path d="M40.0355 230.308C40.0263 230.229 40.0263 230.15 40.0355 230.071C40.0355 229.894 40.0355 229.664 40.0355 229.369C40.0355 228.712 40.0355 227.826 39.972 226.676C39.9226 224.332 39.8873 220.943 39.8661 216.76C39.8238 208.387 39.9155 196.816 40.3108 184.049C40.7061 171.283 41.3342 159.719 41.8989 151.365C42.1742 147.182 42.4283 143.807 42.6047 141.469C42.7035 140.319 42.7812 139.42 42.8377 138.783C42.8377 138.487 42.8871 138.257 42.9082 138.087C42.8977 138.008 42.8977 137.929 42.9082 137.85C42.9176 137.929 42.9176 138.008 42.9082 138.087C42.9082 138.264 42.9082 138.494 42.9082 138.789C42.9082 139.446 42.8165 140.326 42.753 141.482C42.6047 143.839 42.4 147.215 42.1389 151.378C41.6519 159.732 41.066 171.29 40.6637 184.056C40.2614 196.822 40.1343 208.387 40.1132 216.76C40.1132 220.93 40.1132 224.312 40.1132 226.67V229.369C40.1132 229.664 40.1132 229.894 40.1132 230.071C40.0938 230.152 40.0679 230.231 40.0355 230.308V230.308Z" fill="white"/>
<path d="M65.9533 181.462C65.8925 181.326 65.8429 181.185 65.8051 181.042C65.7063 180.726 65.5863 180.319 65.4381 179.814C65.1064 178.704 64.6546 177.187 64.097 175.295C62.9395 171.487 61.2737 166.253 59.1563 160.552C57.0388 154.852 54.9213 149.756 53.2626 146.105C52.458 144.306 51.7945 142.821 51.3216 141.784C51.1028 141.298 50.9334 140.904 50.7922 140.602C50.7252 140.469 50.6731 140.331 50.637 140.188C50.7238 140.311 50.7993 140.441 50.8628 140.575L51.4487 141.725C51.9569 142.729 52.6627 144.194 53.5026 146.006C55.1895 149.645 57.3776 154.727 59.5021 160.454C61.6266 166.18 63.2783 171.421 64.3652 175.243C64.9087 177.161 65.3322 178.71 65.5934 179.794C65.7204 180.306 65.8192 180.72 65.8969 181.035C65.9318 181.175 65.9507 181.318 65.9533 181.462V181.462Z" fill="white"/>
<path d="M58.2881 216.996C58.328 216.924 58.3753 216.856 58.4292 216.793L58.881 216.221C59.2974 215.709 59.8903 214.98 60.6385 214.048C62.1631 212.15 64.3935 209.451 66.9556 205.931C69.9938 201.871 72.6078 197.55 74.762 193.027C77.1054 187.917 78.9405 181.863 78.8629 175.433C78.8402 173.848 78.6987 172.266 78.4394 170.699C78.3053 169.93 78.1076 169.175 77.9524 168.42C77.7971 167.665 77.5147 166.936 77.31 166.207C76.3803 163.42 75.1826 160.716 73.7315 158.129C70.9647 153.178 67.9579 148.935 65.6004 145.35C63.6922 142.521 61.9578 139.594 60.4056 136.583C59.8409 135.519 59.495 134.659 59.2339 134.081L58.9445 133.424C58.907 133.353 58.8786 133.278 58.8598 133.201C58.9115 133.264 58.952 133.335 58.9798 133.411C59.0574 133.575 59.1633 133.785 59.2974 134.068C59.5797 134.632 59.9468 135.486 60.5397 136.537C62.1443 139.521 63.916 142.426 65.8475 145.238C68.2261 148.837 71.2541 153.027 74.0562 157.998C75.5239 160.599 76.7358 163.318 77.6771 166.121C77.8888 166.857 78.1712 167.586 78.3264 168.354C78.4817 169.123 78.6864 169.878 78.8205 170.659C79.0857 172.244 79.2295 173.843 79.2511 175.447C79.21 181.562 77.7939 187.602 75.0938 193.178C72.9165 197.712 70.2689 202.039 67.1885 206.095C64.5982 209.576 62.3325 212.281 60.7796 214.153L58.9939 216.267L58.514 216.819C58.4463 216.886 58.3705 216.946 58.2881 216.996V216.996Z" fill="white"/>
<g opacity="0.3">
<path opacity="0.3" d="M12.2686 131.119C13.1226 134.048 16.3623 136.011 19.3691 137.174C27.7102 140.367 36.7853 141.539 45.7458 140.582C49.9807 140.122 54.2792 139.151 57.8507 136.964C59.4106 136.005 60.8434 134.823 62.5868 134.212C64.3301 133.601 66.5888 133.759 67.711 135.145C67.9513 134.619 68.0125 134.037 67.8863 133.478C67.76 132.919 67.4525 132.41 67.0052 132.019C66.5958 131.684 64.8313 131.178 63.7443 130.672C62.495 130.095 60.6528 129.359 60.6528 129.359C59.9824 130.367 59.2346 131.328 58.4153 132.235C56.396 134.03 53.9553 135.364 51.2865 136.13C43.2189 138.605 34.3891 138.297 26.1027 136.399C21.2396 135.276 16.4541 133.693 12.2897 131.145" fill="#3E3E70"/>
</g>
<g opacity="0.3">
<path opacity="0.3" d="M50.3123 146.814C52.825 156.185 55.1966 165.898 56.0224 175.525C53.7285 171.585 51.5969 168.899 49.303 164.959L50.3123 146.814Z" fill="#3E3E70"/>
</g>
<path d="M64.0264 18.52L62.1983 19.597C62.7629 24.0889 60.0808 28.3509 57.3493 32.0744C54.6177 35.798 51.5333 39.6528 51.1027 44.1644C50.3122 52.452 58.5915 59.4065 59.0574 67.7139C60.2573 67.7139 66.7509 67.3855 67.9508 67.3855C69.1507 50.3768 66.0521 36.0738 64.0264 18.52Z" fill="#3E3E70"/>
<path d="M27.352 20.0699C27.2767 23.2647 27.9297 26.4381 29.2679 29.3811C30.6062 32.3241 32.5993 34.9699 35.1161 37.1443C36.2642 34.0315 37.4194 30.9165 38.5817 27.7994" fill="#3E3E70"/>
<path d="M53.4955 1.45232C50.4392 0.0289785 46.9466 -0.363287 43.614 0.342489C40.3012 1.05687 37.137 2.27264 34.2477 3.94124C32.5491 4.76655 31.0313 5.88021 29.7728 7.22477C27.613 9.75309 25.4743 13.91 25.2696 17.1345C25.1002 19.7613 26.1731 26.2758 27.3871 28.6465C28.4741 30.8202 33.5631 32.4751 36.0758 33.007L59.128 8.05221C58.7098 6.65817 57.996 5.35608 57.0287 4.22262C56.0614 3.08915 54.8601 2.14723 53.4955 1.45232V1.45232Z" fill="#3E3E70"/>
<path d="M57.4692 4.81465L51.9426 3.89526C54.9636 10.5937 55.7823 25.8949 57.5116 32.9742C59.5514 30.2292 64.2804 21.8496 64.0263 18.5267C63.7722 15.2037 64.0334 4.24988 57.4692 4.81465Z" fill="#3E3E70"/>
<path d="M60.6314 15.7292C60.2714 10.5937 56.5941 4.2959 51.0957 4.8541L38.3909 7.87495C36.4328 8.33705 34.6859 9.37201 33.4076 10.8274C32.1292 12.2828 31.387 14.0816 31.2903 15.959C31.2903 16.156 31.2903 15.913 31.2903 16.0641L34.1136 46.7257L47.5736 62.9266L52.0627 47.6516C52.0627 45.1496 52.0627 41.3735 52.0627 41.3867C52.0627 41.3998 59.1209 40.2834 60.5326 31.7134C61.2737 27.4579 61.0337 21.4359 60.6314 15.7292Z" fill="#FFEED6"/>
<path d="M59.1705 21.7052C59.1726 21.9911 59.0553 22.2666 58.8433 22.4737C58.6313 22.6807 58.3412 22.8031 58.0341 22.815C57.8835 22.8266 57.7319 22.81 57.5883 22.7661C57.4447 22.7222 57.312 22.6519 57.1981 22.5595C57.0843 22.467 56.9915 22.3542 56.9254 22.2277C56.8592 22.1013 56.821 21.9638 56.813 21.8234C56.8109 21.5374 56.9282 21.2619 57.1402 21.0548C57.3522 20.8478 57.6423 20.7254 57.9494 20.7135C58.0998 20.7028 58.251 20.7201 58.3942 20.7643C58.5374 20.8086 58.6697 20.8789 58.7833 20.9712C58.897 21.0635 58.9898 21.1759 59.0562 21.302C59.1227 21.428 59.1615 21.565 59.1705 21.7052Z" fill="#3E3E70"/>
<path d="M59.248 19.0849C59.0998 19.2294 58.2105 18.6121 56.94 18.6186C55.6695 18.6252 54.7378 19.2163 54.5966 19.0718C54.4555 18.9273 54.6813 18.75 55.0837 18.4742C55.6327 18.1199 56.2859 17.9318 56.9541 17.9357C57.6149 17.9299 58.2604 18.1209 58.7963 18.4807C59.1845 18.7566 59.3186 19.0192 59.248 19.0849Z" fill="#3E3E70"/>
<path d="M47.9761 22.0927C47.98 22.3791 47.8633 22.6556 47.6509 22.863C47.4386 23.0704 47.1474 23.1922 46.8398 23.2025C46.6897 23.2141 46.5386 23.1977 46.3955 23.1542C46.2523 23.1107 46.12 23.0411 46.0062 22.9493C45.8924 22.8575 45.7995 22.7455 45.733 22.6198C45.6664 22.4941 45.6276 22.3573 45.6187 22.2174C45.6166 21.9315 45.7339 21.656 45.9459 21.4489C46.1579 21.2419 46.448 21.1195 46.7551 21.1076C46.9049 21.0969 47.0556 21.1139 47.1983 21.1578C47.3411 21.2016 47.4731 21.2713 47.5866 21.363C47.7002 21.4546 47.7931 21.5662 47.86 21.6915C47.9268 21.8168 47.9663 21.9531 47.9761 22.0927Z" fill="#3E3E70"/>
<path d="M47.1855 19.0848C47.0444 19.2293 46.148 18.612 44.8775 18.6186C43.607 18.6251 42.6753 19.2162 42.5412 19.0717C42.4071 18.9272 42.6188 18.7499 43.0212 18.4741C43.5702 18.1198 44.2234 17.9317 44.8916 17.9356C45.5526 17.9289 46.1984 18.12 46.7338 18.4807C47.122 18.7565 47.2561 19.0192 47.1855 19.0848Z" fill="#3E3E70"/>
<path d="M51.1592 28.3642C51.8278 28.1681 52.5203 28.0511 53.2203 28.0162C53.5449 28.0162 53.8484 27.9242 53.9261 27.7141C53.9524 27.4026 53.8761 27.091 53.7073 26.8209C53.4038 26.092 53.0791 25.3302 52.7403 24.5225C51.4063 21.2389 50.4322 18.5727 50.5734 18.5202C50.7146 18.4677 51.9215 21.0813 53.2555 24.3517C53.5802 25.1529 53.8908 25.9213 54.1802 26.6568C54.3886 27.0211 54.4488 27.4431 54.3496 27.8454C54.3038 27.9518 54.2322 28.0469 54.1404 28.1232C54.0486 28.1995 53.939 28.2551 53.8202 28.2854C53.641 28.3325 53.4558 28.3568 53.2697 28.3576C52.5692 28.4417 51.8603 28.4439 51.1592 28.3642V28.3642Z" fill="#3E3E70"/>
<path d="M39.866 38.3395C39.866 38.3395 42.8587 44.2498 52.0626 43.3961V41.3866C47.7725 41.4394 43.5506 40.3846 39.866 38.3395Z" fill="#FFEED6"/>
<path d="M46.7904 14.8163C46.6634 15.1381 45.3788 14.987 43.9107 15.1578C42.4425 15.3285 41.2144 15.7094 41.0168 15.4205C40.925 15.2826 41.1368 14.9805 41.6167 14.6653C42.2551 14.2828 42.9797 14.0423 43.7342 13.9626C44.4971 13.8761 45.2712 13.9594 45.9928 14.2056C46.5646 14.4091 46.8398 14.6587 46.7904 14.8163Z" fill="#3E3E70"/>
<path d="M58.8315 15.4731C58.6127 15.7423 57.7375 15.4731 56.7141 15.4731C55.6906 15.4731 54.7731 15.6569 54.5966 15.3745C54.5119 15.2366 54.646 14.9674 55.0342 14.7178C55.5559 14.4086 56.1666 14.2551 56.7846 14.2778C57.4027 14.2866 58.0024 14.4748 58.4998 14.8163C58.8104 15.0593 58.9304 15.3351 58.8315 15.4731Z" fill="#3E3E70"/>
<path d="M58.1331 7.90781C57.808 7.27886 57.3009 6.74662 56.6688 6.3708C56.0368 5.99497 55.3046 5.79042 54.5546 5.78008C53.0537 5.77748 51.5837 6.1764 50.3196 6.92932C44.8354 9.87793 42.0191 16.9966 36.6055 20.0634C35.2715 20.8121 33.5422 20.1291 32.3705 21.1207C31.1989 22.1124 30.5071 23.7016 31.1283 25.061C30.3576 24.1429 29.7346 23.1252 29.279 22.0401C29.0462 21.5051 28.9397 20.9298 28.9664 20.3531C28.9932 19.7764 29.1528 19.2119 29.4343 18.6975C29.9001 17.9423 30.726 17.3841 30.9518 16.5238C31.1777 15.6635 30.8389 15.0002 30.8742 14.2319C30.9665 13.4539 31.2543 12.707 31.7141 12.0516C33.8316 8.55795 36.7537 5.39919 40.5157 3.43564C42.9655 2.10984 45.7566 1.42884 48.5904 1.46552C51.4348 1.53118 54.1605 2.53956 56.2768 4.30906C57.4838 5.35979 58.7613 6.44335 58.1331 7.86841" fill="#3E3E70"/>
<path d="M32.5327 22.1649C32.4339 21.9153 27.6343 20.3064 27.5919 25.0544C27.5284 29.6513 32.5327 28.7582 32.5327 28.6269C32.5327 28.4955 32.5327 22.1649 32.5327 22.1649Z" fill="#FFEED6"/>
<path d="M31.0083 26.8602C31.0083 26.8602 30.9236 26.9194 30.7754 26.9785C30.5693 27.0555 30.3392 27.0555 30.1331 26.9785C29.8128 26.7884 29.5534 26.5217 29.382 26.2062C29.2107 25.8908 29.1337 25.5383 29.1591 25.1856C29.1524 24.7899 29.2391 24.3976 29.4132 24.0364C29.4615 23.8929 29.5465 23.7624 29.6608 23.6561C29.7751 23.5497 29.9153 23.4707 30.0696 23.4257C30.1698 23.4032 30.2753 23.4139 30.368 23.4558C30.4607 23.4978 30.5348 23.5683 30.5778 23.6555C30.6413 23.7803 30.5778 23.8722 30.6342 23.8854C30.6907 23.8985 30.7401 23.8066 30.7048 23.6161C30.6784 23.5025 30.6112 23.4006 30.5143 23.3272C30.3759 23.2327 30.2053 23.1883 30.0343 23.2024C29.8305 23.2393 29.64 23.3238 29.4808 23.4478C29.3215 23.5718 29.1987 23.7314 29.1238 23.9116C28.9113 24.3091 28.8047 24.7483 28.8132 25.1922C28.8132 26.1247 29.3355 26.9982 30.0555 27.1952C30.188 27.2314 30.3275 27.2402 30.464 27.2209C30.6006 27.2016 30.731 27.1547 30.846 27.0835C31.0013 26.9719 31.0295 26.8734 31.0083 26.8602Z" fill="#FFEED6"/>
<path d="M30.4433 27.6812C30.2617 27.6458 30.073 27.6595 29.8995 27.7205C29.7259 27.7815 29.5747 27.8874 29.4636 28.0257C29.3526 28.1639 29.2862 28.3288 29.2725 28.501C29.2587 28.6731 29.298 28.8454 29.3859 28.9974C29.4738 29.1494 29.6065 29.275 29.7684 29.3592C29.9303 29.4435 30.1147 29.483 30.3 29.473C30.4852 29.4631 30.6635 29.4041 30.8139 29.3031C30.9644 29.202 31.0806 29.0631 31.1491 28.9027C31.2303 28.6862 31.2243 28.4497 31.1321 28.2371C31.0399 28.0245 30.8679 27.8503 30.648 27.7469" fill="white"/>
<path d="M30.6764 27.7469C30.891 27.9038 31.0466 28.1199 31.121 28.3642C31.1562 28.4909 31.1573 28.6237 31.124 28.7509C31.0908 28.8781 31.0243 28.9956 30.9305 29.0931C30.8142 29.2074 30.6669 29.2902 30.5041 29.333C30.3413 29.3758 30.1692 29.3769 30.0058 29.3361C29.8466 29.2828 29.7062 29.1896 29.6003 29.0668C29.4945 28.9439 29.4272 28.7962 29.4059 28.64C29.3872 28.5107 29.404 28.3791 29.4546 28.2574C29.5052 28.1357 29.588 28.0279 29.6953 27.9439C29.908 27.7841 30.1703 27.692 30.4434 27.6812C30.4434 27.6812 30.3729 27.6287 30.2105 27.6287C29.988 27.6291 29.772 27.6984 29.5965 27.8257C29.4591 27.9217 29.3501 28.0486 29.2798 28.1945C29.2094 28.3403 29.18 28.5004 29.1941 28.6597C29.2084 28.8586 29.2867 29.0489 29.419 29.2057C29.5512 29.3626 29.7311 29.4787 29.9354 29.5389C30.1396 29.5992 30.3586 29.6008 30.5638 29.5435C30.769 29.4863 30.9509 29.3728 31.0857 29.2179C31.1987 29.0976 31.2758 28.9518 31.3093 28.795C31.3427 28.6383 31.3314 28.4761 31.2763 28.3248C31.2114 28.1259 31.0773 27.9527 30.8952 27.8322C30.7611 27.7469 30.6834 27.7337 30.6764 27.7469Z" fill="#3E3E70"/>
<path d="M31.8056 21.0944C31.7279 22.3552 31.6644 23.6884 32.2926 24.8048C32.9208 25.9212 34.4948 26.6895 35.6735 26.0591C36.6334 25.5534 36.9228 24.4042 37.0851 23.3863C37.551 20.4508 37.7909 17.4759 38.2638 14.547L31.8056 21.0944Z" fill="#3E3E70"/>
<path d="M48.0396 30.6101C47.7989 30.9016 47.6375 31.2431 47.5694 31.6053C47.5013 31.9675 47.5283 32.3397 47.6483 32.69C47.7683 33.0403 47.9776 33.3585 48.2583 33.6172C48.5391 33.876 48.883 34.0677 49.2607 34.176C49.5602 34.2725 49.8859 34.2725 50.1853 34.176C50.4275 34.0508 50.6396 33.8807 50.8083 33.6763C50.9771 33.4718 51.099 33.2373 51.1664 32.9873C51.3429 32.5867 51.5123 32.1927 51.6817 31.7921C51.7563 31.6657 51.7741 31.517 51.7311 31.3784C51.6605 31.2339 51.477 31.1879 51.3147 31.1485L48.1314 30.4327" fill="#FFEED6"/>
<path d="M50.1148 34.0447C49.6363 34.1045 49.1493 34.0456 48.7031 33.8739C48.1666 33.7154 47.7133 33.3757 47.4327 32.9217C47.2701 32.6404 47.2036 32.3197 47.2421 32.0023C47.2629 31.6759 47.3466 31.3556 47.4891 31.0566C47.6354 30.7677 47.839 30.5071 48.0891 30.2883L48.1738 30.2161L48.2796 30.2489C50.3971 30.9384 52.0346 31.2931 52.0135 31.3719C50.6926 31.2927 49.3928 31.0247 48.1597 30.5773L48.3432 30.5379C48.1325 30.7249 47.9623 30.9478 47.842 31.1946C47.7075 31.4337 47.6291 31.6967 47.612 31.9662C47.595 32.2356 47.6397 32.5054 47.7432 32.7575C47.978 33.153 48.3518 33.4614 48.802 33.6309C49.5642 33.9396 50.1289 33.979 50.1148 34.0447Z" fill="#3E3E70"/>
<path d="M33.0409 21.3243L32.1939 21.6658C32.0971 21.7093 31.9953 21.7423 31.8904 21.7643C31.9792 21.7059 32.0738 21.6553 32.1727 21.6132L32.9985 21.2389C33.7043 20.904 34.7631 20.4443 36.0124 19.8007C37.4823 19.0698 38.8601 18.1888 40.1203 17.1739C40.8495 16.5623 41.5008 15.8749 42.0613 15.125C42.6542 14.3501 43.2047 13.5029 43.847 12.6689C45.0682 11.1137 46.4905 9.70427 48.082 8.47255C48.7695 7.9322 49.4907 7.43005 50.2418 6.9687C50.9076 6.57415 51.6176 6.24825 52.3593 5.99678C53.4271 5.61529 54.57 5.44964 55.7119 5.51081C56.021 5.52415 56.3282 5.56371 56.6295 5.62902C56.7351 5.64761 56.8389 5.67396 56.9401 5.70782C56.9401 5.70782 56.5025 5.62902 55.7049 5.60932C54.582 5.5923 53.4666 5.782 52.4228 6.16752C51.7028 6.42763 51.0143 6.75781 50.3688 7.15258C49.6318 7.61457 48.9247 8.11673 48.2514 8.65644C46.6935 9.88437 45.3001 11.2823 44.1011 12.8199C43.473 13.6408 42.9154 14.488 42.3083 15.2695C41.7371 16.0352 41.0688 16.7342 40.3179 17.3512" fill="#E1E5EE"/>
<path d="M29.8505 44.8343L23.8157 49.9698L20.2443 80.9072L9.39575 129.339C12.9249 132.216 26.7237 138.474 40.5438 137.824C57.8082 137.01 60.6315 129.339 60.6315 129.339C64.1607 130.613 67.3933 131.966 67.3933 131.966C67.3933 131.966 60.568 77.2822 59.9822 68.8698C59.3681 60.1159 52.7404 49.7793 52.7404 49.7793L52.5004 46.4433L51.5052 49.0701L48.1102 46.5877L31.9892 39.7711L29.8505 44.8343Z" fill="#BDBDE7"/>
<path d="M29.8506 44.8344C29.8506 44.8344 22.6582 47.2707 17.4069 52.2486C14.3224 55.1709 0.69297 94.3368 0.220068 97.4234C-0.563397 102.552 5.41494 112.134 15.0424 110.676C24.6698 109.218 50.7641 102.086 50.7641 102.086L43.9106 80.3818L22.6865 88.919L33.7608 64.7982C33.7608 64.7982 38.5604 46.4958 29.8506 44.8344Z" fill="#BDBDE7"/>
<path d="M30.7046 71.3718C30.7046 71.3718 30.7046 71.4769 30.5846 71.6805C30.4646 71.884 30.3587 72.1861 30.1893 72.5736L28.6436 76.0279C27.2672 79.0553 25.2768 83.4421 22.7711 88.9453L22.6229 88.8008L43.7976 80.2636L43.96 80.1979L44.0094 80.3556L50.8841 102.027L50.9335 102.191L50.7641 102.237C44.0941 104.043 36.9723 105.915 29.5894 107.714C26.5896 108.443 23.6111 109.139 20.6607 109.763C19.1855 110.085 17.7174 110.38 16.2493 110.63L15.1553 110.814C14.7812 110.873 14.4071 110.886 14.033 110.919C13.2914 110.988 12.5442 110.988 11.8026 110.919C10.3357 110.767 8.91438 110.352 7.61708 109.697C6.97789 109.378 6.36455 109.016 5.78194 108.614C5.2234 108.196 4.69523 107.744 4.20089 107.261C2.27143 105.376 0.914675 103.049 0.269448 100.516C-0.0641671 99.2905 -0.0883237 98.0093 0.198867 96.7732C0.516487 95.5846 0.904691 94.4353 1.2576 93.2992C1.96343 91.027 2.75395 88.8336 3.48801 86.7322C4.96318 82.4964 6.38894 78.5693 7.72295 74.9903C10.3769 67.8387 12.6637 62.086 14.3506 58.1589C15.2047 56.1888 15.9176 54.6915 16.4681 53.6999C16.7363 53.2008 16.9763 52.833 17.1739 52.59C17.3716 52.347 17.4633 52.2485 17.4633 52.2485C17.4633 52.2485 17.3786 52.3799 17.2022 52.6097C17.0257 52.8396 16.8281 53.227 16.5669 53.7261C16.0517 54.7309 15.36 56.2413 14.5271 58.2114C12.8614 62.1517 10.6309 67.911 8.01234 75.0691C6.70656 78.6547 5.29492 82.5818 3.83386 86.8175C3.12803 88.9387 2.35869 91.1321 1.62463 93.3846C1.26466 94.5207 0.918808 95.6699 0.580012 96.8454C0.307152 98.0345 0.333723 99.2662 0.657651 100.444C1.30605 102.914 2.64542 105.179 4.53968 107.011C5.02065 107.483 5.53722 107.922 6.08544 108.325C6.64888 108.72 7.24612 109.071 7.87117 109.375C9.12558 110.012 10.502 110.414 11.9226 110.557C12.643 110.626 13.3691 110.626 14.0895 110.557C14.4495 110.525 14.7953 110.511 15.1765 110.459L16.2705 110.269C17.7315 110.019 19.1926 109.723 20.6607 109.408C23.6063 108.778 26.5802 108.093 29.5823 107.353C36.9511 105.56 44.0729 103.695 50.757 101.889L50.6371 102.099C48.1879 94.3106 45.8798 86.9949 43.8117 80.3884L44.0235 80.4803L22.7076 89.0241L22.4394 89.1357L22.5523 88.8862L28.5165 76.0082C29.2224 74.5174 29.7588 73.3813 30.1258 72.5736L30.5493 71.6936C30.6481 71.4703 30.7046 71.3718 30.7046 71.3718Z" fill="#3E3E70"/>
<path d="M22.6583 88.8993C22.1861 89.1227 21.6979 89.3158 21.1973 89.4772C20.043 89.9411 19.0065 90.6258 18.1552 91.4867C17.3319 92.3725 16.7207 93.4112 16.3624 94.5338C16.2417 95.0123 16.0909 95.4838 15.9107 95.9457C15.8881 95.446 15.9573 94.9463 16.1153 94.4682C16.4127 93.2797 17.0185 92.1771 17.8799 91.2569C18.7674 90.3587 19.8736 89.6718 21.1055 89.2539C21.599 89.0581 22.1235 88.9383 22.6583 88.8993V88.8993Z" fill="#3E3E70"/>
<path d="M56.545 75.345C56.4603 75.0041 56.4083 74.6568 56.3897 74.3074C56.3191 73.6507 56.1991 72.6656 56.0297 71.4704C55.705 69.08 55.1263 65.7965 54.364 62.1911C53.6017 58.5858 52.8323 55.322 52.2959 52.9973C52.0489 51.8546 51.8371 50.9155 51.6818 50.1931C51.5955 49.8518 51.5365 49.505 51.5054 49.1555C51.6415 49.4838 51.7477 49.8221 51.823 50.1669C52.0065 50.8827 52.2535 51.8152 52.5288 52.9447C53.1288 55.2892 53.9405 58.5398 54.7028 62.1386C55.465 65.7373 56.0085 69.0537 56.2697 71.4573C56.4038 72.659 56.4814 73.6375 56.5097 74.3139C56.556 74.6558 56.5678 75.001 56.545 75.345V75.345Z" fill="#3E3E70"/>
<path d="M60.6315 129.339C60.5996 129.197 60.5854 129.051 60.5892 128.906C60.5892 128.584 60.5892 128.17 60.5257 127.658C60.4833 126.529 60.4268 124.972 60.3563 123.061C60.208 119.18 59.9681 113.821 59.6152 107.911C59.2622 102.001 58.8388 96.6485 58.5 92.8068C58.3376 90.9023 58.1964 89.3459 58.0976 88.2098C58.0553 87.6976 58.02 87.2839 57.9988 86.9621C57.9818 86.8158 57.9818 86.6683 57.9988 86.5221C58.0439 86.6633 58.0723 86.8086 58.0835 86.9555L58.2529 88.1967C58.3941 89.2737 58.5776 90.8235 58.7752 92.7936C59.1775 96.6616 59.6363 101.988 59.9963 107.931C60.3563 113.874 60.5468 119.213 60.6245 123.094C60.6668 125.031 60.688 126.607 60.688 127.691C60.688 128.203 60.688 128.624 60.688 128.945C60.683 129.078 60.6641 129.21 60.6315 129.339V129.339Z" fill="#3E3E70"/>
<path d="M67.3931 131.992C67.2321 131.954 67.0741 131.906 66.9202 131.848L65.5721 131.382C64.4075 130.948 62.6853 130.357 60.5819 129.412L60.7372 129.359C60.0458 130.737 59.0613 131.97 57.8433 132.984C56.3761 134.194 54.6886 135.15 52.8602 135.808C51.8576 136.17 50.8233 136.452 49.7687 136.648L48.1312 136.99C47.5736 137.088 47.0089 137.167 46.4372 137.259C44.0699 137.618 41.6782 137.82 39.2801 137.863C35.1438 137.925 31.0141 137.531 26.9776 136.688C23.6823 136.002 20.4706 135.005 17.3925 133.713C16.0726 133.174 14.9292 132.59 13.9269 132.091C12.9247 131.592 12.0988 131.066 11.4142 130.672L9.90372 129.74L9.51552 129.471C9.43082 129.412 9.38848 129.379 9.39553 129.372L9.5367 129.444L9.94608 129.681L11.4918 130.62C12.1977 130.994 13.0235 131.474 14.0257 131.979C15.028 132.485 16.1432 133.03 17.4984 133.549C20.5696 134.807 23.769 135.775 27.0482 136.438C31.0622 137.256 35.1644 137.64 39.2731 137.581C41.6542 137.539 44.0293 137.341 46.3807 136.99C46.9524 136.898 47.51 136.826 48.0606 136.727L49.684 136.392C50.7267 136.206 51.7495 135.934 52.7402 135.578C54.5482 134.944 56.221 134.017 57.681 132.84C58.8871 131.862 59.8669 130.667 60.5607 129.326L60.6101 129.228L60.7231 129.274C62.7911 130.213 64.5063 130.837 65.6638 131.303L66.9908 131.828C67.1305 131.87 67.2653 131.925 67.3931 131.992Z" fill="#3E3E70"/>
<path d="M44.1719 115.68C43.9839 115.869 43.7758 116.041 43.5508 116.192C43.1343 116.507 42.5132 116.927 41.7156 117.42C37.5269 119.965 32.7449 121.541 27.7685 122.017C27.0207 122.092 26.2692 122.131 25.517 122.135C25.2403 122.166 24.9607 122.166 24.6841 122.135C24.6841 122.076 25.8628 122.043 27.7403 121.813C32.6429 121.213 37.3556 119.662 41.5745 117.262C43.1626 116.297 44.1013 115.634 44.1719 115.68Z" fill="#3E3E70"/>
<path d="M43.0072 103.8C42.8371 103.574 42.6973 103.329 42.5907 103.071C42.3437 102.585 42.012 101.882 41.6096 101.002C40.8191 99.2491 39.8027 96.793 38.8428 94.0217C37.8829 91.2504 37.1488 88.7089 36.7253 86.857C36.4924 85.9311 36.316 85.1758 36.2171 84.6505C36.1407 84.3824 36.098 84.1069 36.0901 83.8296C36.2077 84.0827 36.2953 84.3469 36.3512 84.6176C36.5206 85.2021 36.7253 85.9311 36.9724 86.7979C37.5017 88.6367 38.264 91.1584 39.2239 93.9166C40.1839 96.6748 41.1579 99.1703 41.892 100.917L42.7601 103.019C42.8672 103.272 42.9498 103.533 43.0072 103.8V103.8Z" fill="#3E3E70"/>
<path d="M50.8276 50.4163C50.5115 50.1853 50.2143 49.9329 49.9382 49.6611L47.5808 47.4808L47.7996 47.4151C47.5455 49.3853 47.2208 51.907 46.8608 54.7506V55.0067L46.6279 54.8753L43.3599 53.0365C39.5132 50.8628 36.0476 48.8796 33.5419 47.4348L30.5563 45.6814L29.7587 45.1955C29.6638 45.1445 29.5761 45.0827 29.4976 45.0116C29.4976 45.0116 29.6105 45.0444 29.8011 45.1364L30.6269 45.5698L33.6407 47.205C36.1817 48.6038 39.6685 50.5542 43.5223 52.7213L46.7832 54.5667L46.515 54.6914C46.9173 51.8545 47.2773 49.3262 47.5525 47.3692V47.1196L47.7361 47.2969L50.0088 49.5494C50.3074 49.8165 50.5812 50.1065 50.8276 50.4163V50.4163Z" fill="#3E3E70"/>
<path d="M32.0598 46.2856C32.2458 45.3962 32.5492 44.5315 32.9633 43.7114C33.2656 42.8486 33.6855 42.0254 34.2126 41.2618C34.0266 42.1513 33.7232 43.016 33.3091 43.8361C33.0002 44.6964 32.5807 45.5189 32.0598 46.2856V46.2856Z" fill="white"/>
<path d="M38.1794 42.26C38.2711 42.3191 37.3677 43.5012 36.4995 45.0838C35.6314 46.6665 35.0879 48.0259 35.0032 47.9931C35.1862 46.9121 35.5835 45.8722 36.1748 44.9262C36.6557 43.9275 37.3359 43.0228 38.1794 42.26V42.26Z" fill="white"/>
<path d="M41.8919 44.1973C41.5902 45.2855 41.1741 46.3436 40.6497 47.356C40.2364 48.41 39.709 49.4222 39.0757 50.3769C39.3729 49.2882 39.7867 48.23 40.3109 47.2181C40.7212 46.1618 41.2512 45.1492 41.8919 44.1973V44.1973Z" fill="white"/>
<path d="M45.5835 45.7603C45.3686 46.973 45.0331 48.1646 44.5813 49.3196C44.2496 50.5109 43.7958 51.6698 43.2261 52.7805C43.441 51.5677 43.7765 50.3761 44.2283 49.2211C44.5706 48.0329 45.0241 46.8749 45.5835 45.7603V45.7603Z" fill="white"/>
<path d="M2.13269 103.8C2.13269 103.8 2.13269 103.754 2.05505 103.649C1.98778 103.496 1.92889 103.341 1.8786 103.183C1.67123 102.578 1.54326 101.951 1.49745 101.318C1.43795 100.312 1.53061 99.3043 1.77272 98.3231C2.04799 97.1738 2.47855 95.9129 2.9091 94.4945C4.68072 88.8534 7.34167 81.1174 10.7861 72.7312C12.5012 68.5414 14.2305 64.5815 15.9033 61.0156C17.3267 57.8132 19.2275 54.8133 21.5499 52.1041C23.1298 50.3041 25.0567 48.7941 27.2318 47.6516C28.0268 47.2219 28.8754 46.8845 29.7587 46.6469L29.5963 46.7257L29.1093 46.9161C28.4884 47.1653 27.8849 47.4504 27.3024 47.7698C25.164 48.9369 23.2702 50.4543 21.7123 52.2486C19.4487 54.9583 17.5984 57.9462 16.2139 61.1272C14.5623 64.726 12.84 68.6662 11.1249 72.856C7.69459 81.229 4.99128 88.9453 3.15614 94.5667C2.71147 95.9721 2.2668 97.2395 1.97035 98.369C1.71618 99.3311 1.60456 100.321 1.63862 101.311C1.69694 102.156 1.86279 102.991 2.13269 103.8Z" fill="white"/>
<path d="M39.2802 97.5613C39.2117 97.6094 39.1355 97.647 39.0543 97.6729L38.3485 97.9684C37.7556 98.2311 36.8733 98.6251 35.7299 99.052C33.436 99.9583 30.0833 101.199 25.8484 102.46C23.7309 103.117 21.3805 103.728 18.8466 104.325C17.5761 104.621 16.2562 104.916 14.894 105.186C14.1964 105.343 13.4893 105.462 12.7765 105.54C12.0291 105.641 11.2666 105.574 10.5532 105.343C9.80611 105.079 9.20206 104.55 8.8733 103.872C8.5699 103.193 8.44177 102.458 8.49921 101.725C8.65573 100.257 8.97747 98.8088 9.45913 97.4037C10.2779 94.5273 11.1813 91.559 12.1695 88.5381C14.1458 82.4899 16.2562 76.7897 18.4796 71.7199C20.4218 67.2156 22.6321 62.8154 25.1002 58.5398C26.7734 55.6629 28.6088 52.8702 30.5986 50.1734C31.3044 49.2343 31.9114 48.5185 32.2996 48.0259L32.7513 47.4743C32.8502 47.3495 32.9066 47.2904 32.9137 47.297C32.8756 47.3664 32.8307 47.4324 32.7796 47.494L32.3561 48.0653C31.9749 48.5841 31.4244 49.3131 30.7186 50.2522C29.3704 52.2223 27.3941 54.9936 25.3261 58.658C22.8958 62.9395 20.7141 67.3392 18.7901 71.8381C16.6444 76.8947 14.527 82.5884 12.5648 88.6301C11.5907 91.6443 10.6802 94.6127 9.86145 97.489C9.37291 98.8666 9.04401 100.289 8.88036 101.731C8.82284 102.414 8.9389 103.101 9.21916 103.734C9.50655 104.338 10.0397 104.81 10.7014 105.048C11.3682 105.259 12.0783 105.324 12.7765 105.238C13.4701 105.159 14.1582 105.043 14.8375 104.89C16.1998 104.627 17.5196 104.338 18.7831 104.05C21.3452 103.472 23.7027 102.815 25.8201 102.224C30.0551 100.996 33.4219 99.7875 35.7017 98.9404L38.3485 97.9225L39.0543 97.6532C39.1257 97.6147 39.2014 97.5839 39.2802 97.5613V97.5613Z" fill="white"/>
<path d="M18.0562 90.436C18.0697 90.285 18.0981 90.1356 18.1409 89.9894C18.2256 89.6611 18.3385 89.2408 18.4726 88.7154C18.6067 88.19 18.8184 87.4939 19.0584 86.7453C19.2984 85.9966 19.5807 85.0838 19.9266 84.1185C21.7326 79.0859 23.8272 74.1469 26.2014 69.3229C28.9541 63.6752 31.7138 58.6777 33.8313 55.1249C34.883 53.3387 35.7794 51.9202 36.4076 50.9482L37.1134 49.8318C37.1907 49.6968 37.2855 49.571 37.3957 49.4575C37.3354 49.6009 37.2622 49.7393 37.1769 49.8712L36.4711 51.0139C35.8853 52.0055 35.0595 53.4437 34.0078 55.2365C32.0032 58.8156 29.2858 63.8262 26.526 69.4673C23.7663 75.1085 21.5853 80.3293 20.1736 84.171C19.8137 85.1298 19.4678 86.0032 19.2561 86.7978C19.0443 87.5924 18.762 88.2294 18.6067 88.7679L18.2185 90.0222C18.1786 90.1646 18.1243 90.3032 18.0562 90.436V90.436Z" fill="white"/>
<path d="M36.6615 88.0653C36.4401 88.2024 36.2035 88.3169 35.9557 88.4068C35.4758 88.6038 34.7841 88.8796 33.9159 89.2014C32.1866 89.8581 29.7727 90.6921 27.0623 91.513C24.352 92.3339 21.8745 92.9775 20.0676 93.4043C19.1571 93.6145 18.423 93.7721 17.9501 93.8706C17.6882 93.9416 17.4181 93.9834 17.1455 93.9954C17.3901 93.8833 17.6484 93.7995 17.9149 93.7458L20.0323 93.1679C21.8181 92.6885 24.2673 92.0055 26.9847 91.1978C29.7021 90.39 32.109 89.5823 33.8594 88.9913L35.9345 88.2952C36.1653 88.1899 36.4096 88.1126 36.6615 88.0653Z" fill="white"/>
<path d="M28.5093 86.1149C28.2514 84.7996 28.1191 83.4657 28.114 82.1287C27.9874 80.796 27.9874 79.4555 28.114 78.1228C28.3641 79.4391 28.4963 80.7724 28.5093 82.109C28.6274 83.4421 28.6274 84.7819 28.5093 86.1149Z" fill="white"/>
<path d="M34.4029 83.8689C34.3041 83.8689 33.9653 79.3967 33.6547 73.8673C33.3441 68.3378 33.1677 63.8459 33.2665 63.8459C33.3653 63.8459 33.7041 68.3181 34.0217 73.8476C34.3393 79.377 34.5087 83.8623 34.4029 83.8689Z" fill="white"/>
<path d="M41.1719 78.9765C41.0854 78.6089 41.0287 78.2357 41.0026 77.8601C40.9108 77.1377 40.8049 76.0936 40.692 74.7998C40.452 72.219 40.1979 68.64 39.9438 64.6866C39.6897 60.7332 39.4709 57.2133 39.3015 54.5733C39.2239 53.319 39.1533 52.288 39.1039 51.5065C39.0699 51.1306 39.0699 50.7528 39.1039 50.377C39.1889 50.7448 39.2455 51.1179 39.2733 51.4934C39.365 52.2157 39.4709 53.2599 39.5909 54.5536C39.8238 57.141 40.085 60.7201 40.3391 64.6669C40.5932 68.6137 40.812 72.1402 40.9743 74.7867C41.059 76.0345 41.1225 77.0655 41.1719 77.847C41.2061 78.2228 41.2061 78.6007 41.1719 78.9765V78.9765Z" fill="white"/>
<path d="M53.7639 129.339C53.755 129.276 53.755 129.212 53.7639 129.149V128.577C53.7639 128.059 53.7075 127.33 53.6651 126.404C53.5804 124.486 53.4604 121.754 53.3193 118.385C53.0087 111.621 52.4864 102.276 51.6888 91.9726C50.8912 81.6689 49.9172 72.3503 49.1126 65.619C48.7102 62.2567 48.3644 59.5314 48.1103 57.6532C47.9903 56.7338 47.8986 56.0114 47.828 55.486C47.828 55.2562 47.7856 55.0723 47.7644 54.9213C47.7582 54.8579 47.7582 54.7942 47.7644 54.7308C47.7878 54.7926 47.8043 54.8564 47.8139 54.9213C47.8139 55.0658 47.8703 55.2496 47.9127 55.4795C47.9903 55.9983 48.1103 56.7207 48.2585 57.6335C48.555 59.5117 48.9643 62.2304 49.3737 65.5928C50.2489 72.3174 51.2583 81.6361 52.0558 91.9464C52.8534 102.257 53.3404 111.608 53.5804 118.379C53.7145 121.761 53.7781 124.506 53.8134 126.397C53.8134 127.323 53.8134 128.059 53.8134 128.577V129.149C53.8079 129.214 53.7912 129.279 53.7639 129.339V129.339Z" fill="white"/>
<path d="M41.4261 117.079C41.2767 115.002 41.2507 112.919 41.3484 110.84C41.3229 108.759 41.4219 106.678 41.6449 104.608C41.7899 106.685 41.8135 108.767 41.7155 110.846C41.7407 112.927 41.6441 115.008 41.4261 117.079V117.079Z" fill="white"/>
<path d="M38.6735 132.216C38.6506 131.557 38.686 130.898 38.7793 130.246C38.8852 129.044 39.0193 127.382 39.1252 125.55C39.2311 123.718 39.2946 122.043 39.3369 120.842C39.3158 120.183 39.3559 119.524 39.4569 118.871C39.5724 119.522 39.6173 120.182 39.591 120.842C39.591 122.05 39.591 123.725 39.4922 125.57C39.3934 127.415 39.2099 129.077 39.0405 130.272C38.987 130.929 38.8641 131.581 38.6735 132.216V132.216Z" fill="white"/>
<path d="M28.2835 121.281C28.2429 120.624 28.2617 119.965 28.34 119.311C28.4247 118.103 28.5659 116.435 28.7423 114.596C28.9188 112.757 29.1023 111.096 29.2505 109.894C29.2936 109.241 29.3999 108.592 29.5681 107.957C29.6088 108.614 29.5899 109.273 29.5117 109.927C29.427 111.135 29.2858 112.803 29.1094 114.642C28.9329 116.481 28.7494 118.142 28.6012 119.344C28.5572 119.997 28.4509 120.646 28.2835 121.281V121.281Z" fill="white"/>
<path d="M25.1143 130.81C25.0487 129.473 25.1077 128.133 25.2908 126.804C25.3553 125.466 25.5394 124.135 25.8413 122.825C25.9022 124.163 25.8408 125.503 25.6578 126.831C25.5981 128.169 25.4163 129.501 25.1143 130.81V130.81Z" fill="white"/>
<path d="M16.2071 126.732C16.1728 126.515 16.1728 126.293 16.2071 126.076C16.2071 125.655 16.2847 125.051 16.3624 124.309C16.5177 122.818 16.7788 120.763 17.1176 118.504C17.4564 116.245 17.8234 114.196 18.1058 112.725C18.254 111.989 18.381 111.411 18.4728 110.984C18.5023 110.758 18.5664 110.537 18.6634 110.328C18.6766 110.548 18.66 110.768 18.614 110.984C18.5434 111.47 18.4587 112.055 18.3669 112.738C18.127 114.307 17.8164 116.31 17.4776 118.523C17.1388 120.737 16.8565 122.74 16.6235 124.309L16.3483 126.062C16.3333 126.291 16.2858 126.516 16.2071 126.732V126.732Z" fill="white"/>
<path d="M64.443 125.629C64.443 125.629 64.443 125.576 64.4077 125.458C64.3724 125.34 64.3654 125.156 64.3301 124.952L64.0972 122.982L63.2714 115.759C62.5655 109.664 61.5844 101.311 60.5116 92.0253C59.4387 82.7394 58.3235 74.3927 57.5683 68.2985C57.1942 65.2842 56.8625 62.8347 56.6648 61.1075C56.566 60.2801 56.4884 59.6299 56.439 59.1374C56.439 58.9273 56.3966 58.7565 56.3825 58.6252C56.3731 58.5664 56.3731 58.5067 56.3825 58.4479L56.4249 58.6186C56.4249 58.7565 56.4743 58.9207 56.5096 59.1243C56.5801 59.5971 56.679 60.2538 56.806 61.0944C57.053 62.815 57.3989 65.2579 57.8295 68.2722C58.6623 74.3336 59.7634 82.7197 60.8716 91.9859C61.9797 101.252 62.9043 109.651 63.5325 115.739L64.2383 122.963C64.3089 123.797 64.3654 124.453 64.4077 124.933C64.4077 125.143 64.4077 125.307 64.443 125.445C64.4538 125.506 64.4538 125.568 64.443 125.629V125.629Z" fill="white"/>
<g opacity="0.3">
<path opacity="0.3" d="M52.797 100.924C52.0135 97.0556 50.9618 92.7804 47.4751 90.5542L49.8255 99.7481C50.0755 100.425 50.0755 101.16 49.8255 101.836C49.4161 102.67 48.3573 103.018 47.4115 103.275C36.2751 106.364 24.9649 108.883 13.532 110.82C19.8844 113.697 27.6485 112.666 34.4667 110.899C39.5863 109.586 44.6471 108.095 49.649 106.427C50.7077 106.072 51.8371 105.665 52.4723 104.805C53.2911 103.701 53.0581 102.23 52.797 100.924Z" fill="#3E3E70"/>
</g>
<g opacity="0.3">
<path opacity="0.3" d="M31.0434 71.6017C27.7328 77.0195 24.8752 82.6664 22.4958 88.4922H23.0252C26.5543 87.7304 29.3776 84.8869 30.5775 81.6821C31.7774 78.4774 31.6716 74.9575 31.0434 71.6017Z" fill="#3E3E70"/>
</g>
<path d="M66.9276 127.146C66.3706 126.642 65.6897 126.272 64.9442 126.069C64.0725 125.839 63.158 125.785 62.2621 125.911C61.0762 126.106 59.932 126.479 58.8741 127.015C56.1369 128.502 53.2506 129.738 50.256 130.705C46.5596 131.834 42.7042 132.45 38.8146 132.531C34.9237 132.624 31.0377 132.215 27.2673 131.316C24.1999 130.561 21.2315 129.493 18.4163 128.131C16.5335 127.192 14.7391 126.106 13.0521 124.887L11.7039 123.83C11.544 123.715 11.393 123.59 11.2522 123.455C11.4269 123.552 11.5943 123.659 11.7533 123.777L13.165 124.762C14.8791 125.929 16.6839 126.976 18.5645 127.895C21.3749 129.218 24.3306 130.255 27.3803 130.988C31.1208 131.865 34.9725 132.263 38.8287 132.17C42.6769 132.089 46.4924 131.492 50.1572 130.397C53.1399 129.453 56.0186 128.245 58.7542 126.791C59.8425 126.257 61.0182 125.893 62.2339 125.714C63.1579 125.6 64.0977 125.676 64.9866 125.938C65.548 126.099 66.0672 126.367 66.5112 126.726C66.6705 126.847 66.8107 126.988 66.9276 127.146V127.146Z" fill="#3E3E70"/>
<g opacity="0.3">
<path opacity="0.3" d="M47.701 47.5071L46.6634 54.7309L29.7236 45.0905C34.6087 50.9658 40.89 55.7086 48.0751 58.9469L49.0703 50.7184L51.7595 52.925C50.9247 50.8269 49.5277 48.962 47.701 47.5071V47.5071Z" fill="#3E3E70"/>
</g>
<path d="M68.0285 70.2292L61.9373 74.1038V78.7796C63.5748 77.7617 64.4994 76.5533 66.1722 75.5354C66.758 75.1677 67.3297 74.0513 67.7462 73.5193C68.5861 72.3701 68.325 71.2931 68.0285 70.2292Z" fill="#FFEED6"/>
<path d="M72.4049 87.1657C71.0964 87.1557 69.8041 86.8945 68.609 86.3985C67.4139 85.9024 66.3417 85.1821 65.4596 84.2827C64.5939 83.3689 63.9834 82.2708 63.6818 81.0854C63.3802 79.9 63.3969 78.6638 63.7304 77.4858C64.0939 76.3154 64.8092 75.2659 65.792 74.4609C66.7748 73.6558 67.9843 73.1287 69.2781 72.9414L70.0898 75.3647C70.0898 75.3647 66.0525 77.2034 66.8219 80.487C67.5912 83.7705 72.6096 84.1186 72.6096 84.1186L72.4049 87.1657Z" fill="#BDBDE7"/>
<path d="M69.1509 72.1862L71.0354 89.4969H86.5212L88.6246 72.1993L69.1509 72.1862Z" fill="#BDBDE7"/>
<path d="M68.7414 81.3735C67.8309 81.3013 66.9063 81.1502 66.8498 80.8547L66.7439 80.2637C66.7439 80.2637 70.019 79.8762 70.2307 79.1867C70.2922 78.7322 70.2611 78.271 70.1389 77.8273C70.0778 77.5187 69.9504 77.2248 69.7642 76.9631C69.5781 76.7015 69.3371 76.4775 69.0556 76.3045C68.7742 76.1316 68.4582 76.0133 68.1264 75.9568C67.7947 75.9002 67.4541 75.9065 67.1251 75.9754H67.0827C66.3847 76.1306 65.6777 76.249 64.9653 76.33L62.3255 75.6405L62.0079 74.0709L55.1473 78.2935L45.4563 84.4272L47.9902 92.2092L53.2274 89.4838C53.2274 89.4838 64.6335 90.0683 65.3746 89.6808C66.1158 89.2934 66.5322 87.5203 66.5322 87.5203C66.5322 87.5203 70.019 86.0427 69.5955 84.8934C69.8304 84.6406 70.0428 84.3705 70.2307 84.0857C70.4019 83.825 70.4984 83.5277 70.5109 83.2224C70.5234 82.917 70.4515 82.6138 70.3021 82.3417C70.1527 82.0696 69.9308 81.8377 69.6575 81.6682C69.3843 81.4987 69.0688 81.3972 68.7414 81.3735V81.3735Z" fill="#FFEED6"/>
<path d="M82.1098 81.5245C82.0286 80.9762 82.0096 80.4215 82.0533 79.8696C82.0533 78.8517 82.131 77.4397 82.1451 75.8899C82.1747 75.168 82.1369 74.4451 82.0321 73.7294C81.9601 73.1649 81.6504 72.6501 81.171 72.2977C80.8448 72.0643 80.4382 71.9499 80.0276 71.9759C79.7382 71.9759 79.59 72.0876 79.5688 72.0613C79.5476 72.0351 79.6817 71.9234 79.9994 71.8446C80.2266 71.8033 80.4605 71.8046 80.6871 71.8486C80.9138 71.8926 81.1287 71.9783 81.3193 72.1007C81.5979 72.2835 81.8341 72.5167 82.0136 72.7864C82.193 73.0561 82.3122 73.3567 82.3639 73.6702C82.4936 74.4036 82.5433 75.1473 82.5121 75.8899C82.5121 77.4529 82.3921 78.8648 82.3145 79.8827C82.3083 80.4351 82.2397 80.9854 82.1098 81.5245V81.5245Z" fill="#3E3E70"/>
<path d="M84.1426 80.9466L80.5711 80.9269L79.5688 82.7985V86.811H84.7355L84.919 82.7985L84.1426 80.9466Z" fill="white"/>
<path d="M77.1337 51.5393C77.2098 51.5501 77.2823 51.577 77.3454 51.6181C77.5384 51.7209 77.7065 51.8595 77.8395 52.0253C78.0669 52.3435 78.2153 52.7049 78.2739 53.0832C78.3325 53.4614 78.2998 53.8471 78.1783 54.2121C77.9454 55.1512 77.2043 56.0771 76.8302 57.2132C76.6212 57.793 76.6362 58.4224 76.8725 58.9929C77.2093 59.5871 77.6294 60.1369 78.1218 60.6281C78.6693 61.1646 79.0009 61.8605 79.0606 62.5982C79.0302 63.2775 78.7846 63.9332 78.3548 64.483C77.5925 65.5271 76.7031 66.2692 76.3149 67.1098C76.1508 67.4286 76.0657 67.7775 76.0657 68.131C76.0657 68.4844 76.1508 68.8334 76.3149 69.1522C76.4565 69.3779 76.6378 69.5799 76.8514 69.7498C76.8514 69.7498 76.7737 69.7498 76.6396 69.6644C76.4586 69.545 76.305 69.3932 76.1879 69.2178C75.9892 68.883 75.878 68.5094 75.8633 68.1273C75.8485 67.7451 75.9307 67.365 76.1032 67.0179C76.4843 66.105 77.3878 65.317 78.0936 64.3254C78.4697 63.8206 78.6805 63.2253 78.7006 62.6114C78.633 61.9575 78.3295 61.3441 77.8395 60.8711C77.3175 60.3581 76.8799 59.7761 76.5408 59.144C76.2777 58.512 76.2651 57.8136 76.5055 57.1738C76.9361 55.9589 77.6772 55.0724 77.9171 54.1924C78.0428 53.8583 78.0896 53.5029 78.0542 53.1504C78.0189 52.798 77.9023 52.4568 77.7125 52.15C77.5548 51.9197 77.3596 51.7137 77.1337 51.5393V51.5393Z" fill="#3E3E70"/>
<path d="M81.7566 51.5393C81.8328 51.5501 81.9052 51.577 81.9684 51.6181C82.1613 51.7209 82.3295 51.8595 82.4624 52.0253C82.6862 52.345 82.8325 52.7063 82.891 53.0839C82.9495 53.4616 82.9189 53.8466 82.8012 54.2121C82.5613 55.1512 81.8272 56.0771 81.4531 57.2132C81.2419 57.7922 81.2544 58.4216 81.4884 58.9929C81.8279 59.5871 82.2503 60.137 82.7448 60.6281C83.2922 61.1646 83.6238 61.8605 83.6835 62.5982C83.6531 63.2775 83.4075 63.9332 82.9777 64.483C82.2154 65.5271 81.319 66.2692 80.9379 67.1098C80.7757 67.4291 80.6916 67.7778 80.6916 68.131C80.6916 68.4841 80.7757 68.8329 80.9379 69.1522C81.0804 69.3792 81.2643 69.5814 81.4813 69.7498C81.4813 69.7498 81.3966 69.7498 81.2696 69.6644C81.0868 69.5469 80.9329 69.3947 80.8179 69.2178C80.6197 68.8831 80.5081 68.5099 80.4922 68.128C80.4763 67.746 80.5564 67.3659 80.7261 67.0179C81.1073 66.105 82.0178 65.317 82.7165 64.3254C83.0919 63.8198 83.3049 63.2253 83.3306 62.6114C83.2605 61.9568 82.9545 61.3435 82.4624 60.8711C81.945 60.3547 81.5078 59.7733 81.1637 59.144C80.9151 58.5076 80.9151 57.8102 81.1637 57.1738C81.5872 55.9589 82.3354 55.0724 82.5754 54.1924C82.6974 53.8577 82.7422 53.5028 82.707 53.1509C82.6717 52.799 82.5571 52.458 82.3707 52.15C82.2024 51.9173 81.995 51.7111 81.7566 51.5393V51.5393Z" fill="#3E3E70"/>
<path d="M81.7004 85.3596C82.086 85.3952 82.4729 85.3047 82.7945 85.1035C83.111 84.8655 83.3139 84.521 83.3591 84.1447C83.4069 83.6748 83.2985 83.2026 83.0485 82.7919L82.9356 82.608L83.1827 82.6671C82.7402 82.8794 82.3276 83.1419 81.9545 83.4486C81.6648 83.6894 81.4585 84.0048 81.3616 84.3549C81.3004 84.6877 81.3445 85.03 81.4887 85.3399C81.4887 85.3399 81.3687 85.2939 81.2628 85.1232C81.1221 84.8756 81.0701 84.5925 81.1146 84.3155C81.185 83.902 81.3952 83.5202 81.7145 83.2253C82.0987 82.8844 82.5337 82.5968 83.0062 82.3716L83.1615 82.2863L83.2532 82.4307L83.3732 82.6343C83.6605 83.1088 83.7721 83.658 83.6909 84.1973C83.6559 84.4203 83.5705 84.634 83.4403 84.8242C83.3101 85.0144 83.1381 85.1767 82.9356 85.3005C82.6637 85.4633 82.3385 85.5308 82.018 85.491C81.7922 85.4516 81.6934 85.3793 81.7004 85.3596Z" fill="#3E3E70"/>
<path d="M82.8791 83.7705C82.9497 83.8427 82.4909 84.3221 82.0533 84.9919C81.6156 85.6618 81.3474 86.2528 81.2416 86.2265C81.2249 85.7148 81.3995 85.2135 81.7356 84.808C82.2085 84.0791 82.8155 83.6785 82.8791 83.7705Z" fill="#3E3E70"/>
<path d="M59.9046 67.3987C59.9193 66.3239 59.839 65.2499 59.6646 64.1874C59.3328 62.2173 58.2529 59.6495 56.8413 56.8914C55.4296 54.1332 54.2297 51.6377 53.3616 49.7727C52.9522 48.9058 52.6134 48.1769 52.3452 47.599C52.2032 47.3402 52.0943 47.0669 52.0205 46.7847C52.199 47.0234 52.3504 47.2787 52.4722 47.5464C52.7687 48.1046 53.1781 48.8205 53.5945 49.6742C54.5262 51.4736 55.7967 53.9756 57.173 56.7469C58.5494 59.5182 59.6363 62.1385 59.9046 64.1546C60.0337 64.9409 60.074 65.7377 60.0246 66.5318C60.0224 66.8242 59.9821 67.1153 59.9046 67.3987V67.3987Z" fill="#3E3E70"/>
<path d="M32.4837 172.015C32.2805 173.183 31.8853 174.315 31.312 175.371C30.5003 176.625 30.3239 179.226 30.4086 180.907C30.4933 182.588 30.5921 187.191 29.8721 188.538C29.1522 189.884 26.9571 192.478 26.343 194.487C25.729 196.497 25.5313 199.268 26.343 201.054C27.1547 202.841 27.8817 205.415 29.1663 205.835C30.4509 206.256 34.3047 205.835 34.3047 205.835C34.3047 205.835 34.3047 204.581 33.7612 204.161C33.2178 203.74 31.3261 202.9 31.1497 201.534C30.9732 200.168 30.698 197.928 30.698 197.928C30.698 197.928 35.2929 196.169 37.6362 194.067C39.9795 191.966 42.9511 189.004 42.9511 189.004C43.4427 190.709 44.0775 192.376 44.8497 193.988C45.1495 194.533 45.3059 195.136 45.3059 195.748C45.3059 196.36 45.1495 196.963 44.8497 197.508C44.5745 198.093 48.0048 201.593 51.788 204.22C55.5712 206.847 58.7262 205.224 58.7262 205.224C58.7262 205.224 59.2697 203.044 58.2745 202.598C57.3106 202.337 56.3015 202.252 55.303 202.348C55.303 202.348 50.6163 199.157 51.1598 196.812C51.7033 194.468 53.3196 191.782 53.5031 190.015C53.6867 188.249 53.7714 187.421 53.7714 187.421C56.6765 187.786 59.6064 187.953 62.5377 187.92C64.3942 187.861 66.2349 187.581 68.0149 187.086C68.0149 187.086 69.5465 195.807 68.5513 197.062C67.5561 198.316 64.4081 200.667 64.1329 202.263C63.8576 203.859 64.3164 206.157 66.2997 205.973C68.2831 205.789 68.1913 204.66 68.0996 203.182C69.3362 202.06 70.4827 200.855 71.5299 199.577C72.1581 198.572 75.5813 189.766 75.5813 189.766C75.5813 189.766 80.9032 199.327 81.0797 201.002C81.1478 201.599 81.3619 202.175 81.7057 202.684C82.0494 203.192 82.5137 203.621 83.0631 203.937C83.423 204.023 84.2347 206.82 85.4981 206.82C86.9505 206.723 88.3953 206.546 89.8248 206.288C89.8248 206.288 89.7331 204.443 88.4132 203.859C87.0933 203.274 85.1664 203.018 85.1664 200.575C85.1664 198.132 83.6348 188.577 83.7548 188.242C83.8747 187.907 86.6345 183.126 87.0862 181.452C87.538 179.777 88.4979 175.916 88.4979 175.916C88.4979 175.916 90.3048 170.662 91.7447 169.29C93.1846 167.917 95.2738 167.976 96.7913 167.779C98.3088 167.582 98.4006 167.024 98.8664 166.105C99.3323 165.185 100.384 163.169 99.8546 162.919C99.3252 162.67 96.5231 161.573 96.1631 161.074C95.8032 160.575 95.5279 159.478 94.3562 159.058C93.1846 158.638 90.3048 156.878 88.8579 156.878C87.4109 156.878 84.6229 159.229 83.9947 159.728C82.7695 160.8 81.6257 161.95 80.5715 163.169C79.5763 164.345 78.8563 167.53 75.1578 167.615C71.4593 167.7 39.6478 168.37 38.1162 167.53C36.5845 166.689 34.587 167.615 33.9659 160.818C33.3448 154.021 32.9778 149.582 33.7895 148.492C34.6012 147.402 33.7895 147.178 35.3211 146.902C36.8527 146.627 38.7444 146.311 39.2878 145.307C39.8313 144.302 39.4643 142.811 38.0244 142.811C36.5845 142.811 29.9145 142.811 28.8487 151.007C27.7829 159.203 30.6485 164.345 31.2767 167.53C31.9049 170.715 32.8013 170.701 32.4837 172.015Z" fill="#263238"/>
<path d="M84.9478 160.634C85.3953 158.44 86.1722 156.316 87.2558 154.323C87.3829 154.093 87.5452 153.844 87.8205 153.804C88.2299 153.758 88.4698 154.212 88.5687 154.586C88.835 155.563 89.0005 156.561 89.0627 157.567" fill="#263238"/>
<path d="M90.6649 157.633C90.9143 156.753 91.4142 155.952 92.1119 155.315C92.3025 155.144 92.5636 154.967 92.8177 155.065C93.0718 155.164 93.1142 155.433 93.1424 155.669C93.2465 156.763 93.2276 157.863 93.0859 158.953" fill="#263238"/>
<path d="M99.3536 164.85C98.8681 164.634 98.4896 164.253 98.2948 163.786C98.1851 163.311 98.276 162.815 98.5489 162.401C98.5489 162.401 99.8124 162.755 99.9041 163.097C99.9959 163.438 99.3536 164.85 99.3536 164.85Z" fill="#E1E5EE"/>
<path d="M88.5756 157.344C88.6187 157.003 88.5948 156.659 88.505 156.326C88.4415 155.958 88.378 155.597 88.3215 155.229C88.3073 155.109 88.2715 154.991 88.2156 154.881C88.1946 154.838 88.1644 154.798 88.1268 154.766C88.0892 154.733 88.0451 154.708 87.9968 154.691C87.9381 154.673 87.8752 154.669 87.8145 154.681C87.7537 154.692 87.6974 154.718 87.651 154.757C87.5507 154.865 87.4783 154.993 87.4392 155.131L87.3122 155.472C87.0357 156.259 86.8696 157.076 86.8181 157.902C86.7794 158.161 86.8109 158.426 86.9099 158.67C87.0016 158.848 87.1146 158.9 87.1287 158.881C87.1428 158.861 87.0863 158.789 87.044 158.631C87.0125 158.397 87.0245 158.159 87.0793 157.928C87.2023 157.131 87.3983 156.344 87.6651 155.577L87.7851 155.242C87.8107 155.159 87.8487 155.08 87.898 155.006C87.9448 155.097 87.9757 155.195 87.9898 155.295L88.2439 156.365C88.2987 156.706 88.4106 157.036 88.5756 157.344V157.344Z" fill="#E1E5EE"/>
<path d="M94.5894 159.176C93.9801 158.731 93.3018 158.375 92.5777 158.119C91.9022 157.753 91.1684 157.489 90.4038 157.338C91.0108 157.794 91.6891 158.162 92.4154 158.428C93.0931 158.782 93.8268 159.035 94.5894 159.176V159.176Z" fill="#E1E5EE"/>
<path d="M85.5547 179.311C85.4417 179.311 85.4347 180.296 85.0182 181.419C84.6018 182.542 83.9807 183.33 84.0654 183.389C84.7065 182.917 85.1628 182.261 85.3641 181.524C85.681 180.824 85.7479 180.049 85.5547 179.311V179.311Z" fill="#E1E5EE"/>
<path d="M91.5894 161.212C91.588 161.328 91.6236 161.442 91.6918 161.539C91.7599 161.636 91.8576 161.711 91.9722 161.757C92.0869 161.802 92.2134 161.814 92.3357 161.793C92.4581 161.771 92.5706 161.716 92.6592 161.634C92.7478 161.553 92.8083 161.449 92.8331 161.335C92.8579 161.222 92.8459 161.104 92.7986 160.997C92.7512 160.889 92.6707 160.798 92.5673 160.733C92.4638 160.669 92.3421 160.634 92.2176 160.634C92.0522 160.634 91.8934 160.695 91.7758 160.803C91.6582 160.911 91.5912 161.058 91.5894 161.212V161.212Z" fill="#E1E5EE"/>
<path d="M90.813 161.403C90.8907 161.481 91.4271 160.923 92.3023 160.956C92.6499 160.996 92.9667 161.161 93.1846 161.416C93.3964 161.606 93.5304 161.737 93.5728 161.711C93.6151 161.685 93.5728 161.514 93.3893 161.265C93.2873 161.112 93.1584 160.977 93.0082 160.864C92.8132 160.704 92.5623 160.615 92.3023 160.614C91.8641 160.598 91.4355 160.736 91.1024 161.002C90.8836 161.173 90.7778 161.337 90.813 161.403Z" fill="#E1E5EE"/>
</g>
<defs>
<clipPath id="clip0">
<rect width="100" height="255" fill="white"/>
</clipPath>
</defs>
</svg>
