<svg width="90" height="88" viewBox="0 0 90 88" fill="none" xmlns="http://www.w3.org/2000/svg">
<path d="M71.9479 0.0161605C69.1094 -0.151007 66.5338 0.990515 64.7667 2.8937C63.3316 4.43916 64.4289 6.95353 66.5379 6.95353C67.2016 6.95353 67.8425 6.68635 68.2915 6.19767C69.1048 5.31244 70.2908 4.77543 71.6013 4.83643C73.6612 4.93223 75.3835 6.54748 75.5985 8.59832C75.8351 10.8557 74.2911 12.7997 72.1989 13.2004V18.0715C77.0132 17.6502 80.748 13.4636 80.4358 8.47246C80.1527 3.94293 76.4783 0.283172 71.9479 0.0161605Z" fill="#E1E5EE"/>
<path d="M84.5853 82.0586L56.752 79.8626L50.9554 64.8257L35.1132 48.1237L36.8768 17.6509H84.5853V82.0586Z" fill="#9595BC"/>
<path d="M53.9909 65.0975C53.4793 61.7039 49.7377 60.2059 48.04 59.6958C47.5146 59.5379 47.0651 59.1971 46.758 58.7423C45.9273 57.5119 44.7958 56.479 43.4306 55.7572C43.3303 55.7041 43.2448 55.541 43.2222 55.3554L43.2102 55.2626C42.7971 52.1477 40.8505 49.5497 38.1519 48.2304C37.3664 47.8464 36.8765 47.0397 36.8765 46.1654V17.6509H32.7695V82.0588H57.1623L53.9909 65.0975Z" fill="#9595BC"/>
<path d="M86.3491 19.8467H34.3005C32.2843 19.8467 30.8453 18.2122 30.8453 16.196C30.8453 14.1798 32.2843 12.5454 34.3005 12.5454H86.3491C88.3653 12.5454 89.9997 14.1798 89.9997 16.196C89.9999 18.2122 88.3653 19.8467 86.3491 19.8467Z" fill="#E1E5EE"/>
<path d="M31.4623 16.196C31.4623 14.1798 33.0967 12.5454 35.1129 12.5454H31.006C28.9898 12.5454 27.3553 14.1798 27.3553 16.196C27.3553 18.2122 28.9898 19.8467 31.006 19.8467H35.1129C33.0967 19.8467 31.4623 18.2122 31.4623 16.196Z" fill="#E1E5EE"/>
<path d="M86.3491 79.8625H56.752L55.9548 82.7294L56.5643 87.164H86.3493C88.3655 87.164 90.0001 85.5296 90.0001 83.5133C89.9999 81.497 88.3653 79.8625 86.3491 79.8625Z" fill="#E1E5EE"/>
<path d="M27.3553 83.5131C27.3553 85.5293 28.9898 87.1637 31.006 87.1637H56.5642C57.3047 85.7912 57.5631 84.2006 57.2706 82.6361L56.7519 79.8623H31.006C28.9898 79.8625 27.3553 81.4969 27.3553 83.5131Z" fill="#E1E5EE"/>
<path d="M65.5719 56.5288L62.3999 51.4834C60.676 48.7412 56.6793 48.7412 54.9554 51.4834L51.7834 56.5288C50.7769 58.1297 51.9276 60.2123 53.8186 60.2123H63.5369C65.4277 60.2123 66.5782 58.1299 65.5719 56.5288Z" fill="white"/>
<path d="M53.3854 44.9295C51.8853 44.9295 50.6691 43.7135 50.6691 42.2132C50.6691 40.7131 51.8851 39.4968 53.3854 39.4968C54.8855 39.4968 56.1018 40.7129 56.1018 42.2132C56.1016 43.7133 54.8855 44.9295 53.3854 44.9295Z" fill="white"/>
<path d="M46.3239 52.4422C44.8238 52.4422 43.6075 51.2262 43.6075 49.7259C43.6075 48.2258 44.8236 47.0095 46.3239 47.0095C47.824 47.0095 49.0402 48.2256 49.0402 49.7259C49.0402 51.2262 47.8242 52.4422 46.3239 52.4422Z" fill="white"/>
<path d="M63.9699 44.9295C65.47 44.9295 66.6862 43.7135 66.6862 42.2132C66.6862 40.7131 65.4702 39.4968 63.9699 39.4968C62.4698 39.4968 61.2535 40.7129 61.2535 42.2132C61.2535 43.7133 62.4698 44.9295 63.9699 44.9295Z" fill="white"/>
<path d="M71.0312 52.4422C72.5313 52.4422 73.7475 51.2262 73.7475 49.7259C73.7475 48.2258 72.5315 47.0095 71.0312 47.0095C69.531 47.0095 68.3148 48.2256 68.3148 49.7259C68.3148 51.2262 69.531 52.4422 71.0312 52.4422Z" fill="white"/>
<path d="M44.647 63.8344C44.627 61.7187 43.4288 59.8851 41.6765 58.9584C40.4898 58.3311 39.729 57.131 39.5664 55.7986C39.5639 55.7785 39.5613 55.7585 39.5587 55.7385C39.2259 53.2302 37.1928 51.2379 34.6786 50.9523C34.615 50.9451 34.5517 50.9389 34.4884 50.9338C33.3545 50.843 32.3917 50.1071 31.9146 49.0744C31.3073 47.7601 30.2034 46.7223 28.8434 46.2022C28.2252 45.9657 27.4071 47.0152 26.7057 47.0152C24.4614 47.0152 24.1341 47.9609 23.2506 49.8727C22.7735 50.9052 20.549 51.2921 19.4152 51.383C19.3518 51.3881 19.1965 51.5605 19.1327 51.5677C16.6187 51.8534 16.0699 53.2587 15.7373 55.7671C15.7363 55.7743 15.7365 55.7729 15.7368 55.7701C15.5723 57.1032 14.0709 59.5243 12.8851 60.1511C11.1305 61.0789 11.986 61.7238 11.9832 63.8344H44.647Z" fill="#3E3E70"/>
<path d="M13.0341 63.8639C13.0431 61.7356 14.2451 59.8895 16.0059 58.9586C17.1926 58.3312 17.9533 57.131 18.1159 55.7984C18.1184 55.7785 18.1209 55.7587 18.1235 55.7388C18.4561 53.2306 20.489 51.2381 23.0032 50.9525C23.067 50.9453 23.1306 50.9391 23.1939 50.934C24.3277 50.8431 25.2903 50.1073 25.7675 49.0746C26.3752 47.7596 27.4802 46.7214 28.841 46.2015C28.2235 45.9656 27.5533 45.8362 26.8528 45.8362C24.6084 45.8362 22.6743 47.1628 21.7908 49.0746C21.3138 50.1071 20.3512 50.8431 19.2172 50.934C19.1538 50.9391 19.0903 50.9453 19.0265 50.9525C16.5125 51.2381 14.4794 53.2306 14.1468 55.7388C14.1442 55.7587 14.1417 55.7785 14.1392 55.7984C13.9765 57.131 13.2159 58.331 12.0292 58.9586C10.2684 59.8895 9.06639 61.7356 9.05742 63.8639C9.04441 66.9433 11.6581 69.4622 14.7374 69.4622H18.7141C15.6348 69.462 13.0209 66.9433 13.0341 63.8639Z" fill="#3E3E70"/>
<path d="M6.50724 65.7903L3.00867 83.302C2.63338 85.3092 4.76947 87.1639 6.81152 87.1639H50.4423C52.4843 87.1639 54.0244 85.3092 53.6489 83.302L50.3692 65.7629C50.0805 64.2192 48.733 63.1003 47.1626 63.1003H10.0058C8.43538 63.1003 6.79587 64.2466 6.50724 65.7903Z" fill="#E1E5EE"/>
<path d="M4.03325 83.3018L7.31298 65.7629C7.60161 64.2192 8.94915 63.1003 10.5196 63.1003H6.54288C4.97245 63.1003 3.62491 64.2194 3.33628 65.7629L0.056559 83.3018C-0.318733 85.309 1.22128 87.1637 3.26316 87.1637H7.23985C5.1978 87.1637 3.65778 85.3089 4.03325 83.3018Z" fill="#E1E5EE"/>
<path d="M38.1818 74.2955C38.5023 73.7414 38.6675 73.0868 38.6162 72.3893C38.4973 70.769 37.1822 69.4478 35.5623 69.3233C34.0313 69.2057 32.699 70.1258 32.1926 71.4538C31.9942 71.9743 31.512 72.3313 30.9549 72.3313H22.7502C22.1931 72.3313 21.711 71.9743 21.5125 71.4538C21.0061 70.1258 19.6738 69.2057 18.1428 69.3233C16.523 69.4478 15.2079 70.769 15.0889 72.3893C15.0378 73.0868 15.2028 73.7414 15.5233 74.2955C15.8212 74.8107 15.8212 75.453 15.5233 75.9682C15.2028 76.5223 15.0376 77.1769 15.0889 77.8744C15.2078 79.4947 16.523 80.8159 18.1428 80.9402C19.6738 81.0578 21.0061 80.1377 21.5125 78.8097C21.711 78.2892 22.1931 77.9322 22.7502 77.9322H30.9549C31.512 77.9322 31.9942 78.2892 32.1926 78.8097C32.699 80.1377 34.0313 81.0576 35.5623 80.9402C37.1822 80.8157 38.4973 79.4946 38.6162 77.8744C38.6673 77.1769 38.5023 76.5223 38.1818 75.9682C37.8837 75.453 37.8837 74.8107 38.1818 74.2955Z" fill="white"/>
</svg>
