<svg width="67" height="67" viewBox="0 0 67 67" fill="none" xmlns="http://www.w3.org/2000/svg">
<path d="M24.2313 56.6168C23.1948 56.6168 22.1212 56.4181 21.0149 56.0204C16.4192 54.3686 14.0154 53.7816 11.8342 55.5285C10.9629 56.2268 9.69064 56.0859 8.99263 55.2146C8.29463 54.3431 8.4353 53.071 9.30669 52.373C13.4926 49.0199 18.0122 50.6447 22.3827 52.2158C25.6738 53.3989 27.354 51.5028 30.0415 48.0499C30.4029 47.5855 30.7767 47.1053 31.1585 46.638C31.8648 45.7732 33.1384 45.645 34.003 46.3514C34.8676 47.0578 34.996 48.3314 34.2896 49.196C33.938 49.6264 33.5951 50.067 33.2321 50.5334C31.8734 52.2789 30.4685 54.084 28.6214 55.2827C27.2516 56.1715 25.7831 56.6168 24.2313 56.6168Z" fill="white"/>
<path d="M10.8202 51.3774C10.3115 51.6445 9.80635 51.9722 9.30621 52.3729C8.43481 53.0708 8.29414 54.343 8.99214 55.2145C9.69015 56.0859 10.9624 56.2267 11.8338 55.5284C12.1883 55.2445 12.549 55.0232 12.9237 54.8571C12.7752 53.2803 11.7821 52.038 10.8202 51.3774Z" fill="#3E3E70"/>
<path d="M33.1729 67.0001C32.815 67.0001 32.4513 66.9403 32.0947 66.8142C30.4106 66.2187 29.5279 64.3708 30.1233 62.6865C31.2219 59.5792 32.2276 56.1682 31.358 54.4292C30.5591 52.8314 31.2067 50.8884 32.8045 50.0897C34.4026 49.2909 36.3453 49.9385 37.1441 51.5362C38.983 55.2144 38.1056 59.5157 36.2224 64.8426C35.753 66.1703 34.505 67.0001 33.1729 67.0001Z" fill="white"/>
<path d="M21.9168 48.0259C18.1891 48.0259 14.4418 46.6143 12.0875 44.2598C10.8243 42.9966 10.8243 40.9486 12.0875 39.6855C13.3507 38.4223 15.3988 38.4221 16.6618 39.6856C17.9513 40.9749 20.4148 41.7312 22.6497 41.5234C23.9621 41.4018 25.0013 40.9558 25.4292 40.331C26.4386 38.8571 28.4518 38.4805 29.9255 39.4897C31.3994 40.499 31.776 42.5122 30.7667 43.986C29.2194 46.2458 26.5488 47.6589 23.2471 47.9649C22.8057 48.0056 22.3612 48.0259 21.9168 48.0259Z" fill="white"/>
<path d="M50.7317 64.344C50.3738 64.344 50.0101 64.2842 49.6534 64.158C47.9692 63.5625 47.0866 61.7145 47.682 60.0302C48.0565 58.9713 47.9878 58.1078 47.4659 57.3127C46.9413 56.5132 46.1823 56.0936 46.0226 56.0326C44.3371 55.441 43.4529 53.596 44.0446 51.9103C44.6361 50.2248 46.4849 49.3391 48.1704 49.9305C49.8136 50.5071 52.1951 52.1465 53.499 54.8687C54.5791 57.1236 54.6766 59.654 53.7812 62.1866C53.312 63.5145 52.0639 64.344 50.7317 64.344Z" fill="white"/>
<path opacity="0.2" d="M53.2594 54.4044C51.919 51.9598 49.7177 50.4736 48.1703 49.9306C46.4848 49.3391 44.6361 50.2247 44.0446 51.9103C43.453 53.5959 44.337 55.4409 46.0225 56.0327C46.1823 56.0936 46.9413 56.5133 47.4659 57.3127C47.7092 57.6833 47.8526 58.0692 47.8999 58.4823C49.9612 57.4649 51.7822 56.0737 53.2594 54.4044Z" fill="#3E3E70"/>
<path opacity="0.2" d="M32.8048 50.0897C31.207 50.8884 30.5594 52.8314 31.3583 54.4292C31.8248 55.3621 31.7513 56.7762 31.4137 58.3663C33.3001 59.3317 35.3952 59.9807 37.6173 60.238C38.3878 56.947 38.4218 54.0911 37.1444 51.5362C36.3456 49.9385 34.4027 49.2909 32.8048 50.0897Z" fill="#3E3E70"/>
<path opacity="0.2" d="M34.0024 46.3513C33.1379 45.645 31.8642 45.7733 31.158 46.6379C30.7761 47.1052 30.4024 47.5853 30.0409 48.0498C28.1118 50.5282 26.7017 52.2044 24.8423 52.5157C25.638 53.7266 26.595 54.8346 27.6861 55.8115C28.0024 55.657 28.3142 55.4815 28.6209 55.2826C30.4678 54.0839 31.8727 52.2788 33.2316 50.5333C33.5944 50.0669 33.9374 49.6263 34.289 49.1959C34.9954 48.3313 34.867 47.0577 34.0024 46.3513Z" fill="#3E3E70"/>
<path opacity="0.2" d="M29.9255 39.4896C28.4518 38.4804 26.4386 38.857 25.4292 40.3309C25.0013 40.9558 23.9623 41.4017 22.6497 41.5233C22.5723 41.5305 22.4939 41.5337 22.4159 41.5387C22.2993 42.3045 22.2378 43.0868 22.2378 43.8824C22.2378 45.3031 22.4302 46.6824 22.7916 47.9986C22.9438 47.9894 23.0957 47.9787 23.2472 47.9647C26.549 47.6586 29.2195 46.2456 30.7668 43.9858C31.776 42.512 31.3994 40.4989 29.9255 39.4896Z" fill="#3E3E70"/>
<path d="M39.7733 57.7455C48.013 57.7455 54.6926 51.5387 54.6926 43.8823C54.6926 36.2258 48.013 30.019 39.7733 30.019C31.5336 30.019 24.854 36.2258 24.854 43.8823C24.854 51.5387 31.5336 57.7455 39.7733 57.7455Z" fill="white"/>
<path opacity="0.15" d="M37.5952 57.5978C30.7778 53.1219 32.8905 43.9483 34.0479 39.9364V31.0781C28.6503 33.1647 24.855 38.1114 24.855 43.8825C24.855 50.8511 30.3886 56.618 37.5952 57.5978Z" fill="white"/>
<path d="M30.6948 19.8444C33.6141 17.3949 35.5632 13.2827 31.4456 7.20392C27.2954 1.07708 21.1163 -0.458684 16.2925 0.109638C15.1032 0.249789 14.1053 1.08703 13.7609 2.23401C12.3635 6.88593 12.803 13.2377 18.1161 18.3887C23.3874 23.4993 27.7755 22.294 30.6948 19.8444Z" fill="white"/>
<path d="M13.5665 2.9458C12.4209 7.51973 13.0687 13.4954 18.1158 18.3888C22.6849 22.8185 26.5896 22.502 29.4501 20.7443C27.4827 7.38874 18.8887 3.84716 13.5665 2.9458Z" fill="white"/>
<path d="M48.8528 19.8444C45.9336 17.3949 43.9845 13.2827 48.1021 7.20392C52.2523 1.07708 58.4312 -0.458684 63.2551 0.109638C64.4443 0.249789 65.4423 1.08703 65.7867 2.23401C67.184 6.88593 66.7446 13.2377 61.4314 18.3887C56.1603 23.4993 51.7722 22.294 48.8528 19.8444Z" fill="white"/>
<path d="M65.9809 2.9458C67.1264 7.51973 66.4787 13.4954 61.4316 18.3888C56.8625 22.8185 52.9578 22.502 50.0972 20.7443C52.0645 7.38874 60.6587 3.84716 65.9809 2.9458Z" fill="white"/>
<path d="M65.1724 23.5416C65.1724 35.1547 53.8009 40.2411 39.7734 40.2411C25.7459 40.2411 14.3745 35.1547 14.3745 23.5416C14.3745 11.9284 25.7461 2.51416 39.7735 2.51416C53.801 2.51416 65.1724 11.9284 65.1724 23.5416Z" fill="white"/>
<path opacity="0.15" d="M26.2117 5.76074C19.0984 9.4871 14.3745 16.0573 14.3745 23.5417C14.3745 33.5247 22.7778 38.6846 34.0477 39.9365C17.87 30.2731 19.9799 17.2751 26.2117 5.76074Z" fill="white"/>
<path d="M39.7734 21.6249C38.7743 21.6249 37.8766 21.1952 37.2512 20.5121C37.1581 20.7838 37.1049 21.0741 37.1049 21.3775C37.1049 22.3284 36.5074 22.5379 36.311 22.6069C34.9202 23.0946 34.1884 24.6174 34.6759 26.0082C35.0612 27.1068 36.0922 27.7943 37.1939 27.7943C37.4869 27.7943 37.785 27.7456 38.0771 27.6431C41.2953 26.5145 42.4419 23.6665 42.4419 21.3775C42.4419 21.0741 42.3889 20.7838 42.2956 20.512C41.6704 21.1952 40.7727 21.6249 39.7734 21.6249Z" fill="#BDBDE7"/>
<path opacity="0.1" d="M37.1946 26.1069C36.7893 26.1069 36.4101 25.8539 36.2685 25.4498C36.0891 24.9384 36.3582 24.3784 36.8699 24.1989C38.436 23.6497 38.7432 22.3146 38.7869 21.5676C38.8185 21.0265 39.2809 20.6142 39.8241 20.6452C40.3652 20.6769 40.7782 21.1412 40.7465 21.6824C40.6253 23.7518 39.4189 25.3852 37.5194 26.0513C37.4119 26.0889 37.3023 26.1069 37.1946 26.1069Z" fill="#3E3E70"/>
<path d="M27.3103 27.6931C29.8499 27.6931 31.9087 26.0535 31.9087 24.0309C31.9087 22.0083 29.8499 20.3687 27.3103 20.3687C24.7707 20.3687 22.7119 22.0083 22.7119 24.0309C22.7119 26.0535 24.7707 27.6931 27.3103 27.6931Z" fill="#BDBDE7"/>
<path d="M52.2376 27.6931C54.7772 27.6931 56.836 26.0535 56.836 24.0309C56.836 22.0083 54.7772 20.3687 52.2376 20.3687C49.6979 20.3687 47.6392 22.0083 47.6392 24.0309C47.6392 26.0535 49.6979 27.6931 52.2376 27.6931Z" fill="#BDBDE7"/>
<path d="M39.7737 22.6065C38.5013 22.6065 37.2915 22.0554 36.4544 21.0948C36.0982 20.6861 36.141 20.0662 36.5496 19.71C36.9581 19.354 37.578 19.3965 37.9343 19.8052C38.3986 20.338 39.0691 20.6436 39.7738 20.6436C40.4785 20.6436 41.149 20.338 41.6133 19.8052C41.9696 19.3965 42.5891 19.354 42.9981 19.71C43.4066 20.0662 43.4493 20.6861 43.0932 21.0948C42.2558 22.0554 41.046 22.6065 39.7737 22.6065Z" fill="#3E3E70"/>
<path d="M32.1226 21.0327C31.5805 21.0327 31.1411 20.5934 31.1411 20.0512C31.1411 19.5025 30.6948 19.0562 30.1461 19.0562C29.5974 19.0562 29.1509 19.5025 29.1509 20.0512C29.1509 20.5934 28.7115 21.0327 28.1694 21.0327C27.6274 21.0327 27.188 20.5934 27.188 20.0512C27.188 18.4202 28.515 17.0933 30.1461 17.0933C31.7771 17.0933 33.104 18.4203 33.104 20.0512C33.104 20.5932 32.6646 21.0327 32.1226 21.0327Z" fill="#3E3E70"/>
<path d="M51.3778 21.0327C50.8358 21.0327 50.3964 20.5934 50.3964 20.0512C50.3964 19.5025 49.95 19.0562 49.4013 19.0562C48.8526 19.0562 48.4063 19.5025 48.4063 20.0512C48.4063 20.5934 47.9668 21.0327 47.4248 21.0327C46.8827 21.0327 46.4434 20.5934 46.4434 20.0512C46.4434 18.4202 47.7704 17.0933 49.4013 17.0933C51.0323 17.0933 52.3592 18.4203 52.3592 20.0512C52.3592 20.5932 51.92 21.0327 51.3778 21.0327Z" fill="#3E3E70"/>
<path d="M20.8256 24.5861C20.3859 24.5861 19.9858 24.2884 19.8743 23.8423C19.7428 23.3165 20.0625 22.7837 20.5884 22.6522C21.8512 22.3367 24.8607 22.1117 26.3263 22.3053C26.8637 22.3763 27.2418 22.8694 27.1709 23.4068C27.0998 23.9443 26.6071 24.3231 26.0693 24.2513C24.8739 24.0933 22.1094 24.2954 21.0644 24.5566C20.9845 24.5766 20.9044 24.5861 20.8256 24.5861Z" fill="#3E3E70"/>
<path d="M22.2903 30.0348C21.9894 30.0348 21.6924 29.8969 21.5001 29.6363C21.178 29.2002 21.2707 28.5857 21.7067 28.2638C22.7538 27.4908 25.4505 26.1362 26.8797 25.7567C27.4037 25.6178 27.941 25.9294 28.0802 26.4534C28.2193 26.9773 27.9073 27.5146 27.3835 27.6539C26.2182 27.9632 23.7391 29.2035 22.8727 29.843C22.697 29.9724 22.4928 30.0348 22.2903 30.0348Z" fill="#3E3E70"/>
<path d="M58.7218 24.586C58.6429 24.586 58.563 24.5765 58.483 24.5564C57.4384 24.2952 54.6732 24.0933 53.4783 24.2511C52.9407 24.3219 52.4478 23.944 52.3767 23.4067C52.3058 22.8694 52.6838 22.3762 53.2212 22.3051C54.6873 22.1113 57.6965 22.3365 58.9592 22.652C59.485 22.7836 59.8047 23.3164 59.6733 23.8423C59.5617 24.2883 59.1616 24.586 58.7218 24.586Z" fill="#3E3E70"/>
<path d="M57.2569 30.035C57.0544 30.035 56.8502 29.9726 56.6749 29.8432C55.8085 29.2036 53.3293 27.9634 52.1639 27.6541C51.6401 27.5148 51.3281 26.9775 51.4672 26.4536C51.6063 25.9296 52.1436 25.6181 52.6677 25.7569C54.0969 26.1364 56.7934 27.491 57.8406 28.264C58.2767 28.5859 58.3692 29.2004 58.0473 29.6365C57.8548 29.8971 57.5579 30.035 57.2569 30.035Z" fill="#3E3E70"/>
<path d="M66.7585 35.5844C65.9172 33.2732 63.0311 32.0339 59.4134 32.0936C59.0085 32.1003 58.6335 32.3233 58.4383 32.6783C58.0451 33.3936 57.4011 33.975 56.5739 34.2762C56.4272 34.3296 56.2792 34.3723 56.1306 34.405C55.904 34.4548 55.7254 34.6233 55.6463 34.8414C55.2014 36.0706 54.2363 37.1012 52.9118 37.5833C51.4032 38.1324 49.7939 37.8376 48.5991 36.9406C48.1483 36.6022 47.5143 36.6615 47.1092 37.0534C46.2064 37.9265 45.5034 38.8538 45.0421 39.7857C44.9675 39.9363 44.7921 40.0077 44.6328 39.9537C43.3889 39.5313 41.7665 39.2071 39.8546 39.2317C38.1338 39.2537 36.9478 40.9667 37.5364 42.584L39.8741 49.0067C40.4627 50.6238 42.4723 51.1737 43.8047 50.0844C45.285 48.8742 46.3196 47.5832 47.001 46.46C47.088 46.3165 47.2682 46.2581 47.4219 46.3254C50.027 47.4668 53.9951 47.4209 58.0171 45.957C64.1212 43.735 68.0348 39.0912 66.7585 35.5844Z" fill="#3E3E70"/>
<path opacity="0.1" d="M42.0352 42.6097C41.8499 42.1004 41.2867 41.8381 40.7773 42.0232L37.7358 43.1303L38.4071 44.9749C38.4071 44.9749 38.4071 44.9749 38.4073 44.9749L41.4487 43.8678C41.958 43.6824 42.2207 43.1192 42.0352 42.6097ZM43.3035 46.0947C43.1181 45.5852 42.5549 45.3229 42.0456 45.5082L39.0041 46.6152L39.6754 48.4598L42.7169 47.3527C43.2263 47.1672 43.4889 46.6041 43.3035 46.0947Z" fill="#3E3E70"/>
<path d="M62.1505 38.651C62.0117 38.651 61.8705 38.6213 61.7363 38.5588L59.5112 37.521C59.0199 37.292 58.8074 36.708 59.0366 36.2168C59.2657 35.7255 59.8499 35.513 60.3408 35.7421L62.566 36.7798C63.0572 37.0089 63.2697 37.5929 63.0406 38.0841C62.874 38.4412 62.52 38.651 62.1505 38.651Z" fill="white"/>
<path d="M60.5191 39.2446C60.3803 39.2446 60.2391 39.2149 60.1049 39.1524C59.6137 38.9234 59.4012 38.3393 59.6303 37.8481L60.668 35.623C60.8972 35.1317 61.4813 34.9193 61.9723 35.1483C62.4636 35.3773 62.6761 35.9614 62.4469 36.4526L61.4092 38.6777C61.2426 39.0349 60.8887 39.2446 60.5191 39.2446Z" fill="white"/>
<path d="M19.362 38.6739C18.0281 37.3055 16.6527 36.3876 15.4748 35.8067C15.3229 35.7319 15.2487 35.556 15.3029 35.3956C15.7674 34.0184 15.8894 32.3129 15.658 30.4573C15.598 29.9751 15.1563 29.6249 14.675 29.6927C12.7976 29.9572 10.8894 28.9862 10.0465 27.1785C9.17498 25.3096 9.7208 23.1439 11.2424 21.8913C11.618 21.5822 11.6567 21.0171 11.3441 20.6445C8.67248 17.4589 5.37587 15.9245 2.91689 17.0712C-0.465303 18.6483 -0.981543 24.6994 1.76376 30.5866C3.5721 34.4648 6.34462 37.3027 8.99309 38.3382C9.15064 38.3999 9.2374 38.5698 9.19723 38.7342C8.88513 40.01 8.70402 41.6535 8.89494 43.5549C9.06689 45.2674 10.8767 46.2994 12.4364 45.5721L18.6309 42.6835C20.1906 41.9561 20.5633 39.9063 19.362 38.6739Z" fill="#3E3E70"/>
<path opacity="0.1" d="M13.3746 41.5632C13.1455 41.072 12.5616 40.8592 12.0703 41.0886C11.5791 41.3176 11.3666 41.9016 11.5956 42.3929L12.9634 45.3262L14.7425 44.4966L13.3746 41.5632ZM18.1036 42.9294L16.7357 39.9959C16.5066 39.5047 15.9226 39.2919 15.4314 39.5213C14.9402 39.7503 14.7277 40.3343 14.9567 40.8256L16.3246 43.759L18.1036 42.9294Z" fill="#3E3E70"/>
<path d="M4.55586 24.7688C4.44437 24.7688 4.33104 24.7497 4.22021 24.7094C3.7109 24.524 3.44827 23.9608 3.63369 23.4515L4.47342 21.1444C4.65885 20.6351 5.22167 20.3727 5.73137 20.5579C6.24068 20.7433 6.50331 21.3066 6.31788 21.8159L5.47816 24.1229C5.33317 24.5214 4.95668 24.7688 4.55586 24.7688Z" fill="white"/>
<path d="M6.12909 24.0353C6.0176 24.0353 5.90427 24.0162 5.79343 23.9759L3.48638 23.1362C2.97708 22.9507 2.71444 22.3875 2.89974 21.8782C3.08517 21.3689 3.64852 21.1068 4.15769 21.2917L6.46474 22.1314C6.97418 22.3168 7.23668 22.8801 7.05139 23.3894C6.90639 23.7877 6.52991 24.0353 6.12909 24.0353Z" fill="white"/>
<path d="M57.2706 50.2746C55.7071 50.2746 54.3319 49.1383 54.0799 47.5452C53.9379 46.6477 53.6299 45.6775 53.1648 44.6612C52.4214 43.0369 53.1355 41.1174 54.7598 40.3739C56.3843 39.6307 58.3036 40.3448 59.0471 41.969C59.757 43.5201 60.2355 45.056 60.4695 46.5342C60.7488 48.2987 59.5448 49.9553 57.7803 50.2345C57.609 50.2616 57.4387 50.2746 57.2706 50.2746Z" fill="white"/>
</svg>
