<svg width="55" height="55" viewBox="0 0 55 55" fill="none" xmlns="http://www.w3.org/2000/svg">
<path d="M19.4247 16.6971C21.5698 15.4951 24.3986 14.7643 27.5 14.7643C30.6014 14.7643 33.4302 15.4951 35.5753 16.6971L35.5749 16.6975C37.7523 13.7377 40.62 12.2237 44.4167 12.6558C44.265 17.0471 43.4608 20.7665 41.7587 23.5602C41.6105 26.1891 42.4027 27.6323 43.8528 29.0346C43.1555 29.9019 42.2086 30.6011 40.9525 30.897C41.829 31.9521 42.515 32.4347 43.8528 32.7594C41.7365 39.5564 35.3237 44.5879 27.5 44.5879C19.6763 44.5879 13.2635 39.5564 11.1472 32.7594C12.4846 32.4347 13.1706 31.9521 14.0475 30.897C12.7914 30.6011 11.8445 29.9023 11.1472 29.0346C12.5974 27.6323 13.3895 26.1891 13.2414 23.5602C11.5392 20.7661 10.735 17.0471 10.5833 12.6558C14.38 12.2237 17.2477 13.7377 19.4251 16.6979L19.4247 16.6971Z" fill="white"/>
<path d="M17.427 18.1356C16.3322 16.7574 14.6721 15.903 13.1982 15.5724C13.2561 16.6792 13.8422 18.7971 14.6402 20.3262C14.8595 20.7462 15.4569 20.7536 15.6832 20.3375C16.1565 19.4683 16.6165 18.7069 17.427 18.1356Z" fill="white"/>
<path d="M37.6982 18.1356C38.793 16.7574 40.4531 15.903 41.927 15.5724C41.8691 16.6792 41.283 18.7971 40.485 20.3262C40.2657 20.7462 39.6684 20.7536 39.442 20.3375C38.9687 19.4683 38.5087 18.7069 37.6982 18.1356Z" fill="white"/>
<path d="M29.3422 26.6364C29.3422 27.6537 28.5173 28.4785 27.5 28.4785C26.4827 28.4785 25.6578 27.6537 25.6578 26.6364C25.6578 25.619 26.4827 25.572 27.5 25.572C28.5173 25.572 29.3422 25.619 29.3422 26.6364Z" fill="white"/>
<path d="M27.5 34.8392C27.1776 34.8392 26.9167 34.5778 26.9167 34.2558V28.4785C26.9167 28.1561 27.1776 27.8951 27.5 27.8951C27.8224 27.8951 28.0834 28.1561 28.0834 28.4785V34.2558C28.0834 34.5778 27.8224 34.8392 27.5 34.8392Z" fill="#B3BACC"/>
<path d="M27.5 29.0619C26.1626 29.0619 25.0745 27.9737 25.0745 26.6364C25.0745 24.989 26.6522 24.989 27.5 24.989C28.3478 24.989 29.9251 24.989 29.9251 26.6364C29.9251 27.9737 28.837 29.0619 27.5 29.0619ZM27.5 26.1553C26.2412 26.1553 26.2412 26.3058 26.2412 26.636C26.2412 27.3301 26.8059 27.8948 27.5 27.8948C28.1938 27.8948 28.7585 27.3301 28.7585 26.636C28.7585 26.3062 28.7585 26.1553 27.5 26.1553Z" fill="#B3BACC"/>
<path d="M20.8888 26.2859C19.5623 26.2859 18.4832 25.2068 18.4832 23.8803C18.4832 23.5579 18.7441 23.2969 19.0665 23.2969C19.3889 23.2969 19.6498 23.5579 19.6498 23.8803C19.6498 24.5636 20.2055 25.1193 20.8888 25.1193C21.5721 25.1193 22.1278 24.5636 22.1278 23.8803C22.1278 23.5579 22.3888 23.2969 22.7112 23.2969C23.0336 23.2969 23.2945 23.5579 23.2945 23.8803C23.2945 25.2072 22.2153 26.2859 20.8888 26.2859Z" fill="#B3BACC"/>
<path d="M34.1111 26.2859C32.7846 26.2859 31.7054 25.2068 31.7054 23.8803C31.7054 23.5579 31.9668 23.2969 32.2888 23.2969C32.6108 23.2969 32.8721 23.5579 32.8721 23.8803C32.8721 24.5636 33.4278 25.1193 34.1111 25.1193C34.7944 25.1193 35.3501 24.5636 35.3501 23.8803C35.3501 23.5579 35.6115 23.2969 35.9335 23.2969C36.2555 23.2969 36.5168 23.5579 36.5168 23.8803C36.5168 25.2072 35.4376 26.2859 34.1111 26.2859Z" fill="#B3BACC"/>
<path d="M27.5 45.172C19.665 45.172 12.8692 40.2537 10.5903 32.9333C10.5425 32.7793 10.5604 32.6124 10.6397 32.472C10.719 32.3316 10.8528 32.2305 11.0095 32.1924C11.8865 31.9797 12.4321 31.7156 13.0045 31.1708C12.1147 30.7986 11.3397 30.206 10.6922 29.3998C10.5036 29.1649 10.5246 28.8246 10.7416 28.615C12.0051 27.3935 12.77 26.144 12.6658 23.7352C11.0352 20.9924 10.1625 17.3722 10.0004 12.6764C9.98985 12.3723 10.215 12.1109 10.5176 12.0767C14.3341 11.6423 17.4888 13.0812 19.8953 16.3529C20.0862 16.6123 20.0306 16.9775 19.7708 17.1684C19.5118 17.359 19.1466 17.3038 18.9553 17.044C16.8996 14.2498 14.3567 12.9828 11.1888 13.1878C11.3934 17.4811 12.2295 20.7789 13.7395 23.2573C13.7893 23.339 13.8185 23.4323 13.8239 23.528C13.974 26.1961 13.2001 27.7249 11.9452 29.0576C12.574 29.7008 13.3238 30.1278 14.1809 30.3296C14.3777 30.3759 14.5364 30.5206 14.6005 30.7119C14.6647 30.9036 14.625 31.1148 14.4959 31.2704C13.6544 32.283 12.9446 32.81 11.8927 33.1553C14.1867 39.6704 20.3833 44.0053 27.5 44.0053C27.8224 44.0053 28.0833 44.2667 28.0833 44.5887C28.0833 44.9107 27.8224 45.172 27.5 45.172Z" fill="#B3BACC"/>
<path d="M38.7879 20.1629C38.5947 20.1629 38.4057 20.0669 38.2944 19.8915C36.5763 17.1739 32.2386 15.3477 27.5 15.3477C22.7614 15.3477 18.4237 17.1735 16.7056 19.8915C16.5337 20.1637 16.1736 20.245 15.9006 20.0727C15.6284 19.9004 15.5471 19.5399 15.7194 19.2677C17.6728 16.178 22.2971 14.181 27.5 14.181C32.703 14.181 37.3273 16.1776 39.2807 19.2677C39.4529 19.5399 39.3717 19.9004 39.0994 20.0727C39.0026 20.1342 38.8949 20.1629 38.7879 20.1629Z" fill="#B3BACC"/>
<path d="M13.8542 19.3505C13.6159 19.3505 13.3919 19.2031 13.3059 18.9655C13.0088 18.1453 12.6946 17.1047 12.6156 15.6028C12.6063 15.4204 12.6825 15.2442 12.8217 15.1264C12.9614 15.0086 13.1472 14.9627 13.3257 15.0031C15.1224 15.4064 16.8261 16.4416 17.8835 17.7728C18.0838 18.0252 18.0418 18.3919 17.7894 18.5926C17.537 18.7925 17.1703 18.7504 16.9696 18.4984C16.2265 17.5628 15.0983 16.7974 13.8542 16.3654C13.9736 17.289 14.1926 17.9894 14.4022 18.5684C14.5119 18.8714 14.3551 19.2058 14.0526 19.3155C13.9872 19.3392 13.9204 19.3505 13.8542 19.3505Z" fill="#B3BACC"/>
<path d="M27.5 45.1712C27.1776 45.1712 26.9167 44.9099 26.9167 44.5879C26.9167 44.2659 27.1776 44.0046 27.5 44.0046C34.6167 44.0046 40.8129 39.6696 43.1073 33.1545C42.0554 32.8092 41.3457 32.2822 40.5041 31.2696C40.375 31.1144 40.3353 30.9032 40.3991 30.7111C40.4633 30.5198 40.6219 30.3751 40.8187 30.3289C41.6758 30.1266 42.4264 29.7 43.0548 29.0568C41.7995 27.7241 41.026 26.1957 41.1761 23.5272C41.1819 23.4315 41.2107 23.3386 41.2605 23.2565C42.7706 20.7777 43.6067 17.4796 43.8112 13.187C40.6418 12.9832 38.1 14.249 36.0451 17.0432C35.8541 17.3026 35.489 17.3586 35.2296 17.1677C34.9702 16.9767 34.9142 16.6115 35.1055 16.3522C37.5112 13.0804 40.6643 11.6404 44.4828 12.0759C44.785 12.1102 45.0102 12.3715 44.9997 12.6756C44.8375 17.3711 43.9656 20.9908 42.3342 23.7352C42.23 26.1436 42.9949 27.3931 44.2584 28.615C44.4751 28.8246 44.4964 29.1645 44.3074 29.3998C43.6603 30.2056 42.8853 30.7986 41.9955 31.1708C42.5683 31.716 43.1139 31.9797 43.9905 32.1924C44.1472 32.2305 44.281 32.3316 44.3603 32.472C44.4401 32.612 44.4579 32.7789 44.4101 32.9332C42.1308 40.2529 35.335 45.1712 27.5 45.1712Z" fill="#B3BACC"/>
<path d="M41.1458 19.3504C41.0797 19.3504 41.0124 19.3392 40.9471 19.3154C40.6441 19.2058 40.4874 18.8709 40.5975 18.5684C40.8071 17.9901 41.0264 17.2901 41.1454 16.3657C39.9013 16.7978 38.7728 17.5631 38.03 18.4984C37.8297 18.7512 37.4622 18.7928 37.2106 18.5925C36.9582 18.3922 36.9162 18.0251 37.1165 17.7731C38.1735 16.4419 39.8776 15.4067 41.6747 15.0034C41.852 14.9634 42.0395 15.0089 42.1787 15.1267C42.3179 15.2445 42.3945 15.4207 42.3848 15.6031C42.3059 17.1062 41.9912 18.1464 41.6945 18.9658C41.6082 19.2031 41.3842 19.3504 41.1458 19.3504Z" fill="#B3BACC"/>
<path d="M24.2473 35.8169C23.0433 35.8169 21.8183 35.4661 20.5808 34.7633C20.3008 34.6043 20.2024 34.2481 20.3615 33.9681C20.521 33.6877 20.8768 33.5893 21.1568 33.7487C23.2696 34.9481 25.2452 34.9508 27.1951 33.7585C29.5066 32.3441 31.9368 32.3406 34.4183 33.7487C34.6987 33.9078 34.7971 34.2636 34.6376 34.544C34.4782 34.8244 34.1224 34.9228 33.8424 34.7633C31.7288 33.5644 29.754 33.5605 27.8037 34.7536C26.6456 35.4626 25.4567 35.8169 24.2473 35.8169Z" fill="#B3BACC"/>
</svg>
